<?xml version="1.0" encoding="utf-8"?>
<!-- Generator: Adobe Illustrator 26.5.0, SVG Export Plug-In . SVG Version: 6.00 Build 0)  -->
<svg version="1.1" xmlns="http://www.w3.org/2000/svg" xmlns:xlink="http://www.w3.org/1999/xlink" x="0px" y="0px"
	 viewBox="0 0 3000 3000" style="enable-background:new 0 0 3000 3000;" xml:space="preserve">
<style type="text/css">
	.st0{fill:#009F99;}
	.st1{fill:#8CD0C8;}
	.st2{fill:#082E48;}
	.st3{fill:#ED4F31;}
	.st4{fill:#EDC092;}
	.st5{fill:#F27E0C;}
	.st6{fill:#F7AC1A;}
	.st7{fill:#C7680A;}
	.st8{fill:#FFFFFF;}
</style>
<g id="Layer_1">
</g>
<g id="Layer_11">
	<g>
		<rect x="113" y="341" class="st0" width="2566" height="1933"/>
	</g>
	<g>
		<rect x="182" y="631" class="st1" width="845" height="1096"/>
	</g>
	<g>
		<rect x="1092" y="627" class="st1" width="845" height="1096"/>
	</g>
	<g>
		<path class="st1" d="M2597,540H172c-5,0-9-4-9-9s4-9,9-9h2425c5,0,9,4,9,9S2602,540,2597,540z"/>
	</g>
	<g>
		<rect x="341" y="1495" class="st0" width="513" height="170"/>
	</g>
	<g>
		<rect x="1304" y="1495" class="st0" width="513" height="170"/>
	</g>
	<g>
		<path class="st2" d="M364,1610.2v-68.7h22.3c8.4,0,13.9,0.3,16.5,1c3.9,1,7.2,3.3,9.9,6.7c2.7,3.5,4,7.9,4,13.4
			c0,4.2-0.8,7.8-2.3,10.6c-1.5,2.9-3.5,5.1-5.8,6.8c-2.4,1.6-4.8,2.7-7.2,3.3c-3.3,0.7-8.1,1-14.4,1h-9v25.9H364z M377.9,1553.1
			v19.5h7.6c5.5,0,9.1-0.4,11-1.1c1.8-0.7,3.3-1.8,4.3-3.4c1-1.5,1.6-3.3,1.6-5.3c0-2.5-0.7-4.6-2.2-6.2c-1.5-1.6-3.3-2.6-5.6-3
			c-1.7-0.3-5-0.5-10-0.5H377.9z"/>
		<path class="st2" d="M482.9,1610.2h-15.1l-6-15.6h-27.5l-5.7,15.6h-14.7l26.8-68.7h14.7L482.9,1610.2z M457.3,1583.1l-9.5-25.5
			l-9.3,25.5H457.3z"/>
		<path class="st2" d="M499.4,1610.2v-28.9l-25.2-39.8h16.3l16.2,27.2l15.8-27.2h16l-25.3,39.9v28.8H499.4z"/>
		<path class="st2" d="M545.2,1610.2v-68.7H566l12.5,46.9l12.3-46.9h20.8v68.7h-12.9v-54.1l-13.6,54.1h-13.4l-13.6-54.1v54.1H545.2z
			"/>
		<path class="st2" d="M625.4,1610.2v-68.7h51v11.6h-37.1v15.2h34.5v11.6h-34.5v18.7h38.4v11.6H625.4z"/>
		<path class="st2" d="M689.6,1610.2v-68.7h13.5l28.1,45.9v-45.9h12.9v68.7h-13.9l-27.7-44.8v44.8H689.6z"/>
		<path class="st2" d="M774.2,1610.2v-57.1h-20.4v-11.6h54.6v11.6h-20.3v57.1H774.2z"/>
	</g>
	<g>
		<path class="st3" d="M419.2,1084.6c0,0-99.1-3.3-155.3-58.4c0,0,20.9-188.3,69.4-243.4c48.5-55.1,183.9-45.1,183.9-45.1
			s58.4,56.2,146.5,13.2c0,0,169.6-27.5,223.5,139.9l51.8,139.9c0,0-80.4,55.1-161.9,50.7l9.9,81.5c0,0-208.1,115.6-375.5,17.6
			L419.2,1084.6z"/>
	</g>
	<g>
		<path class="st2" d="M1395.8,686.8l211.3,5.5c0,0,58.4,136.4,84.4,366.7s4.7,396.7,4.7,396.7s-82.8,48.1-145.9,0l-30.8-369.1
			l-31.5,362c0,0-93.8,44.9-150.6-14.2l-9.5-403.7C1328,1030.6,1333.5,821.6,1395.8,686.8z"/>
	</g>
	<g>
		<path d="M420.3,1080c-0.9,0-1.7-0.6-1.9-1.5c-16.6-63.5-11.2-113.2-3.7-143.7c8.1-33.1,20-51,20.5-51.7c0.6-0.9,1.9-1.2,2.8-0.5
			c0.9,0.6,1.2,1.9,0.5,2.8c-0.1,0.2-12.1,18.1-20,50.6c-7.3,30-12.6,78.9,3.8,141.6c0.3,1.1-0.4,2.2-1.4,2.4
			C420.7,1079.9,420.5,1080,420.3,1080z"/>
	</g>
	<g>
		<path d="M776,1080C776,1080,776,1080,776,1080c-1.1,0-2-0.9-2-2l0.7-34c0.2-11.8,1.8-23.6,4.8-35.1c17.8-69.9-9.3-119.9-9.6-120.4
			c-0.5-1-0.2-2.2,0.8-2.7c1-0.5,2.2-0.2,2.7,0.8c0.3,0.5,28.2,51.8,10,123.4c-2.9,11.2-4.4,22.7-4.7,34.2l-0.7,34
			C778,1079.1,777.1,1080,776,1080z"/>
	</g>
	<g>
		<path class="st1" d="M1618.2,733.7C1618.2,733.7,1618.2,733.7,1618.2,733.7l-233.5-3.9c-1.1,0-2-0.9-2-2c0-1.1,0.9-2,2-2
			l233.4,3.9c1.1,0,2,0.9,2,2C1620.2,732.8,1619.3,733.7,1618.2,733.7z"/>
	</g>
	<g>
		<path class="st1" d="M1492.8,859.1c-0.8,0-1.5-0.5-1.9-1.2c-0.4-1,0.1-2.2,1.1-2.6c16-6.5,17.7-31.9,17.7-32.2l2.4-129.2
			c0-1.1,0.9-2,2-2c0,0,0,0,0,0c1.1,0,2,0.9,2,2l-2.4,129.3c-0.1,1.2-1.9,28.2-20.2,35.7C1493.3,859,1493.1,859.1,1492.8,859.1z"/>
	</g>
	<g>
		<path class="st1" d="M1428.9,729.8c-1.1,0-2-0.9-2-2v-33.9c0-1.1,0.9-2,2-2s2,0.9,2,2v33.9C1430.9,728.9,1430,729.8,1428.9,729.8z
			"/>
	</g>
	<g>
		<path class="st1" d="M1443.9,729.8c-1.1,0-1.9-0.8-2-1.9l-1.6-33.9c-0.1-1.1,0.8-2,1.9-2.1c1.1,0,2,0.8,2.1,1.9l1.6,33.9
			C1446,728.8,1445.1,729.7,1443.9,729.8C1444,729.8,1444,729.8,1443.9,729.8z"/>
	</g>
	<g>
		<path class="st1" d="M1561.4,732.1c-1.1,0-1.9-0.8-2-1.9l-1.6-33.9c-0.1-1.1,0.8-2,1.9-2.1c1.1-0.1,2,0.8,2.1,1.9l1.6,33.9
			C1563.5,731.1,1562.6,732.1,1561.4,732.1C1561.5,732.1,1561.4,732.1,1561.4,732.1z"/>
	</g>
	<g>
		<path class="st1" d="M1573.2,729.8c-1.1,0-1.9-0.8-2-1.9l-1.6-33.9c-0.1-1.1,0.8-2,1.9-2.1c1.1,0,2,0.8,2.1,1.9l1.6,33.9
			C1575.3,728.8,1574.4,729.7,1573.2,729.8C1573.3,729.8,1573.3,729.8,1573.2,729.8z"/>
	</g>
</g>
<g id="Layer_9">
	<g>
		<path class="st4" d="M2093.8,894.7l-175.5,521c0,0-132.6,198.7-1.6,226.8l324.2-540.3l54.9-120.9l-152.6-89L2093.8,894.7z"/>
	</g>
</g>
<g id="Layer_7">
	<g>
		<path d="M2651.2,1685.8L1658,2094.9c-50.3,20.7-108.4-3.5-129.1-53.8L1335,1570.3c-20.7-50.3,3.5-108.4,53.8-129.1l993.2-409.1
			c50.3-20.7,108.4,3.5,129.1,53.8l193.9,470.8C2725.7,1607,2701.5,1665.1,2651.2,1685.8z"/>
	</g>
	<g>
		
			<rect x="2555.3" y="1770.8" transform="matrix(0.9246 -0.3808 0.3808 0.9246 -505.8132 1117.5034)" class="st1" width="31" height="132"/>
	</g>
	<g>
		
			<rect x="2021" y="1754.1" transform="matrix(0.9246 -0.3808 0.3808 0.9246 -539.6987 912.7469)" class="st1" width="31" height="132"/>
	</g>
	<g>
		
			<rect x="2062.6" y="1736.9" transform="matrix(0.9246 -0.3808 0.3808 0.9246 -530.0359 927.3019)" class="st1" width="31" height="132"/>
	</g>
	<g>
		
			<rect x="2101.4" y="1720.9" transform="matrix(0.9246 -0.3808 0.3808 0.9246 -521.0173 940.8867)" class="st1" width="31" height="132"/>
	</g>
	<g>
		
			<rect x="2144.9" y="1703" transform="matrix(0.9246 -0.3808 0.3808 0.9246 -510.925 956.0886)" class="st1" width="31" height="132"/>
	</g>
	<g id="Layer_8">
		<g>
			<path class="st4" d="M2356.1,618.9c0,0,28.6-39,28.6-68.8c0,0-41.6-26-53.3-76.6c0,0-57.2,7.8-57.2-58.5s58.5-45.5,58.5-45.5
				l72.7-2.6l127.3-53.3l63.7,76.6l28.6-6.5l2.6,3.9c0,0,42.9,0,26,63.7c0,0-16.9,42.9-62.4,26c0,0-3.9,52-55.9,77.9l1.3,74
				l-3.9,14.3c0,0-27.3,9.1-31.2,13c-3.9,3.9-128.6-9.1-128.6-9.1L2356.1,618.9z"/>
		</g>
		<g>
			<path class="st4" d="M2308.1,2749.3c0,0-3.9,65-29.9,90.9l6.5,23.4l97.4,26l54.6-23.4l24.7-19.5l-1.3-101.3L2308.1,2749.3z"/>
		</g>
		<g>
			<path class="st4" d="M2654.9,2750.6l1.3,97.4l15.6,15.6c0,0,36.4,18.2,37.7,18.2s55.9,0,55.9,0l65-40.3l3.9-7.8
				c0,0-16.9-42.9-18.2-93.5S2654.9,2750.6,2654.9,2750.6z"/>
		</g>
	</g>
	<g>
		
			<rect x="1741.5" y="1299.2" transform="matrix(0.9341 -0.3571 0.3571 0.9341 -331.2013 843.7491)" class="st1" width="756" height="39.3"/>
	</g>
	<g>
		
			<rect x="1762.5" y="1355.2" transform="matrix(0.9341 -0.3571 0.3571 0.9341 -349.8127 854.9391)" class="st1" width="756" height="39.3"/>
	</g>
	<g>
		<g>
			<ellipse class="st5" cx="1596" cy="1213.3" rx="93" ry="92.3"/>
		</g>
		<g>
			<circle class="st6" cx="1596" cy="1213.2" r="79.5"/>
		</g>
		<g>
			<path class="st7" d="M1598.4,1270.3L1598.4,1270.3c-3.9,0.1-7.1-2.9-7.3-6.8l-4-106c-0.1-3.9,2.9-7.1,6.8-7.3l0,0
				c3.9-0.1,7.1,2.9,7.3,6.8l4,106C1605.3,1266.9,1602.2,1270.1,1598.4,1270.3z"/>
		</g>
		<g>
			<path class="st5" d="M1613.9,1182l5.9-11.9c0,0-22.1-18.6-47.9-2.4c-7.6,4.8-12.6,12.9-13,21.9c0,0.2,0,0.4,0,0.6
				c-0.2,10.9,7.9,20.1,18.7,21.7c4.6,0.7,10.4,1.3,16.3,1.3c12.7,0,20,10.8,20,10.8s4.3,11.6-5.9,15.9c-4.9,2.1-11,1.4-16,0.2
				c-5-1.2-9.7-3.5-13.9-6.5l-10-7.2l-10.5,16.7c0,0,8.9,14.6,26.7,19.4c15.4,4.2,30.7-8.5,34.7-12.1c0.6-0.5,1.2-1,1.7-1.5
				c3-2.5,13.6-12.6,8.7-29.4c-5.7-19.4-37.3-19.4-37.3-19.4s-20.3-5.9-8.1-17.8C1596.1,1170.7,1613.9,1182,1613.9,1182z"/>
		</g>
	</g>
	<g>
		<g>
			<ellipse class="st5" cx="1736" cy="985.3" rx="93" ry="92.3"/>
		</g>
		<g>
			<circle class="st6" cx="1736" cy="985.2" r="79.5"/>
		</g>
		<g>
			<path class="st7" d="M1738.4,1042.3L1738.4,1042.3c-3.9,0.1-7.1-2.9-7.3-6.8l-4-106c-0.1-3.9,2.9-7.1,6.8-7.3l0,0
				c3.9-0.1,7.1,2.9,7.3,6.8l4,106C1745.3,1038.9,1742.2,1042.1,1738.4,1042.3z"/>
		</g>
		<g>
			<path class="st5" d="M1753.9,954l5.9-11.9c0,0-22.1-18.6-47.9-2.4c-7.6,4.8-12.6,12.9-13,21.9c0,0.2,0,0.4,0,0.6
				c-0.2,10.9,7.9,20.1,18.7,21.7c4.6,0.7,10.4,1.3,16.3,1.3c12.7,0,20,10.8,20,10.8s4.3,11.6-5.9,15.9c-4.9,2.1-11,1.4-16,0.2
				c-5-1.2-9.7-3.5-13.9-6.5l-10-7.2l-10.5,16.7c0,0,8.9,14.6,26.7,19.4c15.4,4.2,30.7-8.5,34.7-12.1c0.6-0.5,1.2-1,1.7-1.5
				c3-2.5,13.6-12.6,8.7-29.4c-5.7-19.4-37.3-19.4-37.3-19.4s-20.3-5.9-8.1-17.8C1736.1,942.7,1753.9,954,1753.9,954z"/>
		</g>
	</g>
	<g>
		<g>
			<ellipse class="st5" cx="2832" cy="448.3" rx="93" ry="92.3"/>
		</g>
		<g>
			<circle class="st6" cx="2832" cy="448.2" r="79.5"/>
		</g>
		<g>
			<path class="st7" d="M2834.4,505.3L2834.4,505.3c-3.9,0.1-7.1-2.9-7.3-6.8l-4-106c-0.1-3.9,2.9-7.1,6.8-7.3h0
				c3.9-0.1,7.1,2.9,7.3,6.8l4,106C2841.3,501.9,2838.2,505.1,2834.4,505.3z"/>
		</g>
		<g>
			<path class="st5" d="M2849.9,417l5.9-11.9c0,0-22.1-18.6-47.9-2.4c-7.6,4.8-12.6,12.9-13,21.9c0,0.2,0,0.4,0,0.6
				c-0.2,10.9,7.9,20.1,18.7,21.7c4.6,0.7,10.4,1.3,16.3,1.3c12.7,0,20,10.8,20,10.8s4.3,11.6-5.9,15.9c-4.9,2.1-11,1.4-16,0.2
				c-5-1.2-9.7-3.5-13.9-6.5l-10-7.2l-10.5,16.7c0,0,8.9,14.6,26.7,19.4c15.4,4.2,30.7-8.5,34.7-12.1c0.6-0.5,1.2-1,1.7-1.5
				c3-2.5,13.6-12.6,8.7-29.4c-5.7-19.4-37.3-19.4-37.3-19.4s-20.3-5.9-8.1-17.8C2832.1,405.7,2849.9,417,2849.9,417z"/>
		</g>
	</g>
	<g>
		<g>
			<ellipse class="st5" cx="1828.2" cy="730.8" rx="57.3" ry="56.8"/>
		</g>
		<g>
			<circle class="st6" cx="1828.2" cy="730.8" r="49"/>
		</g>
		<g>
			<path class="st7" d="M1829.7,765.9L1829.7,765.9c-2.4,0.1-4.4-1.8-4.5-4.2l-2.5-65.3c-0.1-2.4,1.8-4.4,4.2-4.5l0,0
				c2.4-0.1,4.4,1.8,4.5,4.2l2.5,65.3C1833.9,763.8,1832.1,765.8,1829.7,765.9z"/>
		</g>
		<g>
			<path class="st5" d="M1839.3,711.6l3.7-7.3c0,0-13.6-11.4-29.5-1.5c-4.7,2.9-7.8,7.9-8,13.5c0,0.1,0,0.3,0,0.4
				c-0.1,6.7,4.9,12.4,11.5,13.4c2.8,0.4,6.4,0.8,10,0.8c7.8,0,12.3,6.6,12.3,6.6s2.7,7.1-3.7,9.8c-3,1.3-6.8,0.9-9.9,0.1
				c-3.1-0.8-6-2.1-8.6-4l-6.2-4.4l-6.5,10.3c0,0,5.5,9,16.5,12c9.5,2.6,18.9-5.2,21.3-7.4c0.4-0.3,0.7-0.6,1.1-0.9
				c1.9-1.5,8.3-7.8,5.3-18.1c-3.5-12-22.9-12-22.9-12s-12.5-3.7-5-11S1839.3,711.6,1839.3,711.6z"/>
		</g>
	</g>
	<g>
		<g>
			<ellipse class="st5" cx="2881.2" cy="742.8" rx="57.3" ry="56.8"/>
		</g>
		<g>
			<circle class="st6" cx="2881.2" cy="742.8" r="49"/>
		</g>
		<g>
			<path class="st7" d="M2882.7,777.9L2882.7,777.9c-2.4,0.1-4.4-1.8-4.5-4.2l-2.5-65.3c-0.1-2.4,1.8-4.4,4.2-4.5l0,0
				c2.4-0.1,4.4,1.8,4.5,4.2l2.5,65.3C2886.9,775.8,2885.1,777.8,2882.7,777.9z"/>
		</g>
		<g>
			<path class="st5" d="M2892.3,723.6l3.7-7.3c0,0-13.6-11.4-29.5-1.5c-4.7,2.9-7.8,7.9-8,13.5c0,0.1,0,0.3,0,0.4
				c-0.1,6.7,4.9,12.4,11.5,13.4c2.8,0.4,6.4,0.8,10,0.8c7.8,0,12.3,6.6,12.3,6.6s2.7,7.1-3.7,9.8c-3,1.3-6.8,0.9-9.9,0.1
				c-3.1-0.8-6-2.1-8.6-4l-6.2-4.4l-6.5,10.3c0,0,5.5,9,16.5,12c9.5,2.6,18.9-5.2,21.3-7.4c0.4-0.3,0.7-0.6,1.1-0.9
				c1.9-1.5,8.3-7.8,5.3-18.1c-3.5-12-22.9-12-22.9-12s-12.5-3.7-5-11S2892.3,723.6,2892.3,723.6z"/>
		</g>
	</g>
	<g>
		<g>
			<ellipse class="st5" cx="2321.1" cy="682.8" rx="39.1" ry="38.8"/>
		</g>
		<g>
			<circle class="st6" cx="2321.1" cy="682.8" r="33.5"/>
		</g>
		<g>
			<path class="st7" d="M2322.1,706.8L2322.1,706.8c-1.6,0.1-3-1.2-3.1-2.8l-1.7-44.6c-0.1-1.6,1.2-3,2.8-3.1l0,0
				c1.6-0.1,3,1.2,3.1,2.8l1.7,44.6C2325,705.4,2323.7,706.7,2322.1,706.8z"/>
		</g>
		<g>
			<path class="st5" d="M2328.6,669.7l2.5-5c0,0-9.3-7.8-20.1-1c-3.2,2-5.3,5.4-5.4,9.2c0,0.1,0,0.2,0,0.3c-0.1,4.6,3.3,8.5,7.8,9.1
				c1.9,0.3,4.4,0.6,6.9,0.6c5.3,0,8.4,4.5,8.4,4.5s1.8,4.9-2.5,6.7c-2.1,0.9-4.6,0.6-6.7,0.1c-2.1-0.5-4.1-1.5-5.9-2.7l-4.2-3
				l-4.4,7c0,0,3.7,6.1,11.2,8.2c6.5,1.8,12.9-3.6,14.6-5.1c0.2-0.2,0.5-0.4,0.7-0.6c1.3-1,5.7-5.3,3.6-12.4
				c-2.4-8.2-15.7-8.2-15.7-8.2s-8.5-2.5-3.4-7.5S2328.6,669.7,2328.6,669.7z"/>
		</g>
	</g>
	<g>
		<g>
			<ellipse class="st5" cx="2038.1" cy="703.8" rx="39.1" ry="38.8"/>
		</g>
		<g>
			<circle class="st6" cx="2038.1" cy="703.8" r="33.5"/>
		</g>
		<g>
			<path class="st7" d="M2039.1,727.8L2039.1,727.8c-1.6,0.1-3-1.2-3.1-2.8l-1.7-44.6c-0.1-1.6,1.2-3,2.8-3.1l0,0
				c1.6-0.1,3,1.2,3.1,2.8l1.7,44.6C2042,726.4,2040.7,727.7,2039.1,727.8z"/>
		</g>
		<g>
			<path class="st5" d="M2045.6,690.7l2.5-5c0,0-9.3-7.8-20.1-1c-3.2,2-5.3,5.4-5.4,9.2c0,0.1,0,0.2,0,0.3c-0.1,4.6,3.3,8.5,7.8,9.1
				c1.9,0.3,4.4,0.6,6.9,0.6c5.3,0,8.4,4.5,8.4,4.5s1.8,4.9-2.5,6.7c-2.1,0.9-4.6,0.6-6.7,0.1c-2.1-0.5-4.1-1.5-5.9-2.7l-4.2-3
				l-4.4,7c0,0,3.7,6.1,11.2,8.2c6.5,1.8,12.9-3.6,14.6-5.1c0.2-0.2,0.5-0.4,0.7-0.6c1.3-1,5.7-5.3,3.6-12.4
				c-2.4-8.2-15.7-8.2-15.7-8.2s-8.5-2.5-3.4-7.5S2045.6,690.7,2045.6,690.7z"/>
		</g>
	</g>
</g>
<g id="Layer_5">
	<g>
		<path class="st3" d="M2245.7,1021.6c0,0-116.9-3.9-183.2-68.8c0,0,24.7-222.1,81.8-287.1s216.9-53.3,216.9-53.3
			s68.8,66.3,172.8,15.6c0,0,200.1-32.5,263.7,165l71.4,172.8c0,0-142.9,68.8-239,63.7l13,98.7c0,0-209.1,122.1-406.6,6.5
			L2245.7,1021.6z"/>
	</g>
	<g>
		<path class="st2" d="M2636.7,1132c0,0-233,104.4-395.1,5.5l-22.8,161.5c-18.4,130.2-28.5,261.4-30.3,392.9l-3.3,240.4
			c-1.4,99.5,1.7,199.1,9.3,298.4c13.5,178.2,38.5,448.9,70.7,530.3h222.1l7.8-679.4L2625,2761l206.5-11.7c0,0,31.2-302.7,9.1-492.3
			c-14.7-126.1-32.8-281.5-43.3-371.5c-5.8-49.4-13.6-98.5-23.5-147.2l-67.4-331.9c-8.9-43.8-20.1-87-33.6-129.6
			c-6.8-21.5-12.9-43.2-17.9-65.2L2636.7,1132z"/>
	</g>
	<g>
		<path class="st3" d="M1686.6,1696.9l-163.7,67.4c-20.3,8.4-43.8-1.4-52.2-21.8l-24-58.3c-8.4-20.3,1.4-43.8,21.8-52.2l163.7-67.4
			c20.3-8.4,43.8,1.4,52.2,21.8l24,58.3C1716.7,1665,1706.9,1688.5,1686.6,1696.9z"/>
	</g>
</g>
<g id="Layer_6">
	<g>
		<path d="M2414.6,211c0,0-70.1-39-48.1-128.6s166.3-61.1,166.3-61.1s88.3,31.2,76.6,116.9s-68.8,79.2-68.8,79.2l9.1,10.4
			c0,0,96.1,36.4,77.9,159.8c0,0-23.4-3.9-29.9,14.3c0,0-35.1,20.8-72.7-46.8c0,0-88.3,92.2-188.4,36.4c0,0,0-22.1-36.4-23.4
			c0,0-10.4-114.3,107.8-148.1L2414.6,211z"/>
	</g>
	<g>
		<path class="st8" d="M2418.5,495.5l84.4,6.5c0,0-2.6,32.5-45.5,31.2C2414.6,531.9,2418.5,495.5,2418.5,495.5z"/>
	</g>
	<g>
		<path d="M2656.2,2848.1c0,0,84.4,37.7,178-14.3c0,0,26,44.2,71.4,53.3c45.5,9.1,45.5,42.9,45.5,42.9s-1.3,46.8-116.9,42.9
			c-90.8-3.1-123.1-14.1-132.8-18.8c-2.4-1.2-4.8-2.3-7.3-3.3C2682.7,2946.1,2649.7,2925.8,2656.2,2848.1z"/>
	</g>
	<g>
		<path d="M2278.2,2840.3c0,0,107.8,45.5,183.2,6.5v57.2c0,0,3.9,44.2-62.4,45.5c0,0-163.7,24.7-215.6,0c0,0-29.9-9.1-22.1-39
			C2161.3,2910.4,2170.4,2885.7,2278.2,2840.3z"/>
	</g>
	<g>
		<path class="st0" d="M2326.3,893l-8.4-148.7c-0.4-7,4.6-13.1,11.6-14l136.7-18.2c9.5-1.3,18.2,5.5,19.3,15l16.2,137.3l-87,41.6
			L2326.3,893z"/>
	</g>
</g>
<g id="Layer_2">
	<g>
		<path class="st3" d="M2405.5,221.4c0,0,0-33.8,74-36.4s70.1,42.9,70.1,42.9S2487.3,195.4,2405.5,221.4z"/>
	</g>
	<g>
		<path class="st4" d="M2470.4,856.6c0,0,15.6-33.8,35.1-28.6c19.5,5.2,20.8,61.1,20.8,61.1l219.5,113c0,0,5.2,18.2,101.3-29.9
			l32.5,97.4c0,0,16.9,77.9-55.9,85.7c-72.7,7.8-111.7-11.7-111.7-11.7l-283.2-187.1c0,0-145.5,18.2-98.7-72.7
			c0,0-13-37.7,23.4-44.2c0,0-1.3-19.5,23.4-14.3C2376.9,825.4,2430.2,860.5,2470.4,856.6z"/>
	</g>
</g>
<g id="Layer_10">
	<g>
		<circle cx="2405.3" cy="431.2" r="12.7"/>
	</g>
	<g>
		<circle cx="2510.1" cy="434.9" r="12.1"/>
	</g>
	<g>
		<path d="M2457.3,474.1c-0.7,0-1.5-0.4-1.8-1.1c-0.5-1-0.1-2.2,0.9-2.7l8.1-3.9l-12.5-17.8c-0.6-0.9-0.4-2.2,0.5-2.8
			s2.2-0.4,2.8,0.5l13.9,19.7c0.3,0.5,0.4,1.1,0.3,1.7c-0.1,0.6-0.5,1-1.1,1.3l-10.2,4.9C2457.9,474,2457.6,474.1,2457.3,474.1z"/>
	</g>
	<g>
		<path d="M2615.8,450c-0.6,0-1.2-0.3-1.6-0.8c-0.7-0.9-0.5-2.1,0.3-2.8c4.2-3.3,6.3-6.9,6.4-10.7c0.2-7-6.4-12.7-6.5-12.8
			c-0.8-0.7-0.9-2-0.2-2.8c0.7-0.8,2-0.9,2.8-0.2c0.3,0.3,8.1,7,7.9,15.9c-0.1,5.1-2.8,9.7-8,13.8
			C2616.7,449.9,2616.3,450,2615.8,450z"/>
	</g>
	<g>
		<path d="M2318.3,432.9c-0.2,0-0.4,0-0.6-0.1c-6.7-2.2-10.9-5.8-12.6-10.8c-2.8-8.4,3.2-17.3,3.4-17.7c0.6-0.9,1.9-1.1,2.8-0.5
			c0.9,0.6,1.1,1.9,0.5,2.8l0,0c-0.1,0.1-5.1,7.7-2.9,14.2c1.2,3.7,4.6,6.4,10,8.2c1,0.3,1.6,1.5,1.3,2.5
			C2319.9,432.4,2319.1,432.9,2318.3,432.9z"/>
	</g>
	<g>
		<path d="M2647.1,949.6c-0.3,0-0.5,0-0.8-0.1c-1-0.4-1.5-1.6-1.1-2.6c16.6-40.4,12.2-79.5,5.6-105.1c-7.1-27.8-18.3-46.2-18.4-46.4
			c-0.6-0.9-0.3-2.2,0.7-2.8c0.9-0.6,2.2-0.3,2.8,0.7c0.5,0.8,11.6,19.1,18.9,47.5c6.7,26.2,11.2,66.2-5.8,107.6
			C2648.7,949.1,2647.9,949.6,2647.1,949.6z"/>
	</g>
	<g>
		<path d="M2421.3,882.9c-29.8,0-67.5-36.2-69.2-37.9c-0.8-0.8-0.8-2,0-2.8c0.8-0.8,2-0.8,2.8,0c0.4,0.4,45,43.3,73.4,35.9
			c1.1-0.3,2.2,0.4,2.4,1.4c0.3,1.1-0.4,2.2-1.4,2.4C2426.8,882.6,2424.1,882.9,2421.3,882.9z"/>
	</g>
	<g>
		<path d="M2404.7,916.9c-23.6,0-40.2-6.2-50.6-12.1c-14.1-7.9-20.1-16.8-20.3-17.2c-0.6-0.9-0.4-2.2,0.6-2.8
			c0.9-0.6,2.2-0.4,2.8,0.6c0.2,0.4,23.6,33.9,85.1,26.4c1.1-0.1,2.1,0.6,2.2,1.7c0.1,1.1-0.6,2.1-1.7,2.2
			C2416.2,916.5,2410.2,916.9,2404.7,916.9z"/>
	</g>
	<g>
		<path d="M2244.7,1015.3c-0.8,0-1.6-0.5-2.2-2.1c-0.2-0.6-0.1-1.1,0.1-1.6c-0.8-4.4-4.4-20.6-19.7-79.1
			c-12.9-49.5-2.6-92.9,8.4-120.6c11.8-30,26.5-48,27.1-48.8c0.7-0.9,2-1,2.8-0.3c0.9,0.7,1,2,0.3,2.8c-0.1,0.2-14.9,18.4-26.5,47.8
			c-10.7,27.1-20.8,69.6-8.2,118c8.2,31.4,14,54.3,17.2,67.8c1.2,5.1,2,8.8,2.5,11.1c0.5,2.5,0.8,4.3-1.1,4.9
			C2245.2,1015.2,2245,1015.3,2244.7,1015.3z"/>
	</g>
	<g>
		<path class="st1" d="M2434.1,1376.9c-0.6,0-1.3-0.3-1.7-0.9c-0.6-0.9-0.4-2.2,0.6-2.8c25.9-17.2,17.4-63.7,17.3-64.2
			c0-0.1,0-0.2,0-0.2l-7.8-124.7c-0.1-1.1,0.8-2.1,1.9-2.1c1.1-0.1,2.1,0.8,2.1,1.9l7.8,124.6c0.6,3.4,8.6,49.7-19.1,68.2
			C2434.8,1376.8,2434.5,1376.9,2434.1,1376.9z"/>
	</g>
	<g>
		<path class="st1" d="M2422.7,1215.2c-23.5,0-46.8-1.9-69.9-5.7c-68.1-11.1-110.4-35.2-110.8-35.5c-1-0.6-1.3-1.8-0.7-2.7
			c0.6-1,1.8-1.3,2.7-0.7c0.4,0.2,42.2,24,109.6,35c62.2,10.1,159.6,11.2,270.5-41.6c1-0.5,2.2-0.1,2.7,0.9c0.5,1,0.1,2.2-0.9,2.7
			c-49.4,23.5-100.3,38.5-151.3,44.5C2457.3,1214.1,2440,1215.2,2422.7,1215.2z"/>
	</g>
	<g>
		<path class="st1" d="M2562.7,1191.2c-0.9,0-1.8-0.7-2-1.6l-5.2-26c-0.2-1.1,0.5-2.1,1.6-2.4c1.1-0.2,2.1,0.5,2.4,1.6l5.2,26
			c0.2,1.1-0.5,2.1-1.6,2.4C2562.9,1191.2,2562.8,1191.2,2562.7,1191.2z"/>
	</g>
	<g>
		<path class="st1" d="M2543.2,1199c-0.9,0-1.8-0.7-2-1.6l-5.2-28.6c-0.2-1.1,0.5-2.1,1.6-2.3c1.1-0.2,2.1,0.5,2.3,1.6l5.2,28.6
			c0.2,1.1-0.5,2.1-1.6,2.3C2543.4,1199,2543.3,1199,2543.2,1199z"/>
	</g>
	<g>
		<path class="st1" d="M2299,1196.4c-0.1,0-0.2,0-0.3,0c-1.1-0.2-1.8-1.2-1.7-2.3l3.9-26c0.2-1.1,1.2-1.8,2.3-1.7
			c1.1,0.2,1.8,1.2,1.7,2.3l-3.9,26C2300.8,1195.7,2299.9,1196.4,2299,1196.4z"/>
	</g>
	<g>
		<path class="st1" d="M2314.6,1201.6c-0.1,0-0.2,0-0.3,0c-1.1-0.2-1.9-1.2-1.7-2.3l3.9-27.3c0.2-1.1,1.2-1.9,2.3-1.7
			c1.1,0.2,1.9,1.2,1.7,2.3l-3.9,27.3C2316.4,1200.8,2315.5,1201.6,2314.6,1201.6z"/>
	</g>
	<g>
		<g>
			<ellipse class="st5" cx="2299.5" cy="692.3" rx="26.5" ry="26.3"/>
		</g>
		<g>
			<circle class="st6" cx="2299.5" cy="692.3" r="22.7"/>
		</g>
		<g>
			<path class="st7" d="M2300.2,708.6L2300.2,708.6c-1.1,0-2-0.8-2.1-1.9l-1.1-30.3c0-1.1,0.8-2,1.9-2.1l0,0c1.1,0,2,0.8,2.1,1.9
				l1.1,30.3C2302.1,707.6,2301.3,708.5,2300.2,708.6z"/>
		</g>
		<g>
			<path class="st5" d="M2304.6,683.4l1.7-3.4c0,0-6.3-5.3-13.7-0.7c-2.2,1.4-3.6,3.7-3.7,6.2c0,0.1,0,0.1,0,0.2
				c0,3.1,2.3,5.7,5.3,6.2c1.3,0.2,3,0.4,4.6,0.4c3.6,0,5.7,3.1,5.7,3.1s1.2,3.3-1.7,4.5c-1.4,0.6-3.1,0.4-4.6,0
				c-1.4-0.4-2.8-1-4-1.9l-2.9-2l-3,4.8c0,0,2.5,4.2,7.6,5.5c4.4,1.2,8.8-2.4,9.9-3.4c0.2-0.1,0.3-0.3,0.5-0.4
				c0.9-0.7,3.9-3.6,2.5-8.4c-1.6-5.5-10.6-5.5-10.6-5.5s-5.8-1.7-2.3-5.1C2299.5,680.2,2304.6,683.4,2304.6,683.4z"/>
		</g>
	</g>
	<g>
		<g>
			<ellipse class="st5" cx="2218.5" cy="585.3" rx="26.5" ry="26.3"/>
		</g>
		<g>
			<circle class="st6" cx="2218.5" cy="585.3" r="22.7"/>
		</g>
		<g>
			<path class="st7" d="M2219.2,601.6L2219.2,601.6c-1.1,0-2-0.8-2.1-1.9l-1.1-30.3c0-1.1,0.8-2,1.9-2.1l0,0c1.1,0,2,0.8,2.1,1.9
				l1.1,30.3C2221.1,600.6,2220.3,601.5,2219.2,601.6z"/>
		</g>
		<g>
			<path class="st5" d="M2223.6,576.4l1.7-3.4c0,0-6.3-5.3-13.7-0.7c-2.2,1.4-3.6,3.7-3.7,6.2c0,0.1,0,0.1,0,0.2
				c0,3.1,2.3,5.7,5.3,6.2c1.3,0.2,3,0.4,4.6,0.4c3.6,0,5.7,3.1,5.7,3.1s1.2,3.3-1.7,4.5c-1.4,0.6-3.1,0.4-4.6,0
				c-1.4-0.4-2.8-1-4-1.9l-2.9-2l-3,4.8c0,0,2.5,4.2,7.6,5.5c4.4,1.2,8.8-2.4,9.9-3.4c0.2-0.1,0.3-0.3,0.5-0.4
				c0.9-0.7,3.9-3.6,2.5-8.4c-1.6-5.5-10.6-5.5-10.6-5.5s-5.8-1.7-2.3-5.1C2218.5,573.2,2223.6,576.4,2223.6,576.4z"/>
		</g>
	</g>
</g>
</svg>
