<svg xmlns="http://www.w3.org/2000/svg" viewBox="0 0 5000 5000"><defs><style>.cls-1,.cls-20{fill:#fff;}.cls-2{fill:#e9e9e7;}.cls-3{fill:#fff0f0;}.cls-4{fill:#ffd9d9;}.cls-5,.cls-7{fill:#c3e8ed;}.cls-5{opacity:0.42;}.cls-6{fill:#51bacd;}.cls-8{fill:#ff473d;}.cls-9{fill:#ff7471;}.cls-10{fill:#e51f1a;}.cls-11{fill:#2d2e75;}.cls-12{fill:#051633;}.cls-13{fill:#58595b;}.cls-14{fill:#11393d;}.cls-15{fill:#808081;}.cls-16{fill:#02193f;}.cls-17{fill:#001738;}.cls-18{fill:#062051;}.cls-19{opacity:0.43;}.cls-20{opacity:0.55;}.cls-21{fill:#fcc1c0;}.cls-22{fill:#17609b;}.cls-23{fill:#fefefe;}.cls-24{fill:#5589b1;}.cls-25{fill:#ffe7e5;}.cls-26{fill:#d82723;}.cls-27,.cls-28{fill:#1988a4;}.cls-28{opacity:0.41;}.cls-29{fill:#fec435;}.cls-30{fill:#ffb000;}.cls-31{fill:#f8753f;opacity:0.5;}.cls-32{fill:#141a33;}.cls-32,.cls-33,.cls-34,.cls-35,.cls-36,.cls-37{fill-rule:evenodd;}.cls-33{fill:#030822;}.cls-34{fill:#2c3049;}.cls-35{fill:#3a3f57;}.cls-36{fill:#00000f;}.cls-37{fill:#242942;}.cls-38{fill:#031d47;}.cls-39{fill:#ffede9;}.cls-40{fill:#ff9088;}.cls-41{fill:#ffb2a9;}.cls-42{fill:#ff9d91;}</style></defs><title>07</title><g id="Layer_2" data-name="Layer 2"><g id="Layer_1-2" data-name="Layer 1"><rect class="cls-1" width="5000" height="5000"/><ellipse class="cls-2" cx="1504.91" cy="3629.26" rx="433.62" ry="66.78"/><ellipse class="cls-2" cx="2918.81" cy="3705.03" rx="507.23" ry="66.78"/><polygon class="cls-3" points="859.17 2485.36 845.34 2489.66 878.54 2633.3 892.38 2629 859.17 2485.36"/><path class="cls-3" d="M848.63,2466a1.88,1.88,0,0,1-.86,2.3h0c-.73.23-1.51-.44-1.75-1.49l-1.55-6.68a1.91,1.91,0,0,1,.87-2.31h0c.73-.22,1.51.44,1.75,1.49Z"/><polygon class="cls-3" points="848.08 2463.53 845.47 2464.34 845.35 2489.71 859.12 2485.42 848.08 2463.53"/><polygon class="cls-3" points="906.33 2469.89 892.02 2470.62 897.6 2619.2 911.91 2618.47 906.33 2469.89"/><path class="cls-3" d="M899.67,2448.3c0,1.09-.54,2-1.28,2h0c-.75,0-1.39-.81-1.43-1.89l-.26-6.91c0-1.09.53-2,1.28-2h0c.75,0,1.39.81,1.43,1.9Z"/><polygon class="cls-3" points="899.58 2445.79 896.88 2445.93 892.02 2470.66 906.27 2469.94 899.58 2445.79"/><polygon class="cls-3" points="960.22 2478.61 946.21 2475.18 919.72 2620.69 933.73 2624.12 960.22 2478.61"/><path class="cls-3" d="M958.4,2455.77c-.2,1.06-.94,1.78-1.67,1.6h0c-.74-.18-1.17-1.19-1-2.25l1.23-6.77c.2-1.06.94-1.78,1.68-1.6h0c.73.18,1.17,1.19,1,2.25Z"/><polygon class="cls-3" points="958.85 2453.32 956.21 2452.67 946.2 2475.22 960.15 2478.63 958.85 2453.32"/><polygon class="cls-3" points="871.35 2719.18 860.87 2569.15 978.56 2569.15 972.08 2719.18 871.35 2719.18"/><path class="cls-3" d="M847.9,2569.15h37.87s-19.17,126.48,34,150H858.38Z"/><path class="cls-3" d="M608.5,2786.66l44.16,743.47s385-16.61,384.19-23.6,17.67-737.09,17.67-737.09Z"/><polyline class="cls-3" points="608.5 2825.26 1058.33 2825.26 1054.52 2881.54 608.5 2825.26"/><polygon class="cls-3" points="500 2709.33 2487.64 2709.33 2487.64 2779.35 500 2825.26 500 2709.33"/><polygon class="cls-3" points="2203.76 2781.2 2180.15 3453.43 2147.72 3454.38 2135.78 2781.2 2203.76 2781.2"/><path class="cls-3" d="M622.51,3022.63c0,.55,425,26.51,425,26.51l-.52,21.26-423.05-23.89Z"/><polygon class="cls-3" points="636.85 3264.79 1042.47 3253.83 1041.9 3277.22 637.64 3277.22 636.85 3264.79"/><path class="cls-3" d="M878.64,2944.72h-78c-4.86,0-8.83-4.61-8.83-10.24h0c0-5.63,4-10.24,8.83-10.24h78c4.85,0,8.83,4.61,8.83,10.24h0C887.47,2940.11,883.49,2944.72,878.64,2944.72Z"/><path class="cls-3" d="M884.47,3170.27h-78c-4.85,0-8.83-4.61-8.83-10.24h0c0-5.64,4-10.25,8.83-10.25h78c4.85,0,8.83,4.61,8.83,10.25h0C893.3,3165.66,889.32,3170.27,884.47,3170.27Z"/><path class="cls-3" d="M884.47,3401.64h-78c-4.85,0-8.83-4.61-8.83-10.25h0c0-5.63,4-10.24,8.83-10.24h78c4.85,0,8.83,4.61,8.83,10.24h0C893.3,3397,889.32,3401.64,884.47,3401.64Z"/><path class="cls-3" d="M818.47,3515.12S1943.87,3452.9,2560,2982.6c707.5-540.06,1799.7-1190.63,1896.84-530s0,1082.89,0,1082.89Z"/><path class="cls-4" d="M1843.24,1764.52c-6.88,16.62-4.55,34.16-4.69,51.33-.39,48.84-.1,97.68-.09,146.53-13.61-.07-27.23-.54-40.82-.1-11,.36-15.53-3.89-15.47-15.17q.49-84.45.11-168.91c0-10.46,4.49-14.35,14.56-14.06C1812.3,1764.57,1827.77,1764.42,1843.24,1764.52Z"/><rect class="cls-1" x="2057.84" y="1342.3" width="2007.96" height="1362.3" rx="41.95"/><rect class="cls-5" x="2287.03" y="1932.41" width="1547.88" height="153.97"/><path class="cls-6" d="M3988.69,2706.4H2135c-43.61,0-79.09-32.57-79.09-72.6v-1333c0-40,35.48-72.6,79.09-72.6H3988.69c43.61,0,79.08,32.57,79.08,72.6v1333C4067.77,2673.83,4032.3,2706.4,3988.69,2706.4ZM2135,1231.8c-41.43,0-75.15,31-75.15,69v1333c0,38,33.72,69,75.15,69H3988.69c41.43,0,75.14-30.95,75.14-69v-1333c0-38-33.71-69-75.14-69Z"/><path class="cls-6" d="M3988.69,1245.4c33.26,0,60.33,24.85,60.33,55.38v1333c0,30.54-27.07,55.38-60.33,55.38H2135c-33.27,0-60.33-24.84-60.33-55.38v-1333c0-30.53,27.06-55.38,60.33-55.38H3988.69m0-15.41H2135c-42.59,0-77.12,31.7-77.12,70.79v1333c0,39.1,34.53,70.79,77.12,70.79H3988.69c42.59,0,77.11-31.69,77.11-70.79v-1333c0-39.09-34.52-70.79-77.11-70.79Z"/><path class="cls-6" d="M3988.69,1230H2135c-42.59,0-77.12,31.69-77.12,70.79v129.57h2008V1300.78C4065.8,1261.68,4031.28,1230,3988.69,1230Z"/><path class="cls-1" d="M3623.36,1379.79H2773.83c-27.38,0-49.58-20.38-49.58-45.51h0c0-25.14,22.2-45.52,49.58-45.52h849.53c27.38,0,49.58,20.38,49.58,45.52h0C3672.94,1359.41,3650.74,1379.79,3623.36,1379.79Z"/><path class="cls-1" d="M2134.6,1359.66a9.89,9.89,0,0,1-6.69-2.54,8.19,8.19,0,0,1,0-12.28l45.34-41.63a10.08,10.08,0,0,1,13.37,0,8.21,8.21,0,0,1,0,12.29l-45.33,41.62A9.91,9.91,0,0,1,2134.6,1359.66Z"/><path class="cls-1" d="M2179.94,1359.66a9.89,9.89,0,0,1-6.69-2.54l-45.34-41.62a8.21,8.21,0,0,1,0-12.29,10.1,10.1,0,0,1,13.38,0l45.33,41.63a8.19,8.19,0,0,1,0,12.28A9.89,9.89,0,0,1,2179.94,1359.66Z"/><path class="cls-1" d="M2372.87,1359.66c-17.72,0-32.13-13.23-32.13-29.49s14.41-29.5,32.13-29.5,32.13,13.24,32.13,29.5S2390.58,1359.66,2372.87,1359.66Zm0-41.62c-7.29,0-13.21,5.44-13.21,12.13s5.92,12.13,13.21,12.13,13.2-5.45,13.2-12.13S2380.15,1318,2372.87,1318Z"/><path class="cls-1" d="M2286.44,1338.85h-48.57c-5.22,0-9.46-3.89-9.46-8.68s4.24-8.68,9.46-8.68h48.57c5.22,0,9.46,3.88,9.46,8.68S2291.66,1338.85,2286.44,1338.85Z"/><rect class="cls-7" x="2288.73" y="1647.1" width="1546.19" height="156.34" rx="11"/><rect class="cls-6" x="3474.14" y="1647.1" width="360.78" height="156.34" rx="11"/><path class="cls-1" d="M3689.54,1760.63l-10.23,10.24c-4.34-4.25-8.82-8.63-13.29-13-2.52-2.48-5.11-4.89-7.51-7.48-1.39-1.49-2.42-1.72-4.33-.61A41.24,41.24,0,0,1,3597.7,1735c-16.06-27.08,3.22-61.68,34.7-62.28a41.22,41.22,0,0,1,42.22,44.81,39,39,0,0,1-6.49,18.85c-1,1.43-.81,2.3.4,3.48,6.51,6.29,12.93,12.67,19.37,19C3688.51,1759.51,3689.08,1760.15,3689.54,1760.63ZM3634,1684.48a29.61,29.61,0,1,0,29.55,29.63A29.64,29.64,0,0,0,3634,1684.48Z"/><path class="cls-1" d="M3693.23,1764.24c1.74,1.54,4.12,3.13,3.13,6.34a10,10,0,0,1-7,7c-3.2,1-4.85-1.29-6.54-3.33Z"/><rect class="cls-8" x="2355.65" y="2282.82" width="32.18" height="284.33"/><rect class="cls-9" x="2458.26" y="2399.23" width="32.18" height="167.92"/><rect class="cls-10" x="2555.59" y="2282.82" width="32.18" height="284.33"/><rect class="cls-8" x="2658.2" y="2399.23" width="32.18" height="167.92"/><polygon class="cls-11" points="2798.44 2601.18 2263.16 2601.18 2263.16 2247.84 2269.89 2247.84 2269.89 2594.43 2798.44 2594.43 2798.44 2601.18"/><polygon class="cls-11" points="2267.09 2217.59 2278.69 2237.7 2290.3 2257.8 2267.09 2257.8 2243.87 2257.8 2255.48 2237.7 2267.09 2217.59"/><polygon class="cls-11" points="2834.25 2593.53 2814.14 2605.14 2794.04 2616.74 2794.04 2593.53 2794.04 2570.32 2814.14 2581.92 2834.25 2593.53"/><polygon class="cls-11" points="3188.59 1931.89 3242.89 1975.32 3258.47 1900.18 3188.59 1931.89"/><polygon class="cls-11" points="2644.75 2125.92 2380.21 1927.65 2266.82 1989.17 2262.16 1980.57 2381.06 1916.06 2643.19 2112.53 2782.04 1946.2 3050.5 2113 3232.23 1927.2 3239.22 1934.04 3052.01 2125.45 2784.1 1959 2644.75 2125.92"/><circle class="cls-8" cx="2379.85" cy="1925.4" r="23.74"/><circle class="cls-8" cx="2782.29" cy="1956.15" r="23.74"/><circle class="cls-8" cx="3049.19" cy="2119.23" r="23.74"/><rect class="cls-1" x="3362.38" y="1969.7" width="452.77" height="9.36"/><rect class="cls-1" x="3362.38" y="1990.43" width="452.77" height="9.36"/><rect class="cls-1" x="3362.38" y="2029.43" width="452.77" height="9.36"/><rect class="cls-1" x="3362.38" y="2050.17" width="452.77" height="9.36"/><path class="cls-12" d="M3086.45,2474.09s30.74,23.85-3.14,76.56,11.29,80.95,11.29,80.95l77.81-87.23-3.76-70.28Z"/><path class="cls-13" d="M3384.31,3714.24H2853.43a51.37,51.37,0,0,1-51.31-51.31V3281.1a51.38,51.38,0,0,1,51.31-51.33h180.29a27.63,27.63,0,0,0,26.63-19.79l164.17-544.59a107.07,107.07,0,0,1,103.14-76.63H3501a51.33,51.33,0,0,1,49.14,66.14l-169.37,561.86a51,51,0,0,1-49.15,36.51H3151.31a27.86,27.86,0,0,0-27.83,27.83v381.83a27.85,27.85,0,0,0,27.83,27.81h233Zm-530.88-461a27.85,27.85,0,0,0-27.81,27.83v381.83a27.83,27.83,0,0,0,27.81,27.81h254.76a51,51,0,0,1-8.21-27.81V3281.1a51.38,51.38,0,0,1,51.33-51.33h180.27a27.65,27.65,0,0,0,26.64-19.79L3527.6,2648.1a27.82,27.82,0,0,0-26.64-35.84h-173.3a83.72,83.72,0,0,0-80.64,59.92l-164.17,544.59a51,51,0,0,1-49.13,36.5Z"/><path class="cls-14" d="M3182.05,2970.66h230.3a42.17,42.17,0,0,0,40.43-30.08l77.39-256.48a26.93,26.93,0,0,0-25.69-34.62H3274a42.3,42.3,0,0,0-40.42,30.08L3156.35,2936A26.87,26.87,0,0,0,3182.05,2970.66Z"/><path class="cls-6" d="M3182,2970.66h199a42.16,42.16,0,0,0,40.42-30.08l77.4-256.48a26.94,26.94,0,0,0-25.7-34.62h-199a42.5,42.5,0,0,0-40.58,30.08L3156.33,2936A26.87,26.87,0,0,0,3182,2970.66Z"/><path class="cls-6" d="M2825.36,3129.16h484.36a3.37,3.37,0,0,1,3.37,3.37v86.71a0,0,0,0,1,0,0H2822a0,0,0,0,1,0,0v-86.71A3.37,3.37,0,0,1,2825.36,3129.16Z"/><rect class="cls-14" x="2799.94" y="3186.18" width="535.2" height="52.6" rx="1.51"/><path class="cls-15" d="M3384.31,3714.24h-233a51.38,51.38,0,0,1-51.33-51.31V3281.1a51.38,51.38,0,0,1,51.33-51.33h180.27a27.65,27.65,0,0,0,26.64-19.79l169.38-561.87a27.83,27.83,0,0,0-26.64-35.85h-173.3a11.75,11.75,0,0,1,0-23.5H3501a51.33,51.33,0,0,1,49.14,66.14l-169.37,561.86a51,51,0,0,1-49.15,36.51H3151.31a27.86,27.86,0,0,0-27.83,27.83v381.83a27.85,27.85,0,0,0,27.83,27.81h233a11.75,11.75,0,0,1,0,23.5Z"/><path class="cls-16" d="M2717.08,3014.91s-149.79,23.47-107.85,116.34,250.66,378.49,256.65,426.43,45.94-28,45.94-28-31-330.56-129.82-386.48,306.59-128.33,306.59-128.33S2819,3006.43,2717.08,3014.91Z"/><path class="cls-17" d="M2835.93,3209.81s-34.33-14.09-33.81,9.43,4.37,106.26-30.82,173.16l-19.94-30.58,25.31-224.91S2829.94,3180.18,2835.93,3209.81Z"/><path class="cls-18" d="M2647.18,3547.19s-1.5-223.2-6-380.48,142.8-133.32,281.87-140.81,217.37-40.45,217.37-40.45,70.49,1.5,65,92.87c0,0-30.63,125.17-186.42,111.85s-237.68-1.33-237.68-1.33,52.6,65.25-83.22,358.35Z"/><path class="cls-17" d="M2927.14,3021.15s86.05,18.23,161.45,24.72,116.2,49.79,76.33,99.3c0,0,57-54.36,38.51-101.8S2937.45,3001.93,2927.14,3021.15Z"/><g class="cls-19"><path class="cls-6" d="M1567.45,2916.24a42.36,42.36,0,0,1,5.31-35.75l443.33-666.06a42.44,42.44,0,0,1,70.66,47l-443.33,666.06a42.45,42.45,0,0,1-76-11.28Z"/><path class="cls-6" d="M1870.07,2049.22a385,385,0,0,1,489.09-476.07c201.7,66.34,311.82,284.42,245.48,486.08a385.06,385.06,0,0,1-486.08,245.48C1994.51,2263.91,1905.08,2165.7,1870.07,2049.22ZM2526.35,1853c-27.29-90.81-97-167.37-193.7-199.18A300.45,300.45,0,1,0,2526.35,1853Z"/><circle class="cls-20" cx="2171.85" cy="1907.09" r="353.67"/></g><path class="cls-21" d="M1203.91,3503l-14.8,82.55,92.54-8.31s-15.46-43.75-11.17-90.56S1203.91,3503,1203.91,3503Z"/><path class="cls-21" d="M1646.44,3466.42,1631.63,3549l92.54-8.32s-15.46-43.74-11.16-90.56S1646.44,3466.42,1646.44,3466.42Z"/><path class="cls-18" d="M1292.39,2648.4s-4.8,40.8-6.09,212.17-93.13,153.25-103.43,528.2v122.41s39.08,19.32,92.34,9c0,0,57.12-320.84,85.47-355.63s83.75-429.06,146.89-390.41,68.29,245.18,82.1,340.53c12.57,86.72,43.29,360.55,43.29,360.55s53.85,22.36,91.21,0c0,0-1.43-282.32-1.43-373.8s-58-449.69-58-449.69Z"/><polygon class="cls-12" points="1681.21 2757.32 1568.61 2932.87 1556.38 2845.1 1676.64 2700.23 1681.21 2757.32"/><path class="cls-12" d="M1582.51,2735s-137.22,14.17-205.08,15.46-90.88,82.45-90.88,82.45-.79-154.61,4-156.75S1685,2626.78,1582.51,2735Z"/><path class="cls-22" d="M1293.77,3670.78q17.64.16,35.29-.38c10.72-.32,21.44-.74,32.14-1.34,10.19-.57,20.35-1.55,30.5-2.61,9-.95,18-2.27,27-3.7,2.6-.41,5.19-.93,7.78-1.42a2.12,2.12,0,0,0,1.7-1.1c3.42-6.81,6.16-13.83,6.29-21.73a5.4,5.4,0,0,0-.22-2c-.67-1.8,0-3.55.3-5.3,1.4-10-3-18.82-11.51-23.23-4.11-2.13-8.55-2.82-12.92-3.82a356,356,0,0,1-40.19-11.42,143.91,143.91,0,0,1-14.2-5.94c-.79-.38-1.09-.68-.53-1.55,1.27-1.95.33-3.75-.55-5.42a8.63,8.63,0,0,0-7-4.54c-1.32-.16-1.87.95-2.65,1.71-.49.47-.8,1.57-1.49,1.28a9.7,9.7,0,0,1-2.5-1.93c-.36-.32.07-.69.23-.95a4.42,4.42,0,0,0,.36-4,8.69,8.69,0,0,0-7.93-6.25c-1.28,0-1.88,1-2.64,1.75-.43.45-.8,1.26-1.5.34-.49-.65-1.92-.66-1-2.22,1.12-2,.35-4.88-1.67-7.1a8.68,8.68,0,0,0-6-2.8c-1.22-.1-1.87.85-2.51,1.7s-1,1-1.73.22a5.94,5.94,0,0,0-1-.8.79.79,0,0,1-.32-1.12,6.9,6.9,0,0,0-1.94-8,9.63,9.63,0,0,0-5.42-2.4c-1.31-.18-2,.87-2.62,1.72s-1.14.95-2.06.25c-6.42-4.91-12.84-9.85-19.53-14.35-1.13-.76-2.31-1.45-3.45-2.2a1.87,1.87,0,0,0-2.67.4,70.11,70.11,0,0,0-11.83,16.56,1.72,1.72,0,0,1-1,.93c-3.1,1.19-6.27,2.24-9.29,3.65-9.46,4.4-19.27,8-28,14-7.69,5.25-15.41,1.83-20.23-5.19a24.77,24.77,0,0,1-4-13.36,11.53,11.53,0,0,0-1.31-4.88c-1.41-2.69-4-3.77-7.28-3-3.66.88-6.94,2.75-10.27,4.5-.47.24-.63.74-.86,1.18a55.67,55.67,0,0,0-4.73,15.73,54.25,54.25,0,0,0-.83,6.73,3.13,3.13,0,0,1-.4,1.3,115.26,115.26,0,0,0-11.41,38.12,105.24,105.24,0,0,0-.78,18.27,1.66,1.66,0,0,1-.9,1.72,5.39,5.39,0,0,0-2.64,4.46,208.73,208.73,0,0,0-.14,26.35c.12,1.77.45,3.54.74,5.29a2,2,0,0,0,1.95,1.82c14.09,1.29,28.2,2.19,42.31,3.09,13.81.89,27.64,1.47,41.46,2C1263.16,3670.35,1278.46,3670.63,1293.77,3670.78Zm15.76-1.88c-17,.09-34.07-.05-51.1-.6-9.47-.31-18.93-.64-28.39-1.11-10.24-.5-20.47-1-30.7-1.67-10.92-.7-21.82-1.56-32.72-2.5-3.1-.27-3.13-.3-3.35-3.67a.66.66,0,0,1,0-.14,186.53,186.53,0,0,1-.1-25.79c.21-4.19.51-4.63,4.25-5.91.29-.1.57-.21.87-.29a210.6,210.6,0,0,0,20.4-7,188.43,188.43,0,0,1,18-6.21,7,7,0,0,1,7.33,1.66,34.71,34.71,0,0,1,7.31,10,12.44,12.44,0,0,0,5,5.42,24.06,24.06,0,0,0,12.85,3.26c15.05-.38,30.09,0,45.12.89a196.51,196.51,0,0,1,27,3.4c5.59,1.14,11.18,2.46,16.15,5.62a7.67,7.67,0,0,0,4.6,1.36c1,0,2.07.1,3.1.12,6.4.11,12.8.3,19.2.28,8.38,0,16.77-.21,25.15-.67,11.31-.63,22.6-1.47,33.75-3.68,6.33-1.25,12.59-2.75,18.38-5.9,1-.54.91.3,1,.75a23.42,23.42,0,0,1,0,6.37,60.27,60.27,0,0,1-5.58,16,1.22,1.22,0,0,1-1,.71c-4.89.84-9.78,1.76-14.69,2.49q-14.25,2.1-28.58,3.43c-11.37,1.06-22.76,1.82-34.16,2.36C1335.48,3668.49,1322.51,3668.89,1309.53,3668.9Zm-73.86-54.49c-7.3.19-13.5-2.4-19.26-6.36a114.6,114.6,0,0,1-13.62-11.64,77.68,77.68,0,0,0-11-9.26c-3.6-2.34-7.35-4.17-11.68-4.15-.87,0-.89-.31-.62-1.08,1.15-3.28,2.7-6.38,4-9.6,2.36-6,7-9.33,12.2-11.93.53-.27.86-.15,1,.59.2,1.37.5,2.71.77,4.07,1.19,5.81,2.86,11.45,6.24,16.27,4.29,6.1,9.37,7.59,15.53,5.64,5.6-1.77,10.08-5.54,14.26-9.76,2.49-2.5,4.57-5.41,7.14-7.84a84.4,84.4,0,0,1,10.8-8.52,124.22,124.22,0,0,1,13.47-7.72,1.48,1.48,0,0,1,2.11.53,23.86,23.86,0,0,0,6.13,5.27,48.64,48.64,0,0,0,15,5.87c2.64.63,5.4.67,7.8,2.56,3.92,3.09,8.1,5.8,12.17,8.69q5.75,4.08,11.47,8.18c5.35,3.83,10.7,7.64,16,11.53a92.06,92.06,0,0,0,11.07,7.41c6,3.14,12.09,5.65,18.91,5.49a17.08,17.08,0,0,0,14.73-8.28c1.18-1.8,1.19-1.8,3.24-1.22,7,2,14,3.93,21,5.58.45.11,1,.09,1.24.61,1.25,2.41,3,4.49,3.93,7.13.58,1.69,1.31,3.38.89,5.22-.68,3-3,4-5.42,4.37a65.73,65.73,0,0,0-13.62,3.79c-6.65,2.41-13.21,5.12-20,7.18a75.27,75.27,0,0,1-19.08,3.28,49.28,49.28,0,0,1-13.08-1.47,29.46,29.46,0,0,1-9.94-3.83c-2.86-1.91-5.8-3.65-8.7-5.46a124,124,0,0,0-34.92-14.24,71.77,71.77,0,0,0-12.51-1.9,89.22,89.22,0,0,0-10-.11,62.71,62.71,0,0,0-14.14,2.38C1244.72,3613,1240.21,3614.67,1235.67,3614.41Zm110.07-21.4c-4.2,0-6.1-2.69-5.08-6.08a12.38,12.38,0,0,1,.59-1.53,29.73,29.73,0,0,1,5.52-7.79,1.25,1.25,0,0,1,1-.41,6.86,6.86,0,0,1,6.12,5.62,2.46,2.46,0,0,1-.22,1.46,23.44,23.44,0,0,1-3.62,5.71C1348.7,3591.59,1347.13,3593,1345.74,3593Zm-19.26-14.62a8.72,8.72,0,0,1,.17-1c1.07-4.19,3.82-7.16,6.49-10.18.32-.37.74-.23,1.09-.16a8.16,8.16,0,0,1,4,2,5.08,5.08,0,0,1,1,6.35,24.05,24.05,0,0,1-3.54,5.1,7.46,7.46,0,0,1-3.14,2.13A4.54,4.54,0,0,1,1326.48,3578.39Zm-7.82-5.61c-3.93,0-5.74-2.62-4.71-6.11a9.58,9.58,0,0,1,.37-1c1.34-3.23,3.57-5.75,5.75-8.31a1.2,1.2,0,0,1,1.18-.37,7.11,7.11,0,0,1,5.8,4.85,2.79,2.79,0,0,1,0,2.16c-1.45,2.79-3,5.51-5.45,7.48A5.51,5.51,0,0,1,1318.66,3572.78Zm-13.65-10.3c-3.35,0-5.09-2.46-4.25-5.88a12.07,12.07,0,0,1,1.43-3.38,45,45,0,0,1,4.56-6,1.47,1.47,0,0,1,1.39-.51,6.93,6.93,0,0,1,6,5.66,1.77,1.77,0,0,1-.16,1.18,23.09,23.09,0,0,1-4.68,6.92A6,6,0,0,1,1305,3562.48Zm29.5,81.1c.9-1,1.7-2,2.56-2.87a3.49,3.49,0,0,1,4.36-.94,2.11,2.11,0,0,0,2.2-.28,3.26,3.26,0,0,1,4.57.57c1,1,2,2.08,2.93,3.14.24.25.57.47.42,1-2,.25-2.76-1.55-3.85-2.7-1.39-1.47-2.17-1.74-3.83-.66a2.84,2.84,0,0,1-2.94.22,2.34,2.34,0,0,0-3,.7,11.75,11.75,0,0,0-1.2,1.44C1336.13,3644.07,1335.51,3644.31,1334.51,3643.58Zm-90.58-83.93,3.57-1.71c.55-.27.86-.11,1.09.5.51,1.36.24,2-1.06,3.08-1.06.84-1.53,0-2.14-.64C1245,3560.51,1244.58,3560.2,1243.93,3559.65Zm15.38-6.37a1.19,1.19,0,0,1,1.09-.72c.21,0,.31.16.26.35a1.08,1.08,0,0,1-1,.89C1259.4,3553.82,1259.27,3553.62,1259.31,3553.28Z"/><path class="cls-23" d="M1309.53,3668.9c13,0,26-.41,38.91-1,11.4-.54,22.79-1.3,34.16-2.36q14.33-1.33,28.58-3.43c4.91-.73,9.8-1.65,14.69-2.49a1.22,1.22,0,0,0,1-.71,60.27,60.27,0,0,0,5.58-16,23.42,23.42,0,0,0,0-6.37c0-.45,0-1.29-1-.75-5.79,3.15-12,4.65-18.38,5.9-11.15,2.21-22.44,3.05-33.75,3.68-8.38.46-16.77.63-25.15.67-6.4,0-12.8-.17-19.2-.28-1,0-2.07-.16-3.1-.12a7.67,7.67,0,0,1-4.6-1.36c-5-3.16-10.56-4.48-16.15-5.62a196.51,196.51,0,0,0-27-3.4c-15-.93-30.07-1.27-45.12-.89a24.06,24.06,0,0,1-12.85-3.26,12.44,12.44,0,0,1-5-5.42,34.71,34.71,0,0,0-7.31-10,7,7,0,0,0-7.33-1.66,188.43,188.43,0,0,0-18,6.21,210.6,210.6,0,0,1-20.4,7c-.3.08-.58.19-.87.29-3.74,1.28-4,1.72-4.25,5.91a186.53,186.53,0,0,0,.1,25.79.66.66,0,0,0,0,.14c.22,3.37.25,3.4,3.35,3.67,10.9.94,21.8,1.8,32.72,2.5,10.23.65,20.46,1.17,30.7,1.67,9.46.47,18.92.8,28.39,1.11C1275.46,3668.85,1292.49,3669,1309.53,3668.9Z"/><path class="cls-24" d="M1235.67,3614.41c4.54.26,9-1.37,13.62-2.73a62.71,62.71,0,0,1,14.14-2.38,89.22,89.22,0,0,1,10,.11,71.77,71.77,0,0,1,12.51,1.9,124,124,0,0,1,34.92,14.24c2.9,1.81,5.84,3.55,8.7,5.46a29.46,29.46,0,0,0,9.94,3.83,49.28,49.28,0,0,0,13.08,1.47,75.27,75.27,0,0,0,19.08-3.28c6.77-2.06,13.33-4.77,20-7.18a65.73,65.73,0,0,1,13.62-3.79c2.43-.33,4.74-1.39,5.42-4.37.42-1.84-.31-3.53-.89-5.22-.9-2.64-2.68-4.72-3.93-7.13-.27-.52-.79-.5-1.24-.61-7.06-1.65-14-3.62-21-5.58-2-.58-2.06-.58-3.24,1.22a17.08,17.08,0,0,1-14.73,8.28c-6.82.16-12.94-2.35-18.91-5.49a92.06,92.06,0,0,1-11.07-7.41c-5.31-3.89-10.66-7.7-16-11.53q-5.73-4.11-11.47-8.18c-4.07-2.89-8.25-5.6-12.17-8.69-2.4-1.89-5.16-1.93-7.8-2.56a48.64,48.64,0,0,1-15-5.87,23.86,23.86,0,0,1-6.13-5.27,1.48,1.48,0,0,0-2.11-.53,124.22,124.22,0,0,0-13.47,7.72,84.4,84.4,0,0,0-10.8,8.52c-2.57,2.43-4.65,5.34-7.14,7.84-4.18,4.22-8.66,8-14.26,9.76-6.16,1.95-11.24.46-15.53-5.64-3.38-4.82-5-10.46-6.24-16.27-.27-1.36-.57-2.7-.77-4.07-.11-.74-.44-.86-1-.59-5.24,2.6-9.84,5.89-12.2,11.93-1.26,3.22-2.81,6.32-4,9.6-.27.77-.25,1.08.62,1.08,4.33,0,8.08,1.81,11.68,4.15a77.68,77.68,0,0,1,11,9.26,114.6,114.6,0,0,0,13.62,11.64C1222.17,3612,1228.37,3614.6,1235.67,3614.41Z"/><path class="cls-23" d="M1345.74,3593c1.39,0,3-1.42,4.35-3a23.44,23.44,0,0,0,3.62-5.71,2.46,2.46,0,0,0,.22-1.46,6.86,6.86,0,0,0-6.12-5.62,1.25,1.25,0,0,0-1,.41,29.73,29.73,0,0,0-5.52,7.79,12.38,12.38,0,0,0-.59,1.53C1339.64,3590.32,1341.54,3593,1345.74,3593Z"/><path class="cls-23" d="M1326.48,3578.39a4.54,4.54,0,0,0,6,4.16,7.46,7.46,0,0,0,3.14-2.13,24.05,24.05,0,0,0,3.54-5.1,5.08,5.08,0,0,0-1-6.35,8.16,8.16,0,0,0-4-2c-.35-.07-.77-.21-1.09.16-2.67,3-5.42,6-6.49,10.18A8.72,8.72,0,0,0,1326.48,3578.39Z"/><path class="cls-23" d="M1318.66,3572.78a5.51,5.51,0,0,0,3-1.32c2.44-2,4-4.69,5.45-7.48a2.79,2.79,0,0,0,0-2.16,7.11,7.11,0,0,0-5.8-4.85,1.2,1.2,0,0,0-1.18.37c-2.18,2.56-4.41,5.08-5.75,8.31a9.58,9.58,0,0,0-.37,1C1312.92,3570.16,1314.73,3572.78,1318.66,3572.78Z"/><path class="cls-23" d="M1305,3562.48a6,6,0,0,0,4.27-2,23.09,23.09,0,0,0,4.68-6.92,1.77,1.77,0,0,0,.16-1.18,6.93,6.93,0,0,0-6-5.66,1.47,1.47,0,0,0-1.39.51,45,45,0,0,0-4.56,6,12.07,12.07,0,0,0-1.43,3.38C1299.92,3560,1301.66,3562.44,1305,3562.48Z"/><path class="cls-24" d="M1334.51,3643.58c1,.73,1.62.49,2.18-.41a11.75,11.75,0,0,1,1.2-1.44,2.34,2.34,0,0,1,3-.7,2.84,2.84,0,0,0,2.94-.22c1.66-1.08,2.44-.81,3.83.66,1.09,1.15,1.87,3,3.85,2.7.15-.5-.18-.72-.42-1-1-1.06-1.93-2.11-2.93-3.14a3.26,3.26,0,0,0-4.57-.57,2.11,2.11,0,0,1-2.2.28,3.49,3.49,0,0,0-4.36.94C1336.21,3641.61,1335.41,3642.57,1334.51,3643.58Z"/><path class="cls-24" d="M1243.93,3559.65c.65.55,1.08.86,1.46,1.23.61.62,1.08,1.48,2.14.64,1.3-1.05,1.57-1.72,1.06-3.08-.23-.61-.54-.77-1.09-.5Z"/><path class="cls-24" d="M1259.31,3553.28c0,.34.09.54.33.52a1.08,1.08,0,0,0,1-.89c0-.19-.05-.39-.26-.35A1.19,1.19,0,0,0,1259.31,3553.28Z"/><path class="cls-22" d="M1738.76,3631.94q17.65.17,35.29-.39c10.72-.32,21.44-.74,32.15-1.34,10.18-.57,20.34-1.54,30.49-2.61,9-.95,18-2.27,27-3.69,2.6-.42,5.19-.94,7.78-1.42a2.13,2.13,0,0,0,1.7-1.11c3.42-6.8,6.17-13.83,6.3-21.72a5.44,5.44,0,0,0-.23-2c-.67-1.8,0-3.54.3-5.3,1.41-10-3-18.82-11.51-23.22-4.11-2.14-8.55-2.83-12.92-3.83a351.1,351.1,0,0,1-40.18-11.42,143,143,0,0,1-14.21-5.93c-.79-.39-1.08-.69-.52-1.55,1.26-2,.32-3.76-.56-5.43a8.62,8.62,0,0,0-7-4.54c-1.31-.16-1.87,1-2.65,1.71-.49.47-.8,1.57-1.49,1.28a9.65,9.65,0,0,1-2.5-1.93c-.35-.32.07-.69.24-.95a4.45,4.45,0,0,0,.35-4,8.72,8.72,0,0,0-7.92-6.25c-1.29,0-1.88,1-2.64,1.76-.43.45-.81,1.25-1.51.33-.49-.65-1.91-.65-1-2.21,1.12-2,.35-4.88-1.67-7.11a8.7,8.7,0,0,0-6-2.8c-1.22-.09-1.88.86-2.52,1.7s-1,1-1.72.23a5.61,5.61,0,0,0-1.06-.81.78.78,0,0,1-.32-1.12,6.9,6.9,0,0,0-1.93-8,9.66,9.66,0,0,0-5.42-2.4c-1.32-.18-2,.87-2.63,1.72s-1.14.95-2.05.26c-6.43-4.92-12.84-9.86-19.54-14.36-1.13-.76-2.3-1.45-3.44-2.19a1.85,1.85,0,0,0-2.67.4,69.66,69.66,0,0,0-11.84,16.56,1.72,1.72,0,0,1-1,.92c-3.11,1.2-6.27,2.25-9.29,3.65-9.46,4.4-19.28,8-28.06,14-7.69,5.26-15.41,1.83-20.23-5.19a24.72,24.72,0,0,1-4-13.36,11.53,11.53,0,0,0-1.31-4.88c-1.41-2.69-4-3.77-7.28-3-3.66.87-6.94,2.75-10.27,4.49a2.35,2.35,0,0,0-.85,1.19c-2.51,4.92-3.77,10.28-4.73,15.73a52.26,52.26,0,0,0-.83,6.72,3.15,3.15,0,0,1-.41,1.3,115.49,115.49,0,0,0-11.41,38.12,107.33,107.33,0,0,0-.78,18.28,1.66,1.66,0,0,1-.9,1.71,5.41,5.41,0,0,0-2.64,4.47,208.56,208.56,0,0,0-.13,26.34c.12,1.78.44,3.54.73,5.3a2,2,0,0,0,2,1.81c14.08,1.29,28.19,2.19,42.3,3.1,13.82.88,27.64,1.47,41.47,2C1708.16,3631.5,1723.46,3631.78,1738.76,3631.94Zm15.77-1.89c-17,.1-34.08-.05-51.11-.6-9.46-.3-18.93-.64-28.39-1.1-10.23-.5-20.47-1-30.7-1.68-10.91-.69-21.82-1.55-32.72-2.5-3.1-.26-3.12-.29-3.35-3.67v-.14a186.53,186.53,0,0,1-.1-25.79c.22-4.19.52-4.62,4.25-5.91.29-.1.58-.2.87-.28a212.39,212.39,0,0,0,20.4-7,185.94,185.94,0,0,1,18-6.22,7,7,0,0,1,7.32,1.66,34.84,34.84,0,0,1,7.31,10,12.43,12.43,0,0,0,5,5.43,24.1,24.1,0,0,0,12.84,3.25c15.06-.38,30.1,0,45.13.9a194.62,194.62,0,0,1,27,3.39c5.6,1.14,11.18,2.46,16.15,5.62a7.68,7.68,0,0,0,4.61,1.36c1,0,2.06.11,3.1.12,6.39.11,12.79.31,19.19.28,8.39,0,16.78-.21,25.16-.67,11.31-.62,22.59-1.47,33.75-3.67,6.32-1.25,12.58-2.75,18.37-5.91,1-.54.92.31,1,.76a23.75,23.75,0,0,1,0,6.36,60.79,60.79,0,0,1-5.57,16,1.24,1.24,0,0,1-1,.7c-4.9.84-9.79,1.76-14.7,2.49q-14.25,2.12-28.58,3.43-17.05,1.59-34.16,2.36C1780.47,3629.64,1767.5,3630,1754.53,3630.05Zm-73.86-54.49c-7.3.19-13.51-2.4-19.27-6.36a114.47,114.47,0,0,1-13.62-11.64,78.27,78.27,0,0,0-10.94-9.26c-3.6-2.33-7.36-4.16-11.68-4.15-.88,0-.89-.31-.62-1.08,1.14-3.28,2.69-6.37,4-9.6,2.36-6,7-9.33,12.2-11.93.54-.26.86-.14,1,.6.21,1.36.5,2.71.78,4.06,1.19,5.81,2.85,11.45,6.23,16.27,4.3,6.11,9.37,7.59,15.53,5.64,5.61-1.77,10.08-5.54,14.27-9.76,2.48-2.5,4.57-5.41,7.14-7.83a83.79,83.79,0,0,1,10.8-8.53,123.2,123.2,0,0,1,13.47-7.71,1.46,1.46,0,0,1,2.1.53,24.47,24.47,0,0,0,6.14,5.27,48.56,48.56,0,0,0,15,5.86c2.65.63,5.4.67,7.8,2.57,3.93,3.08,8.11,5.8,12.17,8.68q5.75,4.08,11.48,8.19c5.34,3.83,10.69,7.64,16,11.52a92.06,92.06,0,0,0,11.07,7.41c6,3.15,12.09,5.66,18.91,5.49a17.12,17.12,0,0,0,14.74-8.27c1.17-1.81,1.19-1.8,3.24-1.23,7,2,14,3.93,21,5.58.44.11,1,.09,1.23.61,1.25,2.42,3,4.49,3.93,7.13.58,1.69,1.32,3.38.89,5.22-.68,3-3,4-5.42,4.37a66.27,66.27,0,0,0-13.61,3.79c-6.66,2.42-13.22,5.12-20,7.19a74.74,74.74,0,0,1-19.08,3.27,49.31,49.31,0,0,1-13.08-1.46,29.64,29.64,0,0,1-9.94-3.84c-2.85-1.9-5.79-3.65-8.69-5.46a117.38,117.38,0,0,0-14.94-7.63,113.07,113.07,0,0,0-20-6.6,71.64,71.64,0,0,0-12.51-1.91,91.7,91.7,0,0,0-9.95-.11,62.8,62.8,0,0,0-14.14,2.38C1689.72,3574.19,1685.2,3575.82,1680.67,3575.56Zm110.07-21.39c-4.21,0-6.11-2.7-5.08-6.08a13.54,13.54,0,0,1,.58-1.54,29.49,29.49,0,0,1,5.53-7.78,1.2,1.2,0,0,1,1-.42,6.85,6.85,0,0,1,6.12,5.62,2.5,2.5,0,0,1-.21,1.47,23.23,23.23,0,0,1-3.63,5.7C1793.7,3552.74,1792.12,3554.13,1790.74,3554.17Zm-19.27-14.63a7.46,7.46,0,0,1,.18-1c1.06-4.19,3.81-7.15,6.48-10.18.32-.37.74-.22,1.1-.15a8.1,8.1,0,0,1,4,1.95,5.09,5.09,0,0,1,1,6.36,23.69,23.69,0,0,1-3.54,5.1,7.42,7.42,0,0,1-3.14,2.13A4.55,4.55,0,0,1,1771.47,3539.54Zm-7.81-5.61c-3.94,0-5.75-2.62-4.72-6.1.11-.35.24-.69.38-1,1.33-3.23,3.57-5.75,5.75-8.31a1.2,1.2,0,0,1,1.17-.37,7.11,7.11,0,0,1,5.8,4.86,2.77,2.77,0,0,1,0,2.15c-1.45,2.8-3,5.51-5.45,7.48A5.45,5.45,0,0,1,1763.66,3533.93Zm-13.65-10.3c-3.36,0-5.1-2.46-4.26-5.88a12.1,12.1,0,0,1,1.44-3.38,44.73,44.73,0,0,1,4.55-6,1.48,1.48,0,0,1,1.39-.51,6.93,6.93,0,0,1,6,5.66,1.7,1.7,0,0,1-.16,1.18,22.79,22.79,0,0,1-4.68,6.92A6,6,0,0,1,1750,3523.63Zm29.5,81.11c.9-1,1.69-2,2.55-2.87a3.48,3.48,0,0,1,4.36-.95,2.1,2.1,0,0,0,2.2-.28,3.28,3.28,0,0,1,4.58.57c1,1,2,2.09,2.93,3.14.23.25.56.47.41,1-2,.26-2.75-1.55-3.84-2.7-1.4-1.47-2.17-1.74-3.84-.66a2.84,2.84,0,0,1-2.94.23,2.33,2.33,0,0,0-3,.69,13.67,13.67,0,0,0-1.2,1.44C1781.13,3605.23,1780.5,3605.46,1779.51,3604.74Zm-90.58-83.93c1.45-.7,2.51-1.2,3.56-1.72.55-.26.86-.11,1.09.51.52,1.35.25,2-1.06,3.07-1.06.84-1.52,0-2.14-.63C1690,3521.66,1689.57,3521.35,1688.93,3520.81Zm15.38-6.38a1.19,1.19,0,0,1,1.08-.72c.21,0,.31.16.26.36a1.06,1.06,0,0,1-1,.88C1704.4,3515,1704.27,3514.77,1704.31,3514.43Z"/><path class="cls-23" d="M1754.53,3630.05c13,0,25.94-.41,38.9-1q17.1-.8,34.16-2.36,14.34-1.32,28.58-3.43c4.91-.73,9.8-1.65,14.7-2.49a1.24,1.24,0,0,0,1-.7,60.79,60.79,0,0,0,5.57-16,23.75,23.75,0,0,0,0-6.36c0-.45,0-1.3-1-.76-5.79,3.16-12,4.66-18.37,5.91-11.16,2.2-22.44,3-33.75,3.67-8.38.46-16.77.64-25.16.67-6.4,0-12.8-.17-19.19-.28-1,0-2.07-.16-3.1-.12a7.68,7.68,0,0,1-4.61-1.36c-5-3.16-10.55-4.48-16.15-5.62a194.62,194.62,0,0,0-27-3.39c-15-.94-30.07-1.28-45.13-.9a24.1,24.1,0,0,1-12.84-3.25,12.43,12.43,0,0,1-5-5.43,34.84,34.84,0,0,0-7.31-10,7,7,0,0,0-7.32-1.66,185.94,185.94,0,0,0-18,6.22,212.39,212.39,0,0,1-20.4,7c-.29.08-.58.18-.87.28-3.73,1.29-4,1.72-4.25,5.91a186.53,186.53,0,0,0,.1,25.79v.14c.23,3.38.25,3.41,3.35,3.67,10.9.95,21.81,1.81,32.72,2.5,10.23.66,20.47,1.18,30.7,1.68,9.46.46,18.93.8,28.39,1.1C1720.45,3630,1737.49,3630.15,1754.53,3630.05Z"/><path class="cls-24" d="M1680.67,3575.56c4.53.26,9-1.37,13.61-2.73a62.8,62.8,0,0,1,14.14-2.38,91.7,91.7,0,0,1,9.95.11,71.64,71.64,0,0,1,12.51,1.91,113.07,113.07,0,0,1,20,6.6,117.38,117.38,0,0,1,14.94,7.63c2.9,1.81,5.84,3.56,8.69,5.46a29.64,29.64,0,0,0,9.94,3.84,49.31,49.31,0,0,0,13.08,1.46,74.74,74.74,0,0,0,19.08-3.27c6.77-2.07,13.33-4.77,20-7.19a66.27,66.27,0,0,1,13.61-3.79c2.43-.33,4.74-1.39,5.42-4.37.43-1.84-.31-3.53-.89-5.22-.89-2.64-2.68-4.71-3.93-7.13-.26-.52-.79-.5-1.23-.61-7.07-1.65-14-3.62-21-5.58-2-.57-2.07-.58-3.24,1.23a17.12,17.12,0,0,1-14.74,8.27c-6.82.17-12.94-2.34-18.91-5.49a92.06,92.06,0,0,1-11.07-7.41c-5.31-3.88-10.66-7.69-16-11.52q-5.73-4.11-11.48-8.19c-4.06-2.88-8.24-5.6-12.17-8.68-2.4-1.9-5.15-1.94-7.8-2.57a48.56,48.56,0,0,1-15-5.86,24.47,24.47,0,0,1-6.14-5.27,1.46,1.46,0,0,0-2.1-.53,123.2,123.2,0,0,0-13.47,7.71,83.79,83.79,0,0,0-10.8,8.53c-2.57,2.42-4.66,5.33-7.14,7.83-4.19,4.22-8.66,8-14.27,9.76-6.16,1.95-11.23.47-15.53-5.64-3.38-4.82-5-10.46-6.23-16.27-.28-1.35-.57-2.7-.78-4.06-.11-.74-.43-.86-1-.6-5.24,2.6-9.84,5.89-12.2,11.93-1.26,3.23-2.81,6.32-4,9.6-.27.77-.26,1.09.62,1.08,4.32,0,8.08,1.82,11.68,4.15a78.27,78.27,0,0,1,10.94,9.26,114.47,114.47,0,0,0,13.62,11.64C1667.16,3573.16,1673.37,3575.75,1680.67,3575.56Z"/><path class="cls-23" d="M1790.74,3554.17c1.38,0,3-1.43,4.34-3a23.23,23.23,0,0,0,3.63-5.7,2.5,2.5,0,0,0,.21-1.47,6.85,6.85,0,0,0-6.12-5.62,1.2,1.2,0,0,0-1,.42,29.49,29.49,0,0,0-5.53,7.78,13.54,13.54,0,0,0-.58,1.54C1784.63,3551.47,1786.53,3554.19,1790.74,3554.17Z"/><path class="cls-23" d="M1771.47,3539.54a4.55,4.55,0,0,0,6,4.17,7.42,7.42,0,0,0,3.14-2.13,23.69,23.69,0,0,0,3.54-5.1,5.09,5.09,0,0,0-1-6.36,8.1,8.1,0,0,0-4-1.95c-.36-.07-.78-.22-1.1.15-2.67,3-5.42,6-6.48,10.18A7.46,7.46,0,0,0,1771.47,3539.54Z"/><path class="cls-23" d="M1763.66,3533.93a5.45,5.45,0,0,0,3-1.32c2.44-2,4-4.68,5.45-7.48a2.77,2.77,0,0,0,0-2.15,7.11,7.11,0,0,0-5.8-4.86,1.2,1.2,0,0,0-1.17.37c-2.18,2.56-4.42,5.08-5.75,8.31-.14.34-.27.68-.38,1C1757.91,3531.31,1759.72,3533.93,1763.66,3533.93Z"/><path class="cls-23" d="M1750,3523.63a6,6,0,0,0,4.26-2,22.79,22.79,0,0,0,4.68-6.92,1.7,1.7,0,0,0,.16-1.18,6.93,6.93,0,0,0-6-5.66,1.48,1.48,0,0,0-1.39.51,44.73,44.73,0,0,0-4.55,6,12.1,12.1,0,0,0-1.44,3.38C1744.91,3521.17,1746.65,3523.59,1750,3523.63Z"/><path class="cls-24" d="M1779.51,3604.74c1,.72,1.62.49,2.17-.42a13.67,13.67,0,0,1,1.2-1.44,2.33,2.33,0,0,1,3-.69,2.84,2.84,0,0,0,2.94-.23c1.67-1.08,2.44-.81,3.84.66,1.09,1.15,1.86,3,3.84,2.7.15-.5-.18-.72-.41-1-1-1-1.94-2.11-2.93-3.14a3.28,3.28,0,0,0-4.58-.57,2.1,2.1,0,0,1-2.2.28,3.48,3.48,0,0,0-4.36.95C1781.2,3602.76,1780.41,3603.72,1779.51,3604.74Z"/><path class="cls-24" d="M1688.93,3520.81c.64.54,1.08.85,1.45,1.23.62.61,1.08,1.47,2.14.63,1.31-1,1.58-1.72,1.06-3.07-.23-.62-.54-.77-1.09-.51C1691.44,3519.61,1690.38,3520.11,1688.93,3520.81Z"/><path class="cls-24" d="M1704.31,3514.43c0,.34.09.55.33.52a1.06,1.06,0,0,0,1-.88c0-.2-.05-.39-.26-.36A1.19,1.19,0,0,0,1704.31,3514.43Z"/><path class="cls-25" d="M1468.19,1870.64s38.37,7.45,61.28,87c0,0,8,34.36,32.07,47,0,0,14.89,5.15-12,20s-17.75,41.8-26.34,65.86-55,17.18-65.28,25.19,14.89,88.77,32.07,107.09-112.82,43-119.12,13.74-16-25.76-16-25.76,46.38,4,32.07-97.93c0,0-48.68-26.92-52.12-62.42S1321.59,1875.23,1468.19,1870.64Z"/><path class="cls-21" d="M1468.44,2180s5.62,40.51-38.61,40.94-47.7-30.28-47.7-30.28l-18,20,43.81,44.24,85.9-26.63-16.53-29.2Z"/><path class="cls-21" d="M1516.3,1922.16s-21.19,23.5-79.6,32.09c0,0-14.89-.57-13.75,17.75s-10.88,55.55-10.88,55.55-17.75-32.64-37.22-18.89-1.57,78.53-1.57,78.53-74.59-101.44-51.69-137.23S1518,1864.87,1516.3,1922.16Z"/><path class="cls-18" d="M1587.88,1794.48s3.83,113.47-123.12,146.6c0,0-68.15-9.73-53.26,41.23,0,0,6.3,18.9.57,45.24,0,0-8.22-49.26-43.52-26.91,0,0-19.47,14.31-6.3,48.1s13.06,56.7,13.06,56.7-156.8-7.45-98.38-158.06c0,0-17.18-108.81,79.6-127.13S1460.18,1882.67,1587.88,1794.48Z"/><path class="cls-6" d="M1379.07,2196.17s-.18,52.35,73.29,26.85c14.91-5.18,23.54-21.25,18.58-36.23-.19-.57-.4-1.14-.62-1.71,0,0,5.68-2.61,18.49,1.1,15.13,4.38,75.59,1.28,114.53-1.08s179.25,235.3,179.25,235.3l-33.22,69.86-91.62-70.43,16,249.68s-50.39,59.55-223.34,49.82-164.07-24.69-164.07-24.69l14.38-455.26S1381.51,2187.19,1379.07,2196.17Z"/><path class="cls-26" d="M1493.1,2879.25a42.31,42.31,0,0,1,5.31-35.76l443.32-666a42.44,42.44,0,1,1,70.66,47l-443.32,666.05a42.44,42.44,0,0,1-76-11.27Z"/><path class="cls-8" d="M1795.71,2012.22a384.95,384.95,0,0,1,489.09-476.06c201.7,66.33,311.82,284.42,245.48,486.07a385,385,0,0,1-486.07,245.48C1920.15,2226.92,1830.73,2128.7,1795.71,2012.22ZM2452,1816c-27.3-90.81-97-167.36-193.71-199.17A300.42,300.42,0,1,0,2452,1816Z"/><path class="cls-27" d="M1293.25,2503.09s-17.58,103,37.51,123.26c53.83,19.76,258.91,32.21,258.91,32.21l-80.53-70.45Z"/><path class="cls-25" d="M1575.43,2585.61l44.81,15.26s17.18,3.15,48.3-13c0,0,.52,63.86,78.25,50.12,0,0,24.49-3.86-8.16,47.68s-64.85,51.11-123.69-13.75c0,0-37.37-20.61-79.89-39.94S1575.43,2585.61,1575.43,2585.61Z"/><path class="cls-28" d="M1605.28,2595.78l-235.58-79.17,15.87-166.48s7,136.36,21.49,146.09C1457.82,2530.39,1591.4,2551.24,1605.28,2595.78Z"/><path class="cls-6" d="M1385.57,2350.13c-8.3,60.64,1.31,160.18,1.31,160.18,68.14,12.6,195.27,69.29,195.27,69.29,4,38.94-26.91,72.15-26.91,72.15s-182.11-32.06-233.07-57.26-61.28-306.38-53.83-326.42,53.83-39.86,53.83-39.86"/><path class="cls-27" d="M1651.45,2311.59l6.3,108.24,55.83,42.92S1678.05,2426.4,1651.45,2311.59Z"/><path class="cls-25" d="M3130.37,2262.31s-43.3,9.88-57.42,74.36c0,0-12.23,25.89-50.35,33.89,0,0-8.94,5.17,0,12.7s23.69,7.69,21.8,15.22-17.57,49.89-1.09,65.26c25.6,23.89,104.47,29.18,100.24,53.18s-47.06,66.83-47.06,66.83,19.76,54.59,103.06,5.65l33.89-69.19,72.47-136S3183.08,2216.66,3130.37,2262.31Z"/><path class="cls-21" d="M3121.56,2269.79s-12.84,46.64,6.93,77.71,79,42.21,90.55,67.69l12.52.79s18.83-25.17,29.65,4.94,16-98.37,16-98.37S3129.22,2229.74,3121.56,2269.79Z"/><path class="cls-12" d="M3183.36,2377.12s54.94,23.56,28.59,58.7c0,0,32.63-13.81,24.47-62.13S3183.36,2377.12,3183.36,2377.12Z"/><path class="cls-21" d="M3231.56,2458.56s-44.71,48.48-45.65,111.54c0,0,4,18.12-12.47,19.77s-37.21,5.36-63.67-20.38L3097.9,2583s40.24,31.3,102.36,11.06l10.82-16.47Z"/><path class="cls-12" d="M3100,2281.86s29-25.08,29-3.08-9.41,85.66,85.18,108.72,17.42,71.06,17.42,71.06-56.48,110.13-24.48,138.37,66.36,72.94,66.36,72.94-12.71-22.12,17.41-23.53,20.66-24.32,7.06-65.88c-24.47-74.83,78.6-6.59,43.3-116.25,0,0-8.25-50.79,4.92-70.09s-14.8-218.4-207.76-164.75C3138.37,2229.37,3108.89,2240.88,3100,2281.86Z"/><path class="cls-25" d="M3107.05,2571.28s-67.07-29.23-95.75,11.88c-32.26,46.23-85.5,145.14-85.5,145.14s-17-12.15-105.19-94l-57.25-64.58s1.07-28.62-7-54.06c-9.39-29.66,13.53-58.14,13.53-58.14s-9.55-15-28.41,9.5c0,0-6.11,9.09-4.11,23.47,0,0-38.21-46.94-52.33,5.49-9.32,34.62-45.2,50.27,31.69,83.39,0,0,109.19,185.08,128.16,209.38s95.21,29.3,116.51,2.67S3107.05,2571.28,3107.05,2571.28Z"/><path class="cls-21" d="M3004.48,2665.94s-50,98.92-77.65,109-114.67-36.83-114.67-36.83l102,113.18,56.25-62.92Z"/><path class="cls-21" d="M2711,2467.11s26.08,13,28.08,39.49-44.1,44.75-29.37,69.56c0,0-51.36-24.7-50.44-49S2711,2467.11,2711,2467.11Z"/><path class="cls-29" d="M3107.05,2571.28s6.17,42,97.88,18.2c0,0,30.46,17.15,93,39.45,0,0-57.26,1.33-74.57,129.16,0,0,8,100.53-18,320.23,0,0-6.66-49.93-73.24-44.6s-169.77-34-169.77-34l-35.28-110.51s30.89-63.84,43.26-147.14c5.34-36,94.86-180.7,94.86-180.7A149.86,149.86,0,0,1,3107.05,2571.28Z"/><path class="cls-30" d="M3248,2668.21s-24.64,26.63-46.61,145.14c-7,37.56-51.15,89.88-98.53,101.86-75.28,19-198.46,47.27-198.46,47.27l83.4,20.3L3221,2908S3275.9,2666.41,3248,2668.21Z"/><path class="cls-31" d="M3216.85,2965.76l-4.5,49.15s-50.36-34.45-129.76-29.46c0,0-16-.5-43.94,20s-18-34.76-18-34.76S3224.27,2929.1,3216.85,2965.76Z"/><path class="cls-25" d="M1896.94,2413.54a15.71,15.71,0,0,0-2.79-16.9c-8.43-9.45-23.25-22.31-32.25-8.65-13.13,19.93-27,37.19-16,55.11C1856.11,2459.9,1878.55,2455.7,1896.94,2413.54Z"/><path class="cls-25" d="M3298,2628.93s40.78,1,37.78,56.42S3258.86,2952,3258.86,2952s1.49,13.49-59.42,14.49-137.82,3.49-137.82,3.49-40.94,44.44-90.38,44.94-14-58.42-14-58.42,64.91-10,86.39-20,148.8-38.95,148.8-38.95l31-139.48S3235.72,2636.42,3298,2628.93Z"/><path class="cls-32" d="M2656.65,3021.15h398a12.68,12.68,0,0,0,12.64-12.64h0a12.67,12.67,0,0,0-12.64-12.64h-398a12.68,12.68,0,0,0-12.65,12.64h0A12.68,12.68,0,0,0,2656.65,3021.15Z"/><path class="cls-33" d="M2656.65,3021.15h398a7,7,0,1,0,0-11.92h-398a7,7,0,1,0,0,11.92Z"/><path class="cls-33" d="M2646.82,2995.87h318.35a14.36,14.36,0,0,0,14.5-16.54l-25.38-206.2c-1.12-9.1-9.47-16.54-18.57-16.54H2617.37a14.35,14.35,0,0,0-14.5,16.54l25.37,206.2C2629.36,2988.43,2637.72,2995.87,2646.82,2995.87Z"/><path class="cls-34" d="M2646.82,2995.87h308.95a14.35,14.35,0,0,0,14.5-16.54l-25.37-206.2c-1.12-9.1-9.48-16.54-18.57-16.54h-309a14.35,14.35,0,0,0-14.5,16.54l25.37,206.2C2629.36,2988.43,2637.72,2995.87,2646.82,2995.87Z"/><path class="cls-35" d="M2663.65,2995.87h31.8l250.94-210.65-1.49-12.09a18.52,18.52,0,0,0-4.35-9.69l-276.9,232.43Zm240.79-239.28L2630.7,2986.38a18,18,0,0,1-2.46-7.05l-3.94-32.06,227.15-190.68Z"/><path class="cls-34" d="M2982.33,3021.15h72.33a12.68,12.68,0,0,0,12.64-12.64h0a12.67,12.67,0,0,0-12.64-12.64h-72.33a12.67,12.67,0,0,0-12.64,12.64h0A12.68,12.68,0,0,0,2982.33,3021.15Z"/><path class="cls-36" d="M2650.33,3002.19h331.2a6.34,6.34,0,0,0,6.31-6.32h0a6.33,6.33,0,0,0-6.31-6.31h-331.2a6.34,6.34,0,0,0-6.33,6.31h0A6.35,6.35,0,0,0,2650.33,3002.19Z"/><path class="cls-37" d="M2780.06,2844.45c17.55,0,33.24,14.23,35,31.78s-11,31.78-28.53,31.78-33.24-14.23-35-31.78S2762.51,2844.45,2780.06,2844.45Z"/><path class="cls-25" d="M2657.66,2500.6s39.12-63.25,63.42-22.54c0,0,22.05,25.79,2.33,48a102.85,102.85,0,0,1-19.54,17.1c-27.89,18.54-62-12.22-46.53-41.94C2657.45,2501,2657.56,2500.81,2657.66,2500.6Z"/><path d="M2620.05,3505.08c-2.25,7.84-4.27,15.44-6.61,23-6.67,21.38-13.34,42.76-20.27,64.06-3.36,10.34-7.38,20.47-11,30.74-5.87,16.87-17.59,29-33.54,37a147.69,147.69,0,0,1-28.4,10.58c-20.56,5.4-41.39,9.85-62.08,14.79a37.24,37.24,0,0,0-8.67,3.07c-5.49,2.88-5.85,8.31-.36,11.13a157.93,157.93,0,0,0,23.11,9.88,829.73,829.73,0,0,0,115.82,28.65,158,158,0,0,0,24.38,2.17c11.27.17,18.81-5.6,23.53-15.3,5.74-11.82,11.78-23.5,17.63-35.27a18.84,18.84,0,0,0,1.37-4.25q10.92-48.9,21.78-97.81c2.86-12.94,5.66-25.91,8.21-38.92a90.79,90.79,0,0,0,1.28-13.8c.31-8.11-3.47-13.1-11.5-15.33-9.74-2.7-19.52-5.28-29.29-7.87-7-1.86-14-3.67-21.08-5.49C2623.06,3505.71,2621.68,3505.45,2620.05,3505.08Z"/><path d="M2747.42,3490.46c-2.21,1.87-3.65,3.05-5.05,4.27a278.24,278.24,0,0,1-52.26,35.8,5.83,5.83,0,0,0-2.48,3.93c-1.17,7.77-1.52,15.69-3.13,23.36-4.85,23.15-10.14,46.2-15.26,69.29q-5.85,26.37-11.68,52.77c-.26,1.16-.39,2.36-.75,4.61,2-2.74,3.39-4.62,4.78-6.49,15-20.22,33.33-36.53,57.84-45.65,8.42-3.13,16.43-7.28,24.87-10.36,17.3-6.31,21.95-19.59,21.71-35.81a66,66,0,0,0-6.56-26.91c-9.74-21.15-14.79-43.09-12.07-66.25C2747.43,3492.57,2747.4,3492.1,2747.42,3490.46Z"/><path d="M2710.36,3749.94l8.65,1.4c.8-4.93,1.62-9.8,2.37-14.68,4.82-31.6,12.33-62.53,23.88-92.43,3.64-9.42,7.93-18.61,11.6-27.16l-37,17.22c7.32,24.09,2.1,48.17-2,72.29-2.25,13.31-4.65,26.6-7,39.9C2710.73,3747.56,2710.57,3748.65,2710.36,3749.94Z"/><path d="M2832.29,3532c1.07,6.75,2.22,13.24,3.1,19.76,2.5,18.6,5,37.19,7.27,55.82,1.11,9,1.64,18.15,2.56,27.22,1.51,14.88-3.09,28.24-12.38,40a122.79,122.79,0,0,1-17.82,18.08c-13.69,11.38-27.94,22.13-41.9,33.2a31.25,31.25,0,0,0-5.5,5.4c-3.15,4.12-1.5,8.38,3.67,8.58a132,132,0,0,0,21-.68,695.29,695.29,0,0,0,98.08-19.22,132.06,132.06,0,0,0,19.28-7c8.63-3.86,12.31-10.91,12.46-19.94.18-11,.63-22,.9-33a15,15,0,0,0-.46-3.71q-9-41-18.07-82c-2.4-10.85-4.86-21.68-7.53-32.46a75.86,75.86,0,0,0-3.91-10.94c-2.64-6.26-7.27-8.72-14.16-7.57-8.35,1.4-16.69,2.9-25,4.39-6,1.07-12,2.18-17.94,3.29C2834.8,3531.36,2833.66,3531.65,2832.29,3532Z"/><path d="M2923.83,3475.78c-1,2.2-1.68,3.61-2.32,5a232.7,232.7,0,0,1-27,45.67,5,5,0,0,0-.49,3.87c1.86,6.31,4.4,12.45,5.89,18.84,4.51,19.29,8.65,38.67,12.93,58q4.89,22.11,9.8,44.21c.22,1,.54,1.93,1.06,3.77.56-2.79.94-4.71,1.33-6.62,4.27-20.67,12.39-39.54,27.78-55.13,5.28-5.36,9.89-11.34,15.21-16.66,10.91-10.92,9.74-22.65,3.82-34.88a55.34,55.34,0,0,0-14.5-18.11c-14.88-12.62-26.48-27.49-32.61-46C2924.59,3477.37,2924.4,3477,2923.83,3475.78Z"/><path d="M2987.51,3685.93l7.06-2c-1.14-4-2.24-8-3.4-12-7.52-25.7-12.76-51.85-14.57-78.64-.57-8.44-.56-16.94-.8-24.73l-22,26.17c14.08,15.7,18.64,35.83,24.09,55.59,3,10.9,5.88,21.84,8.82,32.76C2987,3684,2987.21,3684.88,2987.51,3685.93Z"/><path class="cls-38" d="M2781.33,3188.84l-17-28.63,264.73,30.64S2821.94,3195.5,2781.33,3188.84Z"/><ellipse class="cls-39" cx="4044.95" cy="3578.99" rx="98.84" ry="33.73"/><path class="cls-40" d="M3979.73,3142.7c-10.6-35.44-2.78-75.86,20.28-104.79,5.95-7.47,13-14.51,15.94-23.61,8-24.77-17.78-47.92-19.84-73.86-2.14-26.79,20.71-48.25,41.53-65.25,10.51-8.57,22.15-17.59,35.72-17.74,16.88-.18,30.88,13.72,38.35,28.86s10.5,32.14,17.73,47.39c7.36,15.55,18.82,28.76,27.48,43.63s14.51,32.85,9.21,49.21c-7,21.49-30.81,33.77-38.92,54.86-12.42,32.28,16.75,70,3.45,101.93-5.81,13.94-19,23.75-33.15,29C4044.45,3231.86,3995.15,3194.27,3979.73,3142.7Z"/><polygon class="cls-40" points="4061.24 3207.07 4051.09 3331.69 4061.24 3331.69 4067.66 3207.07 4061.24 3207.07"/><path class="cls-40" d="M4070.09,2879.56c-3.4,51-6.61,102-8.38,153.07-1.8,52.17-7.57,109.94,3.34,161.44.39,1.82,3.4,1.44,3.27-.44-7.05-104.63-.16-209.5,5.42-314.07.12-2.35-3.5-2.33-3.65,0Z"/><path class="cls-40" d="M4037.35,3176.52c3.05,0,3.06-4.75,0-4.75s-3.06,4.75,0,4.75Z"/><path class="cls-40" d="M4007.65,3156.2a3,3,0,0,0,3.33-.81c1.67-1.51-.52-4.43-2.43-3.15l-.4.26a1.89,1.89,0,0,0-.5,3.7Z"/><path class="cls-40" d="M4028.76,3130.07c3,0,3-4.6,0-4.6s-3,4.6,0,4.6Z"/><path class="cls-40" d="M4008,3105.24l.47-.38a1.61,1.61,0,0,0,0-2.27l-.47-.39a2.15,2.15,0,1,0,0,3Z"/><path class="cls-40" d="M4096.78,3170.76l.63-.39a1.61,1.61,0,0,0,0-2.75l-.63-.39c-3.8-2.42-3.8,5.95,0,3.53Z"/><path class="cls-40" d="M4113.14,3164a5,5,0,0,0,2.09-1.9,1.74,1.74,0,0,0-1.49-2.59,5.31,5.31,0,0,0-2.83.67c-2.55,1.18-.3,5.2,2.23,3.82Z"/><path class="cls-40" d="M4024.89,2924.22c0,.29,0,.57-.08.86-.24,2.86,4.71,2.87,4.46,0,0-.29-.05-.57-.08-.86a2.15,2.15,0,0,0-4.3,0Z"/><path class="cls-40" d="M4034.77,2967.78c3,0,3-4.66,0-4.66s-3,4.66,0,4.66Z"/><path class="cls-40" d="M4053.92,2931.58l.52.07a2,2,0,0,0,2.36-2.36c0-.17-.05-.35-.07-.52-.25-1.77-2.72-2.11-3.82-1s-.76,3.57,1,3.82Z"/><path class="cls-40" d="M4129.71,3002.8l.66.35a2.88,2.88,0,1,0,0-5l-.66.35a2.5,2.5,0,0,0,0,4.28Z"/><path class="cls-40" d="M4113.79,3042.35a3.16,3.16,0,0,0,3.39-2.67c.46-3.24-3.87-4.61-5-1.38a7.15,7.15,0,0,1-.29.77,2.2,2.2,0,0,0,1.89,3.28Z"/><path class="cls-40" d="M4105.2,2995.88c3.8,0,3.81-5.9,0-5.9s-3.81,5.9,0,5.9Z"/><path class="cls-40" d="M4118.08,2970.26c2.89,0,2.89-4.48,0-4.48s-2.89,4.48,0,4.48Z"/><path class="cls-40" d="M4186.06,3172.31c13-7.81,28.79-9.06,43.36-13.34a106.06,106.06,0,0,0,49-31c14-15.72,24.43-36.5,44-44.22,20.93-8.24,44.29,1.58,66.78,1.33,19.92-.22,39-8.43,58.95-9.14,11.58-.41,26.51,5.75,25.12,17.26-.85,7-7.61,11.56-13.7,15.14l-28.9,17c-10.74,6.32-21.64,12.76-30.19,21.82-14.21,15.08-20.78,36.18-35.28,51-20.82,21.24-53.62,25.23-83.24,22.69-16-1.38-34-3.78-46.61,6.15-18.54,14.56-47,55-72.87,23C4143.75,3226.58,4164,3185.56,4186.06,3172.31Z"/><path class="cls-40" d="M4172.86,3233.51l-5.81-2.56S4114.87,3286,4112,3336.76h11.59S4117.78,3293.31,4172.86,3233.51Z"/><path class="cls-40" d="M4177,3228.89c44.75-23,87.95-49,132.61-72.27s90.54-43.91,135.48-66.56c2-1,.59-4.63-1.58-3.75-45.19,18.52-89,41.2-132.33,63.65-45.87,23.77-92.62,47.76-135.59,76.52a1.4,1.4,0,0,0,1.41,2.41Z"/><path class="cls-40" d="M4187.65,3194c3.48,0,3.48-5.41,0-5.41s-3.48,5.41,0,5.41Z"/><path class="cls-40" d="M4217.59,3188.63l.38-.48a1.64,1.64,0,0,0,0-2.24c-.13-.16-.25-.32-.38-.47-1.3-1.58-3.86-.22-3.86,1.59s2.57,3.17,3.86,1.6Z"/><path class="cls-40" d="M4201.79,3178.17l.77-.31a1.19,1.19,0,0,0,0-2.27l-.77-.31c-2.4-1-2.41,3.88,0,2.89Z"/><path class="cls-40" d="M4297.77,3141.18l0-.3c.25-1.75-1.05-3.63-3-3a2.27,2.27,0,0,0-1.72,1.72c-.59,2,1.28,3.28,3,3l.3,0a1.91,1.91,0,0,0,1.38-1.38Z"/><path class="cls-40" d="M4315.43,3108.33a6,6,0,0,0,3.23,2.4,2.37,2.37,0,0,0,2.39-.63,3.56,3.56,0,0,0,.63-1.08,2.51,2.51,0,0,0-1.13-2.78,5.25,5.25,0,0,0-3.26-1.15,2.17,2.17,0,0,0-1.86,3.24Z"/><path class="cls-40" d="M4336.54,3122.35a4,4,0,0,0,2.57,1.34c1.77.28,3.35-1.75,1.87-3.2a4,4,0,0,0-2.56-1.37c-1.77-.31-3.39,1.8-1.88,3.23Z"/><path class="cls-40" d="M4357.05,3109.85a4.16,4.16,0,0,0,1.85-1.46c.82-1,.38-2.87-1.16-2.78a5.64,5.64,0,0,0-2.73.76c-2.31,1.19-.27,4.65,2,3.48Z"/><path class="cls-40" d="M4302.06,3198.93a3.87,3.87,0,0,0,2.84,0,1.72,1.72,0,0,0,1.19-2.08,4.43,4.43,0,0,0-2.07-2.6c-2.83-2.05-5.72,3.48-2,4.64Z"/><path class="cls-40" d="M4337.09,3202.93a2.83,2.83,0,0,0,3-1.41,1.44,1.44,0,0,0,0-1.5,2.82,2.82,0,0,0-3-1.4,2.16,2.16,0,0,0,0,4.31Z"/><path class="cls-40" d="M4333.19,3180.58l.49-.33c3.48-2.37-1.17-7.06-3.55-3.55l-.33.49c-1.38,2,1.36,4.77,3.39,3.39Z"/><path class="cls-40" d="M4356.84,3172.47a1.76,1.76,0,0,0,0-3.51,1.76,1.76,0,0,0,0,3.51Z"/><path class="cls-40" d="M4441.87,3102.26c2.54,0,2.55-4,0-4s-2.55,4,0,4Z"/><path class="cls-40" d="M4190.16,3242.67l-.26.36a1.36,1.36,0,0,0,0,1.38l.26.35c1.15,1.57,3.85,1.14,3.85-1s-2.7-2.62-3.85-1Z"/><path class="cls-40" d="M4209.88,3234.17l.4-.45a1.68,1.68,0,0,0,0-2.33l-.4-.46a2.29,2.29,0,1,0,0,3.24Z"/><path class="cls-40" d="M4037.12,3033.87l-.25.36a1.51,1.51,0,0,0,0,1.56l.25.36a2.25,2.25,0,1,0,0-2.28Z"/><path class="cls-40" d="M4082.87,3084.85c3.34,0,3.35-5.2,0-5.2s-3.35,5.2,0,5.2Z"/><path class="cls-40" d="M3949.18,3151.39a140.92,140.92,0,0,0-54.69-60.7c-15.23-9.15-32.33-15.49-45.77-27.12-22.43-19.41-33.12-52.15-60.12-64.42-9.33-4.24-19.75-5.51-30-5.91-16.79-.66-35.6,1.82-46.29,14.79-9.86,12-9.48,30.35-1.36,43.55,10.81,17.57,32.13,26,44.89,42.17,22.36,28.37,13.61,73.5,38.06,100.09,14.39,15.64,36.68,20.7,55,31.41,15.14,8.83,27.95,21.75,44.27,28.16C3956.21,3278.16,3967.1,3189.76,3949.18,3151.39Z"/><path class="cls-40" d="M3933.68,3225.88l-4.91,3.48c56.53,71.4,62.89,112.47,62.89,112.47h13.05C3990.21,3288.2,3933.68,3225.88,3933.68,3225.88Z"/><path class="cls-40" d="M3740.51,3022.19c37.61,23.22,67.48,68.19,95.1,101.68s52.95,74.33,85.55,103.11a1.56,1.56,0,0,0,2.2-2.21c-28.71-36.69-59-72.48-88.74-108.4-26.46-32-55.55-75.75-93.17-95.8a.94.94,0,0,0-.94,1.62Z"/><path class="cls-40" d="M3829.43,3188.26a8.49,8.49,0,0,0-1.34-.61,1.15,1.15,0,0,0-1.41,1.4,9.06,9.06,0,0,0,.62,1.34c1.26,2.26,4.4-.86,2.13-2.13Z"/><path class="cls-40" d="M3862.58,3211.52l.38-.48a1.21,1.21,0,0,0,0-1.64l-.38-.48c-1-1.33-3.14-.15-3.14,1.3s2.12,2.62,3.14,1.3Z"/><path class="cls-40" d="M3849.51,3179.87l-.34-.66a1.9,1.9,0,0,0-3.26,0l-.34.66c-2.27,4.29,6.21,4.29,3.94,0Z"/><path class="cls-40" d="M3890.39,3224.73l.44-.42a1.71,1.71,0,0,0,0-2.41l-.44-.42a2.3,2.3,0,1,0,0,3.25Z"/><path class="cls-40" d="M3814.05,3153.42c3.17,0,3.17-4.93,0-4.93s-3.18,4.93,0,4.93Z"/><path class="cls-40" d="M3793.76,3116.08l-.46.4a1.4,1.4,0,0,0,0,2l.46.4a2,2,0,1,0,0-2.77Z"/><path class="cls-40" d="M3872.45,3101.51c2.67,0,2.68-4.16,0-4.16s-2.68,4.16,0,4.16Z"/><path class="cls-40" d="M3886.44,3136.54l.66-.35a1.81,1.81,0,0,0,0-3.1l-.66-.35c-4.12-2.17-4.12,6,0,3.8Z"/><path class="cls-40" d="M3918,3137.53c2.61,0,2.62-4.06,0-4.06s-2.62,4.06,0,4.06Z"/><path class="cls-40" d="M3933.43,3176a1.87,1.87,0,0,0,0-3.74,1.87,1.87,0,0,0,0,3.74Z"/><path class="cls-40" d="M3730.57,3038.39c1.48.65,2.53,1.25,4.12.65a1.72,1.72,0,0,0,1-2.5c-.91-1.45-1.81-1.69-3.48-2.08-2.25-.53-4,2.91-1.66,3.93Z"/><path class="cls-40" d="M3753,3053.22l.33.49c2,2.9,5.88-1,3-3l-.48-.33c-1.67-1.14-4,1.13-2.8,2.8Z"/><path class="cls-40" d="M3767.44,3009.11l-.86.44a2.19,2.19,0,0,0-1.1,1.93,1.84,1.84,0,0,0,.65,1.58,2.37,2.37,0,0,0,2.71.35l.86-.43c2.58-1.26.31-5.19-2.26-3.87Z"/><path class="cls-40" d="M3726.76,3011.22c1.81.49,3.29,1.26,4.82-.13a1.21,1.21,0,0,0,.31-1.2c-.62-1.95-2.27-2-4.08-2.5-2.47-.66-3.53,3.17-1,3.83Z"/><path class="cls-41" d="M3938,3320.21l228.44.26s-3.8,249.25-109.91,255.58C3896.43,3585.6,3938,3320.21,3938,3320.21Z"/><path class="cls-42" d="M3922.56,3320.21h89s-48.51,160.41,25.08,255.65h0s-137.19,7.78-114.1-255.65"/><path class="cls-3" d="M982.14,1844.19c-62.28,2.42-109.66-21.2-141.44-70.13-28-43.17-34.76-90.69-17.76-141.48,9.5-28.39,25-55.16,45.71-71.69,21.5-17.13,51-27.49,80.71-33.63,85.33-17.63,174.49,41.78,190.69,126.91,9.26,48.64.15,94.51-34.87,133C1071.17,1824.53,1031.88,1849.07,982.14,1844.19Zm-8.48-297.6c-77.57-.36-139.56,61.09-139.86,138.62-.28,76,63.48,139.67,139.89,139.64,75.62,0,138.13-62.56,138.65-138.72C1112.87,1608.52,1051.68,1547,973.66,1546.59Z"/><path class="cls-1" d="M973.66,1546.59c78,.37,139.21,61.93,138.68,139.54-.52,76.16-63,138.69-138.65,138.72-76.41,0-140.17-63.62-139.89-139.64C834.1,1607.68,896.09,1546.23,973.66,1546.59Zm85,138.35c-15.68-7.27-31.77-4.52-47.59-4.86-36.65-.79-32.05,4.09-32.29-33.28-.13-19.86.21-39.72-.12-59.57-.08-4.74,2.35-11.51-6-13.16-4.68,5.87-5.14,12.81-5,19.45.36,19.2,1.42,38.38,2.07,57.56.51,14.75,2.75,30.57-24.82,32.08,13.74,6.24,23.44,7.83,24.86,20.24.66,5.77,7.51,2.78,8.24-2.34,1.95-13.68,11.92-11.71,21.12-12C1019,1688.27,1039.06,1690.9,1058.66,1684.94Z"/><path class="cls-3" d="M1058.66,1684.94c-19.6,6-39.7,3.33-59.58,4.07-9.2.34-19.17-1.63-21.12,12-.73,5.12-7.58,8.11-8.24,2.34-1.42-12.41-11.12-14-24.86-20.24,27.57-1.51,25.33-17.33,24.82-32.08-.65-19.18-1.71-38.36-2.07-57.56-.13-6.64.33-13.58,5-19.45,8.39,1.65,6,8.42,6,13.16.33,19.85,0,39.71.12,59.57.24,37.37-4.36,32.49,32.29,33.28C1026.89,1680.42,1043,1677.67,1058.66,1684.94Z"/></g></g></svg>