<?xml version="1.0" encoding="utf-8"?>
<!-- Generator: Adobe Illustrator 26.0.2, SVG Export Plug-In . SVG Version: 6.00 Build 0)  -->
<svg version="1.1" id="Layer_1" xmlns="http://www.w3.org/2000/svg" xmlns:xlink="http://www.w3.org/1999/xlink" x="0px" y="0px"
	 viewBox="0 0 3000 3000" style="enable-background:new 0 0 3000 3000;" xml:space="preserve">
<style type="text/css">
	.st0{fill:#464646;}
	.st1{fill:#C0C0C0;}
	.st2{fill:#EFEEEC;}
	.st3{fill:#FFFFFF;}
	.st4{fill:#FF6833;}
	.st5{fill:#D83C12;}
	.st6{fill:#9B9A9A;}
	.st7{fill:#7F7F7F;}
</style>
<path class="st0" d="M1949.1,1614.6l-1751.9,0.3l40.2-1152.8l1751.9-0.4L1949.1,1614.6z"/>
<path class="st0" d="M195.3,1616.7l40.4-1156.3h1.8l1753.8-0.4l-40.4,1156.3h-1.8L195.3,1616.7z M239.2,463.9L199,1613.2l1748.6-0.4
	l40-1149.2L239.2,463.9z"/>
<path class="st1" d="M1920.8,1614.9H176l40.2-1152.8H1961L1920.8,1614.9z"/>
<path class="st1" d="M1920.8,1616.7H176c-0.3,0-0.5,0-0.8-0.1c-0.2-0.1-0.5-0.2-0.7-0.4c-0.2-0.4-0.3-0.8-0.4-1.2l40.2-1152.8
	c0-0.2,0-0.5,0.1-0.7s0.2-0.4,0.4-0.6c0.2-0.2,0.4-0.3,0.6-0.4c0.2-0.1,0.5-0.1,0.7-0.1H1961c0.2,0,0.5,0,0.7,0.1
	c0.2,0.1,0.4,0.2,0.6,0.4c0.2,0.2,0.3,0.4,0.4,0.6c0.1,0.2,0.1,0.5,0.1,0.8l-40.2,1152.6c0,0.5-0.2,0.9-0.5,1.2
	C1921.7,1616.5,1921.3,1616.7,1920.8,1616.7z M177.7,1613.2h1741.3l40.2-1149.3H217.9L177.7,1613.2z"/>
<path class="st2" d="M1880.6,1577.5H218.8l37.6-1078h1661.8L1880.6,1577.5z"/>
<path class="st1" d="M1880.6,1579.3H218.8c-0.2,0-0.5,0-0.7-0.1c-0.2-0.1-0.4-0.2-0.6-0.4c-0.2-0.2-0.3-0.4-0.4-0.7
	c-0.1-0.2-0.1-0.5-0.1-0.8l37.6-1077.8c0-0.5,0.2-0.9,0.6-1.2c0.3-0.3,0.7-0.5,1.2-0.6h1661.8c0.2,0,0.5,0,0.7,0.1s0.4,0.2,0.6,0.4
	c0.2,0.2,0.3,0.4,0.4,0.6c0.1,0.2,0.1,0.5,0.1,0.8l-37.6,1077.8c-0.1,0.4-0.3,0.8-0.6,1.2C1881.5,1579,1881.1,1579.2,1880.6,1579.3
	L1880.6,1579.3z M220.6,1575.7h1658.3l37.6-1074.4H258.1L220.6,1575.7z"/>
<path class="st3" d="M277.3,554.5l1.8,39.3c-0.2-5.1,1.6-10,4.9-13.8c3.4-3.8,8.1-6.1,13.1-6.5c2.5-0.2,4.9,0,7.3,0.8
	c2.4,0.8,4.5,2,6.4,3.6c1.9,1.6,3.4,3.6,4.4,5.9s1.6,4.7,1.7,7.1c0.2,5.1-1.6,10-4.9,13.8c-3.4,3.8-8.1,6.1-13.1,6.5
	c-2.5,0.2-4.9,0-7.3-0.8c-2.4-0.8-4.5-2-6.4-3.6c-1.9-1.6-3.4-3.6-4.4-5.9c-1.1-2.2-1.6-4.7-1.7-7.1l3.2,69.2
	c-0.2-5.1,1.6-10.1,4.9-13.9c3.4-3.8,8.1-6.2,13.2-6.7c2.5-0.2,4.9,0.1,7.3,0.8c2.3,0.8,4.5,2,6.4,3.6c1.9,1.6,3.4,3.6,4.4,5.8
	c1.1,2.2,1.7,4.6,1.8,7.1c0.2,5.1-1.6,10.1-4.9,13.9c-3.4,3.8-8.1,6.2-13.2,6.7c-2.5,0.2-4.9-0.1-7.3-0.8c-2.3-0.8-4.5-2-6.4-3.6
	c-1.9-1.6-3.4-3.6-4.4-5.8c-1.1-2.2-1.7-4.6-1.8-7.1l3.2,69c-0.2-5.1,1.6-10.1,4.9-13.9c3.4-3.8,8.1-6.2,13.2-6.7
	c2.5-0.2,4.9,0.1,7.3,0.8c2.3,0.8,4.5,2,6.4,3.6c1.9,1.6,3.4,3.6,4.4,5.8c1.1,2.2,1.7,4.6,1.8,7.1c0.2,5.1-1.6,10.1-4.9,13.9
	c-3.4,3.8-8.1,6.2-13.2,6.7c-2.5,0.2-4.9-0.1-7.3-0.8c-2.3-0.8-4.5-2-6.4-3.6c-1.9-1.6-3.4-3.6-4.4-5.8c-1.1-2.2-1.7-4.6-1.8-7.1
	l3.2,69c-0.2-5.1,1.6-10.1,4.9-13.9c3.4-3.8,8.1-6.2,13.2-6.7c2.5-0.2,4.9,0.1,7.3,0.8c2.3,0.8,4.5,2,6.4,3.6
	c1.9,1.6,3.4,3.6,4.4,5.8c1.1,2.2,1.7,4.6,1.8,7.1c0.2,5.1-1.6,10.1-4.9,13.9c-3.4,3.8-8.1,6.2-13.2,6.7c-2.5,0.2-4.9-0.1-7.3-0.8
	c-2.3-0.8-4.5-2-6.4-3.6c-1.9-1.6-3.4-3.6-4.4-5.8c-1.1-2.2-1.7-4.6-1.8-7.1l3.2,69c-0.2-5.1,1.6-10,4.9-13.8
	c3.4-3.8,8.1-6.1,13.1-6.5c2.5-0.2,4.9,0,7.3,0.8s4.5,2,6.4,3.6c1.9,1.6,3.4,3.6,4.4,5.9s1.6,4.7,1.7,7.1c0.2,5.1-1.6,10-4.9,13.8
	c-3.4,3.8-8.1,6.1-13.1,6.5c-2.5,0.2-4.9-0.1-7.3-0.8c-2.3-0.8-4.5-2-6.4-3.6c-1.9-1.6-3.4-3.6-4.4-5.8c-1.1-2.2-1.7-4.6-1.8-7.1
	l3.2,69c-0.2-5.1,1.6-10,5-13.8c3.4-3.8,8-6.1,13.1-6.6c2.5-0.2,4.9,0,7.3,0.8c2.4,0.8,4.5,2,6.4,3.6c1.9,1.6,3.4,3.6,4.4,5.9
	c1.1,2.2,1.6,4.7,1.7,7.1c0.2,5.1-1.6,10-4.9,13.8c-3.4,3.8-8.1,6.1-13.1,6.5c-2.5,0.2-4.9-0.1-7.3-0.8c-2.3-0.8-4.5-2-6.4-3.6
	c-1.9-1.6-3.4-3.6-4.4-5.8c-1.1-2.2-1.7-4.6-1.8-7.1l3.2,69c-0.1-5,1.7-10,5-13.7c3.4-3.8,8-6.1,13-6.6c2.5-0.2,4.9,0,7.3,0.8
	c2.4,0.8,4.5,2,6.4,3.6c1.9,1.6,3.4,3.6,4.4,5.9c1.1,2.2,1.6,4.7,1.7,7.1c0.2,5.1-1.6,10-4.9,13.8c-3.4,3.8-8.1,6.1-13.1,6.5
	c-2.5,0.2-4.9-0.1-7.3-0.8c-2.3-0.8-4.5-2-6.4-3.6s-3.4-3.6-4.4-5.8c-1.1-2.2-1.7-4.6-1.8-7.1l3.2,69c-0.1-5.1,1.7-10,5-13.7
	c3.4-3.8,8-6.1,13-6.6c2.5-0.2,4.9,0,7.3,0.8c2.4,0.8,4.5,2,6.4,3.6c1.9,1.6,3.4,3.6,4.4,5.8c1.1,2.2,1.6,4.7,1.7,7.1
	c0.2,5.1-1.6,10-4.9,13.8c-3.4,3.8-8.1,6.1-13.1,6.5c-2.5,0.2-4.9-0.1-7.3-0.8s-4.5-2-6.4-3.6c-1.9-1.6-3.4-3.6-4.4-5.8
	c-1.1-2.2-1.7-4.6-1.8-7.1l1.9,39.5l438.3-35.3l-25.8-562.1L277.3,554.5z"/>
<path class="st2" d="M346.1,590c-0.4,0-0.8-0.2-1.1-0.5c-0.3-0.3-0.5-0.7-0.6-1.1c0-0.2,0-0.5,0.1-0.7c0.1-0.2,0.2-0.4,0.3-0.6
	s0.3-0.3,0.5-0.4c0.2-0.1,0.4-0.2,0.7-0.2l329.2-26.5c0.2-0.1,0.5-0.1,0.7,0c0.2,0.1,0.5,0.2,0.6,0.3c0.2,0.2,0.3,0.3,0.4,0.6
	c0.1,0.2,0.2,0.5,0.1,0.7c0,0.4-0.2,0.9-0.5,1.2c-0.3,0.3-0.7,0.6-1.1,0.7L346.3,590H346.1z"/>
<path class="st2" d="M347.9,627.2c-0.4,0-0.8-0.2-1.1-0.5c-0.3-0.3-0.5-0.7-0.6-1.1c0-0.2,0-0.5,0.1-0.7c0.1-0.2,0.2-0.4,0.3-0.6
	c0.1-0.2,0.3-0.3,0.5-0.4c0.2-0.1,0.4-0.2,0.7-0.2l329.2-26.5c0.2-0.1,0.5-0.1,0.7,0c0.2,0.1,0.5,0.2,0.6,0.3
	c0.2,0.2,0.3,0.3,0.4,0.6c0.1,0.2,0.1,0.5,0.1,0.7c0,0.4-0.2,0.9-0.5,1.2c-0.3,0.3-0.7,0.6-1.1,0.7L348,627.2H347.9z"/>
<path class="st2" d="M349.6,664.4c-0.4,0-0.8-0.2-1.1-0.5c-0.3-0.3-0.5-0.7-0.6-1.1c0-0.2,0-0.5,0.1-0.7c0.1-0.2,0.2-0.4,0.3-0.6
	c0.1-0.2,0.3-0.3,0.5-0.4c0.2-0.1,0.4-0.2,0.7-0.2l329.2-26.5c0.2-0.1,0.5-0.1,0.7,0c0.2,0.1,0.5,0.2,0.6,0.3
	c0.2,0.2,0.3,0.3,0.4,0.6c0.1,0.2,0.1,0.5,0.1,0.7c0,0.4-0.2,0.9-0.5,1.2c-0.3,0.3-0.7,0.6-1.1,0.7l-329.2,26.5H349.6z"/>
<path class="st2" d="M351.4,701.6c-0.5,0-0.9-0.2-1.2-0.6c-0.3-0.3-0.5-0.7-0.6-1.2c0-0.4,0.2-0.9,0.5-1.2c0.3-0.3,0.7-0.5,1.1-0.6
	l329.2-26.5c0.2-0.1,0.5-0.1,0.7,0c0.2,0.1,0.5,0.2,0.6,0.3c0.2,0.2,0.3,0.3,0.4,0.6c0.1,0.2,0.1,0.5,0.1,0.7c0,0.4-0.2,0.9-0.5,1.2
	c-0.3,0.3-0.7,0.5-1.1,0.6l-329.2,26.7H351.4z"/>
<path class="st2" d="M353.1,738.9c-0.5,0-0.9-0.2-1.2-0.6c-0.3-0.3-0.5-0.7-0.6-1.2c0-0.4,0.2-0.9,0.5-1.2c0.3-0.3,0.7-0.5,1.1-0.6
	l329.2-26.7c0.5,0,0.9,0.2,1.3,0.5c0.4,0.3,0.6,0.8,0.6,1.3c0,0.4-0.2,0.9-0.5,1.2c-0.3,0.3-0.7,0.5-1.1,0.6l-329.2,26.7H353.1z"/>
<path class="st2" d="M354.9,776.1c-0.5,0-0.9-0.2-1.2-0.6c-0.3-0.3-0.5-0.7-0.6-1.2c0-0.4,0.2-0.9,0.5-1.2c0.3-0.3,0.7-0.5,1.1-0.6
	l329.2-26.7c0.5,0,1,0.2,1.3,0.5c0.4,0.3,0.6,0.8,0.6,1.3c0,0.4-0.2,0.9-0.5,1.2c-0.3,0.3-0.7,0.5-1.1,0.6l-329.2,26.5
	c0,0,0,0.1-0.1,0.1C355,776.1,354.9,776.1,354.9,776.1z"/>
<path class="st2" d="M356.6,813.1c-0.4,0-0.9-0.2-1.2-0.5c-0.3-0.3-0.5-0.7-0.6-1.1c0-0.4,0.2-0.9,0.5-1.2c0.3-0.3,0.7-0.6,1.1-0.7
	l329.2-26.5c0.5,0,0.9,0.1,1.3,0.4c0.4,0.3,0.6,0.7,0.7,1.1c0,0.2,0,0.5-0.1,0.7c-0.1,0.2-0.2,0.4-0.3,0.6c-0.1,0.2-0.3,0.3-0.5,0.4
	c-0.2,0.1-0.4,0.2-0.7,0.2l-329.2,26.5H356.6z"/>
<path class="st2" d="M358.4,850.4c-0.4,0-0.8-0.2-1.1-0.5s-0.5-0.7-0.6-1.1c0-0.4,0.2-0.9,0.5-1.2c0.3-0.3,0.7-0.6,1.1-0.7
	l329.2-26.5c0.5,0,0.9,0.1,1.3,0.4c0.4,0.3,0.6,0.7,0.7,1.1c0,0.2,0,0.5-0.1,0.7c-0.1,0.2-0.2,0.4-0.3,0.6c-0.1,0.2-0.3,0.3-0.5,0.4
	c-0.2,0.1-0.4,0.2-0.7,0.2l-329.2,26.5H358.4z"/>
<path class="st2" d="M360.2,887.6c-0.4,0-0.8-0.2-1.1-0.5c-0.3-0.3-0.5-0.7-0.6-1.1c0-0.4,0.2-0.9,0.5-1.2c0.3-0.3,0.7-0.6,1.1-0.7
	l329.2-26.5c0.5,0,0.9,0.1,1.3,0.4c0.4,0.3,0.6,0.7,0.7,1.1c0,0.2,0,0.5-0.1,0.7c-0.1,0.2-0.2,0.4-0.3,0.6c-0.1,0.2-0.3,0.3-0.5,0.4
	c-0.2,0.1-0.4,0.2-0.7,0.2l-329.2,26.5H360.2z"/>
<path class="st2" d="M361.9,924.8c-0.4,0-0.8-0.2-1.1-0.5c-0.3-0.3-0.5-0.7-0.6-1.1c0-0.4,0.2-0.9,0.5-1.2c0.3-0.3,0.7-0.6,1.1-0.7
	L691,894.8c0.5,0,0.9,0.1,1.3,0.4s0.6,0.7,0.7,1.1c0,0.2,0,0.5-0.1,0.7c-0.1,0.2-0.2,0.4-0.3,0.6c-0.1,0.2-0.3,0.3-0.5,0.4
	c-0.2,0.1-0.4,0.2-0.7,0.2l-329.2,26.5H361.9z"/>
<path class="st2" d="M363.7,962c-0.4,0-0.8-0.2-1.1-0.5c-0.3-0.3-0.5-0.7-0.6-1.1c0-0.4,0.2-0.9,0.5-1.2c0.3-0.3,0.7-0.6,1.1-0.7
	L692.7,932c0.5,0,0.9,0.1,1.3,0.4c0.4,0.3,0.6,0.7,0.7,1.1c0,0.2,0,0.5-0.1,0.7c-0.1,0.2-0.2,0.4-0.3,0.6c-0.1,0.2-0.3,0.3-0.5,0.4
	c-0.2,0.1-0.4,0.2-0.7,0.2L363.8,962H363.7z"/>
<path class="st2" d="M365.4,999.3c-0.4,0-0.8-0.2-1.1-0.5c-0.3-0.3-0.5-0.7-0.6-1.1c0-0.5,0.1-0.9,0.4-1.3c0.3-0.4,0.7-0.6,1.1-0.7
	l329.2-26.5c0.5,0,0.9,0.1,1.3,0.4c0.4,0.3,0.6,0.7,0.7,1.1c0,0.2,0,0.5-0.1,0.7c-0.1,0.2-0.2,0.4-0.3,0.6c-0.1,0.2-0.3,0.3-0.5,0.4
	c-0.2,0.1-0.4,0.2-0.7,0.2l-329.2,26.5H365.4z"/>
<path class="st2" d="M367.2,1036.5c-0.4,0-0.8-0.2-1.1-0.5c-0.3-0.3-0.5-0.7-0.6-1.1c0-0.5,0.1-0.9,0.4-1.3c0.3-0.3,0.7-0.6,1.1-0.7
	l329.2-26.5c0.2,0,0.5,0,0.7,0.1c0.2,0.1,0.4,0.2,0.6,0.3c0.2,0.2,0.3,0.3,0.4,0.5c0.1,0.2,0.2,0.4,0.2,0.7c0,0.5-0.1,0.9-0.4,1.3
	c-0.3,0.3-0.7,0.6-1.1,0.7l-329.2,26.5H367.2z"/>
<path class="st2" d="M368.9,1073.7c-0.4,0-0.8-0.2-1.1-0.5c-0.3-0.3-0.5-0.7-0.6-1.1c0-0.5,0.1-0.9,0.4-1.2c0.3-0.3,0.7-0.6,1.1-0.7
	l329.2-26.5c0.2,0,0.5,0,0.7,0.1c0.2,0.1,0.4,0.2,0.6,0.3c0.2,0.1,0.3,0.3,0.4,0.5c0.1,0.2,0.2,0.4,0.2,0.7c0,0.5-0.1,0.9-0.4,1.2
	c-0.3,0.4-0.7,0.6-1.1,0.7l-329.2,26.5H368.9z"/>
<path class="st0" d="M474.5,559.8l-8.4-1.2l21.6-117.3l8.4,1.2L474.5,559.8z"/>
<path class="st4" d="M536.4,458.1l-92.7-13.9c4-21.4,27.9-35.6,53.6-31.8C522.9,416.3,540.3,436.7,536.4,458.1z"/>
<path class="st4" d="M536.4,459.9h-0.2L443.6,446c-0.2,0-0.5-0.1-0.7-0.2c-0.2-0.1-0.4-0.3-0.5-0.5c-0.3-0.4-0.4-0.9-0.4-1.4
	c4.2-22.3,29.1-37.2,55.5-33.2c14.2,2.1,26.7,9.3,34.1,19.8c3,3.9,5.1,8.5,6.2,13.3c1.1,4.8,1.3,9.8,0.4,14.7
	c-0.1,0.4-0.3,0.8-0.6,1C537.3,459.7,536.9,459.9,536.4,459.9L536.4,459.9z M445.8,442.8l89.2,13.3c1-8.4-1.3-16.9-6.3-23.7
	c-6.8-9.7-18.4-16.3-31.8-18.4C473.1,410.5,450.6,423.3,445.8,442.8z"/>
<path class="st5" d="M479.2,410.9l14.6-78.8l35.5,5.4l-14.4,78.7C502.8,415.5,490.9,413.7,479.2,410.9z"/>
<path class="st4" d="M547.7,328.3l-68.1-10.2c-2.3,12.6,11.1,25.3,29.9,28.1C528.2,349.1,545.4,341,547.7,328.3z"/>
<path class="st4" d="M516.8,348.5c-2.5,0-5-0.2-7.6-0.5c-11.9-1.9-22.1-7.5-27.7-15.1c-1.6-2.1-2.7-4.6-3.4-7.2
	c-0.6-2.6-0.7-5.3-0.3-7.9c0.1-0.4,0.4-0.8,0.7-1c0.3-0.3,0.8-0.4,1.2-0.4l68.3,10.2c0.4,0.2,0.9,0.4,1.1,0.7
	c0.3,0.4,0.4,0.9,0.4,1.4C547.3,340.5,533.5,348.5,516.8,348.5z M481.1,320.3c-0.2,3.8,1,7.6,3.3,10.5c4.9,6.8,14.4,11.9,25.3,13.7
	c16.9,2.5,32.3-4,35.8-14.8L481.1,320.3z"/>
<path class="st1" d="M583.5,850l-42.5,3.5l-7.4-153.8l42.5-3.7L583.5,850z"/>
<path class="st1" d="M539.4,855.5v-1.8L531.9,698l46-3.7v1.8l7.6,155.6L539.4,855.5z M535.4,701.3l7.4,150.3l39-3.2L574.4,698
	L535.4,701.3z"/>
<path class="st4" d="M663.2,843.3l-42.5,3.5l-10.5-214.8l42.5-3.5L663.2,843.3z"/>
<path class="st4" d="M620.7,848.6c-0.2,0-0.4,0-0.7,0c-0.2-0.1-0.4-0.2-0.6-0.3c-0.2-0.2-0.3-0.3-0.4-0.6c-0.1-0.2-0.1-0.4-0.1-0.7
	l-10.5-214.7c0-0.5,0.2-0.9,0.5-1.3c0.3-0.4,0.8-0.6,1.3-0.6l42.5-3.5l1.2,0.4c0.3,0.3,0.5,0.8,0.5,1.2L665,843.3
	c0,0.4-0.2,0.9-0.5,1.2c-0.3,0.3-0.7,0.5-1.1,0.6l-42.5,3.5H620.7z M612.1,633.7l10.2,211.4l39-3.3l-10.2-211.2L612.1,633.7z"/>
<path class="st4" d="M504,856.7l-42.5,3.5l-6-119.9l42.5-3.5L504,856.7z"/>
<path class="st4" d="M461.5,862l-1.2-0.4c-0.2-0.2-0.3-0.4-0.4-0.7c-0.1-0.2-0.1-0.5-0.1-0.8l-6-119.8c0-0.5,0.2-1,0.5-1.3
	c0.3-0.4,0.8-0.6,1.3-0.6L498,735l1.2,0.4c0.3,0.3,0.5,0.8,0.5,1.2l6,119.9c0,0.5-0.2,1-0.5,1.3c-0.3,0.4-0.8,0.6-1.3,0.6L461.5,862
	z M457.4,741.9l5.6,116.4l39-3.2l-5.6-116.4L457.4,741.9z"/>
<path class="st1" d="M424.2,863.4l-42.5,3.5l-3.7-77.1l42.5-3.5L424.2,863.4z"/>
<path class="st1" d="M380.2,868.8l-4-80.6l46-3.7l3.9,80.4L380.2,868.8z M379.8,791.5l3.5,73.4l39-3.3l-3.5-73.4L379.8,791.5z"/>
<path class="st3" d="M825.8,663.4L781,979.3l502,54.1l45-315.9L825.8,663.4z M865.5,743.1c-3.5-0.4-7-1.5-10.1-3.2
	c-3.1-1.7-5.8-4.1-8-6.9c-2.2-2.8-3.7-6.1-4.6-9.5c-0.9-3.4-1.1-7-0.5-10.6c1-7.3,4.9-13.9,10.7-18.4c5.8-4.5,13.1-6.7,20.4-6
	c3.5,0.4,7,1.5,10.1,3.2c3.1,1.7,5.8,4.1,8,6.9c2.2,2.8,3.7,6.1,4.6,9.5c0.9,3.4,1.1,7,0.5,10.6c-1,7.3-4.9,13.9-10.7,18.4
	C880.1,741.7,872.8,743.8,865.5,743.1L865.5,743.1z M945.9,751.7c-3.6-0.4-7-1.4-10.1-3.2c-3.1-1.7-5.9-4.1-8-6.9
	c-2.2-2.8-3.8-6.1-4.7-9.5c-0.9-3.5-1.1-7.1-0.5-10.6c1-7.3,4.9-13.9,10.7-18.4c5.8-4.5,13.1-6.7,20.4-6c3.6,0.4,7,1.4,10.1,3.2
	c3.1,1.7,5.9,4.1,8,6.9c2.2,2.8,3.8,6.1,4.7,9.5c0.9,3.5,1.1,7.1,0.5,10.6c-1.1,7.3-4.9,13.8-10.7,18.4
	C960.5,750.2,953.2,752.4,945.9,751.7L945.9,751.7z M1026.2,760.3c-3.6-0.4-7-1.4-10.1-3.2c-3.1-1.7-5.9-4.1-8-6.9
	c-2.2-2.8-3.8-6.1-4.7-9.5c-0.9-3.5-1.1-7.1-0.5-10.6c1.1-7.3,4.9-13.8,10.7-18.4c5.8-4.5,13.1-6.7,20.4-6c3.5,0.4,7,1.5,10.1,3.2
	s5.8,4.1,8,6.9c2.2,2.8,3.8,6,4.7,9.5c0.9,3.4,1.1,7,0.6,10.6c-1.1,7.3-4.9,13.9-10.7,18.4C1040.8,758.9,1033.5,761,1026.2,760.3
	L1026.2,760.3z M1106.6,768.9c-3.6-0.4-7-1.4-10.1-3.2s-5.9-4.1-8-6.9c-2.2-2.8-3.8-6.1-4.7-9.5c-0.9-3.5-1.1-7.1-0.5-10.6
	c1.1-7.3,4.9-13.9,10.7-18.4c5.8-4.5,13.1-6.6,20.4-5.9c3.6,0.4,7,1.4,10.1,3.2s5.8,4.1,8,6.9c2.2,2.8,3.7,6.1,4.6,9.5
	c0.9,3.5,1,7.1,0.5,10.6c-1.1,7.2-4.8,13.8-10.6,18.3C1121.2,767.5,1113.9,769.6,1106.6,768.9L1106.6,768.9z M1186.8,777.7
	c-3.5-0.4-7-1.5-10.1-3.2s-5.8-4.1-8-6.9c-2.2-2.8-3.8-6-4.7-9.5c-0.9-3.4-1.1-7-0.6-10.6c1.1-7.3,4.9-13.9,10.7-18.4
	c5.8-4.5,13.1-6.7,20.4-6c3.6,0.4,7,1.4,10.1,3.2c3.1,1.7,5.9,4.1,8,6.9c2.2,2.8,3.8,6.1,4.7,9.5c0.9,3.5,1.1,7.1,0.5,10.6
	c-1.1,7.3-4.9,13.9-10.7,18.4C1201.5,776.2,1194.2,778.4,1186.8,777.7L1186.8,777.7z M1267.1,786.3c-3.5-0.4-7-1.4-10.1-3.2
	c-3.1-1.7-5.8-4.1-8-6.9c-2.2-2.8-3.7-6.1-4.6-9.5c-0.9-3.5-1-7.1-0.5-10.6c1-7.3,4.9-13.9,10.7-18.4c5.8-4.5,13.1-6.7,20.4-6
	c3.5,0.4,7,1.5,10.1,3.2c3.1,1.7,5.8,4.1,8,6.9c2.2,2.8,3.7,6.1,4.6,9.5c0.9,3.4,1.1,7,0.5,10.6c-1.1,7.3-4.9,13.9-10.7,18.4
	C1281.7,784.8,1274.4,787,1267.1,786.3L1267.1,786.3z"/>
<path class="st0" d="M1091.7,978.6h-0.2c-0.4,0-0.7-0.1-1-0.4c-0.3-0.2-0.5-0.5-0.6-0.9l-50.4-176.1l-82.4,85.2
	c-0.1,0.2-0.4,0.4-0.6,0.5c-0.3,0.1-0.5,0.1-0.8,0c-0.3,0-0.5-0.1-0.8-0.2c-0.2-0.1-0.5-0.3-0.6-0.5l-51.1-84.3l-78.5,102.5
	c-0.3,0.3-0.7,0.6-1.2,0.6c-0.5,0-0.9-0.1-1.3-0.4c-0.3-0.3-0.6-0.7-0.6-1.2c-0.1-0.4,0-0.9,0.3-1.3L902,797.9
	c0.2-0.2,0.4-0.4,0.7-0.6c0.3-0.1,0.6-0.2,0.9-0.1c0.3,0,0.6,0.1,0.8,0.3c0.2,0.2,0.4,0.4,0.6,0.6l51.1,84.3l83.1-85.7
	c0.2-0.2,0.4-0.4,0.7-0.5c0.3-0.1,0.6-0.1,0.9,0c0.3,0.1,0.6,0.2,0.8,0.5c0.2,0.2,0.4,0.5,0.4,0.8l50.4,175.4l91.1-138.9
	c0.2-0.3,0.5-0.5,0.8-0.6c0.3-0.1,0.7-0.2,1-0.1c0.3,0,0.6,0.2,0.8,0.3c0.2,0.2,0.4,0.4,0.6,0.7l27.4,75.2l65.1-81.8
	c0.3-0.3,0.7-0.6,1.2-0.6c0.5,0,0.9,0.1,1.3,0.4c0.3,0.3,0.6,0.7,0.6,1.2c0.1,0.4,0,0.9-0.3,1.3l-67.2,84.3
	c-0.2,0.2-0.4,0.4-0.7,0.5c-0.3,0.1-0.6,0.1-0.9,0.1c-0.3,0-0.6-0.1-0.9-0.3c-0.2-0.2-0.4-0.4-0.5-0.7l-27.2-75l-91.5,139.1
	c-0.1,0.3-0.3,0.5-0.6,0.6C1092.2,978.5,1092,978.6,1091.7,978.6L1091.7,978.6z"/>
<path class="st1" d="M1083.4,718.1l-8.1-2.8l42-112.2l8.1,2.8L1083.4,718.1z"/>
<path class="st3" d="M1162.1,628.6l-88.1-30.2c7.7-20.5,33.7-30.4,57.9-22.1C1156.1,584.5,1169.8,608.1,1162.1,628.6z"/>
<path class="st1" d="M1163.1,630.9l-91.5-31.4l0.5-1.8c8.1-21.4,35.1-31.8,60.2-23c6.4,2,12.3,5.3,17.4,9.7
	c5.1,4.4,9.3,9.7,12.2,15.7c2.2,4.5,3.5,9.4,3.8,14.4c0.3,5-0.5,10-2.2,14.7L1163.1,630.9z M1076.2,597.3l84.8,29
	c2.5-8.2,1.7-17-2.1-24.6c-2.8-5.6-6.6-10.6-11.4-14.7s-10.2-7.2-16.2-9C1108.5,570.1,1084.3,578.7,1076.2,597.3z"/>
<path class="st1" d="M1114.5,571.5l28.3-75.3l33.9,11.6l-28.3,75.3C1136.7,580.4,1125.4,576.5,1114.5,571.5L1114.5,571.5z"/>
<path class="st3" d="M1196.3,502.2l-65-22.3c-4.4,12.1,6.3,26.9,24.2,33C1173.5,519,1191.8,514.3,1196.3,502.2z"/>
<path class="st1" d="M1171,517.3c-5.4,0-10.8-0.9-16-2.6c-11.2-3.9-20.2-11.2-24.2-19.7c-2.4-4.9-2.8-10.6-1-15.8l0.5-1.6l68.1,23.5
	l-0.5,1.6C1194.4,512,1183.7,517.3,1171,517.3z M1132.6,482.2c-0.8,3.8-0.3,7.8,1.4,11.2c3.7,7.7,11.9,14.4,22.1,17.9
	c16.2,5.4,32.5,1.8,37.8-8.1L1132.6,482.2z"/>
<path class="st6" d="M1864.5,499.5h-163.8l-11.4-2.1c-3.4-0.5-6.9,0.2-9.8,2.1h-44.1c0.3-2.9-0.4-5.9-2.1-8.3
	c-0.9-1.4-2.1-2.6-3.6-3.6c-1.4-0.9-3-1.6-4.7-1.9l-31.3-5.6l-2.3-0.4c-3.2,0-6.2,1.2-8.7,3.2c-2.5,2-4.2,4.8-4.8,7.9
	c-0.7,2.9-0.3,5.9,1,8.6h-38.8l8.6-39.9h96.2L1864.5,499.5z"/>
<path class="st1" d="M1877.8,532h2.5l31.1,5.6c2,0.4,3.8,1.3,5.4,2.5l1.1-30.9l-53.4-9.8h-163.8l19.7,3.7c1.7,0.3,3.3,1,4.8,1.9
	c1.5,1,2.7,2.2,3.7,3.6c1,1.4,1.6,3.1,2,4.8c0.3,1.7,0.3,3.5,0,5.1c-0.8,3.5-2.8,6.6-5.8,8.6c-3,2-6.6,2.8-10.1,2.1l-31.1-5.6
	c-1.7-0.3-3.3-0.9-4.8-1.9c-1.5-0.9-2.7-2.2-3.7-3.6c-1-1.4-1.6-3.1-1.9-4.8s-0.2-3.5,0.2-5.2c0.8-3.5,2.8-6.6,5.8-8.6h-43.9
	c0,0.6,0,1.2-0.2,1.8c-0.8,3.5-2.8,6.6-5.8,8.6c-3,2-6.6,2.8-10.2,2.3l-31.1-5.8c-2-0.3-3.8-1.1-5.4-2.3c-1.6-1.2-2.9-2.8-3.7-4.5
	h-38.8L1419.9,1057l426.5,78.5l23.5-130.1c-2.5,64.8-1.9,118.7,23.3,163l22.8-606.5c-0.2,0-0.3,0-0.3,0.2c-2.9,2-6.5,2.7-10,2.1
	l-31.3-5.6c-1.7-0.3-3.3-1-4.8-1.9c-1.4-1-2.7-2.2-3.6-3.6c-1-1.4-1.6-3.1-1.9-4.8c-0.3-1.7-0.3-3.4,0.1-5.1
	c0.7-3.1,2.4-5.9,4.8-7.9C1871.6,533.2,1874.6,532.1,1877.8,532L1877.8,532z M1826,536.1c-0.7,3.5-2.8,6.6-5.8,8.6
	c-1.4,1-3.1,1.7-4.8,2.1c-1.7,0.4-3.5,0.4-5.2,0l-31.1-5.6c-1.7-0.3-3.3-0.9-4.8-1.8c-1.4-0.9-2.7-2.2-3.7-3.6
	c-1.9-3-2.6-6.5-1.9-10c0.8-3.5,2.9-6.6,6-8.6c2.2-1.6,4.8-2.4,7.6-2.5h2.5l31.1,5.8c1.7,0.3,3.4,0.9,4.8,1.8
	c1.4,0.9,2.7,2.2,3.6,3.6c1,1.5,1.7,3.2,2,4.9C1826.5,532.5,1826.4,534.3,1826,536.1z"/>
<path class="st6" d="M1917.8,509.4l-1,30.9c2,1.5,3.5,3.5,4.3,5.9c0.8,2.3,1,4.9,0.4,7.3c-0.7,3.4-2.7,6.4-5.4,8.4l-9.5,253.2
	l-13.3,353.3c1.8,3,4.9,8.4,6.8,11.2c10.8,16.8,22.8,32.8,36,47.8l2.8-77.1l-32.3-335.2l53.4-268l1.1-30L1917.8,509.4z"/>
<path class="st4" d="M2239,2537.5c-0.4,1.8-9.8,24.2-48.6,28.6l-38.3,3.5c-42.2,4.6-52.5,58.6-35,89l232.3-49
	c9.5-24.8,2.1-84.5,0.5-94.6L2239,2537.5z"/>
<path class="st4" d="M2117.1,2660.4c-0.3,0-0.6-0.1-0.9-0.2c-0.3-0.2-0.5-0.4-0.7-0.6c-10.7-18.6-11.2-45.3-1.2-65.1
	c7.9-15.3,21.2-24.8,37.6-26.5l22.8-2.1l15.4-1.4c39-4.4,46.9-27,47.1-27.2c0.1-0.3,0.3-0.7,0.5-0.9c0.2-0.2,0.6-0.4,0.9-0.5
	l111-22.5c0.4,0,0.9,0.1,1.2,0.4c0.2,0.1,0.4,0.3,0.5,0.5c0.1,0.2,0.2,0.4,0.2,0.7c0.2,0.5,10.2,67.8-0.5,95.5
	c-0.1,0.2-0.3,0.5-0.5,0.7c-0.2,0.2-0.5,0.3-0.7,0.4l-232.3,49H2117.1z M2240.2,2539c-2.3,5.1-13.2,24.6-49.7,28.8l-15.4,1.4
	l-22.8,2.1c-19.5,2.1-29.7,14.6-34.8,24.6c-9.3,18.4-9.1,43.2,0.5,60.8l230-48.5c8.2-23,2.8-75,0.3-91.1L2240.2,2539z"/>
<path class="st3" d="M2350,2515l-111,22.5c0,0-10-121.1-11.8-163.8c-1.8-42.7,13.3-68.3,46.2-75c32.8-6.7,50.8,11.9,59.4,54.1
	C2342.2,2399.4,2350,2515,2350,2515z"/>
<path class="st1" d="M2239,2539.2c-0.2,0-0.4,0-0.6-0.1c-0.2-0.1-0.3-0.1-0.5-0.3c-0.2-0.1-0.4-0.3-0.5-0.5
	c-0.1-0.2-0.2-0.5-0.2-0.7c-0.2-1.2-10-121.7-11.8-163.8c-1.8-42.1,14.2-70.2,47.6-76.9c33.4-6.7,52.3,11.1,61.5,55.5
	c9.1,44.4,17,161.4,17.2,162.6c0,0.4-0.2,0.8-0.4,1.1c-0.2,0.3-0.6,0.5-1,0.6l-111,22.5H2239z M2285.7,2299c-4,0.1-8,0.5-11.9,1.4
	c-31.4,6.3-46.5,30.9-44.8,73.2c1.6,39.2,10.2,145.9,11.6,161.7l107.5-21.8c-0.9-13.9-8.3-117.3-17-160.5
	C2323.6,2316.2,2309.4,2299,2285.7,2299z"/>
<path class="st5" d="M2263.6,2627l-85.3,17.2l-2.5-76.7c25.5-1.2,44.6-7.4,56-19.3L2263.6,2627z"/>
<path class="st5" d="M2176.5,2646.3l-2.4-80.6h1.6c25.8-1.2,44.2-7.6,55-18.8l1.9-1.9l33.5,83.2L2176.5,2646.3z M2177.5,2569.1
	l2.3,73.1l81.5-16.5l-30-74.3C2219.9,2561.7,2201.9,2567.7,2177.5,2569.1z"/>
<path class="st0" d="M2117.1,2658.6c9,15.8,25.5,26.2,47.9,22.8c50.2-8.8,96.2-17.9,131.5-25.5c30-6.3,45.5-24.2,52.8-46.4
	L2117.1,2658.6z"/>
<path class="st0" d="M2156.8,2683.7c-8.4,0.2-16.8-2-24.1-6.3s-13.2-10.5-17.2-17.9c-0.2-0.2-0.2-0.5-0.3-0.8c0-0.3,0-0.6,0.1-0.8
	c0.1-0.3,0.3-0.5,0.6-0.7c0.2-0.2,0.5-0.3,0.8-0.4l232.3-49c0.3,0,0.6,0,0.9,0.2c0.3,0.1,0.5,0.3,0.7,0.5c0.2,0.2,0.4,0.4,0.4,0.7
	c0.1,0.3,0,0.6-0.1,0.8c-8.6,25.8-26.9,41.8-54.1,47.6c-44.8,9.5-89,17.9-131.5,25.5L2156.8,2683.7z M2119.8,2659.9
	c6.5,9.8,20,23.7,45.1,19.8c42.3-7.4,86.6-16,131.4-25.3c24.9-5.3,42-19.5,50.4-42.3L2119.8,2659.9z"/>
<path class="st0" d="M2187,2588c-0.4,0-0.8-0.2-1.1-0.5c-0.3-0.3-0.5-0.7-0.5-1.1l-3.3-22.1c-0.1-0.2-0.1-0.5,0-0.7
	c0-0.2,0.1-0.5,0.3-0.6c0.1-0.2,0.3-0.4,0.5-0.5c0.2-0.1,0.4-0.2,0.7-0.3c0.5-0.1,1,0.1,1.4,0.4c0.4,0.3,0.7,0.7,0.7,1.2l3.2,22.3
	c0.1,0.4-0.1,0.9-0.3,1.2c-0.3,0.4-0.6,0.6-1.1,0.7H2187z"/>
<path class="st0" d="M2203.4,2584.7c-0.4,0-0.8-0.1-1.1-0.4c-0.3-0.2-0.5-0.6-0.6-1l-3.3-22.3c-0.1-0.4,0.1-0.9,0.3-1.2
	s0.6-0.6,1.1-0.7c0.2-0.1,0.5-0.1,0.7,0c0.2,0,0.5,0.1,0.6,0.3c0.2,0.1,0.4,0.3,0.5,0.5c0.1,0.2,0.2,0.4,0.3,0.7l3.3,22.3
	c0,0.4-0.2,0.9-0.4,1.2c-0.3,0.4-0.7,0.6-1.1,0.7H2203.4z"/>
<path class="st0" d="M2221.3,2580c-0.4-0.1-0.8-0.2-1.1-0.5c-0.3-0.3-0.5-0.6-0.6-1.1l-3.2-22.3c-0.1-0.4,0.1-0.9,0.3-1.2
	c0.3-0.4,0.6-0.6,1.1-0.7c0.2-0.1,0.5-0.1,0.7,0c0.2,0.1,0.4,0.2,0.6,0.3c0.2,0.2,0.3,0.4,0.4,0.6c0.1,0.2,0.1,0.5,0.1,0.7l3.3,22.1
	c0.1,0.2,0.1,0.5,0,0.7c-0.1,0.2-0.1,0.5-0.3,0.6c-0.1,0.2-0.3,0.4-0.5,0.5c-0.2,0.1-0.4,0.2-0.6,0.3H2221.3z"/>
<path class="st2" d="M2238.5,2506.9l1.1,12.5l108.3-6.3l-1.9-27.8L2238.5,2506.9z"/>
<path class="st4" d="M2444.6,2554.3c-0.5,1.8-14.2,21.8-53.2,18.4l-38.3-4.2c-42.1-3.9-63,47.1-52,80.2l237.6-1.9
	c14.2-22.3,18.8-82.4,19.1-92.5H2444.6z"/>
<path class="st4" d="M2301.1,2650.6c-0.3,0-0.7-0.1-1-0.3c-0.3-0.2-0.5-0.5-0.6-0.8c-6.8-20.4-1.9-46.7,11.8-64.1
	c10.7-13.5,25.6-20.2,42-18.6l22.8,2.5l15.5,1.8c39.2,3.3,51.4-17.2,51.4-17.4c0.1-0.3,0.4-0.6,0.6-0.8c0.3-0.2,0.6-0.3,0.9-0.3
	h113.3c0.5,0,0.9,0.2,1.2,0.5c0.3,0.3,0.5,0.8,0.5,1.2c0,0.7-3.5,68.5-19.5,93.6c-0.2,0.2-0.4,0.4-0.6,0.5c-0.2,0.1-0.5,0.2-0.8,0.2
	l-237.4,1.9H2301.1z M2348.7,2570.1c-17,0-28.1,9.3-34.6,17.6c-12.8,16-17.6,40.4-11.6,59.4l235.1-1.9c12.6-20.7,17.6-72.7,18.4-89
	h-110.4c-3.3,4.6-17.7,21.6-54.4,18.4l-15.4-1.8l-22.8-2.5L2348.7,2570.1z"/>
<path class="st3" d="M2557.9,2554.3h-113.3c0,0,14.4-120.8,21.1-162.9c6.7-42.1,26.7-64.4,60.1-64.4c33.4,0,47.4,21.8,47.6,65
	C2573.3,2439.5,2557.9,2554.3,2557.9,2554.3z"/>
<path class="st1" d="M2557.9,2556.1h-113.3c-0.5-0.1-0.9-0.4-1.2-0.7c-0.2-0.2-0.3-0.4-0.4-0.6c-0.1-0.2-0.1-0.5-0.1-0.8
	c0.2-1.1,14.4-121.2,21.1-162.8c6.7-41.6,27.7-66,61.8-66h0.2c33.4,0,49,21.2,49.2,66.7c0.2,45.5-15.3,161.4-15.5,162.6
	c-0.1,0.4-0.3,0.8-0.6,1.1C2558.7,2555.9,2558.3,2556.1,2557.9,2556.1z M2446.7,2552.6h109.6c1.9-13.9,15.3-116.8,15.3-160.7
	c0-43.9-14.2-63.2-45.7-63.2h-0.2c-32,0-51.6,21.2-58.3,63C2461.3,2430.4,2448.5,2536.8,2446.7,2552.6z"/>
<path class="st5" d="M2451.1,2646.9H2364l12.8-75.7c25.3,3.9,45.1,1.6,58.8-7.9L2451.1,2646.9z"/>
<path class="st5" d="M2453.2,2648.6h-91.3l13.5-79.4h1.8c25.3,3.9,44.6,1.4,57.4-7.6l2.3-1.6L2453.2,2648.6z M2366.1,2645.1h82.9
	l-14.6-78.8c-13.2,7.9-32.1,10.4-56.2,6.9L2366.1,2645.1z"/>
<path class="st0" d="M2301.1,2648.8c5.8,17.4,19.9,30.9,42.7,32c50.9,1.4,97.8,1.4,134,1.2c30.6-0.4,49.3-14.9,60.9-35.1
	L2301.1,2648.8z"/>
<path class="st0" d="M2444.6,2683.9c-34.4,0-68.1-0.5-100.8-1.4c-21.4-1.1-37.6-13-44.2-33c-0.1-0.2-0.2-0.5-0.1-0.8
	s0.1-0.5,0.3-0.8c0.1-0.2,0.4-0.5,0.6-0.6c0.2-0.2,0.5-0.2,0.8-0.3l237.6-1.9c0.3,0,0.6,0.1,0.8,0.2c0.2,0.2,0.4,0.4,0.6,0.6
	c0.2,0.3,0.3,0.6,0.3,0.9c0,0.3-0.1,0.6-0.3,0.9c-13.5,23.7-34.6,35.6-62.3,36L2444.6,2683.9z M2303.8,2650.6
	c4.2,11.1,14.8,27.2,40.2,28.4c42.8,1.2,88,1.6,133.6,1.2c25.6-0.2,45-10.9,57.9-31.4L2303.8,2650.6z"/>
<path class="st0" d="M2384.2,2593.6c-0.5,0-0.9-0.3-1.3-0.6c-0.3-0.4-0.5-0.8-0.5-1.3l1.2-22.5c0-0.2,0.1-0.4,0.1-0.6
	c0.1-0.2,0.2-0.4,0.4-0.5c0.2-0.2,0.4-0.3,0.6-0.3s0.4-0.1,0.7-0.1c0.5,0,0.9,0.2,1.2,0.5c0.3,0.3,0.5,0.8,0.5,1.2l-1.2,22.5
	c0,0.5-0.2,0.9-0.5,1.2C2385.1,2593.5,2384.7,2593.6,2384.2,2593.6z"/>
<path class="st0" d="M2400.7,2593.6c-0.5,0-0.9-0.3-1.2-0.6c-0.3-0.4-0.5-0.8-0.5-1.3l1.2-22.5c0-0.2,0-0.4,0.1-0.6
	c0.1-0.2,0.2-0.4,0.4-0.5c0.2-0.2,0.4-0.3,0.6-0.3c0.2-0.1,0.4-0.1,0.6-0.1c0.5,0,0.9,0.2,1.2,0.5c0.3,0.3,0.5,0.8,0.5,1.2
	l-1.2,22.5c0,0.5-0.2,0.9-0.5,1.2C2401.6,2593.5,2401.2,2593.6,2400.7,2593.6z"/>
<path class="st0" d="M2419.3,2592.4c-0.5,0-0.9-0.2-1.2-0.5c-0.3-0.3-0.5-0.8-0.5-1.2l1.2-22.5c0-0.5,0.2-0.9,0.5-1.2
	c0.3-0.3,0.8-0.5,1.2-0.5c0.2,0,0.5,0.1,0.7,0.2c0.2,0.1,0.4,0.2,0.6,0.4c0.2,0.2,0.3,0.4,0.4,0.6c0.1,0.2,0.1,0.5,0.1,0.7
	l-1.2,22.5c0,0.2,0,0.4-0.1,0.6c-0.1,0.2-0.2,0.4-0.4,0.5c-0.2,0.1-0.4,0.3-0.6,0.3C2419.8,2592.4,2419.6,2592.4,2419.3,2592.4
	L2419.3,2592.4z"/>
<path class="st2" d="M2450.2,2524.3l-1.4,12.5l107.5,15.3l3.7-27.8H2450.2z"/>
<path class="st0" d="M2118.7,1282.2c-28.7-4.5-56.7-12.5-83.4-23.9c-55.3-23.5-105.4-66.9-142.2-121.5
	c-33.4-49.3-48.5-116.8-44.1-197c2.3-38.8-6.7-33.2,30.4-44.6c37.1-11.4,74.1,21.6,85.7,58.6c22.3,71.5,66.7,150.3,140.3,180.2
	c55.3,22.5,127.1,10.2,213.5-36.5c16.4-8.9,35.6-10.9,53.5-5.6c17.9,5.3,32.9,17.5,41.8,33.9c8.9,16.4,10.9,35.6,5.6,53.5
	s-17.5,32.9-33.9,41.8C2288.3,1273.7,2198.8,1294.1,2118.7,1282.2z"/>
<path class="st0" d="M2163.7,1287.2c-15.2,0.1-30.3-1.1-45.3-3.3c-28.8-4.5-56.9-12.6-83.8-24.1c-54.6-23.2-105.3-66.5-142.9-122
	c-33.5-49.5-48.8-118.2-44.4-198.2c0.5-7.4,0.5-13.2,0.5-17.7c0-18.4,0.7-19.1,23.7-26.2l7.4-2.3c17.7-5.4,36.9-1.4,53.9,11.4
	c16,12.3,27.9,29.2,33.9,48.5c16.5,52.3,56.4,145.4,139.4,179.1c54.8,22.3,126.1,10,212.1-36.5c16.8-9.1,36.5-11.1,54.8-5.6
	c18.3,5.5,33.7,18,42.7,34.8c9.1,16.8,11.1,36.5,5.6,54.8c-5.5,18.3-18,33.7-34.8,42.7C2306.9,1265.7,2232.3,1287.2,2163.7,1287.2z
	 M1894.7,894.4c-5,0-10,0.8-14.8,2.3l-7.4,2.3c-10.9,3.3-16.3,5.1-19,7.7c-2.6,2.6-2.3,6.8-2.3,15.1c0,4.7,0,10.5-0.5,17.9
	c-4.4,79.4,10.7,147.1,43.9,196.1c37,55,87.3,97.8,141.3,120.8c26.5,11.4,54.4,19.4,82.9,23.7l0,0c79.7,11.9,169.1-8.6,266-60.9
	c8.1-4.2,15.2-9.9,21-16.9c5.8-7,10.2-15.1,12.9-23.7c2.7-8.7,3.6-17.8,2.7-26.9c-0.9-9-3.6-17.8-7.9-25.8
	c-4.3-8-10.2-15.1-17.3-20.8c-7.1-5.7-15.2-9.9-23.9-12.5c-8.7-2.5-17.9-3.3-26.9-2.2c-9,1-17.8,3.9-25.7,8.3
	c-58.6,31.8-110.8,47.6-155.6,47.6c-20.3,0.3-40.5-3.4-59.3-10.9c-84.5-34.4-124.8-128.4-141.5-181.4c-5.7-18.6-17.2-34.9-32.7-46.7
	C1919.2,899,1906.8,894.4,1894.7,894.4z"/>
<path class="st6" d="M2570.2,956.1c28.5,0,51.6-23.1,51.6-51.6s-23.1-51.6-51.6-51.6s-51.6,23.1-51.6,51.6
	S2541.6,956.1,2570.2,956.1z"/>
<path class="st6" d="M2492,839.3h-0.2c-11.8-2.2-23.9-1.8-35.5,1.2c-21.9,6-41.8,21.1-55.3,42.3c9,4.6,18.9,7,29,7
	c10.6,0,20.9-2.6,30.2-7.7c6.4,21,19.4,39.5,37.1,52.6c17.7,13.1,39.1,20.2,61.1,20.1h0.2C2568.4,900.1,2538.9,848.6,2492,839.3z"/>
<path class="st2" d="M2566.5,937.8c-5.8-1.1-11.8-0.2-17.1,2.4c-5.3,2.7-9.5,7-12.1,12.3c-18-3.8-34.7-12.3-48.2-24.7
	c-13.6-12.4-23.5-28.3-28.9-45.9c-9.3,5.1-19.6,7.7-30.2,7.7c-10.1-0.1-20-2.5-29-7c-7.6,12.2-13,25.6-15.8,39.7
	c-11.1,55.7,18.8,108.3,66.4,117.8c38.6,7.7,77.1-15.1,96.4-53.4c2.5,1.4,5.2,2.5,8.1,3.2c3.4,0.7,6.9,0.7,10.4,0
	c3.4-0.7,6.7-2,9.6-4c2.9-1.9,5.4-4.4,7.3-7.3c1.9-2.9,3.3-6.2,4-9.6c0.7-3.4,0.7-6.9,0-10.4c-0.7-3.4-2-6.7-4-9.6
	c-1.9-2.9-4.4-5.4-7.3-7.3C2573.1,939.8,2569.9,938.5,2566.5,937.8z"/>
<path class="st0" d="M2466.7,1043.5c-5.2,0-10.4-0.5-15.5-1.6c-48.5-9.7-79-63.6-67.6-119.9c2.7-14.3,8.2-27.9,16-40.2
	c0.2-0.4,0.6-0.7,1-0.8c0.4-0.1,0.9-0.1,1.3,0.1c8.7,4.5,18.3,6.8,28.1,6.8c10.2,0,20.3-2.6,29.3-7.6c0.4-0.2,1-0.2,1.4,0
	c0.2,0.1,0.5,0.2,0.7,0.4c0.2,0.2,0.3,0.4,0.4,0.7c5.2,17.1,14.8,32.5,28,44.7c13.1,12.2,29.2,20.6,46.7,24.5
	c2.8-5.4,7.3-9.7,12.8-12.3c5.5-2.6,11.6-3.3,17.6-2.1l0,0c3.7,0.7,7.1,2.1,10.2,4.1c3.1,2.1,5.8,4.7,7.8,7.8
	c4.1,6.3,5.6,13.9,4.2,21.2c-0.7,3.6-2.2,7.1-4.2,10.2c-2.1,3.1-4.8,5.7-7.9,7.7c-3.1,2.1-6.6,3.5-10.2,4.3
	c-3.7,0.7-7.4,0.7-11.1-0.1c-2.4-0.4-4.8-1.2-7-2.3C2531,1023,2499.6,1043.5,2466.7,1043.5z M2401.8,885
	c-7.1,11.6-12.1,24.4-14.8,37.8c-10.9,54.6,18.3,106.4,65,115.7c37.1,7.4,75-13.7,94.5-52.5c0.1-0.2,0.2-0.4,0.4-0.5
	c0.2-0.2,0.4-0.3,0.6-0.3h1.4c2.3,1.4,4.9,2.4,7.6,3c4.8,1,9.8,0.5,14.4-1.4c4.6-1.9,8.4-5.1,11.2-9.1c2.7-4.1,4.2-8.9,4.2-13.8
	c0-4.9-1.5-9.7-4.2-13.8c-3.7-5.4-9.4-9.2-15.8-10.5l0,0c-5.4-1-11-0.2-15.9,2.2c-4.9,2.5-8.9,6.5-11.3,11.4
	c-0.1,0.4-0.4,0.7-0.8,0.9c-0.4,0.2-0.8,0.2-1.2,0.1c-18-3.8-34.6-12.2-48.3-24.5c-13.7-12.3-23.8-27.9-29.5-45.4
	c-8.9,4.5-18.7,6.9-28.6,7c-10,0.1-19.8-2.1-28.8-6.5V885z"/>
<path class="st6" d="M2506.6,859.3c31.4,0,56.9-25.9,56.9-57.8c0-31.9-25.5-57.8-56.9-57.8c-31.4,0-56.9,25.9-56.9,57.8
	C2449.7,833.5,2475.2,859.3,2506.6,859.3z"/>
<path class="st0" d="M2580.5,1265.1c-6.5,27.8-20.1,53.4-39.5,74.3c-19.4,20.9-43.9,36.4-71.2,44.9c-27.2,8.5-56.2,9.8-84,3.7
	c-27.9-6.1-53.6-19.4-74.8-38.5c-21.1-19.1-36.9-43.5-45.8-70.6c-8.9-27.1-10.5-56.1-4.7-84c5.8-27.9,18.7-53.9,37.6-75.3
	c18.9-21.4,43-37.5,70-46.7c14.9-5,30.3-7.9,46-8.6c0.6,7.2,3.7,14.1,8.6,19.3c5,5.3,11.6,8.8,18.7,9.9c7.2,1.1,14.5-0.2,20.9-3.8
	c6.3-3.5,11.3-9.1,14.1-15.8c22.7,8.1,43.2,21.1,60.2,38.1c19.7,19.7,34.1,44.1,41.8,70.9C2586.1,1209.7,2586.8,1238,2580.5,1265.1
	L2580.5,1265.1z"/>
<path class="st0" d="M2421.3,1393.7c-39.3,0.1-77.3-13.7-107.4-39.1c-30-25.3-50-60.5-56.5-99.3c-6.5-38.8,1.1-78.5,21.2-112.2
	c20.2-33.7,51.7-59.2,88.9-71.8c15-5.2,30.7-8.2,46.5-8.8h1.6v1.6c0.6,6.9,3.5,13.3,8.2,18.3c4.7,5,10.9,8.3,17.8,9.4
	c6.8,1,13.8-0.2,19.8-3.6s10.7-8.7,13.3-15l0.5-1.6l1.6,0.5c22.9,8.2,43.8,21.3,60.9,38.6c20,19.8,34.6,44.5,42.4,71.6
	c7.8,27.1,8.4,55.7,1.9,83.1l-1.6-0.3l1.6,0.3c-8.4,36.4-28.9,68.9-58.1,92.1c-29.2,23.3-65.4,36-102.8,36.1H2421.3z M2412.5,1066
	c-15,0.8-29.7,3.7-43.9,8.6c-36.2,12.3-66.8,37.1-86.5,69.8c-19.7,32.7-27.2,71.4-21.2,109.1c6,37.7,25.2,72.1,54.1,97.1
	c28.9,25,65.7,39,103.9,39.5c38.2,0.5,75.3-12.5,104.9-36.8s49.6-58.1,56.6-95.7c7-37.6,0.5-76.4-18.4-109.6
	c-18.8-33.2-48.8-58.7-84.6-72c-3.2,7.2-8.8,13-15.9,16.4c-7.1,3.5-15.1,4.4-22.7,2.5c-6.8-1.6-12.9-5.2-17.6-10.4
	C2416.4,1079.4,2413.4,1072.9,2412.5,1066L2412.5,1066z"/>
<path class="st6" d="M2429.2,891.8c40.9,0,74.1-33.2,74.1-74.1c0-40.9-33.2-74.1-74.1-74.1c-40.9,0-74.1,33.2-74.1,74.1
	C2355.1,858.6,2388.2,891.8,2429.2,891.8z"/>
<path class="st2" d="M2476.4,1073.9c-2.8,6.7-7.8,12.3-14.1,15.8c-6.3,3.6-13.7,4.9-20.9,3.8c-7.2-1.1-13.8-4.6-18.7-9.9
	c-5-5.3-8-12.1-8.6-19.3c14.8-0.6,29.5,0.8,43.9,4.2C2464.2,1069.8,2470.4,1071.6,2476.4,1073.9L2476.4,1073.9z"/>
<path class="st0" d="M2446.5,1095.8c-2.7,0-5.3-0.3-7.9-0.9c-7.1-1.7-13.4-5.5-18.1-11c-4.7-5.5-7.6-12.3-8.2-19.6
	c0-0.3,0-0.5,0.1-0.8c0.1-0.2,0.2-0.5,0.4-0.7c0.1-0.2,0.3-0.3,0.5-0.4c0.2-0.1,0.5-0.1,0.7-0.1c14.9-0.5,29.8,0.9,44.2,4.2
	c6.3,1.4,12.5,3.3,18.6,5.4c0.2,0.1,0.5,0.2,0.7,0.4c0.2,0.2,0.3,0.4,0.4,0.7c0.1,0.2,0.1,0.4,0.1,0.6c0,0.2,0,0.4-0.1,0.6
	c-2.5,6.3-6.8,11.7-12.4,15.6C2460,1093.8,2453.3,1095.9,2446.5,1095.8L2446.5,1095.8z M2416,1066c1,6.5,4,12.4,8.6,17.1
	c4.6,4.6,10.6,7.7,17.1,8.7c6.5,1,13.1-0.1,18.9-3.1s10.5-7.8,13.4-13.7c-5.4-1.9-10.9-3.6-16.5-4.9
	C2443.9,1066.8,2429.9,1065.5,2416,1066z"/>
<path class="st3" d="M2427.9,895.5c-3.9,0-7.8-0.3-11.6-0.9c-10.9-1.6-26.7-9-34.2-13.5c-0.4-0.2-0.7-0.6-0.9-1.1
	c-0.1-0.5-0.1-1,0.2-1.4s0.6-0.7,1.1-0.9c0.5-0.1,1-0.1,1.4,0.2c8.6,5.3,23.7,11.8,33,13.2c40.2,6,77.6-21.2,83.4-60.8
	c0.1-0.4,0.3-0.8,0.7-1.1c0.4-0.3,0.8-0.4,1.2-0.3c0.2,0,0.5,0,0.7,0.1c0.2,0.1,0.4,0.2,0.6,0.4c0.2,0.2,0.3,0.4,0.3,0.6
	c0.1,0.2,0.1,0.5,0,0.7C2498.2,868.5,2465.3,895.5,2427.9,895.5z"/>
<path class="st6" d="M2340.1,815.1c-0.5-10.8,1.2-21.5,4.9-31.6c3.7-10.1,9.5-19.4,16.8-27.2c7.3-7.9,16.1-14.3,25.9-18.8
	c9.8-4.5,20.4-7,31.1-7.4v3.5c-20.8,0.8-40.4,9.8-54.5,25.1c-14.1,15.2-21.7,35.5-21,56.2L2340.1,815.1z"/>
<path class="st0" d="M2460.4,956.7c2-5.9,0.9-11.6-2.5-12.7c-3.4-1.2-7.8,2.6-9.8,8.5c-2,5.9-0.9,11.6,2.5,12.7
	C2453.9,966.3,2458.3,962.5,2460.4,956.7z"/>
<path class="st0" d="M2408.6,938.9c2-5.9,0.9-11.6-2.5-12.7c-3.4-1.2-7.8,2.6-9.8,8.5c-2,5.9-0.9,11.6,2.5,12.7
	C2402.2,948.6,2406.6,944.8,2408.6,938.9z"/>
<path class="st0" d="M2465.7,939c-0.2,0-0.4,0-0.6,0c-0.2-0.1-0.3-0.2-0.5-0.3l0,0c-3.4-2.5-7.5-3.9-11.8-4c-0.2,0-0.5,0-0.7-0.1
	s-0.4-0.2-0.6-0.4c-0.2-0.2-0.3-0.4-0.4-0.6c-0.1-0.2-0.1-0.5-0.1-0.7c0-0.2,0-0.4,0.1-0.7c0.1-0.2,0.2-0.4,0.3-0.6
	c0.1-0.2,0.3-0.3,0.5-0.4c0.2-0.1,0.4-0.1,0.6-0.1c5.2-0.1,10.2,1.7,14.2,4.9c0.4,0.3,0.6,0.7,0.6,1.2c0,0.5-0.1,0.9-0.4,1.3
	c-0.2,0.2-0.4,0.3-0.7,0.4C2466.2,939,2465.9,939.1,2465.7,939z"/>
<path class="st0" d="M2414.1,921.3l-1.1-0.4c-3.3-2.7-7.5-4.1-11.8-4c-0.5,0-0.9-0.2-1.3-0.5c-0.3-0.3-0.6-0.8-0.6-1.3
	c0-0.5,0.2-0.9,0.5-1.2c0.3-0.3,0.8-0.5,1.2-0.5c5.1,0,10.1,1.7,14.2,4.7c0.3,0.4,0.5,0.8,0.6,1.3s-0.1,1-0.4,1.3
	c-0.2,0.2-0.4,0.3-0.6,0.4C2414.6,921.3,2414.3,921.3,2414.1,921.3L2414.1,921.3z"/>
<path class="st0" d="M2410,983.8c-0.4,0-0.9-0.1-1.2-0.4c-0.2-0.2-6.3-5.3-8.2-9.7c-0.5-1.2-1.4-3.5,11.1-17.7
	c6-6.8,12.5-13.5,13.3-14.2c0.3-0.3,0.7-0.4,1.1-0.4s0.8,0.1,1.1,0.4c0.3,0.2,0.6,0.5,0.7,0.8c0.1,0.4,0.1,0.7,0,1.1
	c-0.1,0.2-0.2,0.4-0.3,0.5c-0.1,0.2-0.3,0.3-0.5,0.3c-3.2,2.8-22.6,23.9-23,27.9c-0.4,4,5.6,6.8,7.2,8.3c0.3,0.3,0.6,0.7,0.6,1.2
	c0,0.5-0.1,0.9-0.4,1.3c-0.1,0.2-0.3,0.3-0.6,0.4C2410.5,983.8,2410.2,983.8,2410,983.8L2410,983.8z"/>
<path class="st0" d="M2431.1,1016c-3.2,0-6.2-0.9-9-2.5c-1.7-1-3.1-2.3-4.2-3.8c-1.1-1.6-1.8-3.4-2.1-5.3c-0.1-0.9,0-1.8,0.4-2.6
	c0.4-0.8,1.1-1.5,1.8-1.9c5.3-4.2,20-6.5,26.3-4c0.9,0.2,1.7,0.7,2.3,1.4c0.6,0.7,1.1,1.5,1.2,2.3c0.3,1.9,0.1,3.9-0.4,5.7
	c-0.6,1.9-1.6,3.6-2.9,5c-2.8,3.1-6.6,5.1-10.7,5.6L2431.1,1016z M2437.4,998.2c-6,0-14,1.8-17.2,4.2c-0.4,0.4-1.1,0.9-0.9,1.4
	c0.2,1.4,0.7,2.7,1.5,3.9c0.8,1.1,1.8,2.1,3,2.8c2.9,1.6,6.2,2.2,9.5,1.8c3.3-0.5,6.3-2,8.6-4.4c1-1,1.8-2.3,2.2-3.7
	c0.4-1.4,0.5-2.8,0.3-4.2l0,0c0-0.4-0.9-0.9-1.2-0.9C2441.4,998.4,2439.4,998.1,2437.4,998.2L2437.4,998.2z"/>
<path class="st0" d="M2561.2,980.7c-1.1,0.1-2.1-0.1-3.2-0.4c-0.4-0.1-0.8-0.3-1.1-0.7c-0.3-0.4-0.4-0.8-0.3-1.2
	c0-0.2,0.1-0.5,0.3-0.7c0.1-0.2,0.3-0.4,0.5-0.5c0.2-0.1,0.4-0.2,0.7-0.3c0.2,0,0.5,0,0.7,0c1.7,0.3,3.4,0.3,5-0.1
	c1.7-0.4,3.2-1.1,4.6-2c1.5-1,2.7-2.2,3.7-3.6c1-1.4,1.6-3.1,1.9-4.8c0-0.2,0.1-0.4,0.3-0.6c0.1-0.2,0.3-0.4,0.5-0.5
	c0.2-0.1,0.4-0.2,0.6-0.3c0.2,0,0.5,0,0.7,0c0.2,0,0.5,0.1,0.7,0.3c0.2,0.1,0.4,0.3,0.5,0.5c0.1,0.2,0.2,0.4,0.3,0.6
	c0,0.2,0,0.5,0,0.7c-0.4,2.2-1.2,4.2-2.4,6.1c-1.2,1.8-2.8,3.4-4.6,4.7C2567.8,979.7,2564.5,980.7,2561.2,980.7L2561.2,980.7z"/>
<path class="st7" d="M2428.6,882c-11.8,0.4-23.5-2.4-33.9-8.2c-10.3-5.8-18.9-14.2-24.8-24.5c9.6,7.9,21.3,12.9,33.7,14.3
	c12.4,1.4,24.9-0.8,36.1-6.3c11.2-5.5,20.5-14.2,26.9-24.9c6.4-10.7,9.6-23,9.1-35.5c-0.4-10.4-3.3-20.6-8.4-29.7
	c10.1,8.4,17.4,19.6,21,32.2c3.6,12.6,3.2,26-1,38.5c-4.2,12.4-12.1,23.3-22.6,31.1C2454.4,877,2441.8,881.5,2428.6,882L2428.6,882z
	"/>
<path class="st6" d="M2568.6,897.8c27.7,0,50.2-22.5,50.2-50.2c0-27.7-22.5-50.2-50.2-50.2c-27.7,0-50.2,22.5-50.2,50.2
	C2518.4,875.3,2540.9,897.8,2568.6,897.8z"/>
<path class="st7" d="M2568.9,887.4c-7.1,0.2-14.1-1.5-20.4-5c-6.2-3.5-11.4-8.5-14.9-14.7c5.8,4.8,12.9,7.8,20.3,8.6
	c7.5,0.9,15-0.5,21.8-3.8c6.7-3.3,12.4-8.6,16.2-15c3.8-6.5,5.7-13.9,5.4-21.4c-0.1-6.3-1.9-12.5-5.1-17.9
	c4.3,3.5,7.8,7.8,10.2,12.7c2.5,4.9,3.8,10.4,4,15.9c0.2,5.1-0.6,10.3-2.4,15.1c-1.8,4.8-4.5,9.2-8,13c-3.5,3.8-7.7,6.8-12.4,9
	S2574.1,887.2,2568.9,887.4L2568.9,887.4z"/>
<path class="st4" d="M2519.8,1535.4c-32.8-94.3-105.2-124.3-160.7-124.3c-46.7,0-102.2,22.3-140.8,84.5c-7.9,12.8-14.6,26.2-20,40.2
	c-12.6,32.4-23.5,65.4-32.7,98.9c-9.5,34.6-86.4,299.7-88.7,433.2c-1.4,70.1,187,136.4,210.5,11.8c27.2-144.9,53.9-220.6,53.9-220.6
	l87.1,663.2h153.1C2581.6,2522.2,2593.5,1747.8,2519.8,1535.4z"/>
<path class="st4" d="M2428.5,2523.9c-0.2,0-0.4,0-0.6-0.1c-0.2-0.1-0.4-0.2-0.5-0.3c-0.2-0.1-0.3-0.3-0.4-0.5
	c-0.1-0.2-0.1-0.4-0.1-0.6l-86.2-655.7c-7.2,22.1-29.3,94.8-51.6,213c-4.9,27-17.9,46.7-38.1,58.8c-17.4,10.2-39.7,14.4-64.6,11.8
	c-53.2-5.4-112-42-111.2-82.7c1.8-103.1,47.8-287.1,86-423.5c1.2-4.4,2.1-7.7,2.8-10c9.1-33.6,20-66.8,32.7-99.2
	c5.5-14.1,12.3-27.7,20.2-40.6c47.8-76.9,115.4-85.2,142.2-85.2c31.9,0.1,63.1,9.5,89.7,27c33.2,22,57.6,55,72.5,98.5
	c21.1,60.6,48.5,209.3,58.6,573.5c6.1,217.7,3.3,411.9,3.3,413.9c0,0.4-0.2,0.9-0.6,1.2c-0.3,0.3-0.7,0.5-1.2,0.6H2428.5z
	 M2341.4,1857.2h0.2c0.4,0,0.7,0.2,1,0.4c0.3,0.2,0.5,0.6,0.6,1l86.9,661.6h149.8c0.5-41.1,9.3-779.6-61.6-984.6
	c-39.7-114.3-131.9-123.1-159.1-123.1c-27.2,0-92.4,8.1-139.2,83.6c-7.8,12.7-14.5,26-20,39.9c-12.6,32.3-23.4,65.3-32.5,98.9
	c-0.7,2.3-1.6,5.8-2.8,10.2c-38.1,136.1-84.1,319.9-85.9,422.5c-0.3,17.2,11.8,36,33.2,51.3c22.2,15.5,47.9,25.1,74.8,27.9
	c76.4,7.9,94.6-44.8,99-67.8c27-143.3,53.7-220,54.1-220.7c0.1-0.3,0.4-0.6,0.6-0.8C2340.7,1857.3,2341,1857.2,2341.4,1857.2
	L2341.4,1857.2z"/>
<path class="st4" d="M2266.9,1859.5c1.1,0.8,2,1.9,2.7,3.1c0.7,1.2,1.1,2.6,1.3,3.9c0.2,1.4,0,2.8-0.4,4.1c-0.4,1.3-1.1,2.6-1.9,3.6
	c-0.9,1.1-2,2-3.2,2.6c-1.2,0.6-2.6,1-4,1.1c-1.4,0.1-2.8-0.1-4.1-0.5c-1.3-0.4-2.5-1.2-3.6-2.1c-2-1.8-3.2-4.3-3.4-6.9
	c-0.2-2.7,0.6-5.3,2.3-7.4c1.7-2.1,4.1-3.4,6.8-3.7C2262.1,1857.1,2264.8,1857.9,2266.9,1859.5z"/>
<path class="st4" d="M2260.2,1879.5c-2.8,0-5.5-1-7.6-2.8c-1.2-1-2.2-2.2-3-3.6c-0.8-1.4-1.2-2.9-1.4-4.5c-0.3-3.2,0.6-6.3,2.6-8.8
	c1-1.2,2.3-2.3,3.7-3c1.4-0.8,3-1.2,4.6-1.3c1.6-0.2,3.2,0,4.7,0.4c1.5,0.5,2.9,1.2,4.1,2.2c2.5,2.1,4.1,5,4.4,8.2
	c0.3,3.2-0.6,6.3-2.6,8.8c-2.1,2.4-5,4-8.2,4.4H2260.2z M2260.4,1858.8h-0.9c-1.1,0.1-2.2,0.4-3.2,0.9c-1,0.5-1.9,1.2-2.6,2.1
	c-1.4,1.8-2.1,4-1.9,6.3c0.1,1.1,0.4,2.2,0.9,3.2c0.6,1,1.3,1.9,2.2,2.5c1.7,1.4,3.9,2.1,6.2,1.9c1.1-0.1,2.2-0.4,3.2-1
	c1-0.5,1.9-1.3,2.6-2.2c1.4-1.8,2.1-4.1,1.9-6.3c-0.3-2.1-1.3-3.9-2.9-5.3c-1.5-1.4-3.5-2.2-5.6-2.4V1858.8z"/>
<path class="st4" d="M2271.6,1837.4c1.8-2.1,4.3-3.5,7-3.7s5.5,0.6,7.6,2.3c1,0.8,1.9,1.9,2.5,3.1c0.6,1.2,1,2.5,1.2,3.8
	c0.1,1.3,0,2.7-0.4,4c-0.4,1.3-1,2.5-1.9,3.5c-1.8,1.8-4.2,2.8-6.8,3c-2.6,0.1-5.1-0.7-7-2.3s-3.3-3.9-3.7-6.4
	C2269.7,1842.1,2270.3,1839.5,2271.6,1837.4L2271.6,1837.4z"/>
<path class="st4" d="M2279.7,1856c-2.8,0-5.6-1-7.7-2.8c-1.2-1-2.2-2.2-3-3.6c-0.8-1.4-1.2-2.9-1.4-4.5c-0.3-3.2,0.6-6.4,2.6-8.9
	c1-1.2,2.3-2.2,3.7-2.9c1.4-0.7,3-1.2,4.6-1.3c1.6-0.2,3.2-0.1,4.7,0.4c1.5,0.5,2.9,1.2,4.1,2.2c2.5,2,4.1,5,4.4,8.2
	c0.3,3.2-0.6,6.4-2.6,8.9c-1.2,1.3-2.6,2.4-4.2,3.2C2283.2,1855.5,2281.5,1855.9,2279.7,1856L2279.7,1856z M2279.7,1835.3h-0.9
	c-2.2,0.3-4.3,1.4-5.8,3.2c-1.4,1.8-2.1,4-1.9,6.3c0.3,2.3,1.4,4.3,3.2,5.8c0.9,0.7,1.8,1.2,2.9,1.6c1.1,0.3,2.2,0.4,3.3,0.3
	c1.1-0.1,2.2-0.5,3.2-1c1-0.5,1.9-1.3,2.6-2.1c1.4-1.8,2.1-4,1.9-6.3c-0.2-2.3-1.3-4.4-3-5.9
	C2283.6,1836,2281.7,1835.3,2279.7,1835.3L2279.7,1835.3z"/>
<path class="st4" d="M2291,1813.7c1.8-2.1,4.3-3.4,7-3.7c2.7-0.3,5.4,0.5,7.6,2.2c2.1,1.7,3.5,4.3,3.7,7c0.3,2.7-0.6,5.5-2.3,7.6
	c-0.8,1-1.9,1.9-3.1,2.5c-1.2,0.6-2.5,1-3.8,1.2c-1.3,0.1-2.7,0-4-0.4c-1.3-0.4-2.5-1-3.5-1.9c-1.1-0.9-1.9-1.9-2.6-3.1
	c-0.6-1.2-1.1-2.5-1.2-3.9c-0.1-1.4,0-2.7,0.4-4C2289.5,1815.9,2290.1,1814.7,2291,1813.7z"/>
<path class="st4" d="M2299.1,1832.5c-2.8,0-5.5-1-7.7-2.8c-1.2-1-2.3-2.2-3-3.7c-0.8-1.4-1.2-2.9-1.4-4.5c-0.1-1.6,0-3.2,0.5-4.7
	c0.5-1.5,1.3-2.9,2.3-4.1l0,0c1-1.2,2.2-2.2,3.6-3c1.4-0.8,2.9-1.2,4.5-1.4c1.6-0.2,3.2,0,4.7,0.5c1.5,0.5,2.9,1.3,4.1,2.3
	c1.2,1,2.2,2.2,3,3.6c0.8,1.4,1.2,2.9,1.4,4.5c0.2,1.6,0,3.2-0.4,4.7s-1.2,2.9-2.2,4.1c-1,1.2-2.2,2.3-3.6,3
	c-1.4,0.8-2.9,1.2-4.5,1.4L2299.1,1832.5z M2292.4,1814.9c-0.7,0.8-1.3,1.8-1.6,2.9c-0.3,1.1-0.4,2.2-0.3,3.3c0.1,1.1,0.5,2.2,1,3.2
	c0.6,1,1.3,1.8,2.2,2.5c0.8,0.8,1.8,1.3,2.9,1.7c1.1,0.3,2.2,0.4,3.4,0.2c2.2-0.2,4.3-1.3,5.8-3c1.4-1.8,2-4.1,1.8-6.3
	s-1.3-4.3-3-5.8c-0.9-0.7-1.9-1.2-3-1.6c-1.1-0.3-2.2-0.4-3.3-0.3c-1.1,0.1-2.2,0.4-3.2,1C2294,1813.3,2293.1,1814,2292.4,1814.9
	L2292.4,1814.9z"/>
<path class="st4" d="M2324.9,1788.7c1.6,1.3,2.8,3,3.4,5c0.6,2,0.6,4.1,0,6.1c-0.6,2-1.8,3.7-3.3,5c-1.6,1.3-3.5,2.1-5.6,2.3
	c-2.1,0.2-4.1-0.2-5.9-1.2c-1.8-1-3.3-2.5-4.2-4.3c-1-1.8-1.3-3.9-1.1-5.9c0.2-2,1-4,2.4-5.6c0.9-1,1.9-1.9,3.1-2.5
	c1.2-0.6,2.5-1,3.8-1.2c1.3-0.1,2.7,0,4,0.4C2322.6,1787.2,2323.8,1787.9,2324.9,1788.7L2324.9,1788.7z"/>
<path class="st4" d="M2318.4,1808.8c-2.8,0-5.5-0.9-7.7-2.6c-2.4-2.1-3.9-5-4.2-8.2c-0.3-3.2,0.7-6.4,2.7-8.8c2-2.4,4.9-4,8.1-4.4
	c3.2-0.3,6.4,0.7,9,2.6l0,0c2.5,2.1,4,5,4.3,8.2c0.3,3.2-0.7,6.4-2.7,8.8c-1.1,1.4-2.5,2.5-4.1,3.3
	C2321.9,1808.4,2320.1,1808.8,2318.4,1808.8L2318.4,1808.8z M2318.4,1788.2h-0.9c-1.1,0.1-2.2,0.4-3.2,1c-1,0.5-1.9,1.3-2.6,2.2
	c-1.4,1.7-2.1,3.9-1.9,6.2c0.3,2.3,1.4,4.3,3.2,5.8c0.9,0.7,1.9,1.2,3,1.6c1.1,0.3,2.2,0.4,3.3,0.3c1.1-0.1,2.2-0.4,3.2-1
	c1-0.5,1.9-1.3,2.6-2.1c0.7-0.9,1.2-1.8,1.6-2.9c0.3-1.1,0.4-2.2,0.3-3.3c-0.1-1.1-0.4-2.2-1-3.2c-0.5-1-1.2-1.8-2.1-2.5l0,0
	C2322.2,1788.9,2320.3,1788.2,2318.4,1788.2L2318.4,1788.2z"/>
<path class="st4" d="M2344.2,1765.2c1.1,0.8,1.9,1.9,2.6,3.1c0.6,1.2,1.1,2.5,1.2,3.8c0.2,1.3,0,2.7-0.3,4c-0.4,1.3-1,2.5-1.9,3.5
	c-0.8,1.2-1.8,2.3-3,3.1c-1.2,0.8-2.6,1.3-4,1.5c-1.4,0.2-2.9,0.2-4.3-0.2c-1.4-0.4-2.7-1-3.9-2c-1.1-0.9-2.1-2.1-2.7-3.4
	c-0.7-1.3-1-2.7-1.1-4.2c-0.1-1.5,0.2-2.9,0.7-4.3c0.5-1.4,1.3-2.6,2.4-3.6c0.8-1,1.9-1.9,3.1-2.5c1.2-0.6,2.5-1,3.8-1.2
	c1.3-0.1,2.7,0,4,0.4C2341.9,1763.7,2343.1,1764.3,2344.2,1765.2L2344.2,1765.2z"/>
<path class="st4" d="M2337.7,1785.2c-2.8,0.1-5.5-0.9-7.6-2.8c-1.2-1-2.3-2.2-3.1-3.6c-0.8-1.4-1.2-2.9-1.4-4.5
	c-0.2-1.6,0-3.2,0.5-4.7c0.5-1.5,1.2-2.9,2.2-4.1c2-2.5,5-4.1,8.1-4.4c3.2-0.3,6.4,0.6,8.9,2.6l0,0c2.5,2.1,4,5,4.3,8.2
	c0.3,3.2-0.7,6.4-2.7,8.8c-1,1.2-2.2,2.2-3.6,3c-1.4,0.8-2.9,1.2-4.5,1.4H2337.7z M2337.7,1764.5c-1.3,0-2.5,0.3-3.7,0.9
	c-1.1,0.5-2.2,1.3-3,2.3c-0.7,0.9-1.2,1.9-1.6,3c-0.3,1.1-0.4,2.2-0.3,3.3c0.1,1.1,0.4,2.2,1,3.2c0.5,1,1.3,1.9,2.1,2.6
	c0.9,0.7,1.9,1.2,3,1.6c1.1,0.3,2.2,0.4,3.4,0.3c1.1-0.1,2.2-0.5,3.2-1c1-0.5,1.9-1.3,2.6-2.1c0.7-0.9,1.2-1.9,1.6-3
	c0.3-1.1,0.4-2.2,0.3-3.3c-0.1-1.1-0.4-2.2-1-3.2c-0.5-1-1.3-1.9-2.1-2.6C2341.6,1765.2,2339.6,1764.5,2337.7,1764.5L2337.7,1764.5z
	"/>
<path class="st4" d="M2350.5,1757.5c-1.1-0.8-1.9-1.9-2.6-3.1c-0.6-1.2-1-2.5-1.2-3.8c-0.1-1.3,0-2.7,0.4-4c0.4-1.3,1-2.5,1.9-3.5
	c1.3-1.6,3-2.8,5-3.4c2-0.6,4.1-0.6,6,0c2,0.6,3.7,1.8,5,3.3c1.3,1.6,2.1,3.5,2.3,5.6c0.2,2-0.2,4.1-1.2,5.9c-1,1.8-2.5,3.3-4.3,4.2
	c-1.8,1-3.9,1.3-5.9,1.1C2354,1759.6,2352.1,1758.8,2350.5,1757.5L2350.5,1757.5z"/>
<path class="st4" d="M2357,1761.7c-2.8,0-5.4-1-7.6-2.8c-2.4-2-4-4.9-4.4-8.1c-0.3-3.2,0.6-6.4,2.6-9c2.1-2.5,5-4,8.2-4.3
	c3.2-0.3,6.4,0.7,8.8,2.7c1.2,1,2.2,2.2,3,3.6c0.8,1.4,1.2,2.9,1.4,4.5c0.3,3.2-0.7,6.4-2.6,9c-1.2,1.4-2.6,2.5-4.3,3.2
	C2360.6,1761.3,2358.8,1761.7,2357,1761.7L2357,1761.7z M2357,1741c-1.2,0-2.5,0.3-3.6,0.8c-1.1,0.5-2.1,1.3-2.9,2.3
	c-0.7,0.9-1.3,1.9-1.6,3c-0.3,1.1-0.4,2.2-0.3,3.4c0.2,2.2,1.3,4.3,3,5.8l0,0c0.9,0.7,1.9,1.2,3,1.6c1.1,0.3,2.2,0.4,3.3,0.3
	c1.1-0.1,2.2-0.5,3.2-1c1-0.5,1.9-1.3,2.6-2.2c1.4-1.8,2.1-4,1.9-6.3c-0.3-2.3-1.4-4.3-3.2-5.8C2360.9,1741.7,2359,1741,2357,1741
	L2357,1741z"/>
<path class="st4" d="M2384,1732.9c-0.9,1-1.9,1.9-3.1,2.5c-1.2,0.6-2.5,1-3.8,1.2c-1.3,0.1-2.7,0-4-0.4c-1.3-0.4-2.5-1-3.5-1.9
	c-1.2-0.8-2.3-1.8-3.1-3c-0.8-1.2-1.3-2.6-1.6-4c-0.2-1.4-0.1-2.9,0.2-4.3c0.4-1.4,1-2.7,2-3.8c0.9-1.1,2.1-2.1,3.4-2.7
	c1.3-0.7,2.7-1,4.2-1.1c1.4-0.1,2.9,0.2,4.3,0.7c1.4,0.5,2.6,1.3,3.6,2.4c2.1,1.8,3.5,4.3,3.7,7
	C2386.6,1728.1,2385.8,1730.8,2384,1732.9L2384,1732.9z"/>
<path class="st4" d="M2376.1,1738.3c-2.8,0-5.5-0.9-7.7-2.6c-2.5-2-4-5-4.3-8.2c-0.3-3.2,0.7-6.4,2.7-8.8c1-1.2,2.2-2.2,3.6-3
	c1.4-0.8,2.9-1.2,4.5-1.4c3.2-0.3,6.4,0.6,9,2.6c1.2,1,2.2,2.3,2.9,3.7c0.7,1.4,1.2,3,1.3,4.6c0.2,1.6,0.1,3.2-0.4,4.7
	c-0.5,1.5-1.2,2.9-2.2,4.1c-2,2.4-4.9,4-8.1,4.4H2376.1z M2376.1,1717.8h-0.9c-2.3,0.3-4.3,1.4-5.8,3.2c-0.7,0.9-1.2,1.9-1.6,2.9
	c-0.3,1.1-0.4,2.2-0.3,3.3c0.1,1.1,0.4,2.2,1,3.2c0.5,1,1.3,1.8,2.1,2.6c0.9,0.7,1.9,1.3,3,1.6c1.1,0.3,2.2,0.4,3.4,0.3
	c2.2-0.2,4.3-1.3,5.8-3l0,0c0.7-0.9,1.2-1.9,1.5-3c0.3-1.1,0.4-2.2,0.2-3.3c-0.1-1.1-0.4-2.2-0.9-3.2c-0.5-1-1.2-1.9-2.1-2.6
	C2380,1718.5,2378.1,1717.8,2376.1,1717.8L2376.1,1717.8z"/>
<path class="st4" d="M2388.9,1710.8c-2.1-1.7-3.5-4.3-3.7-7s0.6-5.5,2.3-7.6c0.8-1,1.9-1.9,3.1-2.5c1.2-0.6,2.5-1,3.8-1.2
	c1.3-0.1,2.7,0,4,0.4c1.3,0.4,2.5,1,3.5,1.9c1.2,0.8,2.3,1.8,3.1,3c0.8,1.2,1.3,2.6,1.6,4c0.2,1.4,0.1,2.9-0.2,4.3
	c-0.4,1.4-1.1,2.7-2,3.9c-0.9,1.1-2.1,2-3.4,2.7c-1.3,0.7-2.7,1-4.2,1.1c-1.4,0.1-2.9-0.2-4.3-0.7
	C2391.2,1712.6,2390,1711.8,2388.9,1710.8z"/>
<path class="st4" d="M2395.4,1714.8c-2.8,0-5.6-1-7.7-2.8c-1.2-1-2.2-2.2-3-3.6c-0.7-1.4-1.1-2.9-1.2-4.5c-0.2-1.6-0.1-3.2,0.4-4.7
	c0.5-1.5,1.2-2.9,2.2-4.1c2-2.5,5-4.1,8.2-4.4c3.2-0.3,6.4,0.6,8.9,2.7c2.5,2,4,5,4.3,8.2c0.3,3.2-0.7,6.4-2.7,8.8
	c-1.1,1.4-2.5,2.5-4.1,3.3C2399,1714.5,2397.2,1714.8,2395.4,1714.8L2395.4,1714.8z M2395.4,1694.3c-1.3,0-2.5,0.3-3.6,0.8
	c-1.2,0.5-2.2,1.3-3,2.2c-1.4,1.8-2,4.1-1.8,6.3c0.2,2.2,1.3,4.3,3,5.8l0,0c1.8,1.4,4.1,2.1,6.3,1.9c1.7-0.2,3.2-0.9,4.5-2
	c1.3-1.1,2.2-2.5,2.7-4.1c0.5-1.6,0.5-3.3,0-4.9c-0.5-1.6-1.4-3-2.7-4.1C2399.4,1694.9,2397.4,1694.2,2395.4,1694.3z"/>
<path class="st4" d="M2408.3,1687.2c-1.6-1.3-2.8-3-3.4-5c-0.6-2-0.6-4.1-0.1-6c0.6-2,1.7-3.7,3.3-5c1.6-1.3,3.5-2.1,5.5-2.3
	c2-0.2,4.1,0.2,5.9,1.1c1.8,0.9,3.3,2.4,4.3,4.2c1,1.8,1.4,3.8,1.2,5.9c-0.2,2-1,4-2.2,5.6c-1.8,2.1-4.2,3.4-7,3.8
	C2413.1,1689.7,2410.4,1688.9,2408.3,1687.2L2408.3,1687.2z"/>
<path class="st4" d="M2414.8,1691.3c-2.8,0-5.4-1-7.6-2.8c-1.2-1-2.3-2.2-3-3.6c-0.8-1.4-1.2-2.9-1.3-4.5c-0.3-3.2,0.7-6.4,2.6-9
	c2.1-2.3,5-3.6,8.1-3.8c3.1-0.2,6.1,0.8,8.5,2.8c2.4,2,3.9,4.8,4.3,7.8c0.4,3.1-0.4,6.2-2.3,8.7c-1,1.2-2.2,2.2-3.6,3
	c-1.4,0.8-2.9,1.2-4.5,1.4H2414.8z M2414.8,1670.6h-0.7c-1.1,0.1-2.2,0.4-3.2,0.9c-1,0.5-1.9,1.2-2.6,2.1c-0.8,0.8-1.3,1.8-1.7,2.9
	c-0.3,1.1-0.4,2.2-0.3,3.4c0.1,1.1,0.4,2.2,0.9,3.2c0.5,1,1.2,1.9,2.1,2.6l0,0c0.9,0.7,1.9,1.3,3,1.6c1.1,0.3,2.2,0.4,3.3,0.3
	c1.1-0.1,2.2-0.5,3.2-1c1-0.5,1.9-1.3,2.6-2.1c1-1.3,1.7-2.8,1.9-4.4c0.2-1.6-0.1-3.3-0.8-4.7c-0.7-1.5-1.8-2.7-3.2-3.6
	c-1.4-0.9-3-1.3-4.6-1.3V1670.6z"/>
<path class="st4" d="M2426.2,1649.1c0.9-1.1,1.9-1.9,3.1-2.6c1.2-0.7,2.5-1.1,3.9-1.2c1.4-0.1,2.7,0,4,0.4c1.3,0.4,2.5,1,3.6,1.9
	c2.1,1.8,3.4,4.3,3.6,7c0.3,2.7-0.5,5.4-2.2,7.6c-1.8,2.1-4.3,3.4-7,3.7c-2.7,0.3-5.5-0.6-7.6-2.3c-1-0.9-1.9-1.9-2.5-3.1
	c-0.6-1.2-1-2.5-1.2-3.8c-0.1-1.3,0-2.7,0.4-4C2424.7,1651.4,2425.3,1650.2,2426.2,1649.1L2426.2,1649.1z"/>
<path class="st4" d="M2434.1,1667.8c-2.8-0.1-5.4-1.1-7.6-2.8c-2.5-2-4.1-4.9-4.4-8.1c-0.3-3.2,0.6-6.4,2.6-8.9l0,0
	c1-1.2,2.2-2.3,3.6-3c1.4-0.8,3-1.2,4.5-1.4c1.6-0.2,3.2,0,4.7,0.5c1.5,0.5,2.9,1.3,4.1,2.3c1.2,1,2.2,2.2,3,3.6
	c0.8,1.4,1.2,2.9,1.4,4.5c0.3,3.2-0.7,6.4-2.6,8.9c-1.2,1.4-2.6,2.5-4.3,3.2C2437.7,1667.3,2435.9,1667.7,2434.1,1667.8z
	 M2427.6,1650.2c-0.7,0.9-1.3,1.9-1.6,3c-0.3,1.1-0.4,2.2-0.3,3.4c0.1,1.1,0.4,2.2,1,3.2c0.5,1,1.3,1.9,2.2,2.6
	c0.8,0.7,1.8,1.2,2.9,1.5c1.1,0.3,2.2,0.4,3.3,0.2c1.1-0.1,2.2-0.4,3.2-0.9s1.9-1.2,2.6-2.1c1.4-1.8,2.1-4,1.9-6.3
	c-0.1-1.1-0.4-2.2-0.9-3.2s-1.3-1.9-2.2-2.5c-1.7-1.4-3.9-2.1-6.1-1.9C2431.1,1647.3,2429.1,1648.5,2427.6,1650.2L2427.6,1650.2z"/>
<path class="st4" d="M2445.5,1625.4c1.8-2.1,4.3-3.4,7-3.6c2.7-0.3,5.4,0.5,7.6,2.2c1.1,0.8,2,1.9,2.7,3.1c0.7,1.2,1.1,2.5,1.3,3.9
	c0.2,1.4,0,2.8-0.4,4.1c-0.4,1.3-1.1,2.6-1.9,3.7c-0.9,1.1-2,2-3.2,2.6c-1.2,0.6-2.6,1-4,1.1c-1.4,0.1-2.8-0.1-4.1-0.5
	c-1.3-0.4-2.5-1.1-3.6-2.1c-2.1-1.8-3.4-4.3-3.6-7S2443.8,1627.6,2445.5,1625.4L2445.5,1625.4z"/>
<path class="st4" d="M2453.6,1644.1c-3,0.1-6-1-8.2-3.1c-2.2-2-3.7-4.8-3.9-7.8c-0.3-3.2,0.6-6.3,2.6-8.8c2.1-2.4,5-4,8.2-4.4
	c3.2-0.3,6.3,0.6,8.8,2.6c2.4,2.1,4,5,4.4,8.2c0.3,3.2-0.6,6.3-2.6,8.8c-1.1,1.4-2.6,2.5-4.2,3.2
	C2457.1,1643.7,2455.4,1644.1,2453.6,1644.1L2453.6,1644.1z M2453.6,1623.5h-0.9c-1.1,0.1-2.2,0.4-3.2,1c-1,0.6-1.9,1.3-2.6,2.2l0,0
	c-1.4,1.7-2.1,3.9-1.9,6.1c0.1,1.1,0.4,2.2,1,3.2c0.6,1,1.3,1.9,2.2,2.6c1.3,1.1,2.9,1.8,4.6,2c1.7,0.2,3.4-0.1,4.9-0.9
	c1.5-0.8,2.7-2,3.5-3.5c0.8-1.5,1.1-3.2,0.9-4.9c-0.1-1.1-0.4-2.2-0.9-3.2c-0.5-1-1.2-1.9-2.1-2.6
	C2457.5,1624.2,2455.6,1623.5,2453.6,1623.5L2453.6,1623.5z"/>
<path class="st4" d="M2466.2,1616.5c-2.1-1.8-3.4-4.3-3.6-7c-0.3-2.7,0.6-5.4,2.2-7.6c0.8-1.1,1.9-2,3.1-2.7
	c1.2-0.7,2.6-1.1,3.9-1.3c1.4-0.2,2.8,0,4.1,0.4c1.3,0.4,2.6,1,3.7,1.9c1.1,0.9,2,2,2.6,3.2c0.7,1.2,1,2.6,1.1,4
	c0.1,1.4-0.1,2.8-0.5,4.1c-0.5,1.3-1.2,2.5-2.1,3.6c-1.8,2.1-4.3,3.4-7,3.6C2471.1,1619,2468.4,1618.2,2466.2,1616.5L2466.2,1616.5z
	"/>
<path class="st4" d="M2472.9,1620.5c-2.8,0-5.5-0.9-7.7-2.6l0,0c-2.5-2.1-4-5-4.3-8.2c-0.3-3.2,0.7-6.4,2.7-8.8c1-1.2,2.2-2.3,3.6-3
	c1.4-0.8,2.9-1.2,4.5-1.4c1.6-0.2,3.2,0,4.7,0.5c1.5,0.5,2.9,1.2,4.1,2.2c2.5,2,4.1,5,4.4,8.2c0.3,3.2-0.6,6.4-2.7,8.9
	c-1.1,1.4-2.6,2.5-4.2,3.2C2476.4,1620.1,2474.7,1620.5,2472.9,1620.5L2472.9,1620.5z M2467.4,1615.1c1.8,1.4,4.1,2.1,6.3,1.9
	c2.3-0.3,4.4-1.4,5.8-3.2c0.7-0.9,1.2-1.9,1.6-2.9c0.3-1.1,0.4-2.2,0.3-3.3c-0.1-1.1-0.4-2.2-1-3.2c-0.5-1-1.3-1.8-2.1-2.5
	c-1.8-1.4-4-2.1-6.3-1.9c-2.3,0.2-4.4,1.2-5.9,3c-0.7,0.9-1.2,1.9-1.6,3c-0.3,1.1-0.4,2.2-0.3,3.3c0.1,1.1,0.4,2.2,1,3.2
	C2465.8,1613.5,2466.6,1614.4,2467.4,1615.1L2467.4,1615.1z"/>
<path class="st4" d="M2580.5,2519.2h-152.9l-72.2-549.2l223.2,183.1C2583.2,2352.9,2580.5,2519.2,2580.5,2519.2z"/>
<path class="st4" d="M2427.6,2521.1c-0.4,0-0.8-0.2-1.2-0.5c-0.3-0.3-0.5-0.7-0.6-1.1l-72.2-549.1c0-0.3,0.1-0.7,0.2-1
	c0.2-0.3,0.4-0.6,0.7-0.8c0.3-0.2,0.6-0.3,1-0.2c0.3,0,0.7,0.2,0.9,0.4l223.2,183c0.4,0.4,0.7,0.9,0.7,1.4
	c4.6,197.4,2.1,364.4,1.9,366.1c0,0.2-0.1,0.4-0.1,0.7c-0.1,0.2-0.2,0.4-0.4,0.5c-0.2,0.1-0.4,0.3-0.6,0.3c-0.2,0.1-0.4,0.1-0.7,0.1
	L2427.6,2521.1z M2357.7,1974.3l71.5,543.3h149.8c0.2-18.1,2.1-177.2-2.1-363.3L2357.7,1974.3z"/>
<path class="st5" d="M2543.6,1641.8l-72.3-59.3l-121,147.3l-115.9,141.2l85.5,69.4c13.9-54.4,20.6-84.1,20.6-84.1l14.9,118.2
	l225.8,182.3C2577.4,1981.9,2565.1,1778.4,2543.6,1641.8z M2268.3,1874.1c-1.8,2.1-4.3,3.4-7,3.6c-2.7,0.3-5.4-0.5-7.6-2.2
	c-2-1.8-3.2-4.3-3.4-6.9c-0.2-2.7,0.6-5.3,2.3-7.4c1.7-2.1,4.1-3.4,6.8-3.7c2.7-0.3,5.3,0.4,7.5,2.1c2.1,1.8,3.4,4.3,3.7,7
	C2270.8,1869.2,2270,1871.9,2268.3,1874.1L2268.3,1874.1z M2287.6,1850.4c-1.3,1.6-3,2.8-5,3.4c-2,0.6-4.1,0.6-6,0
	c-2-0.6-3.7-1.8-5-3.3s-2.1-3.5-2.3-5.6c-0.2-2.1,0.2-4.1,1.2-5.9c1-1.8,2.5-3.3,4.3-4.2c1.8-1,3.9-1.3,5.9-1.1
	c2.1,0.2,4,1.1,5.6,2.4c1,0.8,1.9,1.9,2.5,3.1c0.6,1.2,1,2.5,1.2,3.8c0.1,1.3,0,2.7-0.4,4
	C2289.1,1848.1,2288.5,1849.3,2287.6,1850.4L2287.6,1850.4z M2306.9,1826.8c-0.8,1-1.9,1.9-3.1,2.5c-1.2,0.6-2.5,1-3.8,1.2
	c-1.3,0.1-2.7,0-4-0.4c-1.3-0.4-2.5-1-3.5-1.9c-1.1-0.9-1.9-1.9-2.6-3.1c-0.6-1.2-1.1-2.5-1.2-3.9c-0.1-1.4,0-2.7,0.4-4
	c0.4-1.3,1-2.5,1.9-3.6c1.8-2.1,4.3-3.4,7-3.7c2.7-0.3,5.4,0.5,7.6,2.2c2.1,1.7,3.5,4.3,3.7,7
	C2309.5,1822,2308.7,1824.7,2306.9,1826.8L2306.9,1826.8z M2326.3,1803.3c-0.8,1.2-1.8,2.3-3.1,3.1c-1.2,0.8-2.6,1.3-4.1,1.5
	c-1.5,0.2-2.9,0.1-4.3-0.3c-1.4-0.4-2.7-1.1-3.8-2c-1.1-0.9-2-2.1-2.7-3.4c-0.6-1.3-1-2.8-1-4.2c0-1.5,0.2-2.9,0.8-4.3
	c0.6-1.3,1.4-2.6,2.5-3.6c0.9-1,1.9-1.9,3.1-2.5c1.2-0.6,2.5-1,3.8-1.2c1.3-0.1,2.7,0,4,0.4c1.3,0.4,2.5,1,3.5,1.9
	c2.1,1.7,3.4,4.3,3.7,7C2328.8,1798.5,2328,1801.2,2326.3,1803.3L2326.3,1803.3z M2345.8,1779.6c-0.8,1.2-1.8,2.3-3,3.1
	c-1.2,0.8-2.6,1.3-4,1.5c-1.4,0.2-2.9,0.2-4.3-0.2c-1.4-0.4-2.7-1-3.9-2c-1.1-0.9-2.1-2.1-2.7-3.4c-0.7-1.3-1-2.7-1.1-4.2
	c-0.1-1.5,0.2-2.9,0.7-4.3c0.5-1.4,1.3-2.6,2.4-3.6c1.8-1.8,4.2-2.8,6.8-3s5.1,0.7,7,2.3c2,1.6,3.3,3.9,3.7,6.4
	C2347.7,1774.9,2347.1,1777.5,2345.8,1779.6z M2365.1,1756.1c-1.8,2.1-4.3,3.5-7,3.7c-2.7,0.3-5.5-0.6-7.6-2.3
	c-1-0.8-1.9-1.9-2.5-3.1c-0.6-1.2-1-2.5-1.2-3.8c-0.1-1.3,0-2.7,0.4-4c0.4-1.3,1-2.5,1.9-3.5c1.8-1.8,4.2-2.8,6.8-3
	c2.5-0.1,5,0.7,7,2.3s3.3,3.9,3.7,6.4C2367,1751.3,2366.4,1753.9,2365.1,1756.1L2365.1,1756.1z M2384,1732.9c-0.9,1-1.9,1.9-3.1,2.5
	c-1.2,0.6-2.5,1-3.8,1.2c-1.3,0.1-2.7,0-4-0.4c-1.3-0.4-2.5-1-3.5-1.9c-1.2-0.8-2.3-1.8-3.1-3c-0.8-1.2-1.3-2.6-1.6-4
	c-0.2-1.4-0.1-2.9,0.2-4.3c0.4-1.4,1-2.7,2-3.8c0.9-1.1,2.1-2.1,3.4-2.7c1.3-0.7,2.7-1,4.2-1.1c1.4-0.1,2.9,0.2,4.3,0.7
	c1.4,0.5,2.6,1.3,3.6,2.4c2.1,1.8,3.5,4.3,3.7,7C2386.6,1728.1,2385.8,1730.8,2384,1732.9L2384,1732.9z M2403.5,1709.4
	c-1.8,2.1-4.3,3.4-7,3.7s-5.4-0.5-7.6-2.2c-2.1-1.7-3.5-4.3-3.7-7s0.6-5.5,2.3-7.6c0.8-1,1.9-1.9,3.1-2.5c1.2-0.6,2.5-1,3.8-1.2
	c1.3-0.1,2.7,0,4,0.4c1.3,0.4,2.5,1,3.5,1.9c2.1,1.7,3.4,4.2,3.7,7C2406,1704.5,2405.2,1707.2,2403.5,1709.4L2403.5,1709.4z
	 M2422.8,1685.7c-1.8,2.1-4.2,3.4-7,3.8c-2.7,0.3-5.5-0.5-7.6-2.2c-1.6-1.3-2.8-3-3.4-5c-0.6-2-0.6-4.1-0.1-6c0.6-2,1.7-3.7,3.3-5
	c1.6-1.3,3.5-2.1,5.5-2.3c2-0.2,4.1,0.2,5.9,1.1c1.8,0.9,3.3,2.4,4.3,4.2c1,1.8,1.4,3.8,1.2,5.9
	C2424.9,1682.1,2424.1,1684.1,2422.8,1685.7L2422.8,1685.7z M2442.1,1662.1c-1.7,2.1-4.3,3.4-7,3.7c-2.7,0.3-5.5-0.6-7.6-2.3
	c-1-0.9-1.9-1.9-2.5-3.1c-0.6-1.2-1-2.5-1.2-3.8c-0.1-1.3,0-2.7,0.4-4c0.4-1.3,1-2.5,1.9-3.5c0.9-1.1,1.9-1.9,3.1-2.6
	c1.2-0.7,2.5-1.1,3.8-1.2c1.4-0.1,2.7,0,4,0.4c1.3,0.4,2.5,1,3.6,1.9c2.1,1.8,3.4,4.3,3.6,7
	C2444.7,1657.3,2443.9,1660,2442.1,1662.1L2442.1,1662.1z M2461.5,1638.6c-1.8,2.1-4.3,3.5-7,3.7c-2.7,0.3-5.5-0.6-7.6-2.3
	c-2-1.8-3.2-4.3-3.4-6.9c-0.2-2.7,0.6-5.3,2.3-7.4c1.7-2.1,4.1-3.4,6.8-3.7c2.7-0.3,5.3,0.4,7.5,2.1c2.1,1.8,3.5,4.3,3.7,7
	C2464.1,1633.8,2463.2,1636.5,2461.5,1638.6L2461.5,1638.6z M2480.8,1615.1c-1.8,2-4.3,3.2-6.9,3.5c-2.7,0.2-5.3-0.6-7.4-2.3
	c-2.1-1.7-3.4-4.1-3.7-6.8c-0.3-2.7,0.4-5.3,2.1-7.5c0.8-1.1,1.9-2,3.1-2.7c1.2-0.7,2.6-1.1,3.9-1.3c1.4-0.2,2.8,0,4.1,0.4
	c1.3,0.4,2.6,1,3.7,1.9c1.1,0.9,2,2,2.6,3.2c0.6,1.2,1,2.6,1.1,4c0.1,1.4-0.1,2.8-0.5,4.1C2482.4,1612.8,2481.7,1614,2480.8,1615.1
	L2480.8,1615.1z"/>
<path class="st4" d="M2282.9,2036c17,91.5,85.5,446.9,85.5,446.9l-159.8,28.8c0,0-86.8-246.3-127-404.7
	C2041.4,1948.5,2265.9,1944.5,2282.9,2036z"/>
<path class="st4" d="M2208.6,2513.4c-0.4,0-0.7-0.1-1-0.3c-0.3-0.2-0.5-0.5-0.6-0.8c-0.9-2.5-87.3-248.3-127.1-405.1
	c-14-55.3,4.7-87.3,23-104.3c29.9-27.7,81.5-36.9,125.7-22.5c30.9,10.2,51.3,30.4,56,55.3c16.9,90.4,84.8,443.2,85.5,446.7
	c0,0.5-0.1,1-0.3,1.4l-1.1,0.7l-159.8,28.8H2208.6z M2185.3,1977.2c-30.6,0-60.2,10-79.9,28.4c-19.7,18.4-35.7,47.2-22,100.8
	c38.1,150.5,119.2,383,126.4,403.3l156.4-28.3c-5.3-27.2-68.8-357.9-85.2-445.1c-4.4-23.5-23.9-42.7-53.6-52.5
	C2213.9,1979.4,2199.6,1977.2,2185.3,1977.2L2185.3,1977.2z"/>
<path class="st3" d="M2431.1,1131l-3.5-0.5l-13.4-4.2c-1.5-0.5-2.9-1.2-4.1-2.2s-2.2-2.3-3-3.7c-0.7-1.4-1.2-2.9-1.3-4.5
	c-0.1-1.6,0-3.2,0.5-4.7l1.1-3.7c1-3.1,3.1-5.6,6-7.2c2.9-1.4,6.2-1.7,9.3-0.7l13.4,4.2c3,1,5.6,3.1,7.1,5.9
	c1.5,2.8,1.8,6.1,0.8,9.2l-1.2,3.7c-0.4,1.5-1.2,3-2.2,4.2c-1,1.2-2.3,2.2-3.8,2.9C2435,1130.5,2433.1,1131,2431.1,1131z
	 M2428.6,1127.1c1.1,0.3,2.2,0.5,3.3,0.4c1.1-0.1,2.2-0.4,3.2-0.9c1-0.5,1.9-1.2,2.6-2.1c0.7-0.9,1.3-1.9,1.6-3l1.2-3.7
	c0.7-2.2,0.4-4.5-0.6-6.5c-1.1-2-2.8-3.5-5-4.2l-13.3-4.2c-1.1-0.4-2.2-0.5-3.3-0.4c-1.1,0.1-2.2,0.4-3.2,0.9c-1,0.5-2,1.2-2.7,2.1
	s-1.2,1.9-1.5,3l-1.2,3.7c-0.7,2.2-0.4,4.5,0.6,6.5c1.1,2,2.8,3.5,5,4.2L2428.6,1127.1z"/>
<path class="st3" d="M2373.5,1289.3c-2,0-4-0.5-5.7-1.4s-3.2-2.4-4.2-4.2l-13.9-24.4c-1.4-2.4-2.1-5-2.2-7.7
	c-0.1-2.7,0.4-5.4,1.6-7.9l52.8-115.4c0.1-0.2,0.2-0.4,0.4-0.5c0.1-0.2,0.3-0.3,0.5-0.4c0.2-0.1,0.4-0.1,0.6-0.1
	c0.2,0,0.4,0.1,0.6,0.1l31.1,9.8c0.2,0,0.4,0.1,0.6,0.2c0.2,0.1,0.3,0.3,0.4,0.5c0.1,0.2,0.2,0.4,0.2,0.6c0,0.2,0,0.4,0,0.6
	l-23.2,124.7c-0.5,2.7-1.6,5.2-3.2,7.4c-1.6,2.2-3.8,3.9-6.2,5.1l-25.6,11.9C2376.6,1289,2375.1,1289.4,2373.5,1289.3L2373.5,1289.3
	z M2404.6,1131.1l-52.3,114c-0.9,2-1.3,4.1-1.2,6.3c0.1,2.2,0.7,4.3,1.7,6.2l14,24.6c1,1.7,2.5,2.9,4.3,3.4c1.8,0.6,3.8,0.4,5.5-0.4
	l25.5-11.9c2-0.9,3.7-2.3,5-4c1.3-1.7,2.3-3.7,2.7-5.8l22.7-123.3L2404.6,1131.1z"/>
<path class="st3" d="M2590.5,2488.5h-175.2v3.5h175.2V2488.5z"/>
<path class="st3" d="M2261.8,1285.3c-0.4,0-0.7-0.2-1-0.4c-0.3-0.2-0.6-0.5-0.7-0.9c-29.3-81.6,20.2-172.2,65.8-196.3
	c0.5-0.2,1-0.2,1.4,0c0.5,0.2,0.8,0.5,1.1,0.9c0.1,0.2,0.2,0.4,0.2,0.6c0,0.2,0,0.5-0.1,0.7c-0.1,0.2-0.2,0.4-0.3,0.6
	c-0.1,0.2-0.3,0.3-0.5,0.4c-44.6,23.5-92.9,112-64.3,192.1c0.1,0.2,0.1,0.4,0.1,0.7c0,0.2-0.1,0.4-0.2,0.6c-0.1,0.2-0.2,0.4-0.4,0.5
	c-0.2,0.1-0.4,0.2-0.6,0.3L2261.8,1285.3z"/>
<path class="st0" d="M2771.7,1269c12.9,19.1,23.4,39.7,31.3,61.3c19.5,53.4,23,112.5,10.2,175.9c-11.2,55.1-30.2,100.8-66,161.7
	c-19.5,33.5-67.6,58.1-101,38.4c-33.4-19.7-33.7-69.3-14.2-102.7c37.9-64.6,66.4-150.5,39-225.1c-20.4-56-77.8-101-170.5-133.5
	c-8.7-3-16.7-7.8-23.6-13.9c-6.9-6.2-12.5-13.6-16.5-21.9c-4-8.3-6.3-17.3-6.8-26.6c-0.5-9.2,0.8-18.4,3.9-27.1
	c3.1-8.7,7.8-16.7,13.9-23.6c6.2-6.9,13.6-12.5,21.9-16.5c8.3-4,17.3-6.3,26.6-6.8c9.2-0.5,18.4,0.8,27.1,3.9
	C2651.5,1149.2,2726.8,1201.7,2771.7,1269z"/>
<path class="st0" d="M2672.9,1715.2c-9.7,0.2-19.2-2.3-27.6-7.2c-16-9.3-25.8-26.2-27.9-47.6c-1.6-20.1,3-40.2,13.2-57.6
	c27.7-47.4,69.7-139.4,38.8-223.7c-20.4-55.5-77.4-99.9-169.6-132.4c-13.5-4.7-25.2-13.2-33.8-24.6c-8.6-11.4-13.6-25.1-14.3-39.3
	c-0.8-14.2,2.7-28.4,10-40.6c7.3-12.2,18.1-22,31-28.2c8.5-4.2,17.7-6.6,27.2-7.1c9.4-0.5,18.9,0.9,27.8,4.1
	c104.6,36.7,180.5,89.6,225.8,157.2c12.8,19.2,23.3,39.8,31.3,61.5c19.7,53.7,23.2,113.3,10.2,177c-11.1,54.6-29.5,100.1-66,162.2
	c-10.8,17.8-27,31.7-46.2,39.9C2693.2,1712.8,2683.1,1715.1,2672.9,1715.2L2672.9,1715.2z M2523.6,1110.2
	c-16.2,0-31.8,5.7-44.2,16.2c-12.3,10.4-20.6,24.9-23.3,40.8c-2.7,15.9,0.3,32.3,8.5,46.2c8.2,13.9,21.1,24.5,36.3,29.9
	c93.2,32.8,151,78.1,171.7,134.5c31.4,85.7-11.1,178.8-39.2,226.7c-9.8,16.8-14.2,36.1-12.6,55.5c1.9,20.2,11.2,36.2,26.2,44.9
	c32,18.8,79.4-4.9,98.7-37.9c36.2-61.8,54.6-107.1,65.7-161.2c12.8-63,9.3-121.9-10.2-175.1c-7.9-21.4-18.2-41.8-30.9-60.8l0,0
	c-44.8-66.9-120.1-119.4-224.1-155.8C2539,1111.7,2531.4,1110.3,2523.6,1110.2L2523.6,1110.2z"/>
<path class="st2" d="M2468.5,1539.9l-120.8,147.3l-115.9,141.2l357.5,293.4l236.7-288.5L2468.5,1539.9z M2265.7,1831.4
	c-1.7,2.1-4.3,3.4-7,3.7c-2.7,0.3-5.5-0.6-7.6-2.3c-1-0.9-1.9-1.9-2.5-3.1c-0.6-1.2-1-2.5-1.2-3.8c-0.1-1.3,0-2.7,0.4-4
	c0.4-1.3,1-2.5,1.9-3.5c1.7-2.1,4.2-3.4,6.9-3.7c2.7-0.3,5.4,0.5,7.5,2.1c2.1,1.8,3.4,4.2,3.7,7
	C2268.1,1826.5,2267.4,1829.2,2265.7,1831.4L2265.7,1831.4z M2285,1807.9c-1.8,2-4.3,3.2-6.9,3.4c-2.7,0.2-5.3-0.6-7.4-2.3
	c-2.1-1.7-3.4-4.2-3.7-6.8c-0.3-2.7,0.4-5.3,2.1-7.5c0.9-1.1,1.9-2,3.1-2.7c1.2-0.7,2.5-1.1,3.9-1.3c1.4-0.2,2.8,0,4.1,0.4
	c1.3,0.4,2.6,1.1,3.7,1.9c1.1,0.9,1.9,2,2.6,3.2c0.6,1.2,1,2.6,1.1,4c0.1,1.4-0.1,2.8-0.5,4.1
	C2286.6,1805.6,2285.9,1806.8,2285,1807.9z M2304.3,1784.3c-1.8,2.1-4.3,3.4-7,3.7c-2.7,0.3-5.4-0.6-7.6-2.2c-2-1.8-3.2-4.3-3.5-6.9
	c-0.2-2.7,0.6-5.3,2.3-7.4c1.7-2.1,4.1-3.4,6.8-3.7c2.7-0.3,5.4,0.4,7.5,2.1c2.1,1.8,3.4,4.3,3.7,7S2306,1782.2,2304.3,1784.3
	L2304.3,1784.3z M2323.6,1760.6c-0.8,1.1-1.9,1.9-3.1,2.6s-2.5,1.1-3.9,1.2c-1.3,0.2-2.7,0-4-0.3c-1.3-0.4-2.5-1-3.6-1.9
	c-2.1-1.8-3.4-4.3-3.7-7s0.5-5.4,2.2-7.6c1.8-2.1,4.3-3.5,7-3.7c2.7-0.3,5.5,0.6,7.6,2.3c1,0.8,1.9,1.9,2.5,3.1
	c0.6,1.2,1,2.5,1.2,3.8c0.1,1.3,0,2.7-0.4,4C2325.1,1758.4,2324.5,1759.6,2323.6,1760.6L2323.6,1760.6z M2342.9,1737.1
	c-1.8,1.8-4.2,2.8-6.8,3c-2.5,0.1-5.1-0.7-7-2.3c-2-1.6-3.3-3.9-3.7-6.4c-0.4-2.5,0.1-5.1,1.5-7.2c0.8-1.2,1.8-2.3,3-3.1
	c1.2-0.8,2.6-1.3,4-1.6c1.4-0.2,2.9-0.2,4.3,0.2c1.4,0.4,2.7,1.1,3.8,2c1.1,0.9,2.1,2.1,2.7,3.4c0.7,1.3,1,2.7,1.1,4.2
	c0.1,1.5-0.2,2.9-0.7,4.3C2344.8,1734.9,2344,1736.1,2342.9,1737.1L2342.9,1737.1z M2362.3,1713.6c-0.9,1.1-1.9,1.9-3.1,2.6
	c-1.2,0.6-2.5,1-3.8,1.2c-1.3,0.1-2.7,0-4-0.4c-1.3-0.4-2.5-1-3.5-1.9c-1.6-1.3-2.8-3-3.4-5c-0.6-2-0.6-4.1,0-6.1
	c0.6-2,1.8-3.7,3.3-5c1.6-1.3,3.5-2.1,5.6-2.3c2.1-0.2,4.1,0.2,5.9,1.2s3.3,2.5,4.2,4.3c1,1.8,1.4,3.9,1.1,5.9
	C2364.4,1710.1,2363.6,1712,2362.3,1713.6L2362.3,1713.6z M2381.4,1690.4c-1.8,2-4.3,3.2-6.9,3.4c-2.7,0.2-5.3-0.6-7.4-2.3
	c-2.1-1.7-3.4-4.2-3.7-6.8c-0.3-2.7,0.4-5.3,2.1-7.5c0.9-1.1,1.9-2,3.1-2.7c1.2-0.7,2.6-1.1,3.9-1.3c1.4-0.2,2.8,0,4.1,0.4
	c1.3,0.4,2.6,1.1,3.6,1.9c1.1,0.9,1.9,2,2.6,3.2c0.6,1.2,1,2.6,1.1,4c0.1,1.4-0.1,2.8-0.5,4.1
	C2383,1688.2,2382.3,1689.4,2381.4,1690.4z M2400.7,1666.7c-1.3,1.6-3,2.8-5,3.4c-2,0.6-4.1,0.6-6,0c-2-0.6-3.7-1.8-5-3.3
	c-1.3-1.6-2.1-3.5-2.3-5.6c-0.2-2,0.2-4.1,1.2-5.9c1-1.8,2.5-3.3,4.3-4.2c1.8-1,3.9-1.4,5.9-1.1c2.1,0.2,4,1,5.6,2.4
	c1,0.8,1.9,1.9,2.5,3.1c0.6,1.2,1,2.5,1.2,3.8c0.1,1.3,0,2.7-0.4,4C2402.2,1664.5,2401.6,1665.7,2400.7,1666.7L2400.7,1666.7z
	 M2420,1643.2c-0.9,1-1.9,1.9-3.1,2.5c-1.2,0.6-2.5,1-3.8,1.2c-1.3,0.1-2.7,0-4-0.4c-1.3-0.4-2.5-1-3.5-1.9c-1.2-0.8-2.3-1.8-3.1-3
	c-0.8-1.2-1.3-2.6-1.6-4c-0.2-1.4-0.1-2.9,0.2-4.3c0.4-1.4,1.1-2.7,2-3.9s2.1-2,3.4-2.7c1.3-0.7,2.7-1,4.2-1.1
	c1.5-0.1,2.9,0.2,4.3,0.7c1.4,0.5,2.6,1.3,3.6,2.4c2.1,1.7,3.5,4.3,3.7,7C2422.6,1638.3,2421.8,1641.1,2420,1643.2L2420,1643.2z
	 M2439.5,1619.6c-1.8,2-4.3,3.2-6.9,3.5c-2.7,0.2-5.3-0.6-7.4-2.3c-2.1-1.7-3.4-4.2-3.7-6.8c-0.3-2.7,0.4-5.3,2.1-7.5
	c0.8-1,1.9-1.9,3.1-2.5c1.2-0.6,2.5-1,3.8-1.2c1.3-0.1,2.7,0,4,0.4c1.3,0.4,2.5,1,3.5,1.9c2.1,1.8,3.4,4.2,3.7,7
	C2442,1614.8,2441.2,1617.5,2439.5,1619.6L2439.5,1619.6z M2458.8,1596.1c-1.8,2.1-4.3,3.4-7,3.7s-5.4-0.5-7.6-2.2
	c-2-1.8-3.2-4.3-3.4-7c-0.2-2.7,0.6-5.3,2.3-7.4c1.7-2.1,4.2-3.4,6.8-3.7c2.7-0.3,5.4,0.4,7.5,2.1c2.1,1.8,3.4,4.3,3.7,7
	C2461.3,1591.3,2460.5,1594,2458.8,1596.1L2458.8,1596.1z M2478.1,1572.4c-1.8,2.1-4.3,3.4-7,3.7c-2.7,0.3-5.4-0.6-7.6-2.3
	c-1.1-0.9-1.9-1.9-2.6-3.1c-0.6-1.2-1-2.5-1.2-3.8c-0.1-1.3,0-2.7,0.4-4c0.4-1.3,1-2.5,1.9-3.5c1.8-1.8,4.2-2.8,6.8-3
	c2.6-0.1,5.1,0.7,7,2.3s3.3,3.9,3.7,6.4C2480.1,1567.7,2479.5,1570.3,2478.1,1572.4L2478.1,1572.4z"/>
<path class="st3" d="M2345.2,1882.3c-0.4,0-0.8-0.2-1.1-0.5l-47.9-39.3c-0.3-0.3-0.6-0.7-0.6-1.2c-0.1-0.5,0-0.9,0.3-1.3l39.3-47.8
	c0.1-0.2,0.3-0.4,0.5-0.5s0.4-0.2,0.7-0.2c0.2-0.1,0.4,0,0.7,0c0.2,0.1,0.4,0.2,0.6,0.3l47.9,39.3c0.2,0.2,0.4,0.3,0.5,0.5
	c0.1,0.2,0.2,0.4,0.2,0.7c0,0.4-0.2,0.9-0.4,1.2l-39.3,47.9C2346.3,1882,2345.8,1882.3,2345.2,1882.3L2345.2,1882.3z M2299.8,1840.9
	l45.3,37.2l37.1-45.3l-45.3-37.1L2299.8,1840.9z"/>
<path class="st3" d="M2384.6,1834.4l-1.1-0.3l-47.9-39.3c-0.2-0.1-0.4-0.3-0.5-0.5c-0.1-0.2-0.2-0.5-0.2-0.7c0-0.4,0.1-0.9,0.3-1.2
	l39.3-47.9c0.1-0.2,0.3-0.3,0.5-0.5c0.2-0.1,0.4-0.2,0.6-0.2s0.5,0,0.7,0c0.2,0.1,0.4,0.2,0.6,0.3l47.9,39.3
	c0.3,0.3,0.6,0.7,0.6,1.2c0.1,0.5,0,0.9-0.3,1.3l-39.3,47.9l-1.2,0.7H2384.6z M2339.1,1793.1l45.1,37.1l37.2-45.3l-45.3-37.1
	L2339.1,1793.1z"/>
<path class="st3" d="M2423.9,1786.4l-1.2-0.3l-47.8-39.3c-0.2-0.1-0.4-0.3-0.5-0.5c-0.1-0.2-0.2-0.4-0.2-0.7c0-0.4,0.1-0.9,0.4-1.2
	l39.3-47.9c0.3-0.3,0.7-0.6,1.2-0.6c0.4-0.1,0.9,0,1.3,0.3l47.9,39.3c0.3,0.3,0.6,0.8,0.7,1.2c0,0.2,0,0.5-0.1,0.7
	c-0.1,0.2-0.2,0.4-0.4,0.6l-39.2,47.9c-0.2,0.2-0.4,0.4-0.6,0.5S2424.2,1786.5,2423.9,1786.4L2423.9,1786.4z M2378.4,1745.2
	l45.1,37.1l37.2-45.1l-45.3-37.2L2378.4,1745.2z"/>
<path class="st3" d="M2463.2,1738.5l-1.2-0.3l-47.9-39.3c-0.2-0.1-0.3-0.3-0.4-0.5c-0.1-0.2-0.1-0.4-0.1-0.7c0-0.4,0.1-0.9,0.3-1.2
	l39.3-47.9l1.2-0.7c0.5,0,0.9,0.2,1.2,0.5l47.9,39.3c0.3,0.3,0.6,0.7,0.6,1.2c0,0.5-0.1,0.9-0.4,1.3l-39.3,47.8
	c-0.1,0.2-0.3,0.4-0.5,0.5C2463.7,1738.5,2463.5,1738.5,2463.2,1738.5L2463.2,1738.5z M2417.8,1697.2l45.1,37.1l37-45.1l-45.1-37.2
	L2417.8,1697.2z"/>
<path class="st3" d="M2502.6,1690.6c-0.2,0-0.4,0-0.7,0c-0.2-0.1-0.4-0.2-0.6-0.3l-47.9-39.3c-0.3-0.3-0.6-0.7-0.6-1.2
	c0-0.5,0.1-0.9,0.4-1.3l39.3-47.9c0.3-0.3,0.7-0.6,1.2-0.6c0.5,0,0.9,0.1,1.3,0.4l47.9,39.3c0.4,0.3,0.6,0.7,0.6,1.2
	c0,0.5-0.1,0.9-0.4,1.3l-39.3,47.9C2503.4,1690.4,2503,1690.6,2502.6,1690.6L2502.6,1690.6z M2457.1,1649.3l45.1,37.1l37.1-45.1
	l-45.1-37.1L2457.1,1649.3z"/>
<path class="st3" d="M2393.2,1921.7c-0.5,0-0.9-0.2-1.2-0.5l-47.8-39.3c-0.2-0.1-0.3-0.3-0.5-0.5c-0.1-0.2-0.2-0.4-0.2-0.6
	c0-0.2,0-0.5,0-0.7c0.1-0.2,0.2-0.4,0.3-0.6l39.3-47.9c0.3-0.3,0.8-0.5,1.2-0.5c0.4,0,0.9,0.1,1.3,0.3l47.9,39.3
	c0.3,0.3,0.6,0.8,0.7,1.2c0,0.5-0.2,0.9-0.5,1.2l-39.2,47.9c-0.3,0.3-0.8,0.5-1.2,0.5L2393.2,1921.7z M2347.7,1880.2l45.1,37.1
	l37.2-45.1l-45.3-37.1L2347.7,1880.2z"/>
<path class="st3" d="M2432.5,1873.7c-0.2,0-0.5,0-0.7-0.1c-0.2-0.1-0.4-0.2-0.6-0.4l-47.8-39.2c-0.4-0.3-0.6-0.8-0.7-1.2
	c-0.1-0.5,0.1-1,0.3-1.4l39.3-47.8c0.1-0.2,0.3-0.4,0.5-0.5c0.2-0.1,0.4-0.2,0.7-0.2l1.2,0.4l47.9,39.3c0.3,0.3,0.6,0.8,0.7,1.2
	c0,0.2,0,0.5-0.1,0.7c-0.1,0.2-0.2,0.4-0.4,0.6l-39.3,47.9c-0.1,0.2-0.3,0.4-0.5,0.5C2433,1873.6,2432.7,1873.7,2432.5,1873.7
	L2432.5,1873.7z M2387,1832.3l45.1,37.2l37.2-45.3l-45.3-37L2387,1832.3z"/>
<path class="st3" d="M2471.8,1825.8l-1.2-0.4l-47.9-39.3c-0.2-0.2-0.3-0.3-0.4-0.5c-0.1-0.2-0.1-0.4-0.1-0.7c0-0.2,0-0.4,0-0.7
	c0.1-0.2,0.2-0.4,0.3-0.6l39.3-47.9c0.3-0.3,0.7-0.6,1.2-0.6c0.4-0.1,0.9,0,1.3,0.3l47.9,39.3c0.3,0.3,0.6,0.7,0.6,1.2
	s-0.1,0.9-0.4,1.3l-39.3,47.9c-0.1,0.2-0.3,0.3-0.4,0.5c-0.2,0.1-0.4,0.2-0.6,0.2H2471.8z M2426.4,1784.5l45.1,37l37.1-45.3
	l-45.1-37.1L2426.4,1784.5z"/>
<path class="st3" d="M2511,1777.8l-1.1-0.3l-47.9-39.3c-0.4-0.3-0.6-0.7-0.6-1.2c0-0.5,0.1-0.9,0.4-1.3l39.3-47.9
	c0.3-0.3,0.7-0.6,1.2-0.6c0.5,0,0.9,0.1,1.3,0.4l47.9,39.2c0.4,0.3,0.6,0.8,0.6,1.3c0,0.5-0.1,1-0.4,1.3l-39.3,47.8
	c-0.1,0.2-0.4,0.4-0.6,0.5C2511.5,1777.8,2511.3,1777.9,2511,1777.8L2511,1777.8z M2465.7,1736.6l45.1,37.1l37.1-45.1l-45.1-37.2
	L2465.7,1736.6z"/>
<path class="st3" d="M2550.3,1729.9l-1.1-0.3l-47.9-39.3c-0.4-0.3-0.6-0.7-0.6-1.2c0-0.5,0.1-0.9,0.4-1.3l39.3-47.9
	c0.3-0.3,0.7-0.6,1.2-0.6c0.5,0,0.9,0.1,1.3,0.4l47.9,39.3c0.4,0.3,0.6,0.7,0.6,1.2c0,0.5-0.1,0.9-0.4,1.3l-39.3,47.9
	c-0.2,0.2-0.4,0.3-0.6,0.4C2550.8,1729.9,2550.6,1729.9,2550.3,1729.9z M2505,1688.7l45.1,37l37.1-45.1l-45.1-37L2505,1688.7z"/>
<path class="st3" d="M2441.1,1960.8c-0.2,0-0.4,0-0.7,0c-0.2-0.1-0.4-0.2-0.6-0.3l-47.9-39.3c-0.2-0.1-0.3-0.3-0.4-0.5
	c-0.1-0.2-0.1-0.4-0.1-0.6c-0.1-0.5,0.1-1,0.4-1.4l39.3-47.9c0.2-0.2,0.3-0.3,0.6-0.4c0.2-0.1,0.4-0.1,0.7-0.1
	c0.2-0.1,0.4-0.1,0.7,0c0.2,0.1,0.4,0.2,0.6,0.3l47.9,39.3c0.3,0.3,0.6,0.7,0.6,1.2c0,0.5-0.1,0.9-0.4,1.3l-39.3,47.9
	c-0.2,0.2-0.3,0.3-0.6,0.4C2441.6,1960.8,2441.3,1960.8,2441.1,1960.8L2441.1,1960.8z M2395.6,1919.6l45.1,37l37.1-45.1l-45.1-37
	L2395.6,1919.6z"/>
<path class="st3" d="M2480.4,1913.1c-0.2,0-0.5,0-0.7-0.1c-0.2-0.1-0.4-0.2-0.6-0.4l-47.9-39.3c-0.4-0.3-0.6-0.7-0.6-1.2
	c0-0.5,0.1-0.9,0.4-1.3l39.3-47.8c0.3-0.4,0.7-0.6,1.2-0.7c0.5-0.1,0.9,0.1,1.3,0.3l47.9,39.3c0.3,0.3,0.6,0.7,0.6,1.2
	c0,0.5-0.1,0.9-0.4,1.3l-39.3,47.9C2481.3,1912.7,2480.9,1913,2480.4,1913.1z M2435,1871.6l45.1,37.2l37-45.3l-45.1-37.1
	L2435,1871.6z"/>
<path class="st3" d="M2519.6,1865.1c-0.4,0-0.8-0.2-1.1-0.5l-47.9-39.2c-0.3-0.3-0.6-0.7-0.6-1.2s0.1-0.9,0.4-1.3l39.3-47.9
	c0.1-0.2,0.3-0.4,0.5-0.5c0.2-0.1,0.5-0.2,0.7-0.2l1.2,0.3l47.9,39.3c0.2,0.2,0.3,0.3,0.4,0.6c0.1,0.2,0.1,0.4,0.1,0.7
	c0.1,0.2,0.1,0.4,0,0.7c-0.1,0.2-0.2,0.4-0.4,0.5l-39.3,47.9C2520.6,1864.8,2520.1,1865.1,2519.6,1865.1L2519.6,1865.1z
	 M2474.3,1823.7l45.1,37.2l37.1-45.3l-45.1-37L2474.3,1823.7z"/>
<path class="st3" d="M2558.9,1817.2l-1-0.4l-47.9-39.3c-0.2-0.2-0.3-0.3-0.4-0.6c-0.1-0.2-0.1-0.4-0.1-0.7c-0.1-0.2-0.1-0.5,0-0.7
	c0.1-0.2,0.2-0.4,0.4-0.6l39.3-47.9c0.3-0.3,0.7-0.5,1.2-0.6c0.4-0.1,0.9,0,1.3,0.3l47.9,39.3c0.3,0.3,0.5,0.7,0.5,1.2
	c0,0.4-0.1,0.9-0.4,1.3l-39.3,47.9c-0.2,0.2-0.3,0.4-0.5,0.5s-0.4,0.2-0.7,0.2H2558.9z M2513.6,1775.9l45.1,37l37.1-45.3l-45.1-37.1
	L2513.6,1775.9z"/>
<path class="st3" d="M2598.3,1769.2l-1.1-0.3l-47.9-39.3c-0.4-0.3-0.6-0.7-0.6-1.2c0-0.5,0.1-0.9,0.4-1.3l39.3-47.9
	c0.3-0.4,0.7-0.6,1.2-0.6c0.5,0,0.9,0.1,1.3,0.4l47.8,39.2c0.4,0.3,0.6,0.8,0.7,1.2c0.1,0.5-0.1,1-0.4,1.4l-39.3,47.8
	c-0.1,0.2-0.4,0.4-0.6,0.5C2598.8,1769.2,2598.5,1769.3,2598.3,1769.2L2598.3,1769.2z M2552.8,1728l45.3,37.1l37-45.1l-45.1-37.2
	L2552.8,1728z"/>
<path class="st3" d="M2489,2000.2c-0.2,0-0.4,0-0.7,0c-0.2-0.1-0.4-0.2-0.6-0.3l-47.9-39.3c-0.3-0.3-0.6-0.7-0.6-1.2
	s0.1-0.9,0.4-1.3l39.3-47.9c0.3-0.3,0.7-0.6,1.2-0.6s0.9,0.1,1.3,0.4l47.9,39.3c0.4,0.3,0.6,0.7,0.6,1.2c0,0.5-0.1,0.9-0.4,1.3
	l-39.3,47.9C2489.9,1999.9,2489.5,2000.1,2489,2000.2z M2443.6,1958.9l45.1,37l37.1-45.1l-45.1-37.1L2443.6,1958.9z"/>
<path class="st3" d="M2528.2,1952.2c-0.2,0-0.4,0-0.6,0c-0.2-0.1-0.3-0.2-0.5-0.3l-47.9-39.3c-0.3-0.3-0.6-0.7-0.6-1.2
	c0-0.5,0.1-0.9,0.4-1.3l39.3-47.9c0.3-0.3,0.8-0.5,1.2-0.5c0.4,0,0.9,0.1,1.3,0.4l47.9,39.3c0.3,0.3,0.6,0.7,0.6,1.2
	c0,0.5-0.1,0.9-0.4,1.3l-39.3,47.9c-0.2,0.2-0.4,0.3-0.7,0.4C2528.7,1952.2,2528.4,1952.2,2528.2,1952.2L2528.2,1952.2z
	 M2482.9,1910.9l45.1,37.1l37.1-45.1l-45.1-37.1L2482.9,1910.9z"/>
<path class="st3" d="M2567.5,1904.4l-1.1-0.5l-47.9-39.3c-0.4-0.3-0.6-0.7-0.6-1.2c0-0.5,0.1-0.9,0.4-1.3l39.3-47.8
	c0.1-0.2,0.3-0.3,0.5-0.4c0.2-0.1,0.4-0.2,0.7-0.2c0.2,0,0.5,0,0.7,0c0.2,0.1,0.4,0.2,0.6,0.3l47.9,39.3c0.3,0.3,0.5,0.7,0.5,1.2
	c0,0.4-0.1,0.9-0.4,1.3l-39.3,47.9C2568.6,1904.2,2568.1,1904.4,2567.5,1904.4L2567.5,1904.4z M2522.2,1863l45.1,37.2l37-45.3
	l-45.1-37L2522.2,1863z"/>
<path class="st3" d="M2606.9,1856.5l-1.1-0.3l-47.9-39.3c-0.4-0.3-0.6-0.7-0.6-1.2s0.1-0.9,0.4-1.3l39.3-47.9
	c0.1-0.2,0.3-0.4,0.4-0.5s0.4-0.2,0.6-0.2l1.4,0.4l47.8,39.3c0.2,0.1,0.4,0.3,0.5,0.5c0.1,0.2,0.2,0.5,0.2,0.7c0,0.2,0,0.4,0,0.7
	c-0.1,0.2-0.2,0.4-0.3,0.6l-39.3,47.9c-0.1,0.2-0.4,0.4-0.6,0.5C2607.4,1856.5,2607.1,1856.5,2606.9,1856.5L2606.9,1856.5z
	 M2561.4,1815.2l45.3,37.1l37.1-45.3l-45.1-37.1L2561.4,1815.2z"/>
<path class="st3" d="M2646.2,1808.6l-1.1-0.3l-47.9-39.3c-0.3-0.3-0.6-0.8-0.7-1.2c0-0.2,0-0.5,0.1-0.7c0.1-0.2,0.2-0.4,0.4-0.6
	l39.1-47.9c0.3-0.3,0.7-0.6,1.2-0.6c0.4-0.1,0.9,0,1.3,0.3l47.9,39.3c0.4,0.3,0.6,0.7,0.7,1.2c0.1,0.5-0.1,0.9-0.3,1.3l-39.3,47.9
	c-0.2,0.2-0.3,0.4-0.5,0.5s-0.4,0.2-0.7,0.2H2646.2z M2600.7,1767.3l45.3,37.1l37.1-45.3l-45.1-37.1L2600.7,1767.3z"/>
<path class="st3" d="M2536.8,2039.5l-1.1-0.3l-47.9-39.3c-0.2-0.2-0.3-0.3-0.4-0.6c-0.1-0.2-0.1-0.4-0.1-0.7c-0.1-0.2-0.1-0.4,0-0.7
	c0.1-0.2,0.2-0.4,0.3-0.6l39.3-47.9c0.3-0.3,0.7-0.6,1.2-0.6c0.5,0,0.9,0.1,1.3,0.4l47.9,39.3c0.3,0.3,0.5,0.8,0.5,1.2
	c0,0.4-0.1,0.9-0.3,1.3l-39.3,47.9c-0.1,0.2-0.3,0.3-0.6,0.4c-0.2,0.1-0.4,0.1-0.7,0.1H2536.8z M2491.5,1998.2l45.1,37.1l37-45.1
	l-45.1-37.1L2491.5,1998.2z"/>
<path class="st3" d="M2576.1,1991.6c-0.2,0-0.4,0-0.6-0.1c-0.2-0.1-0.4-0.2-0.5-0.3l-47.9-39.3c-0.3-0.3-0.6-0.7-0.6-1.2
	c0-0.5,0.1-0.9,0.4-1.3l39.3-47.9c0.3-0.3,0.7-0.6,1.2-0.6c0.5,0,0.9,0.1,1.3,0.4l47.8,39.3c0.4,0.3,0.6,0.7,0.7,1.2
	c0.1,0.5-0.1,0.9-0.3,1.3l-39.3,47.9c-0.2,0.2-0.4,0.3-0.7,0.4C2576.6,1991.5,2576.4,1991.6,2576.1,1991.6z M2530.6,1950.3l45.3,37
	l37.1-45.1l-45.1-37L2530.6,1950.3z"/>
<path class="st3" d="M2615.5,1943.8c-0.4,0-0.8-0.2-1.1-0.5l-47.9-39.3c-0.3-0.3-0.6-0.7-0.6-1.2c0-0.5,0.1-0.9,0.4-1.3l39.2-47.9
	c0.4-0.3,0.8-0.5,1.3-0.6s1,0.1,1.4,0.4l47.8,39.3c0.2,0.1,0.3,0.3,0.5,0.5c0.1,0.2,0.2,0.4,0.2,0.6c0,0.2,0,0.5,0,0.7
	s-0.2,0.4-0.3,0.6l-39.3,47.9C2616.5,1943.5,2616,1943.7,2615.5,1943.8L2615.5,1943.8z M2570,1902.3l45.3,37.1l37.1-45.1l-45.1-37.1
	L2570,1902.3z"/>
<path class="st3" d="M2654.8,1895.8c-0.2,0-0.4,0-0.6-0.1c-0.2-0.1-0.3-0.2-0.5-0.4l-47.9-39.1c-0.4-0.3-0.6-0.8-0.7-1.3
	c-0.1-0.5,0-1,0.3-1.4l39.3-47.8c0.3-0.4,0.7-0.6,1.2-0.7c0.5-0.1,0.9,0.1,1.3,0.3l47.9,39.3c0.2,0.2,0.4,0.3,0.5,0.5
	c0.1,0.2,0.2,0.4,0.2,0.7c0,0.4-0.1,0.9-0.3,1.2l-39.3,47.9l-1.2,0.7H2654.8z M2609.3,1854.4l45.3,37.2l37-45.3l-45.3-37
	L2609.3,1854.4z"/>
<path class="st3" d="M2694.1,1847.9l-1-0.3l-47.9-39.3c-0.4-0.3-0.6-0.7-0.7-1.2c-0.1-0.5,0.1-0.9,0.3-1.3l39.3-47.9
	c0.1-0.2,0.3-0.4,0.5-0.5c0.2-0.1,0.5-0.2,0.7-0.2l1.2,0.3l47.9,39.3c0.2,0.1,0.4,0.3,0.5,0.5c0.1,0.2,0.2,0.4,0.2,0.7
	c0,0.4-0.1,0.9-0.3,1.2l-39.3,47.9c-0.2,0.2-0.4,0.4-0.6,0.5C2694.7,1847.9,2694.4,1847.9,2694.1,1847.9L2694.1,1847.9z
	 M2648.6,1806.7l45.3,37l37.1-45.3l-45.3-37.1L2648.6,1806.7z"/>
<path class="st3" d="M2584.7,2078.8l-1.1-0.4l-47.9-39.3c-0.4-0.3-0.6-0.7-0.6-1.2c0-0.5,0.1-0.9,0.4-1.3l39.3-47.9
	c0.2-0.3,0.7-0.5,1.1-0.7c0.2,0,0.5,0,0.8,0.1c0.2,0.1,0.5,0.2,0.7,0.4l47.8,39.3c0.2,0.1,0.4,0.2,0.5,0.4c0.1,0.2,0.2,0.4,0.2,0.6
	c0.1,0.5-0.1,1-0.4,1.4l-39.3,47.8c-0.1,0.2-0.4,0.4-0.6,0.5C2585.3,2078.8,2585,2078.8,2584.7,2078.8z M2539.3,2037.6l45.3,37.1
	l37.1-45.1l-45.1-37.2L2539.3,2037.6z"/>
<path class="st3" d="M2624.1,2030.9l-1.1-0.3l-47.9-39.3c-0.3-0.3-0.6-0.8-0.7-1.2c0-0.5,0.2-0.9,0.5-1.2l39.2-47.9
	c0.3-0.4,0.7-0.6,1.2-0.6c0.5,0,0.9,0.1,1.3,0.4l47.9,39.3c0.2,0.1,0.3,0.3,0.4,0.5c0.1,0.2,0.2,0.4,0.2,0.6c0,0.2,0,0.5,0,0.7
	c-0.1,0.2-0.2,0.4-0.3,0.6l-39.3,47.9c-0.1,0.2-0.3,0.3-0.6,0.4s-0.4,0.1-0.7,0.1H2624.1z M2578.6,1989.6l45.3,37.1l37.1-45.1
	l-45.1-37.1L2578.6,1989.6z"/>
<path class="st3" d="M2663.4,1982.9c-0.2,0-0.4,0-0.6,0c-0.2-0.1-0.4-0.2-0.5-0.3l-47.9-39.3c-0.2-0.1-0.3-0.3-0.5-0.4
	c-0.1-0.2-0.2-0.4-0.2-0.6c0-0.5,0.1-1,0.4-1.4l39.3-47.9c0.3-0.3,0.7-0.5,1.2-0.6c0.5,0,0.9,0.1,1.3,0.4l47.9,39.3
	c0.2,0.2,0.4,0.3,0.5,0.5c0.1,0.2,0.2,0.4,0.2,0.7c0,0.4-0.2,0.8-0.4,1.2l-39.3,47.9c-0.2,0.2-0.4,0.3-0.7,0.4
	C2663.9,1982.9,2663.7,1982.9,2663.4,1982.9z M2617.9,1941.7l45.3,37l37.1-45.1l-45.3-37L2617.9,1941.7z"/>
<path class="st3" d="M2702.7,1935.2c-0.2,0-0.4,0-0.6-0.1c-0.2-0.1-0.3-0.2-0.5-0.4l-47.9-39.3c-0.2-0.1-0.4-0.3-0.5-0.4
	c-0.1-0.2-0.2-0.4-0.2-0.6c0-0.5,0.1-1,0.3-1.4l39.3-47.8c0.1-0.2,0.3-0.4,0.5-0.5c0.2-0.1,0.5-0.2,0.7-0.2c0.2,0,0.4,0,0.7,0
	c0.2,0.1,0.4,0.2,0.6,0.3l47.9,39.3c0.3,0.3,0.6,0.7,0.6,1.2c0.1,0.4,0,0.9-0.3,1.3l-39.3,47.9
	C2703.8,1934.9,2703.3,1935.1,2702.7,1935.2L2702.7,1935.2z M2657.3,1893.7l45.1,37.2l37.2-45.3l-45.3-37.1L2657.3,1893.7z"/>
<path class="st3" d="M2742.1,1887.2c-0.5,0-0.9-0.2-1.2-0.5l-47.8-39.2c-0.2-0.1-0.3-0.3-0.5-0.5c-0.1-0.2-0.2-0.4-0.2-0.7
	c0-0.2,0-0.5,0-0.7c0.1-0.2,0.2-0.4,0.3-0.6l39.3-47.9c0.1-0.2,0.3-0.3,0.5-0.5s0.4-0.2,0.6-0.2s0.5,0,0.7,0
	c0.2,0.1,0.4,0.2,0.6,0.3l47.9,39.3c0.4,0.3,0.6,0.7,0.6,1.2c0,0.5-0.1,0.9-0.4,1.3l-39.2,47.9
	C2743.1,1886.9,2742.6,1887.2,2742.1,1887.2L2742.1,1887.2z M2696.6,1845.8l45.1,37.2l37.2-45.3l-45.3-37L2696.6,1845.8z"/>
<path class="st3" d="M2619.1,1742c13.7,13.9,24.1,30.9,30.2,49.5c6.1,18.6,7.8,38.3,5,57.7s-10.1,37.8-21.3,53.9
	s-25.9,29.3-43.1,38.8c-17.1,9.4-36.3,14.8-55.8,15.5c-19.6,0.8-39-3-56.9-11c-17.9-8-33.6-20-46.1-35.2
	c-12.4-15.1-21.2-32.9-25.6-52l123.3-28.4L2619.1,1742z"/>
<path class="st4" d="M2528.9,1959.1c-29,0-57.1-9.8-79.8-27.9c-22.7-18.1-38.6-43.2-45.1-71.5c-0.1-0.2-0.1-0.5-0.1-0.7
	s0.1-0.5,0.2-0.7c0.1-0.2,0.3-0.4,0.5-0.5c0.2-0.1,0.4-0.2,0.6-0.3l122.7-28.3l89.9-88.5c0.3-0.3,0.8-0.5,1.2-0.5
	c0.5,0,0.9,0.2,1.2,0.5c17.7,18,29.7,40.9,34.5,65.7c4.8,24.8,2.1,50.5-7.7,73.8c-9.8,23.3-26.2,43.2-47.2,57.2
	C2578.9,1951.6,2554.2,1959,2528.9,1959.1L2528.9,1959.1z M2407.7,1860.6c4.6,18.6,13.3,35.8,25.6,50.4
	c12.3,14.6,27.8,26.2,45.3,33.9c17.5,7.7,36.5,11.2,55.6,10.4c19.1-0.8,37.7-6.1,54.5-15.2c16.8-9.2,31.2-22.1,42.1-37.8
	c11-15.7,18.2-33.6,21.1-52.5s1.5-38.2-4.3-56.4c-5.7-18.2-15.6-34.9-28.8-48.7l-88.9,87.4l-0.7,0.5L2407.7,1860.6z"/>
<path class="st1" d="M2437.6,1743.3l91.3,87.6l-123.3,28.4c-4.3-18.9-4.3-38.5,0.1-57.3c4.4-18.8,13.1-36.4,25.4-51.4
	C2433.2,1748,2435.3,1745.7,2437.6,1743.3z"/>
<path class="st1" d="M2405.6,1861.1l-0.9-0.3c-0.2-0.1-0.4-0.2-0.5-0.4c-0.1-0.2-0.2-0.4-0.2-0.6c-4.5-19.1-4.6-39-0.1-58.1
	c4.5-19.1,13.3-36.9,25.9-52c2.1-2.6,4.2-5.1,6.5-7.5c0.1-0.2,0.3-0.3,0.6-0.4c0.2-0.1,0.4-0.1,0.7-0.1c0.5,0.2,0.9,0.2,1.2,0.5
	l91.3,87.6c0.3,0.2,0.5,0.5,0.5,0.8c0.1,0.3,0.1,0.7,0,1c-0.1,0.3-0.3,0.5-0.5,0.7c-0.2,0.2-0.5,0.4-0.8,0.5l-123.3,28.4H2405.6z
	 M2437.8,1745.7c-1.9,1.9-3.5,4-5.3,6c-12,14.5-20.5,31.5-24.9,49.8c-4.4,18.3-4.6,37.3-0.6,55.7l118.3-27.4L2437.8,1745.7z"/>
<path class="st3" d="M2609.1,1733.1c3.5,2.8,6.8,5.8,10,9l-90.2,88.8l-91.3-87.6c22-23,52-36.8,83.8-38.7
	C2553.2,1702.7,2584.5,1712.8,2609.1,1733.1z"/>
<path class="st1" d="M2528.9,1832.6c-0.5,0-0.9-0.2-1.2-0.5l-91.3-87.4c-0.3-0.3-0.5-0.8-0.5-1.3s0.2-1,0.5-1.3
	c22.4-23.3,52.7-37.3,85-39.2c32.2-1.9,64,8.4,89,28.8l0,0c3.3,2.8,6.8,6,10,9.1c0.3,0.3,0.5,0.8,0.5,1.2c0,0.2,0,0.5-0.1,0.7
	c-0.1,0.2-0.2,0.4-0.4,0.6l-90.2,88.8c-0.2,0.2-0.3,0.3-0.6,0.4S2529.1,1832.6,2528.9,1832.6L2528.9,1832.6z M2440.1,1743.3
	l88.8,85.2l87.6-86.4c-2.6-2.7-5.5-5.2-8.4-7.6c-24.1-19.6-54.7-29.6-85.7-28C2491.3,1708.1,2462,1721.2,2440.1,1743.3
	L2440.1,1743.3z"/>
<path class="st2" d="M2728.9,1688.8c-18.8-36.9-51.4-64.8-94.1-85.9c0,0-24.9,18.4-39.5,40.4c-7.2,13.3,66.9,117.8,112.4,72
	C2715.4,1707.1,2722.5,1698.2,2728.9,1688.8L2728.9,1688.8z"/>
<path class="st0" d="M2681.3,1728.7c-11.4,0-24.1-4.9-37.8-14.9c-28.6-21.1-55-61.6-49.9-71.3c14.8-21.9,39.7-40.6,40-40.7
	c0.3-0.2,0.6-0.2,0.9-0.3c0.3,0,0.6,0,0.9,0.1c45.7,22.5,76.7,50.9,95,86.7c0.2,0.3,0.3,0.6,0.3,0.9c0,0.3-0.1,0.6-0.3,0.9
	c-0.2,0.2-11.1,16.2-21.6,26.7C2698.3,1727.3,2691.5,1728.7,2681.3,1728.7z M2596.7,1644.2c-2.8,6.2,18.6,44.4,49,66.7
	c16.9,12.5,41.1,23,60.8,3.2c7.5-8,14.3-16.5,20.6-25.5c-17.9-34.4-48.1-61.8-92-83.6C2630.4,1608.4,2609.5,1625.1,2596.7,1644.2z"
	/>
<path class="st2" d="M2664.1,1619.6c-9.3-6.3-19.1-11.9-29.3-16.7l-50.6,32.8l19.1,34.1L2664.1,1619.6z"/>
<path class="st0" d="M2603.4,1671.6c-0.3,0-0.7-0.1-1-0.3c-0.3-0.2-0.5-0.4-0.6-0.8l-19.1-34.1c-0.2-0.4-0.2-0.8-0.1-1.2
	c0.1-0.4,0.3-0.8,0.6-1.1l50.6-32.7c0.3-0.2,0.6-0.2,0.9-0.3c0.3,0,0.6,0,0.9,0.1c10.3,4.8,20.1,10.5,29.5,16.9
	c0.2,0.1,0.4,0.3,0.5,0.5c0.1,0.2,0.2,0.4,0.3,0.6c0.1,0.2,0.1,0.5,0,0.7c0,0.2-0.1,0.4-0.3,0.6c-0.3,0.3-0.7,0.6-1.2,0.6
	c-0.5,0.1-0.9,0-1.3-0.3c-9-6-18.5-11.4-28.3-16l-48.3,31.2l18.3,32.7c0.1,0.2,0.2,0.4,0.2,0.6c0,0.2,0,0.4-0.1,0.7
	c-0.1,0.2-0.2,0.4-0.3,0.6c-0.2,0.2-0.3,0.3-0.5,0.4L2603.4,1671.6z"/>
<path class="st2" d="M2607.4,1663.5c0,0-23,20.7-45.1,42.7c-13.4,13-25.6,23.2-19.5,34.1c6.1,10.9,26.5-4.2,26.5-4.2
	s50.6-26,60.2-34.8L2607.4,1663.5z"/>
<path class="st0" d="M2550.7,1746.6h-2.1c-1.5-0.3-3-0.9-4.3-1.8c-1.3-0.9-2.3-2.1-3.1-3.5c-6.1-11.1,4.2-21.1,16-32.7l3.9-3.7
	c21.9-21.6,44.9-42.5,45.1-42.7c0.4-0.3,0.8-0.4,1.3-0.4c0.5,0,0.9,0.2,1.2,0.5c0.3,0.3,0.5,0.8,0.5,1.2c0,0.5-0.2,0.9-0.5,1.2
	c-0.4,0.2-23.2,21.1-45.1,42.7l-3.9,3.7c-11.2,10.9-20.2,19.5-15.3,28.3c0.5,0.9,1.1,1.7,1.9,2.3s1.8,1,2.8,1.2
	c7.7,1.4,19-8.1,19.1-8.1v-0.3c0.5-0.2,50.6-26,59.9-34.4c0.4-0.3,0.8-0.5,1.3-0.5c0.5,0,0.9,0.2,1.3,0.5c0.3,0.4,0.4,0.8,0.4,1.3
	c0,0.4-0.2,0.9-0.5,1.2c-9.5,8.6-56.7,33.2-60.4,35.1C2566.5,1739.8,2559.1,1746.6,2550.7,1746.6z"/>
<path class="st2" d="M2625.6,1682.7c0,0-71.6,65.7-68.8,78.1c3.5,16,22.5,8.4,41.4-7.4c9.3-7.9,37.4-34.8,47.2-43.4L2625.6,1682.7z"
	/>
<path class="st0" d="M2567,1771.5c-1.5-0.1-3-0.3-4.4-0.7c-3.9-1.4-6.5-4.6-7.6-9.7c-3-12.8,57.2-68.7,69.4-79.7
	c0.3-0.2,0.8-0.4,1.2-0.3c0.4,0,0.8,0.2,1.1,0.5c0.3,0.3,0.5,0.7,0.5,1.1c0,0.4-0.1,0.8-0.3,1.2c-27.6,25.1-70.2,68.1-68.5,76.6
	c0.9,3.7,2.6,6,5.4,7c6.5,2.3,19-3.5,33.2-15.4c5.3-4.2,16.1-14.4,26.7-24.2l20.7-19c0.4-0.3,0.8-0.4,1.3-0.4c0.5,0,0.9,0.2,1.2,0.6
	c0.3,0.4,0.4,0.8,0.4,1.3c0,0.4-0.2,0.9-0.5,1.2c-4.4,3.7-12.3,11.1-20.7,19c-8.4,7.9-21.4,20-26.7,24.2
	C2594,1758.9,2577.5,1771.5,2567,1771.5z"/>
<path class="st2" d="M2640.6,1702.5l-50.7,53c0,0-18.6,16.7-10.4,27.4c8.2,10.7,21.6-0.5,31.1-7.2c9.5-6.7,41.1-34.4,56.4-51.3
	L2640.6,1702.5z"/>
<path class="st0" d="M2587.6,1788.9c-1.9,0-3.7-0.4-5.4-1.3c-1.6-0.8-3.1-2.1-4.1-3.6c-9.1-11.9,9.8-29,10.5-29.7l50.6-53
	c0.4-0.3,0.8-0.5,1.3-0.5s1,0.2,1.3,0.5c0.3,0.3,0.5,0.8,0.5,1.2s-0.2,0.9-0.5,1.2l-50.7,53c-0.2,0.3-17.4,15.8-10.2,25.1
	c7.2,9.3,15.5,1.8,26.5-6.2l2.1-1.4c9.6-6.7,41.1-34.4,56.2-51.1c0.3-0.2,0.8-0.4,1.2-0.3c0.4,0,0.8,0.2,1.1,0.5
	c0.3,0.3,0.5,0.7,0.5,1.1c0,0.4-0.1,0.8-0.4,1.2c-15.1,16.7-46.9,44.8-56.7,51.5l-1.9,1.6
	C2603.2,1782.9,2594.9,1788.9,2587.6,1788.9z"/>
<path class="st2" d="M2707.6,1715.3c0,0-39.9,41.6-49.5,49.5c-13.7,11.1-31.2,27-39.7,16.2s15.8-30.2,15.8-30.2
	c10.5-10.9,30.9-29.7,30.9-29.7L2707.6,1715.3z"/>
<path class="st0" d="M2625.8,1786.3h-1.4c-1.4-0.2-2.8-0.6-4.1-1.3c-1.3-0.7-2.4-1.7-3.2-2.9c-8.8-11.8,14.2-31.1,16-32.5
	c10.5-10.7,30.7-29.7,30.9-29.8c0.4-0.3,0.9-0.5,1.4-0.4c0.5,0,0.9,0.2,1.3,0.6c0.3,0.4,0.4,0.8,0.4,1.3c0,0.4-0.2,0.9-0.5,1.2
	c-0.2,0.2-20.4,19-30.9,29.7h-0.2c-6.3,5.1-21.2,20-15.5,27.6c0.6,0.8,1.3,1.5,2.1,2c0.9,0.5,1.8,0.8,2.8,1
	c7.6,0.9,19.3-8.8,28.8-16.5l3.5-2.8c9.5-7.6,48.8-48.8,49.3-49.3c0.2-0.2,0.4-0.4,0.6-0.5s0.5-0.2,0.7-0.2c0.2,0,0.5,0,0.7,0.1
	c0.2,0.1,0.4,0.2,0.6,0.4c0.2,0.2,0.3,0.4,0.4,0.6c0.1,0.2,0.1,0.5,0.1,0.7s-0.1,0.5-0.2,0.7c-0.1,0.2-0.3,0.4-0.5,0.6
	c-1.6,1.8-40,41.8-49.5,49.5l-3.5,3C2645.8,1777.2,2634.6,1786.3,2625.8,1786.3z"/>
<path class="st3" d="M1519.6,403.1L1409,1015.4l411.9,74.5l110.6-612.5L1519.6,403.1z M1587.2,472l-31.2-5.6c-2-0.2-4-0.9-5.8-1.9
	s-3.3-2.4-4.6-4.1s-2.1-3.5-2.6-5.6c-0.5-2-0.5-4.1-0.2-6.1c0.4-2,1.1-4,2.3-5.7c1.1-1.7,2.6-3.2,4.3-4.3c1.7-1.1,3.7-1.9,5.7-2.2
	c2-0.3,4.1-0.3,6.1,0.2l31.4,5.6c3.8,0.9,7.1,3.2,9.2,6.4c2.1,3.2,2.9,7.2,2.2,11c-0.7,3.8-2.8,7.2-6,9.5
	C1594.9,471.5,1591,472.5,1587.2,472L1587.2,472z M1683.2,489.4l-31.2-5.6c-4-0.7-7.5-2.9-9.8-6.2c-2.3-3.3-3.2-7.4-2.5-11.3
	c0.7-4,2.9-7.5,6.2-9.8c3.3-2.3,7.4-3.2,11.3-2.5l31.4,5.8c2,0.3,4,1,5.7,2c1.8,1,3.3,2.4,4.5,4.1c1.2,1.7,2.1,3.5,2.5,5.5
	c0.4,2,0.5,4.1,0.1,6.1c-0.4,2-1.1,3.9-2.3,5.6c-1.1,1.7-2.6,3.2-4.3,4.3c-1.7,1.1-3.6,1.9-5.6,2.2
	C1687.3,489.9,1685.2,489.8,1683.2,489.4L1683.2,489.4z M1779.3,506.7l-31.2-5.6c-4-0.7-7.5-3-9.8-6.3c-1.1-1.6-1.9-3.5-2.3-5.4
	c-0.4-1.9-0.5-4-0.1-5.9c0.4-2,1.1-3.8,2.2-5.5s2.5-3.1,4.1-4.3c3.3-2.3,7.4-3.2,11.3-2.4l31.3,5.6c3.9,0.7,7.5,3,9.8,6.3
	c2.3,3.3,3.2,7.4,2.4,11.4c-0.7,4-3,7.5-6.3,9.8C1787.3,506.6,1783.2,507.5,1779.3,506.7L1779.3,506.7z M1875.5,524.1l-31.4-5.6
	c-4-0.7-7.5-3-9.8-6.3c-1.1-1.6-1.9-3.5-2.3-5.4c-0.4-1.9-0.4-4-0.1-5.9c0.4-2,1.1-3.8,2.2-5.5c1.1-1.7,2.5-3.1,4.1-4.3
	c3.3-2.3,7.4-3.2,11.3-2.4l31.3,5.6c3.9,0.7,7.5,2.9,9.8,6.2c2.3,3.3,3.2,7.4,2.5,11.3c-0.7,4-2.9,7.5-6.2,9.8
	C1883.6,523.9,1879.5,524.8,1875.5,524.1L1875.5,524.1z"/>
<path class="st1" d="M1822.5,1092l-415.6-75.2L1518.2,401l415.5,75L1822.5,1092z M1411.1,1014l408.4,73.8l110.1-609L1521,405.1
	L1411.1,1014z M1878.2,526.1h-3l-31.3-5.8c-2.2-0.4-4.3-1.2-6.2-2.3s-3.5-2.7-4.8-4.5c-1.3-1.8-2.2-3.9-2.7-6
	c-0.5-2.2-0.5-4.4-0.1-6.6c0.9-4.4,3.4-8.3,7-10.9c3.7-2.6,8.2-3.6,12.6-2.8l31.3,5.6c4.4,0.9,8.3,3.4,10.8,7.1
	c2.6,3.7,3.6,8.2,2.9,12.6c-0.7,3.9-2.8,7.4-5.9,9.9C1885.9,524.7,1882.1,526.1,1878.2,526.1L1878.2,526.1z M1846.9,490.2
	c-3.4-0.1-6.7,1.1-9.2,3.4c-2.5,2.2-4.1,5.4-4.4,8.7c-0.3,3.4,0.7,6.7,2.7,9.4c2.1,2.7,5.1,4.5,8.4,5l31.2,5.6
	c2.6,0.6,5.4,0.3,7.8-0.7s4.6-2.8,6-5c1.4-2.2,2.2-4.9,2.1-7.6c-0.1-2.7-1-5.3-2.6-7.4c-2-2.9-5-4.9-8.4-5.6l-31.4-5.6L1846.9,490.2
	z M1782.1,508.7h-3l-31.4-5.6c-4.1-1.2-7.5-3.8-9.8-7.4c-2.2-3.6-3.1-7.9-2.3-12s3-7.9,6.3-10.5c3.3-2.6,7.5-3.8,11.7-3.5l31.4,5.8
	c2.2,0.4,4.3,1.1,6.1,2.3c1.9,1.2,3.5,2.7,4.8,4.5c2.5,3.7,3.5,8.2,2.6,12.6c-0.7,3.9-2.7,7.3-5.8,9.9
	C1789.8,507.3,1786,508.7,1782.1,508.7L1782.1,508.7z M1779.6,505c1.7,0.3,3.5,0.3,5.2,0c1.7-0.4,3.4-1.1,4.8-2.1
	c1.5-1,2.7-2.3,3.7-3.7c1-1.5,1.6-3.1,1.9-4.9c0.6-3.5-0.2-7.1-2.3-10c-1-1.5-2.2-2.7-3.7-3.7c-1.5-1-3.1-1.6-4.9-1.9l-31.2-5.6
	c-1.7-0.3-3.5-0.3-5.2,0.1c-1.7,0.4-3.3,1.1-4.8,2.2c-1.4,1-2.7,2.2-3.6,3.6c-0.9,1.5-1.6,3.1-1.8,4.8c-0.3,1.7-0.3,3.5,0,5.2
	c0.4,1.7,1.1,3.4,2.1,4.8c1,1.5,2.3,2.7,3.7,3.7c1.5,1,3.1,1.6,4.9,1.9L1779.6,505z M1686.1,491.3h-3.2l-31.2-5.6
	c-4.4-0.9-8.3-3.4-10.9-7c-1.2-1.8-2.1-3.9-2.6-6.1c-0.5-2.2-0.5-4.4-0.1-6.6c0.4-2.2,1.2-4.2,2.4-6.1c1.2-1.9,2.7-3.5,4.6-4.7
	c1.8-1.3,3.9-2.1,6-2.6c2.2-0.5,4.4-0.5,6.6-0.1l31.4,5.6c2.2,0.3,4.3,1.1,6.1,2.3c1.8,1.2,3.4,2.8,4.6,4.7c1.3,1.8,2.2,3.8,2.7,5.9
	s0.5,4.4,0.1,6.5c-0.7,3.9-2.7,7.3-5.8,9.9C1693.8,489.9,1690,491.3,1686.1,491.3L1686.1,491.3z M1683.6,487.6
	c3.5,0.6,7.1-0.1,10-2.1c2.9-2.1,4.8-5.1,5.5-8.6c0.6-3.5-0.1-7.1-2.1-10c-2-2.9-5.1-4.9-8.6-5.6l-31.3-5.6
	c-3.5-0.6-7.1,0.2-10.1,2.2c-2.9,2-4.9,5.2-5.6,8.7c-0.3,1.7-0.3,3.5,0.1,5.2c0.4,1.7,1.1,3.3,2.1,4.8c1,1.4,2.3,2.7,3.8,3.6
	c1.5,0.9,3.1,1.6,4.9,1.9L1683.6,487.6z M1589.8,474.1l-3-0.4l-31.2-5.6c-4.4-0.9-8.3-3.4-10.9-7c-2.6-3.7-3.6-8.2-2.8-12.6
	c0.9-4.4,3.4-8.3,7-10.9c1.8-1.2,3.9-2.1,6.1-2.6c2.2-0.5,4.4-0.5,6.6-0.1l31.2,5.6c4.4,0.8,8.3,3.3,10.9,7
	c2.6,3.7,3.6,8.2,2.8,12.7c-0.4,2.2-1.2,4.2-2.4,6.1c-1.2,1.8-2.8,3.4-4.6,4.7C1596.7,473,1593.3,474.1,1589.8,474.1z M1558.6,438.1
	c-3.1,0-6.2,1.1-8.6,3.2c-2.4,2-4,4.8-4.6,7.9c-0.6,3.5,0.2,7,2.2,9.9c2,2.9,5.1,4.9,8.5,5.5l31.4,5.6c1.7,0.4,3.5,0.3,5.2,0
	c1.7-0.4,3.3-1.1,4.8-2.1c2.9-2,4.8-5.1,5.4-8.6c0.3-1.7,0.3-3.5-0.1-5.2c-0.4-1.7-1.1-3.3-2.1-4.8c-1-1.4-2.3-2.7-3.8-3.6
	c-1.5-0.9-3.1-1.6-4.8-1.9l-31.4-5.8L1558.6,438.1z"/>
<path class="st3" d="M1849,939.7c4.9-26.2-8.8-76.2-15.3-92.5c-8.6-21.4-30-41.3-17.2-55.5c12.8-14.2,39.3,25.1,50.8,42.1
	l18.3-108.7c0,0,49.2,67.4,64.6,105.4c15.5,37.9,15.3,62.5,11.4,110.6L1849,939.7z"/>
<path class="st0" d="M1961.6,942.9h-0.2c-0.4-0.1-0.8-0.3-1.1-0.7c-0.3-0.4-0.4-0.8-0.4-1.3c3.7-46.5,3.7-72.3-11.2-109.7
	c-13.2-32.5-51.8-87.4-62-101.7L1869,834.2c-0.1,0.3-0.3,0.7-0.5,0.9c-0.2,0.2-0.6,0.4-0.9,0.5c-0.4,0.1-0.7,0-1.1-0.1
	c-0.3-0.1-0.6-0.3-0.9-0.6c-13.7-20.7-32.1-43.2-43-43.9c-0.9-0.1-1.8,0.1-2.7,0.4c-0.8,0.3-1.6,0.9-2.2,1.5
	c-7.9,8.8-0.9,20.5,7.2,33.9c4,6.3,7.4,12.8,10.4,19.7c6.5,16.5,20.4,67.1,15.4,93.4c0,0.2-0.1,0.5-0.3,0.7
	c-0.1,0.2-0.3,0.4-0.5,0.5c-0.2,0.1-0.4,0.2-0.7,0.3c-0.2,0-0.5,0-0.7,0c-0.4-0.1-0.8-0.3-1.1-0.7c-0.3-0.4-0.4-0.8-0.3-1.2
	c4.9-25.8-8.8-75.3-15.3-91.7c-2.8-6.6-6.1-12.9-10-19c-8.4-14.2-16.5-27.4-6.8-38.1c1-1.1,2.2-2,3.6-2.6c1.4-0.6,2.9-0.8,4.3-0.6
	c13.5,0.9,33.2,27.2,43.2,41.8l17.6-104.5c0.1-0.3,0.3-0.6,0.5-0.9c0.2-0.2,0.6-0.4,0.9-0.5c0.3-0.1,0.7,0,1,0.1
	c0.3,0.1,0.6,0.3,0.8,0.6c0.5,0.7,49.5,68,64.8,105.9c15.3,37.9,15.3,64.3,11.6,111.3c0,0.4-0.2,0.8-0.6,1.1
	C1962.4,942.7,1962,942.9,1961.6,942.9z"/>
<path class="st0" d="M2524,1250.7l52.5,34.1c-6.9,19-18.3,38.4-31.8,52.7L2524,1250.7z"/>
<path class="st3" d="M2578.9,1286.2h-1.1l-19.3-12.3c-12.8-8.1-26-16.5-35.5-21.6c-0.4-0.2-0.7-0.6-0.8-1c-0.1-0.4-0.1-0.9,0.1-1.3
	c0.1-0.2,0.3-0.4,0.5-0.6c0.2-0.2,0.4-0.3,0.6-0.3c0.2-0.1,0.5-0.1,0.7-0.1c0.2,0,0.5,0.1,0.7,0.2c9.5,5.1,22.6,13.5,35.6,21.6
	l19.3,12.3c0.2,0.1,0.4,0.3,0.5,0.5c0.1,0.2,0.2,0.4,0.3,0.6c0,0.2,0,0.5,0,0.7c0,0.2-0.1,0.4-0.3,0.6c-0.2,0.2-0.4,0.3-0.6,0.4
	C2579.5,1286.2,2579.2,1286.2,2578.9,1286.2L2578.9,1286.2z"/>
<path class="st3" d="M2369.3,2444.5l-172.4,31.6l0.6,3.5l172.4-31.6L2369.3,2444.5z"/>
<path class="st3" d="M2305.5,2669.7c-8.2-10.4-12.1-36.7-10.9-46.5c0.4-3.5,4.6-35.8,21.8-50.7c17.2-14.9,50.8-8.3,52.2-7.9
	l-0.5,3.3c-0.4,0-35.1-4.9-49.2,7.2c-14,12.1-20.4,45.1-20.7,48.6c-1.2,10.2,3,34.9,10,43.9L2305.5,2669.7z"/>
<path class="st4" d="M637.8,1465.8l-212.1-5.6l8.4-139.1l77.6-71.3l139.1,3.5L637.8,1465.8z"/>
<path class="st4" d="M637.8,1467.6l-212.1-5.6c-0.2,0-0.5,0-0.7-0.1c-0.2-0.1-0.4-0.2-0.6-0.4c-0.3-0.3-0.5-0.8-0.5-1.2l8.6-139.2
	c0-0.2,0-0.5,0.1-0.7c0.1-0.2,0.2-0.4,0.4-0.6l77.6-71.3l1.2-0.3l138.9,3.5c0.5,0,1,0.3,1.4,0.7c0.2,0.4,0.3,0.8,0.4,1.2l-13,212.3
	c0,0.2,0,0.5-0.1,0.7c-0.1,0.2-0.2,0.4-0.4,0.6c-0.2,0.2-0.4,0.3-0.6,0.4S638,1467.6,637.8,1467.6L637.8,1467.6z M427.6,1458.4
	l208.6,5.6l12.8-209l-136.6-3.5l-76.6,70.2L427.6,1458.4z"/>
<path class="st4" d="M507.3,1323.1l-73.2-1.9l77.6-71.3L507.3,1323.1z"/>
<path class="st5" d="M507.3,1324.8l-73.2-1.9c-0.4,0-0.7-0.2-1-0.4c-0.3-0.2-0.5-0.5-0.6-0.8c-0.1-0.3-0.1-0.7,0-1
	c0.1-0.3,0.3-0.7,0.5-0.9l77.6-71.3c0.3-0.2,0.6-0.3,0.9-0.3c0.3,0,0.7,0,1,0.2c0.3,0.1,0.6,0.3,0.7,0.6c0.2,0.3,0.2,0.6,0.2,0.9
	l-4.4,73.2c0,0.5-0.2,0.9-0.6,1.2C508.2,1324.6,507.8,1324.8,507.3,1324.8z M438.5,1319.4l67.3,1.8l4-67.1L438.5,1319.4z"/>
<path class="st0" d="M468.3,1401.7c-0.2,0-0.4,0-0.7-0.1c-0.2-0.1-0.4-0.2-0.6-0.3c-0.2-0.2-0.3-0.3-0.4-0.5
	c-0.1-0.2-0.1-0.4-0.1-0.7c-0.5-5.7,0.1-11.4,1.9-16.8c1.8-5.4,4.7-10.4,8.5-14.6c0.8-0.8,1.7-1.3,2.8-1.6c0.6,0,1.2,0.2,1.7,0.5
	c0.5,0.3,1,0.7,1.4,1.1c3.8,3.8,7.2,7.9,10.2,12.3c0.9,1.1,1.8,2.3,2.8,2.5c0.8,0.1,1.7,0,2.5-0.3c2.4-0.6,4.6-1.8,6.4-3.4
	c1.9-1.6,3.3-3.6,4.3-5.9c0.9-3.2,0.5-6.7-1.1-9.7c-2.2-3.1-4.3-6.2-6.1-9.5c-0.2-0.4-0.2-0.8-0.1-1.2c0.1-0.4,0.3-0.8,0.6-1
	c0.4-0.2,0.8-0.3,1.3-0.3c0.4,0.1,0.9,0.3,1.2,0.6c2.4,2.9,4.4,6.1,6.1,9.5c0.8,1,1.8,2,2.8,2.8c1.7,1.6,3.7,2.9,5.9,3.6
	c2.2,0.8,4.6,1,6.9,0.8c0.5-0.1,1-0.2,1.5-0.4c0.5-0.2,0.9-0.6,1.2-1c0.5-0.7,0.8-1.6,0.7-2.5c0.4-3.9,0-7.9-1.2-11.6
	c-0.1-0.4-0.1-0.9,0.1-1.3c0.2-0.4,0.5-0.7,0.9-0.8c0.4-0.1,0.9-0.1,1.3,0c0.4,0.2,0.8,0.5,1,0.8l4.2,10.4c0.9,1.8,1.6,3.5,3,4
	c0.6,0.3,1.3,0.4,2,0.4c0.7,0,1.4-0.1,2-0.4c3.3-1.1,6.3-3,8.6-5.6c2.3-2.6,3.8-5.8,4.4-9.3c0.1-0.4,0.3-0.7,0.6-0.9
	c0.3-0.2,0.6-0.4,1-0.5c0.4,0,0.8,0.1,1.1,0.3s0.6,0.5,0.8,0.9c2.1,7.9,12.6,9.8,15.8,10.2c3.2,0.3,10.2-0.2,13-2.6
	c2-2.1,3.1-4.8,3.2-7.7c-4.1,0.2-8.1-0.4-11.9-1.8c-3.7-1.3-7-3.6-9.5-6.7c-2.5-3-4.2-6.7-4.9-10.6c-0.2-1.2-0.2-2.4,0.1-3.5
	c0.3-1.2,0.8-2.2,1.5-3.2c2.8-3.3,7.9-2.6,11.2-0.9c3.8,1.8,7.2,4.4,10,7.6c2.8,3.2,4.8,7,6,11c0.5,1.3,0.8,2.7,0.9,4
	c2.2-0.4,4.3-1,6.3-1.8c0.3-0.1,0.6-0.1,0.9,0c0.3,0.1,0.6,0.2,0.8,0.4c0.2,0.2,0.4,0.5,0.5,0.8c0.1,0.3,0.1,0.6,0,0.9
	c-0.9,3.3,0.2,7,3.2,11.8l1.4,2.3c2.4,3.2,4.1,6.7,5.1,10.5c0.1,0.2,0.1,0.5,0,0.7c0,0.2-0.1,0.4-0.3,0.7c-0.1,0.2-0.3,0.4-0.5,0.5
	s-0.4,0.2-0.7,0.3c-0.5,0-0.9-0.1-1.3-0.4s-0.7-0.6-0.8-1c-0.8-3.4-2.4-6.6-4.6-9.3l-1.4-2.3c-2.6-4.4-4-8.1-4-11.6l-4.4,1.1
	c0,2-0.4,3.9-1.2,5.7c-0.8,1.8-1.9,3.4-3.4,4.8c-3.5,3.3-8.8,4.6-15.6,3.7c-6.8-0.9-13.5-4-16.7-8.3c-1.3,3.1-3.2,5.9-5.7,8.2
	c-2.5,2.2-5.5,3.9-8.7,4.8c-2.1,0.8-4.4,0.7-6.5-0.2c-1.9-1.2-3.4-2.9-4.2-4.9v0.4c0,1.5-0.4,3.1-1.2,4.4c-0.6,0.8-1.3,1.4-2.2,1.8
	c-0.8,0.5-1.8,0.7-2.7,0.8c-4.7,1.1-9.8-0.5-14.4-3.7c0.2,2,0,3.9-0.5,5.8c-1.6,5.1-6.5,9.5-13,11.6c-1.4,0.6-2.9,0.8-4.4,0.5
	c-2-0.7-3.7-2.1-4.7-4c-3-4.1-6.3-8.1-9.8-11.8l-0.5-0.4l-0.4,0.4c-3.5,3.8-6.2,8.3-7.9,13.3c-1.6,4.9-2.2,10.2-1.6,15.4
	c0,0.2,0,0.5-0.1,0.7c-0.1,0.2-0.2,0.4-0.3,0.6c-0.1,0.2-0.3,0.3-0.5,0.4c-0.2,0.1-0.4,0.2-0.7,0.2H468.3z M572.4,1327.3
	c-0.5,0-1.1,0.1-1.5,0.3c-0.5,0.2-0.9,0.5-1.3,0.9c-0.4,0.6-0.6,1.2-0.8,1.9c-0.1,0.7-0.1,1.3,0.1,2c0.6,3.3,2,6.3,4.1,8.9
	c2.1,2.6,4.9,4.5,8,5.7c3.5,1.1,7.1,1.6,10.7,1.4c-0.2-1.1-0.5-2.2-0.9-3.3c-1.1-3.6-2.9-6.9-5.3-9.7c-2.4-2.8-5.4-5.2-8.7-6.8
	C575.5,1327.8,574,1327.4,572.4,1327.3z"/>
<path class="st1" d="M568.1,1270.9l-8.3,2.8L524,1162.1l8.3-2.8L568.1,1270.9z"/>
<path class="st0" d="M576,1153.8l-89.9,31.6c-6.7-20.5,8.3-44.1,33-52.8C543.8,1123.8,569.3,1133.2,576,1153.8z"/>
<path class="st0" d="M484.8,1187.5l-0.5-1.6c-6.8-21.4,8.6-46,34.2-55.1c13.9-4.9,28.8-4.4,40.6,1.6c4.3,2,8.2,4.9,11.4,8.5
	c3.2,3.6,5.6,7.7,7.1,12.2l0.5,1.8L484.8,1187.5z M537.7,1131c-6.2,0-12.3,1.1-18.1,3.2c-23.2,8.2-37.2,29.8-32.5,49l86.6-30.6
	c-3-7.5-8.8-13.6-16.2-17C551.3,1132.5,544.6,1130.9,537.7,1131L537.7,1131z"/>
<path class="st0" d="M502.2,1139.8l-24.1-75.2l34.4-12.1l24.1,75.2C525.5,1132.7,514,1136.7,502.2,1139.8L502.2,1139.8z"/>
<path class="st0" d="M524.9,1036.2l-66,23.2c3.9,11.9,21.8,16.5,40,10.2C517.1,1063.2,528.7,1048.1,524.9,1036.2z"/>
<path class="st0" d="M482.5,1074.1c-5.3,0.1-10.5-1-15.3-3.2c-2.4-1.1-4.5-2.6-6.2-4.5c-1.8-1.9-3.1-4.1-3.9-6.6l-0.5-1.6l69.4-24.4
	l0.5,1.6c4.2,13-7.9,29-27,35.6C494,1073.1,488.3,1074.1,482.5,1074.1z M461.1,1060.4c1.6,3.3,4.4,5.9,7.7,7.4
	c7.6,3.9,18.6,3.9,29.3,0c16.5-5.6,27.4-18.6,25.5-29.3L461.1,1060.4z"/>
<path class="st3" d="M1243.7,1513.8l-182.3-95.5l102-185.6l182.3,95.5L1243.7,1513.8z"/>
<path class="st0" d="M1306.1,1480.2l-206.3,39.7l-32.5-204.9l206.3-39.7L1306.1,1480.2z"/>
<path class="st0" d="M1098.3,1522l-33.2-208.4h1.8l208.1-40.2l33.2,208.4l-1.8,0.3L1098.3,1522z M1069.2,1316.4l32.1,201.6
	l202.8-39.2l-32.1-201.4L1069.2,1316.4z"/>
<path class="st1" d="M1243.6,1303.6l-7.9-3.3l48.8-109.6l7.9,3.2L1243.6,1303.6z"/>
<path class="st4" d="M1327.5,1218.8l-85.9-35.6c8.9-20.2,35.5-28.4,59.2-18.4C1324.5,1174.7,1336.4,1198.8,1327.5,1218.8z"/>
<path class="st4" d="M1327.5,1220.5h-0.7l-85.9-35.8c-0.2-0.1-0.4-0.3-0.6-0.4c-0.2-0.2-0.3-0.4-0.3-0.6c-0.2-0.5-0.2-1,0-1.4
	c9.3-20.7,36.9-29.5,61.4-19.1c6.2,2.4,11.9,6.1,16.7,10.8c4.8,4.7,8.6,10.3,11.2,16.4c1.9,4.7,2.8,9.7,2.8,14.7
	c-0.1,5-1.1,10-3.1,14.6c-0.1,0.3-0.4,0.5-0.6,0.7C1328.1,1220.5,1327.8,1220.6,1327.5,1220.5L1327.5,1220.5z M1244.1,1182.1
	l82.5,34.4c3-8,2.8-16.9-0.5-24.8c-2.4-5.7-6-10.9-10.5-15.3s-9.7-7.8-15.5-10.1C1278,1157,1253.2,1164.2,1244.1,1182.1
	L1244.1,1182.1z"/>
<path class="st5" d="M1283.8,1158.9l32.8-73.8l33,13.7l-32.8,73.8C1305.4,1168.9,1294.4,1164.4,1283.8,1158.9L1283.8,1158.9z"/>
<path class="st4" d="M1369.5,1094.4l-63-26.3c-5.4,11.9,4.6,27.4,21.9,34.6C1345.8,1109.9,1364.2,1106.4,1369.5,1094.4z"/>
<path class="st4" d="M1346.3,1108.1c-6.4-0.1-12.7-1.3-18.6-3.7c-10.9-4.6-19.3-12.5-22.8-21.2c-1.1-2.5-1.7-5.2-1.7-7.9
	c0-2.7,0.5-5.4,1.6-7.9c0.2-0.4,0.5-0.7,1-0.9c0.4-0.2,0.9-0.2,1.3,0l63.2,26.3c0.2,0.1,0.5,0.2,0.7,0.4c0.2,0.2,0.3,0.4,0.4,0.7
	c0.1,0.2,0.1,0.4,0,0.6c0,0.2-0.1,0.4-0.2,0.6C1367.3,1103.6,1357.7,1108.1,1346.3,1108.1z M1307.3,1070.6
	c-1.1,3.8-0.8,7.8,0.9,11.4c3,7.7,10.9,14.9,20.9,19.1c15.6,6.5,32.1,3.9,37.9-5.8L1307.3,1070.6z"/>
<path class="st4" d="M1605.5,616.7l-61.6-9.3l15.5-61.5l61.8,9.3L1605.5,616.7z"/>
<path class="st3" d="M1605.5,616.7l-61.6-9.3l15.5-61.5l61.8,9.3L1605.5,616.7z"/>
<path class="st4" d="M1605.5,618.4h-0.2l-61.8-9.3c-0.2,0-0.5-0.1-0.7-0.2c-0.2-0.1-0.4-0.3-0.5-0.5c-0.2-0.4-0.3-0.9-0.2-1.4
	l15.5-61.5c0.1-0.4,0.4-0.8,0.8-1.1c0.4-0.3,0.8-0.4,1.3-0.3l61.6,9.3c0.2,0,0.5,0.1,0.7,0.2c0.2,0.1,0.4,0.3,0.5,0.5
	c0.3,0.4,0.4,0.9,0.3,1.4l-15.6,61.5c-0.1,0.4-0.3,0.8-0.6,1C1606.3,618.3,1605.9,618.4,1605.5,618.4z M1545.9,605.9l58.3,8.6
	l14.6-57.9l-58.1-8.8L1545.9,605.9z"/>
<path class="st0" d="M1845.8,610.2h-0.3l-211.4-31.6c-0.2,0-0.5-0.1-0.7-0.3c-0.2-0.1-0.4-0.3-0.5-0.5c-0.1-0.2-0.2-0.4-0.3-0.7
	c0-0.2,0-0.5,0-0.7c0.1-0.4,0.3-0.8,0.7-1.1c0.4-0.3,0.8-0.4,1.2-0.3l211.4,31.6c0.2,0,0.4,0.1,0.7,0.2c0.2,0.1,0.4,0.3,0.5,0.4
	c0.2,0.2,0.3,0.4,0.3,0.6c0.1,0.2,0.1,0.5,0.1,0.7c-0.1,0.4-0.3,0.8-0.6,1.1C1846.7,610,1846.3,610.1,1845.8,610.2z"/>
<path class="st0" d="M1797.9,627.5h-0.2l-170-25.5c-0.4-0.1-0.9-0.3-1.2-0.7c-0.3-0.4-0.4-0.8-0.4-1.3c0-0.2,0.1-0.5,0.2-0.7
	c0.1-0.2,0.3-0.4,0.5-0.6c0.2-0.1,0.4-0.3,0.7-0.3c0.2-0.1,0.5-0.1,0.7,0l170,25.5c0.4,0.1,0.8,0.3,1.1,0.7c0.3,0.4,0.4,0.8,0.3,1.2
	c-0.1,0.4-0.3,0.8-0.6,1.1C1798.7,627.3,1798.3,627.5,1797.9,627.5z"/>
<path class="st2" d="M1583.3,701.3l-61.6-9.3l15.5-61.5l61.8,9.3L1583.3,701.3z"/>
<path class="st4" d="M1583.3,701.3l-61.6-9.3l15.5-61.5l61.8,9.3L1583.3,701.3z"/>
<path class="st4" d="M1583.3,703h-0.2l-61.8-9.3c-0.2,0-0.5-0.1-0.7-0.2c-0.2-0.1-0.4-0.3-0.5-0.5c-0.2-0.4-0.3-0.9-0.2-1.4
	l15.5-61.5c0.1-0.4,0.4-0.8,0.8-1c0.4-0.2,0.9-0.3,1.3-0.2l61.6,9.1c0.5,0.2,1.1,0.4,1.2,0.9c0.3,0.4,0.4,0.9,0.3,1.4l-15.6,61.5
	c-0.1,0.4-0.3,0.7-0.7,0.9C1584.1,703,1583.7,703.1,1583.3,703L1583.3,703z M1523.8,690.6l58.3,8.8l14.6-58.1l-58.1-8.6
	L1523.8,690.6z"/>
<path class="st0" d="M1823.7,694.8h-0.3l-211.4-31.6c-0.4-0.1-0.8-0.3-1.1-0.7c-0.3-0.4-0.4-0.8-0.3-1.2c0.1-0.4,0.3-0.9,0.7-1.1
	c0.4-0.3,0.8-0.4,1.3-0.4l211.4,31.6c0.2,0,0.5,0.1,0.7,0.2c0.2,0.1,0.4,0.3,0.6,0.5c0.2,0.2,0.2,0.4,0.3,0.7c0.1,0.2,0.1,0.5,0,0.7
	c-0.1,0.4-0.3,0.8-0.6,1C1824.5,694.7,1824.1,694.8,1823.7,694.8z"/>
<path class="st0" d="M1775.8,712.2h-0.2l-170-25.5c-1.1,0-1.6-0.9-1.6-1.9c0-0.2,0.1-0.5,0.3-0.7c0.1-0.2,0.3-0.4,0.5-0.5
	c0.2-0.1,0.4-0.2,0.6-0.3c0.2,0,0.5,0,0.7,0l170,25.3c0.2,0,0.5,0.1,0.7,0.3c0.2,0.1,0.4,0.3,0.5,0.5c0.1,0.2,0.2,0.4,0.3,0.7
	c0,0.2,0,0.5,0,0.7c-0.1,0.4-0.3,0.8-0.6,1C1776.6,712.1,1776.2,712.2,1775.8,712.2z"/>
<path class="st4" d="M1562.3,791.7l-61.8-9.3l15.6-61.5l61.6,9.3L1562.3,791.7z"/>
<path class="st1" d="M1562.3,791.7l-61.8-9.3l15.6-61.5l61.6,9.3L1562.3,791.7z"/>
<path class="st0" d="M1802.5,785.2h-0.2l-211.4-31.6c-0.4-0.1-0.8-0.3-1.1-0.7c-0.3-0.4-0.4-0.8-0.4-1.3c0-0.2,0.1-0.5,0.2-0.7
	c0.1-0.2,0.3-0.4,0.5-0.6c0.2-0.2,0.4-0.3,0.7-0.3c0.2-0.1,0.5-0.1,0.7,0l211.4,31.6c0.2,0,0.5,0.1,0.7,0.3c0.2,0.1,0.4,0.3,0.5,0.5
	c0.1,0.2,0.2,0.4,0.3,0.7c0,0.2,0,0.5,0,0.7c0,0.2-0.1,0.4-0.2,0.6c-0.1,0.2-0.2,0.3-0.4,0.5c-0.2,0.1-0.3,0.2-0.6,0.3
	C1802.9,785.2,1802.7,785.2,1802.5,785.2L1802.5,785.2z"/>
<path class="st0" d="M1754.7,802.6h-0.3l-170-25.5c-0.3,0-0.5,0-0.8-0.1c-0.3-0.1-0.5-0.2-0.7-0.4c-0.2-0.2-0.3-0.4-0.4-0.7
	c-0.1-0.3-0.1-0.5-0.1-0.8c0-0.3,0.1-0.5,0.3-0.7c0.2-0.2,0.4-0.4,0.6-0.5s0.5-0.2,0.8-0.2c0.3,0,0.5,0,0.8,0.2l170,25.3
	c0.5,0.1,0.9,0.4,1.2,0.7c0.3,0.4,0.4,0.9,0.4,1.4c-0.1,0.4-0.3,0.8-0.6,1C1755.5,802.5,1755.1,802.6,1754.7,802.6z"/>
<path class="st2" d="M1540.1,876.4l-61.8-9.1l15.6-61.5l61.6,9.1L1540.1,876.4z"/>
<path class="st0" d="M1540.1,876.4l-61.8-9.1l15.6-61.5l61.6,9.1L1540.1,876.4z"/>
<path class="st0" d="M1541.4,878.5l-65.1-9.8l16.3-65l65.3,9.8L1541.4,878.5z M1480.4,865.6l58.3,8.8l14.8-57.9l-58.3-8.8
	L1480.4,865.6z"/>
<path class="st0" d="M1780.3,870h-0.2l-211.4-31.6c-0.2,0-0.4-0.1-0.6-0.2c-0.2-0.1-0.4-0.3-0.5-0.4c-0.1-0.2-0.2-0.4-0.3-0.6
	c0-0.2,0-0.5,0-0.7c0-1.1,0.9-1.6,1.9-1.6l211.4,31.8c0.2,0,0.4,0.1,0.6,0.2c0.2,0.1,0.4,0.3,0.5,0.4s0.2,0.4,0.3,0.6
	c0.1,0.2,0,0.5,0,0.7c-0.1,0.4-0.3,0.8-0.6,1C1781.2,869.9,1780.8,870,1780.3,870z"/>
<path class="st0" d="M1732.6,887.4h-0.4l-170-25.5c-0.2,0-0.4-0.1-0.7-0.3c-0.2-0.1-0.4-0.3-0.5-0.5c-0.1-0.2-0.2-0.4-0.3-0.7
	c0-0.2,0-0.5,0-0.7c0.1-0.4,0.3-0.8,0.7-1.1c0.3-0.3,0.8-0.4,1.2-0.3l170,25.5c0.2,0,0.5,0.1,0.7,0.2c0.2,0.1,0.4,0.2,0.5,0.4
	c0.2,0.2,0.3,0.4,0.3,0.6c0.1,0.2,0.1,0.4,0.1,0.7c0,0.2-0.1,0.5-0.2,0.7c-0.1,0.2-0.2,0.4-0.4,0.5c-0.2,0.2-0.4,0.3-0.6,0.4
	C1733.1,887.4,1732.8,887.4,1732.6,887.4L1732.6,887.4z"/>
</svg>
