<svg width="3000" height="3000" viewBox="0 0 3000 3000" fill="none" xmlns="http://www.w3.org/2000/svg">
<path d="M976.486 2470.69C1005.54 2470.69 1083.23 2472.58 1091.31 2470.52C1093.33 2470.18 1095.18 2469.16 1096.56 2467.63C1097.93 2466.1 1098.75 2464.15 1098.87 2462.1C1098.83 2459.83 1097.91 2457.67 1096.31 2456.07C1094.7 2454.47 1092.54 2453.55 1090.28 2453.5H977.689C976.05 2453.36 974.413 2453.79 973.048 2454.71C971.724 2455.56 970.585 2456.66 969.699 2457.96C968.813 2459.26 968.198 2460.73 967.892 2462.27C967.979 2464.51 968.918 2466.62 970.515 2468.19C972.113 2469.75 974.249 2470.65 976.486 2470.69Z" fill="#091C59"/>
<path d="M1338.66 2470.69H2528.82C2539.82 2470.69 2539.82 2453.5 2528.82 2453.5H1338.66C1327.66 2453.5 1327.66 2470.69 1338.66 2470.69Z" fill="#091C59"/>
<path d="M298.038 2470.69H590.766C601.767 2470.69 601.939 2453.5 590.766 2453.5H298.038C287.037 2453.33 286.865 2470.69 298.038 2470.69Z" fill="#091C59"/>
<path d="M2613.7 2507.69L1828.17 1147.1L1928.05 1089.44L2713.59 2450.02C2717.36 2456.55 2719.8 2463.76 2720.79 2471.23C2721.77 2478.71 2721.28 2486.3 2719.32 2493.59C2717.37 2500.87 2714.01 2507.7 2709.42 2513.68C2704.83 2519.66 2699.1 2524.68 2692.57 2528.45L2691.98 2528.79C2678.8 2536.35 2663.15 2538.37 2648.48 2534.42C2633.81 2530.46 2621.3 2520.85 2613.7 2507.69Z" fill="white"/>
<path d="M2663.58 2546.67C2651.67 2546.69 2639.96 2543.57 2629.64 2537.63C2619.32 2531.68 2610.75 2523.12 2604.8 2512.81L1819.26 1152.3C1818.58 1151.13 1818.14 1149.83 1817.97 1148.49C1817.79 1147.14 1817.88 1145.78 1818.23 1144.47C1818.58 1143.16 1819.19 1141.93 1820.01 1140.86C1820.84 1139.78 1821.87 1138.88 1823.04 1138.2L1922.91 1080.45C1924.08 1079.75 1925.37 1079.29 1926.72 1079.1C1928.07 1078.91 1929.44 1079 1930.76 1079.35C1932.08 1079.7 1933.31 1080.32 1934.38 1081.15C1935.45 1081.99 1936.35 1083.04 1937 1084.23L2722.54 2444.74C2727.03 2452.42 2729.95 2460.92 2731.13 2469.74C2732.31 2478.57 2731.73 2487.54 2729.42 2496.13C2722.2 2525.35 2693.15 2547.01 2663.58 2546.67ZM1842.29 1150.92L2622.67 2502.49C2642.1 2538.76 2700.02 2530.51 2709.48 2490.8C2711.09 2484.82 2711.5 2478.58 2710.67 2472.44C2709.85 2466.3 2707.8 2460.39 2704.66 2455.05L1924.28 1103.48L1842.29 1150.92Z" fill="#091C59"/>
<path d="M1153.56 2449.79L1939.1 1089.2L2038.39 1146.53L1252.85 2507.11C1249.09 2513.64 1244.07 2519.37 1238.08 2523.96C1232.1 2528.55 1225.28 2531.91 1217.99 2533.86C1210.71 2535.81 1203.12 2536.31 1195.64 2535.33C1188.17 2534.34 1180.96 2531.9 1174.43 2528.13C1161.29 2520.49 1151.72 2507.95 1147.81 2493.27C1143.9 2478.59 1145.97 2462.95 1153.56 2449.79Z" fill="white"/>
<path d="M1203.04 2546.32C1153.19 2547.87 1117.78 2487.71 1144.59 2444.74C1144.59 2444.74 1919.47 1063.78 1944.22 1080.45L2043.58 1137.86C2044.75 1138.54 2045.78 1139.44 2046.61 1140.51C2047.43 1141.59 2048.04 1142.82 2048.39 1144.12C2048.74 1145.43 2048.83 1146.8 2048.65 1148.14C2048.48 1149.49 2048.04 1150.78 2047.36 1151.96L1261.82 2512.46C1255.87 2522.78 1247.3 2531.34 1236.98 2537.28C1226.65 2543.23 1214.95 2546.35 1203.04 2546.32ZM1942.85 1103.48L1162.47 2455.05C1156.26 2465.89 1154.59 2478.74 1157.83 2490.8C1167.11 2530.34 1224.52 2538.25 1243.95 2502.15L2024.32 1150.58L1942.85 1103.48Z" fill="#091C59"/>
<path d="M2490.49 463.71H1384.55C1354.65 463.71 1330.41 487.952 1330.41 517.856V1519.51C1330.41 1549.41 1354.65 1573.65 1384.55 1573.65H2490.49C2520.39 1573.65 2544.63 1549.41 2544.63 1519.51V517.856C2544.63 487.952 2520.39 463.71 2490.49 463.71Z" fill="white"/>
<path d="M2008.17 381.891V464.398H1866.87V381.891C1866.87 377.697 1868.54 373.675 1871.51 370.709C1874.47 367.743 1878.49 366.077 1882.69 366.077H1992.35C1996.55 366.077 2000.57 367.743 2003.54 370.709C2006.5 373.675 2008.17 377.697 2008.17 381.891Z" fill="white"/>
<path d="M2490.49 453.397H2018.48V381.891C2018.48 374.962 2015.73 368.316 2010.83 363.416C2005.93 358.516 1999.28 355.764 1992.35 355.764H1882.69C1875.76 355.764 1869.11 358.516 1864.21 363.416C1859.31 368.316 1856.56 374.962 1856.56 381.891V453.397H1384.55C1367.46 453.397 1351.06 460.188 1338.97 472.277C1326.88 484.365 1320.09 500.76 1320.09 517.856V1519.63C1320.09 1536.72 1326.88 1553.12 1338.97 1565.21C1351.06 1577.3 1367.46 1584.09 1384.55 1584.09H2490.49C2507.58 1584.09 2523.98 1577.3 2536.07 1565.21C2548.16 1553.12 2554.95 1536.72 2554.95 1519.63V517.856C2554.95 500.76 2548.16 484.365 2536.07 472.277C2523.98 460.188 2507.58 453.397 2490.49 453.397ZM1877.19 381.891C1877.19 380.432 1877.77 379.033 1878.8 378.002C1879.83 376.97 1881.23 376.391 1882.69 376.391H1992.35C1993.81 376.391 1995.21 376.97 1996.24 378.002C1997.27 379.033 1997.85 380.432 1997.85 381.891V453.397H1877.19V381.891ZM2534.32 1519.63C2534.32 1531.25 2529.7 1542.4 2521.48 1550.62C2513.26 1558.84 2502.11 1563.46 2490.49 1563.46H1384.55C1372.93 1563.46 1361.78 1558.84 1353.56 1550.62C1345.34 1542.4 1340.72 1531.25 1340.72 1519.63V517.856C1340.72 506.231 1345.34 495.082 1353.56 486.862C1361.78 478.642 1372.93 474.024 1384.55 474.024H1863.26C1864.41 474.5 1865.64 474.735 1866.87 474.711H2008.17C2009.4 474.735 2010.63 474.5 2011.78 474.024H2490.49C2502.11 474.024 2513.26 478.642 2521.48 486.862C2529.7 495.082 2534.32 506.231 2534.32 517.856V1519.63Z" fill="#091C59"/>
<path d="M2708.27 1528.05H1156.45C1135.28 1528.05 1118.12 1545.21 1118.12 1566.38V1623.9C1118.12 1645.07 1135.28 1662.23 1156.45 1662.23H2708.27C2729.44 1662.23 2746.6 1645.07 2746.6 1623.9V1566.38C2746.6 1545.21 2729.44 1528.05 2708.27 1528.05Z" fill="white"/>
<path d="M2708.27 1672.61H1156.28C1143.41 1672.56 1131.08 1667.42 1122 1658.3C1112.91 1649.18 1107.81 1636.84 1107.81 1623.96C1109.18 1581.68 1095.26 1522.03 1156.28 1517.74H2708.27C2769.29 1522.21 2755.54 1581.16 2756.92 1623.96C2756.92 1636.87 2751.79 1649.24 2742.67 1658.36C2733.55 1667.48 2721.17 1672.61 2708.27 1672.61ZM1156.28 1538.36C1148.88 1538.41 1141.8 1541.38 1136.58 1546.63C1131.36 1551.88 1128.44 1558.98 1128.44 1566.38V1623.96C1128.44 1631.37 1131.36 1638.47 1136.58 1643.72C1141.8 1648.97 1148.88 1651.94 1156.28 1651.98H2708.27C2715.7 1651.98 2722.83 1649.03 2728.08 1643.78C2733.34 1638.52 2736.29 1631.4 2736.29 1623.96V1566.38C2736.29 1558.95 2733.34 1551.82 2728.08 1546.57C2722.83 1541.32 2715.7 1538.36 2708.27 1538.36H1156.28Z" fill="#091C59"/>
<path d="M1690 1197.33H1614.2C1609.26 1197.33 1605.26 1201.34 1605.26 1206.27V1389.59C1605.26 1394.53 1609.26 1398.53 1614.2 1398.53H1690C1694.94 1398.53 1698.94 1394.53 1698.94 1389.59V1206.27C1698.94 1201.34 1694.94 1197.33 1690 1197.33Z" fill="#F34886"/>
<path d="M1841.95 1111.91H1769.58C1763.7 1111.91 1758.93 1116.68 1758.93 1122.56V1387.79C1758.93 1393.67 1763.7 1398.45 1769.58 1398.45H1841.95C1847.84 1398.45 1852.61 1393.67 1852.61 1387.79V1122.56C1852.61 1116.68 1847.84 1111.91 1841.95 1111.91Z" fill="#F34886"/>
<path d="M2000.6 1010.32H1931.68C1924.84 1010.32 1919.3 1015.86 1919.3 1022.7V1386.1C1919.3 1392.94 1924.84 1398.48 1931.68 1398.48H2000.6C2007.44 1398.48 2012.98 1392.94 2012.98 1386.1V1022.7C2012.98 1015.86 2007.44 1010.32 2000.6 1010.32Z" fill="#F34886"/>
<path d="M2168.54 916.811H2102.36C2094.77 916.811 2088.61 922.968 2088.61 930.562V1384.69C2088.61 1392.29 2094.77 1398.45 2102.36 1398.45H2168.54C2176.13 1398.45 2182.29 1392.29 2182.29 1384.69V930.562C2182.29 922.968 2176.13 916.811 2168.54 916.811Z" fill="#F34886"/>
<path d="M2209.79 691.98C2208.88 690.972 2207.78 690.154 2206.55 689.574C2205.32 688.993 2203.99 688.662 2202.63 688.598C2201.27 688.534 2199.92 688.739 2198.64 689.201C2197.36 689.664 2196.19 690.374 2195.18 691.292L2073.66 803.364C2069.36 800.442 2027.42 745.437 2021.4 748.531C2019.99 748.537 2018.59 748.829 2017.29 749.39C2015.99 749.952 2014.81 750.77 2013.84 751.797L1897.3 872.12C1893.34 869.885 1835.59 809.38 1831.29 814.365C1829.84 814.424 1828.42 814.81 1827.14 815.495C1825.86 816.18 1824.76 817.145 1823.9 818.318L1599.07 1103.66L1606.29 1068.76C1606.56 1067.43 1606.57 1066.06 1606.31 1064.72C1606.05 1063.39 1605.53 1062.12 1604.78 1060.99C1604.03 1059.85 1603.06 1058.88 1601.93 1058.12C1600.81 1057.36 1599.54 1056.83 1598.21 1056.56C1596.88 1056.29 1595.51 1056.28 1594.17 1056.54C1592.84 1056.8 1591.57 1057.32 1590.44 1058.07C1589.3 1058.82 1588.33 1059.79 1587.57 1060.91C1586.81 1062.04 1586.28 1063.3 1586.01 1064.64L1570.36 1141.99C1567.96 1152.99 1583.26 1158.14 1591.16 1153.16L1649.61 1111.91C1650.73 1111.13 1651.69 1110.14 1652.43 1109C1653.17 1107.85 1653.67 1106.57 1653.91 1105.22C1654.15 1103.88 1654.12 1102.5 1653.82 1101.17C1653.53 1099.84 1652.97 1098.58 1652.18 1097.47C1644.79 1086.47 1632.24 1099.36 1625.2 1104L1833.18 839.805L1890.42 894.122C1892.44 895.937 1895.08 896.913 1897.8 896.849C1900.51 896.785 1903.1 895.686 1905.03 893.778L2020.71 774.143L2065.23 825.022C2066.15 826.056 2067.26 826.895 2068.51 827.491C2069.75 828.087 2071.1 828.427 2072.48 828.491C2073.86 828.556 2075.24 828.342 2076.53 827.865C2077.82 827.387 2079.01 826.654 2080.02 825.71L2209.11 706.59C2210.11 705.678 2210.93 704.576 2211.51 703.347C2212.09 702.118 2212.42 700.786 2212.49 699.428C2212.55 698.07 2212.35 696.713 2211.88 695.435C2211.42 694.157 2210.71 692.982 2209.79 691.98Z" fill="#474CDC"/>
<path d="M853.757 2346.76C894.52 2394.99 921.904 2453.08 933.17 2515.21C934.889 2525.35 936.264 2535.84 933.342 2545.81C926.638 2569.36 899.651 2580.19 876.103 2587.75L765.234 2623.85C723.637 2637.43 681.18 2651 637.52 2651.35C609.674 2648.25 586.125 2643.1 566.014 2624.36C473.881 2538.93 672.929 2521.4 664.335 2402.11L853.757 2346.76Z" fill="#F34886"/>
<path d="M938.67 2499.4C924.575 2441.13 898.792 2379.59 855.132 2338.34C790.502 2354.5 726.387 2375.81 662.1 2393.69C651.443 2397.47 657.803 2411.05 655.568 2419.47C654.424 2428.63 651.873 2437.56 648.005 2445.94C626.003 2501.12 541.262 2524.67 533.011 2580.19C534.042 2619.03 573.405 2646.88 608.127 2655.3C673.789 2670.43 738.763 2639.66 800.643 2621.44C863.039 2595.66 968.579 2594.11 938.67 2499.4ZM926.294 2537.21C926.277 2538.03 926.161 2538.83 925.951 2539.62C925.323 2544.14 923.613 2548.45 920.966 2552.17C920.622 2552.86 918.903 2554.75 918.387 2555.43C895.526 2578.98 854.444 2583.97 822.129 2596.34C770.906 2612.16 720.714 2632.44 667.601 2640.52C624.113 2648.43 568.764 2634.16 551.231 2589.64C541.09 2535.84 676.711 2505.59 673.101 2408.47L850.663 2356.56C891.573 2407.78 922.513 2471.38 926.294 2537.21Z" fill="#091C59"/>
<path d="M917.356 2470.69C912.715 2474.82 907.902 2478.77 903.089 2482.55C831.755 2537.56 737.388 2560.25 646.458 2572.62C628.238 2575.2 597.47 2577.26 579.249 2574.69C568.097 2573.22 557.178 2570.34 546.762 2566.09C542.465 2564.37 537.136 2567.98 536.105 2572.11C534.902 2594.28 604.517 2593.59 620.847 2592.39C701.978 2584.14 784.314 2568.33 857.71 2531.2C870.086 2523.81 945.202 2485.13 929.56 2470.69C928.761 2469.89 927.811 2469.25 926.763 2468.81C925.716 2468.38 924.593 2468.15 923.458 2468.15C922.324 2468.15 921.2 2468.38 920.153 2468.81C919.106 2469.25 918.155 2469.89 917.356 2470.69Z" fill="#091C59"/>
<path d="M635.629 2493.9C639.926 2493.04 651.099 2495.1 656.428 2497.68C661.756 2500.26 672.585 2506.79 674.648 2508.51C680.32 2512.12 690.978 2523.98 692.525 2526.04C698.369 2533.78 701.463 2539.45 703.525 2547.36C704.167 2549.55 705.64 2551.41 707.63 2552.53C709.621 2553.65 711.972 2553.96 714.183 2553.37C732.059 2544.43 705.244 2514.01 696.65 2505.07C679.633 2488.23 655.912 2473.61 631.16 2477.22C620.331 2479.97 624.8 2496.65 635.629 2493.9Z" fill="#474CDC"/>
<path d="M390.171 1093.34L377.795 1134.08C366.638 1170.5 358.701 1207.83 354.074 1245.64C339.807 1359.25 313.508 1605.06 298.726 1745.32C291.634 1812.35 307.512 1879.8 343.761 1936.63L664.678 2436.83L858.398 2355.35L514.963 1805.65L580.453 1337.08L606.064 1339.66L650.412 1892.8L686.165 2534.81L882.291 2523.46C882.291 2523.46 882.291 2032.89 878.337 1869.42C877.134 1815.62 840.178 1442.62 828.833 1323.5L842.068 1168.46L845.506 1147.14L843.444 1114.14L747.357 1056.9L442.425 1058.96C442.425 1058.96 389.827 1082.86 390.171 1093.34Z" fill="#474CDC"/>
<path d="M890.885 2453.5C887.791 2187.76 899.308 1921.16 868.711 1656.62C858.914 1544.72 846.881 1433 837.771 1321.1C842.928 1266.78 845.506 1212.12 852.382 1157.97C854.273 1146.63 853.413 1136.31 852.726 1124.8C852.554 1119.81 853.241 1111.91 849.632 1107.95C825.051 1092.48 799.44 1078.22 774.688 1063.09C767.297 1058.79 759.905 1053.46 752.17 1049.85C730.856 1046.07 708.167 1049.68 686.508 1048.82L509.978 1049.85C486.773 1050.37 463.396 1049.51 440.191 1050.71C429.705 1054.84 419.736 1060.68 409.766 1065.84C378.139 1081.31 381.404 1095.58 371.435 1125.49C335.166 1250.96 332.244 1383.15 315.055 1512.06C306.804 1600.93 293.225 1689.45 288.412 1778.49C285.834 1894.86 367.997 1984.59 424.033 2079.13C498.404 2196.36 572.889 2313.47 647.49 2430.47C649.552 2433.91 651.615 2438.55 654.537 2441.3C657.459 2444.05 666.569 2444.57 671.898 2445.25C673.445 2471.9 674.82 2498.54 676.367 2525.01C676.367 2527.29 677.272 2529.48 678.884 2531.09C680.496 2532.7 682.682 2533.6 684.961 2533.6L857.71 2532.23C868.196 2530.17 888.65 2538.07 890.885 2523.46V2453.5ZM850.491 1169.49C850.319 1170.18 850.319 1170.52 850.491 1169.49V1169.49ZM873.696 2514.87L709.37 2516.24H693.04C673.617 2123.48 649.036 1731.22 614.659 1339.49C612.08 1325.74 593.344 1331.07 582.343 1328.66L548.997 1303.73C543.153 1296.34 527.682 1304.25 536.277 1315.42C548.481 1323.67 559.998 1335.02 571.171 1341.72C560.399 1420.1 549.455 1498.54 538.34 1577.04C529.745 1654.73 511.869 1733.46 508.087 1810.81C554.841 1886.44 599.36 1965.34 649.724 2037.87C656.829 2168.05 663.934 2298.12 671.038 2428.06L665.71 2427.2C567.389 2272.85 469.24 2118.38 371.263 1963.79C301.82 1872.17 297.007 1776.26 315.571 1666.94C341.698 1476.14 341.698 1279.67 398.422 1094.89C411.657 1082.51 429.877 1072.89 446.723 1067.56L547.278 1066.87C613.112 1066.53 679.117 1065.84 744.951 1065.67C775.203 1083.2 805.112 1101.42 835.193 1119.13C836.052 1135.97 837.427 1151.96 833.474 1168.46C829.349 1211.26 826.426 1254.23 822.473 1297.03C823.504 1438.32 848.428 1579.79 857.539 1721.08C883.494 1984.76 869.399 2250.33 873.696 2514.87ZM580.796 1396.9C583.031 1380.05 585.437 1363.21 587.844 1346.36L598.157 1347.39C614.487 1566.9 636.317 1785.88 648.005 2005.73C606.293 1938.69 564.868 1871.31 523.729 1803.59C542.751 1668.14 561.774 1532.58 580.796 1396.9Z" fill="#091C59"/>
<path d="M712.979 1154.36C710.057 1176.88 720.371 1199.4 733.09 1217.27C740.997 1228.62 793.424 1289.98 803.909 1265.4C804.214 1264.25 804.281 1263.05 804.105 1261.87C803.93 1260.69 803.516 1259.56 802.888 1258.55C802.261 1257.53 801.433 1256.66 800.456 1255.97C799.479 1255.29 798.373 1254.82 797.205 1254.57C796.002 1254.23 799.268 1255.61 798.58 1255.09C793.679 1252.7 789.065 1249.76 784.829 1246.32C767.812 1234.12 742.201 1205.24 735.497 1187.19C730.512 1174.65 728.793 1167.08 730.168 1154.36C731.543 1141.64 713.151 1143.19 712.979 1154.36Z" fill="#091C59"/>
<path d="M452.395 1176.19C448.098 1185.13 443.8 1194.07 437.784 1201.98L438.3 1201.46C435.61 1205.04 432.493 1208.27 429.018 1211.09L429.534 1210.57C427.14 1212.32 424.611 1213.87 421.97 1215.21H421.627C419.071 1216.22 416.423 1216.96 413.72 1217.45C412.86 1217.45 412.86 1217.45 414.063 1217.27C411.908 1217.7 409.688 1217.7 407.532 1217.27C398.422 1212.12 385.53 1225.7 399.969 1233.09C432.456 1242.03 456.348 1211.26 467.177 1184.62C472.85 1174.99 457.895 1166.22 452.395 1176.02V1176.19Z" fill="#091C59"/>
<path d="M922.513 412.315C958.781 520.606 890.541 615.489 831.583 657.602C802.878 678.228 767.125 689.573 722.777 699.199C614.487 722.92 519.947 893.778 403.922 848.915C240.455 785.831 190.951 619.614 303.367 540.545C395.843 475.399 426.096 379.485 502.587 321.558C639.239 218.252 839.662 164.795 922.513 412.315Z" fill="#091C59"/>
<path d="M751.654 588.674C751.654 588.674 730.856 669.978 780.36 744.578C795.83 768.127 724.152 793.566 659.694 785.144C595.235 776.721 542.293 735.812 560.341 715.185C618.268 648.664 637.348 572.173 637.348 572.173L751.654 588.674Z" fill="white"/>
<path d="M685.649 797.176C631.504 798.379 523.901 760.392 552.435 708.309C613.455 635.256 625.316 574.579 629.613 560.656L638.723 562.031L764.546 580.252C761.796 596.753 739.794 657.602 788.955 738.906C807.519 781.362 735.669 795.801 685.649 797.176ZM644.739 583.689C637.864 606.379 615.862 667.056 568.077 721.888C567.561 743.203 611.908 766.924 661.069 775.002C710.229 783.081 763.171 766.064 771.594 752.657C734.122 691.464 733.778 623.396 739.45 597.44L644.739 583.689Z" fill="#091C59"/>
<path d="M1267.84 785.831C1287.43 784.8 1281.59 765.892 1295.86 750.594L1313.91 697.824C1314.51 696.132 1314.73 694.327 1314.56 692.539C1314.38 690.751 1313.81 689.024 1312.89 687.48C1311.97 685.937 1310.73 684.615 1309.24 683.61C1307.75 682.605 1306.05 681.942 1304.28 681.666L1278.84 677.541C1275.9 677.079 1272.89 677.694 1270.36 679.272C1267.83 680.851 1265.96 683.288 1265.09 686.135C1265.09 686.135 1246.87 743.89 1240.34 779.3C1239.13 808.005 1241.54 842.555 1224.69 839.289C1173.82 875.042 1072.74 953.596 1014.82 997.427L918.044 884.84L907.043 962.706L874.556 1070.14L920.45 1135.45C947.093 1173.1 995.91 1189.08 1038.88 1172.58C1050.68 1168.03 1061.57 1161.39 1071.03 1152.99C1152.33 1079.93 1288.81 925.406 1332.98 878.652C1308.06 837.226 1304.97 816.428 1267.84 785.831Z" fill="white"/>
<path d="M1227.96 828.632C1227.79 828.632 1227.62 829.148 1227.62 829.491C1227.62 829.835 1227.79 828.976 1227.96 828.632Z" fill="#091C59"/>
<path d="M1340.55 874.355C1322.84 844.961 1309.95 811.959 1284 788.582C1290.53 782.909 1292.42 774.143 1295.68 766.58C1307.37 749.219 1312.01 728.592 1319.23 708.997C1325.94 696.449 1324.05 678.916 1308.92 673.931C1292.93 672.04 1271.1 661.727 1259.59 678.057C1247.56 709.169 1239.82 742.171 1232.6 774.659C1229.68 792.535 1233.46 811.271 1227.96 828.632C1228.13 828.46 1227.44 829.491 1227.62 829.663C1227.79 829.835 1227.62 829.491 1227.62 829.491L1226.59 830.867C1216.96 830.523 1210.26 840.492 1202.18 844.961C1183.1 858.884 1164.02 873.151 1145.11 887.418C1101.97 920.077 1059.16 953.08 1016.02 985.739L924.232 878.824C920.278 874.183 910.652 876.245 909.793 882.605C907.043 902.716 904.121 922.656 901.37 942.595C896.386 979.895 880.744 1014.96 871.29 1051.23C863.383 1071.51 865.102 1073.23 877.993 1090.08C902.058 1121.88 920.622 1162.1 959.641 1178.26C989.034 1191.15 1023.76 1190.8 1052.46 1175.85C1106.95 1140.44 1148.2 1087.15 1194.1 1041.77C1239.82 993.474 1284.34 943.97 1329.55 894.981C1334.19 888.793 1345.02 883.121 1340.55 874.355ZM1226.24 831.038H1226.41L1225.9 831.382L1226.24 831.038ZM1059.68 1151.1C1059.34 1151.61 1059.51 1151.27 1059.68 1151.1V1151.1ZM1297.06 904.951C1233.63 974.222 1170.72 1043.84 1104.03 1109.84C1060.71 1155.91 1013.96 1194.24 951.218 1154.02C921.997 1132.19 906.355 1096.95 883.838 1068.76C900.339 1014.62 918.903 961.503 924.06 904.951L996.769 989.521C998.76 991.621 1000.6 993.861 1002.27 996.224L979.408 1013.07C973.021 1017.67 966.882 1022.6 961.016 1027.85C958.608 1030.03 956.368 1032.39 954.312 1034.9C951.39 1038.34 950.703 1043.67 954.312 1047.1C957.922 1050.54 963.422 1050.71 966.516 1047.1C970.218 1042.57 974.428 1038.47 979.064 1034.9L980.955 1033.35L981.986 1032.66H981.815L986.799 1029.06L999.863 1019.26C1007.08 1013.93 1014.13 1008.77 1021.18 1003.27L1021.86 1002.76C1090.28 951.017 1157.66 897.903 1227.27 847.883C1255.98 842.555 1245.84 801.473 1248.93 780.159C1255.5 748.761 1263.88 717.769 1274.03 687.339C1280.39 683.729 1305.14 689.058 1306 693.183C1298.95 720.17 1287.61 745.265 1275.75 770.533C1275.92 770.361 1272.65 776.377 1271.28 776.549C1262.85 776.549 1254.78 783.941 1261.82 791.848C1271.45 799.646 1280.21 808.464 1287.95 818.147C1301.7 836.539 1310.64 857.853 1322.33 877.449L1297.06 904.951Z" fill="#091C59"/>
<path d="M376.592 983.332L375.216 989.005C366.464 1024.93 361.623 1061.7 360.778 1098.67C360.778 1102.62 360.778 1106.58 362.669 1109.84C363.671 1111.52 365.043 1112.96 366.681 1114.03C368.32 1115.1 370.18 1115.79 372.122 1116.03C375.045 1100.39 391.718 1090.42 407.532 1089.39C423.346 1088.36 437.784 1093.86 452.395 1098.84C510.322 1119.13 573.405 1135.28 632.707 1119.13C646.286 1115.34 659.35 1110.02 672.929 1105.72C687.393 1101.26 702.239 1098.15 717.277 1096.44C739.966 1093.86 764.031 1094.89 783.97 1105.72C807.862 1118.44 862.695 1146.46 867.164 1154.19C872.321 1143.02 862.18 1092.65 865.445 1073.4C866.992 1063.43 878.337 1089.04 878.337 1089.04C918.731 995.708 901.886 918.358 941.592 871.432C921.825 859.916 866.305 790.3 833.302 756.438C816.285 739.077 786.892 705.559 764.202 713.982L761.108 717.935C738.935 749.047 704.213 774.659 666.054 772.424C644.911 771.049 624.8 761.079 609.33 746.469C593.86 731.858 582.859 712.95 575.64 692.839C545.903 690.605 516.338 701.777 490.726 717.247C415.954 762.111 373.154 984.02 376.592 983.332Z" fill="#F34886"/>
<path d="M949.156 867.479C948.793 866.737 948.264 866.09 947.609 865.588C946.353 864.166 944.836 862.999 943.14 862.15C899.995 831.554 811.644 688.542 761.796 705.559C736.7 733.061 712.636 763.83 671.382 764.001C634.254 764.173 603.83 735.64 589.047 702.809C584.922 696.449 585.094 684.932 575.64 684.245C436.581 679.775 400.828 840.32 373.841 947.579C372.122 959.096 333.104 1120.5 369.888 1124.45C377.795 1126.34 381.061 1118.61 381.404 1114.48C383.114 1110.91 385.576 1107.74 388.624 1105.2C390.468 1103.84 392.423 1102.63 394.468 1101.59L396.015 1100.9C398.515 1099.87 401.104 1099.06 403.75 1098.5H405.641C425.752 1096.26 445.691 1106.06 464.943 1112.42C522.182 1131.5 585.781 1144.22 644.567 1124.63C680.664 1111.56 720.027 1099.01 758.702 1106.06C786.033 1112.94 808.894 1129.95 833.99 1142.5L844.475 1148.52C843.478 1149.91 842.9 1151.55 842.808 1153.26C842.717 1154.96 843.116 1156.66 843.959 1158.14C850.491 1167.43 874.556 1168.11 875.759 1155.05C876.962 1141.99 875.587 1116.2 873.868 1096.61C877.822 1098.84 884.009 1097.81 885.728 1093.51C914.262 1034.73 913.059 961.502 932.826 903.404C933.585 904.676 934.648 905.739 935.92 906.498C954.14 912.686 956.203 877.792 949.156 867.479ZM906.183 935.891C898.105 980.582 893.12 1026.65 877.134 1069.45L874.556 1066.7C878.165 1017.88 879.368 968.722 880.056 919.733C880.056 908.732 862.867 908.56 862.867 919.733C862.351 970.441 860.804 1021.32 857.023 1071.86C854.273 1093.69 859.429 1115.69 859.945 1137.52C840.693 1123.94 817.66 1114.83 797.549 1102.97C754.577 1075.98 700.947 1086.81 655.74 1102.28C597.813 1126.69 533.87 1116.72 475.772 1097.47C443.628 1084.58 390.515 1066.87 369.544 1100.9C369.544 1062.06 406.328 838.258 469.24 748.875C474.91 741.709 481.24 735.09 488.148 729.108C511.869 712.606 540.574 700.574 569.624 700.918C607.955 797.52 710.745 806.974 769.359 721.029C770.201 720.813 771.075 720.755 771.937 720.857C772.797 720.857 775.719 721.373 773.485 720.857C776.126 721.362 778.716 722.11 781.22 723.092C836.224 755.923 876.446 827.944 929.732 872.636C916.84 891.543 910.309 913.545 906.183 935.891Z" fill="#091C59"/>
<path d="M829.864 889.825C829.046 888.776 828.004 887.924 826.815 887.329C825.625 886.734 824.318 886.412 822.989 886.387C808.378 884.496 785.517 878.136 769.875 869.713C744.779 853.384 736.528 854.243 731.2 885.699C725.871 917.155 728.278 960.643 757.499 981.785C775.032 992.786 801.331 989.177 814.738 973.535C828.145 957.893 827.114 938.297 828.661 919.733C827.458 909.936 834.161 898.763 829.864 889.825ZM805.628 956.002C805.456 956.346 805.456 956.174 805.628 956.002V956.002ZM810.956 926.437C809.409 940.532 809.409 959.44 795.658 967.347C785.689 971.816 773.141 972.847 764.202 965.628C746.154 949.986 742.888 905.81 750.108 878.48C769.533 889.962 790.829 897.934 813.019 902.029C811.816 910.107 811.472 918.358 810.956 926.437Z" fill="#474CDC"/>
<path d="M664.335 602.081L750.967 675.306C750.967 675.306 745.638 602.941 748.561 602.253C751.483 601.566 680.836 605.176 672.585 603.629L664.335 602.081Z" fill="#091C59"/>
<path d="M553.294 432.598C555.446 417.199 559.847 402.199 566.358 388.079C558.624 384.134 550.123 381.925 541.447 381.606C532.772 381.286 524.131 382.865 516.129 386.231C508.127 389.597 500.955 394.669 495.116 401.093C489.277 407.517 484.911 415.139 482.322 423.425C479.733 431.712 478.985 440.463 480.128 449.069C481.272 457.675 484.281 465.927 488.944 473.25C493.607 480.572 499.813 486.789 507.127 491.465C514.441 496.141 522.688 499.164 531.292 500.323C540.493 501.501 549.841 500.561 558.623 497.573C552.256 476.538 550.44 454.389 553.294 432.598Z" fill="white"/>
<path d="M539.371 511.152C497.43 511.496 464.083 473.508 469.928 431.911C476.459 380 536.965 355.076 579.765 383.438C572.03 399.252 565.842 416.097 563.607 433.974C560.17 457.866 563.607 481.587 571.342 504.104C561.201 507.886 550.028 511.496 539.371 511.152ZM539.199 392.033C470.1 394.439 476.803 496.885 545.903 490.01C538.56 457.967 540.893 424.466 552.606 393.751C548.235 392.579 543.725 392 539.199 392.033Z" fill="#091C59"/>
<path d="M859.123 470.194C868.763 385.588 807.99 309.186 723.383 299.547C638.777 289.907 562.375 350.679 552.735 435.286C543.096 519.893 603.868 596.294 688.475 605.934C773.081 615.574 849.483 554.801 859.123 470.194Z" fill="white"/>
<path d="M706.276 617.552C474.912 609.473 497.945 266.897 728.106 289.93C929.732 320.526 908.933 614.114 706.276 617.552ZM705.932 309.01C636.145 307.978 571.514 364.186 563.607 433.974C541.777 621.849 820.41 659.149 848.772 472.133L859.085 473.508L848.772 472.133C862.179 388.423 790.502 306.947 705.932 309.01Z" fill="#091C59"/>
<path d="M531.636 471.961L529.229 471.445C528.047 470.759 527.174 469.645 526.79 468.334C526.406 467.022 526.541 465.613 527.167 464.398C529.573 459.585 529.745 456.835 529.058 455.632C528.37 454.428 525.276 453.397 518.916 453.741C517.059 453.874 515.203 453.456 513.582 452.539C511.961 451.621 510.648 450.245 509.806 448.584C506.54 442.052 510.494 432.427 515.478 426.238C522.87 417.3 533.355 413.691 543.668 416.441C544.968 416.84 546.065 417.721 546.736 418.904C547.407 420.086 547.601 421.48 547.278 422.801C547.121 423.469 546.827 424.098 546.415 424.647C546.004 425.197 545.483 425.655 544.886 425.994C544.289 426.333 543.628 426.545 542.945 426.617C542.263 426.688 541.572 426.618 540.918 426.41C532.667 424.176 526.651 429.161 523.901 432.255C521.089 435.351 519.343 439.267 518.916 443.427C528.37 442.912 534.558 445.318 537.824 450.131C541.09 454.944 541.262 459.585 536.277 469.211C535.833 470.053 535.164 470.756 534.345 471.241C533.526 471.727 532.588 471.976 531.636 471.961Z" fill="#091C59"/>
<path d="M740.851 426.526C742.366 415.812 740.471 406.684 736.618 406.139C732.764 405.595 728.412 413.838 726.897 424.552C725.382 435.266 727.278 444.393 731.131 444.938C734.984 445.483 739.336 437.24 740.851 426.526Z" fill="#091C59"/>
<path d="M810.711 441.018C812.226 430.304 810.33 421.176 806.477 420.631C802.624 420.087 798.272 428.33 796.757 439.044C795.242 449.758 797.137 458.885 800.99 459.43C804.844 459.975 809.196 451.732 810.711 441.018Z" fill="#091C59"/>
<path d="M750.623 481.587C774.344 456.835 802.018 492.932 779.844 493.447C779.303 493.289 778.735 493.24 778.174 493.301C777.613 493.362 777.07 493.533 776.575 493.805C776.08 494.076 775.644 494.442 775.29 494.882C774.937 495.322 774.674 495.828 774.516 496.369C776.235 512.011 806.143 496.369 793.424 476.946C782.767 460.616 756.639 461.132 744.607 475.399C740.654 479.352 746.842 485.54 750.623 481.587Z" fill="#091C59"/>
<path d="M876.79 383.266C849.632 345.622 830.552 299.04 789.298 274.288C727.246 241.629 644.911 263.975 590.594 303.681C572.374 316.917 515.65 367.108 561.373 377.938C599.017 400.455 665.538 373.468 693.384 343.044C700.603 334.449 712.807 328.777 721.23 339.09C735.148 353.165 750.802 365.41 767.812 375.531C787.408 385.844 851.866 423.832 867.164 399.252C869.145 398.651 870.827 397.328 871.878 395.545C872.928 393.762 873.271 391.65 872.837 389.626C875.759 388.938 878.681 386.36 876.79 383.266Z" fill="#091C59"/>
<path d="M708.338 487.775C707.307 501.182 725.527 502.901 733.262 508.917C740.997 514.934 743.404 529.028 754.061 530.747C759.561 530.919 759.561 522.325 754.061 522.153C755.092 522.153 754.233 522.325 754.061 521.981C753.889 521.637 754.749 521.981 754.405 522.153L754.061 521.809C740.31 503.245 743.748 503.589 717.964 491.213C717.277 490.869 717.105 490.697 716.417 487.259C715.73 483.821 709.542 483.65 708.338 487.775Z" fill="#091C59"/>
<path d="M761.108 488.463C760.781 487.603 760.176 486.876 759.389 486.4C756.295 483.821 751.654 481.759 749.936 486.744C748.217 491.728 752.342 491.9 754.577 493.619C756.811 495.338 762.999 492.244 761.108 488.463Z" fill="#091C59"/>
<path d="M778.126 567.188L772.453 566.672C772.281 566.672 772.281 566.5 772.281 566.328C772.794 564.571 772.916 562.723 772.639 560.913C772.362 559.103 771.692 557.376 770.676 555.853C769.661 554.33 768.324 553.047 766.76 552.095C765.197 551.144 763.444 550.545 761.624 550.343L727.074 546.733C726.902 546.733 726.902 546.733 726.902 546.561C727.023 545.712 726.97 544.847 726.747 544.019C726.524 543.191 726.136 542.416 725.606 541.742C725.076 541.067 724.415 540.507 723.663 540.095C722.911 539.682 722.084 539.426 721.23 539.342L684.961 535.388C681.964 535.093 678.96 535.885 676.499 537.621C674.037 539.356 672.282 541.92 671.554 544.842L651.443 626.318C648.095 640.172 642.209 653.285 634.082 664.993L619.987 685.792C619.987 685.837 619.969 685.881 619.937 685.913C619.905 685.945 619.861 685.964 619.815 685.964C619.77 685.964 619.726 685.945 619.694 685.913C619.661 685.881 619.643 685.837 619.643 685.792L618.268 625.63C618.232 623.807 617.794 622.014 616.984 620.38C616.175 618.746 615.014 617.311 613.585 616.177C612.156 615.044 610.494 614.241 608.719 613.824C606.943 613.408 605.098 613.39 603.314 613.77L578.218 618.583C575.277 619.2 572.662 620.866 570.859 623.269C569.056 625.673 568.189 628.651 568.42 631.646L578.562 751.969C565.326 786.347 540.059 871.432 515.994 955.83L511.181 954.627C507.056 958.924 499.321 958.237 493.82 955.314C488.32 952.392 485.57 949.47 481.1 947.236L470.443 944.485C463.052 944.657 455.489 948.095 447.926 950.33C438.472 997.256 427.643 1062.75 437.269 1116.72C449.129 1183.93 533.527 1225.18 570.311 1181.35C625.144 1115.69 688.055 771.908 690.634 747.328C692.525 745.609 758.358 683.213 788.611 583.345C789.122 581.59 789.248 579.746 788.982 577.937C788.716 576.129 788.063 574.399 787.068 572.866C786.073 571.332 784.759 570.031 783.216 569.052C781.673 568.072 779.937 567.436 778.126 567.188Z" fill="white"/>
<path d="M564.639 1174.82L565.498 1173.79C564.639 1174.65 564.467 1174.82 564.639 1174.82Z" fill="#091C59"/>
<path d="M484.71 807.318C484.71 807.489 484.538 807.49 484.538 807.661C484.538 807.833 485.226 806.63 484.71 807.318Z" fill="#091C59"/>
<path d="M516.338 946.376C514.703 945.407 512.785 945.032 510.906 945.314C509.027 945.595 507.302 946.517 506.024 947.923C504.842 948.777 503.414 949.222 501.956 949.191C500.498 949.16 499.09 948.655 497.946 947.751C472.162 929.531 466.834 936.407 438.987 943.97C445.954 908.754 455.903 874.194 468.724 840.664C473.193 829.319 477.663 817.803 484.538 807.661L484.194 808.005C487.46 804.567 488.664 798.723 484.71 795.113C480.757 791.504 475.6 791.504 472.506 795.113C463.911 805.599 458.755 819.006 453.942 831.382C447.582 847.712 442.081 864.213 437.097 880.886C432.112 897.56 428.502 911.139 424.893 926.437C418.361 949.986 419.392 967.519 449.129 959.096C457.723 957.033 466.49 951.361 475.428 954.111C486.257 960.299 497.946 970.613 511.181 964.768C518.916 961.846 525.104 952.049 516.338 946.376ZM475.6 954.111L476.116 954.455L475.6 954.111Z" fill="#091C59"/>
<path d="M795.143 569.594C793.702 566.89 791.672 564.543 789.202 562.728C786.733 560.913 783.887 559.676 780.876 559.109C777.094 537.279 750.279 541.748 733.778 538.826C726.731 526.45 697.509 527.825 690.634 527.481C681.008 526.794 671.038 528.169 665.882 536.592C658.319 555.156 655.912 575.954 650.24 595.378C644.567 614.801 640.614 640.241 627.55 659.149C626.691 645.913 628.41 632.162 625.66 619.099C623.784 613.952 620.028 609.708 615.148 607.22C610.268 604.733 604.627 604.186 599.36 605.691C590.078 607.926 580.453 608.613 571.514 612.051C562.576 615.489 558.451 626.662 560.17 636.116C563.436 674.447 566.701 712.607 569.795 750.938C546.762 815.053 528.886 880.886 509.806 946.376C504.821 947.236 468.037 932.797 445.691 942.251C444.252 942.645 442.941 943.407 441.886 944.462C440.832 945.517 440.069 946.828 439.675 948.267C431.081 990.724 424.033 1034.21 424.893 1077.7C424.377 1114.31 433.487 1152.82 461.505 1178.26C490.898 1207.82 547.45 1223.46 577.359 1186.51C595.923 1162.27 605.892 1132.53 616.206 1103.83C653.506 989.177 678.258 870.401 698.713 751.454C734.465 714.374 763.076 671.021 783.11 623.568C787.923 608.27 802.878 584.549 795.143 569.594ZM697.509 752.657C696.822 753.86 696.65 753.516 697.509 752.657V752.657ZM780.532 580.595C778.985 586.096 776.407 593.315 774.516 598.988C754.982 652.217 724.337 700.676 684.618 741.14C680.836 745.781 681.867 752.313 680.492 757.813C668.288 828.46 653.506 898.763 636.66 968.378C624.456 1017.88 611.393 1067.04 594.032 1114.83C586.297 1135.28 578.218 1155.91 565.498 1173.79H565.67C558.451 1183.58 545.731 1189.77 537.48 1190.63C510.322 1193.73 484.194 1178.77 466.834 1158.83C425.236 1113.28 445.691 1012.04 455.661 955.658C455.661 955.658 467.521 952.908 468.381 953.08C469.24 953.252 474.74 951.877 477.835 952.564C478.607 953.809 479.241 955.135 479.725 956.518C486.429 961.503 494.68 966.315 503.102 966.487C499.149 977.488 495.539 988.489 492.273 999.662C491.07 1004.13 489.867 1008.43 489.007 1012.9C488.148 1017.37 490.211 1022.35 495.023 1023.55C499.836 1024.76 504.821 1022.35 505.681 1017.54C507.481 1008.73 509.894 1000.06 512.9 991.583C515.65 982.874 518.572 974.108 521.666 965.284L523.729 959.784L524.245 958.237C542.121 895.841 559.826 833.273 580.624 771.736C588.188 752.829 588.016 750.938 585.437 730.827C582.515 697.824 579.765 664.649 577.015 631.647V629.928C577.874 625.63 587.672 626.146 591.282 624.771C594.891 623.396 601.251 622.536 606.236 622.021L607.611 622.536C608.127 622.708 608.986 623.911 609.158 624.083C609.361 624.47 609.533 624.873 609.674 625.287V624.943C610.018 644.71 610.533 664.306 611.049 683.901C610.757 686.095 611.179 688.325 612.252 690.261C624.456 704.528 633.395 678.916 640.27 671.353C649.235 658.33 655.865 643.848 659.866 628.553L679.977 546.389L680.664 545.358C681.071 544.853 681.601 544.462 682.203 544.221C682.805 543.98 683.459 543.898 684.102 543.983C695.275 545.358 706.448 546.217 717.62 547.593C714.011 559.109 710.229 570.626 706.448 581.97C701.635 596.925 696.822 612.051 691.665 627.005L689.087 634.569C688.743 635.428 688.571 636.287 688.227 636.975L687.884 637.835C687.712 638.178 687.883 638.178 688.055 637.835C686.852 641.616 687.712 646.085 691.665 648.148C695.619 650.211 701.291 649.351 703.354 645.054C704.982 641.487 706.36 637.811 707.479 634.053L714.011 614.458L729.481 566.844C730.684 563.234 731.887 559.625 732.919 556.015C742.544 557.046 751.998 557.734 761.452 559.109L762.484 559.625L763.343 560.484L763.859 561.344C763.859 561.687 764.031 562.719 764.202 562.547C764.374 562.375 764.031 564.266 764.202 563.235C764.022 564.257 763.907 565.291 763.859 566.329C755.264 588.502 745.467 610.332 737.388 632.678C735.497 637.835 733.606 643.163 732.231 648.492C731.827 649.603 731.657 650.786 731.732 651.966C731.806 653.146 732.123 654.298 732.663 655.35C733.202 656.402 733.954 657.331 734.869 658.079C735.784 658.828 736.844 659.379 737.982 659.699C739.12 660.019 740.312 660.101 741.484 659.94C742.655 659.778 743.78 659.377 744.789 658.76C745.798 658.144 746.669 657.326 747.348 656.358C748.026 655.389 748.498 654.292 748.732 653.133C751.483 642.304 755.952 631.647 760.077 621.333C764.202 611.02 770.219 596.237 775.375 583.689C776.407 581.283 777.266 578.876 778.297 576.298C779.136 576.61 779.829 577.222 780.242 578.016C780.655 578.81 780.758 579.729 780.532 580.595Z" fill="#091C59"/>
<path d="M680.32 2458.66C641.038 2508.15 615.38 2567.05 605.892 2629.52C604.345 2639.66 603.314 2650.32 606.58 2660.11C614.143 2683.32 641.301 2693.46 665.022 2700.34L776.922 2733C818.863 2745.37 861.836 2757.75 905.496 2756.72C933.17 2752.94 956.547 2746.92 976.142 2727.67C1065.7 2639.49 879.884 2630.38 884.869 2510.74L680.32 2458.66Z" fill="#F34886"/>
<path d="M998.66 2654.61C964.282 2612.16 901.199 2587.75 894.151 2527.42V2527.76C893.979 2499.74 892.604 2503.87 866.821 2497.34L707.823 2456.77C697.166 2456.08 680.836 2444.22 672.929 2454.36C636.145 2499.05 577.187 2616.8 602.97 2672.66C624.628 2709.79 722.777 2722.34 765.578 2738.67C824.708 2755 889.854 2779.23 950.015 2754.65C986.456 2739.87 1028.74 2693.29 998.66 2654.61ZM991.956 2686.07C991.097 2694.66 986.456 2702.23 981.299 2709.1L981.643 2708.76C963.938 2734.03 934.201 2745.03 904.636 2748.29C848.772 2748.81 795.315 2728.87 742.201 2713.92C711.089 2704.46 672.929 2694.84 645.771 2684.7C635.973 2680.57 626.691 2675.24 619.815 2667.33C601.423 2641.04 627.378 2576.06 637.692 2547.36C637.692 2547.18 638.551 2545.46 638.551 2545.29C650.246 2517.88 665.379 2492.06 683.586 2468.46C747.873 2484.79 812.16 2500.95 876.275 2517.62C876.962 2612.33 987.831 2632.44 991.956 2686.07Z" fill="#091C59"/>
<path d="M980.611 2709.96C980.929 2709.76 981.17 2709.46 981.299 2709.1L980.611 2709.96Z" fill="#091C59"/>
<path d="M611.221 2595.66C696.134 2665.1 808.55 2686.41 915.122 2695.18C945.03 2697.07 976.142 2695.35 1003.64 2682.46C1014.3 2675.41 1003.13 2661.32 992.987 2668.54C982.399 2672.62 971.386 2675.5 960.156 2677.13C924.747 2681.43 881.087 2674.9 845.678 2669.91C768.5 2658.74 689.602 2634.85 629.957 2588.61C616.721 2574 603.142 2584.31 611.221 2595.66Z" fill="#091C59"/>
<path d="M907.73 2580.53C869.227 2579.33 832.958 2613.19 822.817 2648.94C819.895 2659.6 836.568 2664.24 839.49 2653.41C840.522 2645.68 847.741 2633.99 851.179 2629.69C860.633 2617.14 875.759 2605.8 886.416 2601.33C897.073 2596.86 898.964 2597.03 907.73 2597.72C916.497 2598.41 918.731 2580.7 907.73 2580.53Z" fill="#474CDC"/>
<path d="M943.483 2500.09C923.888 2473.44 870.946 2510.74 863.039 2534.46C801.331 2443.88 704.385 2597.89 862.523 2566.78C863.375 2567.67 864.411 2568.36 865.56 2568.81C866.708 2569.25 867.941 2569.44 869.17 2569.36C870.399 2569.28 871.596 2568.93 872.675 2568.33C873.754 2567.74 874.689 2566.91 875.415 2565.92C883.15 2563.51 889.682 2551.48 893.12 2548.21C911.856 2537.9 954.484 2529.31 943.483 2500.09ZM835.709 2528.79L835.193 2528.28L835.709 2528.79ZM817.316 2552.86C812.824 2552.95 808.334 2552.6 803.909 2551.82C802.706 2551.48 788.267 2547.18 796.174 2534.81C798.325 2531.6 801.143 2528.9 804.436 2526.88C807.729 2524.86 811.419 2523.58 815.254 2523.12C826.083 2520.71 839.49 2530.17 843.959 2537.04C848.428 2543.92 850.319 2546.32 853.241 2550.97C841.327 2552.46 829.321 2553.09 817.316 2552.86ZM927.841 2510.23L925.263 2512.81L924.06 2513.84C911.34 2523.81 894.495 2526.56 881.431 2535.67C887.963 2524.32 899.48 2517.27 911.168 2512.12L912.887 2511.6C917.012 2510.06 921.31 2507.48 925.607 2507.82C925.607 2507.82 927.841 2507.82 928.185 2508.51C928.529 2509.2 927.841 2510.23 927.841 2510.23Z" fill="#474CDC"/>
<path d="M672.413 2507.65C676.023 2512.46 678.773 2523.29 679.289 2526.38C679.805 2531.18 679.805 2536.02 679.289 2540.82V2539.96C678.787 2543.93 677.746 2547.8 676.195 2551.48V2552.17C672.242 2561.45 668.116 2565.92 660.553 2572.45C659.006 2573.14 652.646 2578.81 656.6 2584.83C669.148 2599.78 687.368 2568.5 692.181 2558.18C696.034 2548.64 697.62 2538.33 696.815 2528.07C696.01 2517.81 692.835 2507.88 687.54 2499.05C681.867 2489.43 666.913 2498.02 672.585 2507.65H672.413Z" fill="#474CDC"/>
<path d="M1192.04 966.315C1206.3 975.941 1228.3 965.972 1240.85 944.142L1405.52 656.914C1418.07 635.084 1416.52 609.301 1402.26 599.503C1387.82 589.877 1365.82 599.847 1353.27 621.677L1188.6 908.904C1176.05 930.734 1177.6 956.518 1192.04 966.315Z" fill="#474CDC"/>
<path d="M1204.58 980.238C1198.04 980.289 1191.63 978.373 1186.19 974.738C1167.11 961.846 1164.19 930.734 1179.66 903.748L1344.33 616.52C1381.11 553.781 1450.9 596.237 1414.46 661.899L1249.79 949.298C1238.96 967.519 1223.32 979.723 1204.58 980.238ZM1197.71 957.721C1210.94 964.253 1223.84 952.049 1231.91 938.985L1396.58 651.758C1408.44 629.756 1406.55 603.628 1385.75 606.722C1365.47 598.472 1209.4 902.372 1197.54 914.061C1186.88 932.625 1189.11 951.877 1197.71 957.721Z" fill="#091C59"/>
<path d="M1550.27 585.71C1616.69 484.979 1626.14 374.046 1571.38 337.936C1516.61 301.825 1418.37 354.211 1351.95 454.943C1285.53 555.674 1276.08 666.607 1330.85 702.717C1385.61 738.828 1483.85 686.442 1550.27 585.71Z" fill="#474CDC"/>
<path d="M1370.63 723.092C1350.35 723.092 1332.3 716.904 1318.03 705.043C1249.45 640.413 1296.37 512.699 1349.83 436.896C1408.27 355.936 1507.28 278.757 1582.57 332.559C1651.15 397.361 1604.05 525.075 1550.6 600.706C1497.66 673.416 1435.6 720.685 1370.63 723.092ZM1530.14 335.309C1429.59 336.684 1317 490.181 1306.51 592.628C1300.67 636.975 1309.44 671.353 1331.09 689.229C1392.97 733.061 1484.08 659.321 1533.75 588.846C1580.33 522.669 1627.6 405.784 1569.5 348.544C1558.85 339.778 1545.61 335.309 1530.14 335.309Z" fill="#091C59"/>
<path d="M1515.85 560.12C1565.5 484.829 1573.96 402.838 1534.76 376.988C1495.56 351.137 1423.53 391.217 1373.89 466.508C1324.24 541.799 1315.78 623.791 1354.98 649.641C1394.18 675.491 1466.21 635.411 1515.85 560.12Z" fill="#BEE1FF"/>
<path d="M1288.12 865.76C1286.49 864.973 1285.06 863.838 1283.92 862.437C1282.77 861.035 1281.95 859.4 1281.51 857.647C1281.07 855.893 1281.02 854.065 1281.36 852.289C1281.7 850.513 1282.42 848.833 1283.48 847.368L1287.09 842.383H1286.57C1284.94 841.603 1283.5 840.468 1282.35 839.061C1281.21 837.654 1280.4 836.01 1279.97 834.249C1279.54 832.488 1279.51 830.653 1279.88 828.879C1280.25 827.105 1281.01 825.435 1282.11 823.991L1302.9 795.629C1301.45 794.621 1300.46 793.08 1300.13 791.342C1299.81 789.604 1300.19 787.808 1301.19 786.347L1322.67 756.782C1324.49 754.393 1327.09 752.733 1330.03 752.102C1332.96 751.471 1336.02 751.912 1338.66 753.344L1389.71 781.019C1380.43 814.709 1372 860.088 1329.03 882.605C1315.11 877.708 1301.45 872.085 1288.12 865.76Z" fill="white"/>
<path d="M1394.01 773.627L1343.47 746.125C1325.08 735.468 1312.87 754.719 1304.11 767.955C1298.95 776.378 1288.12 784.456 1292.42 795.457C1283.48 809.724 1261.99 826.226 1275.57 843.93C1263.2 865.932 1289.15 877.105 1306 882.949C1315.11 885.699 1325.42 894.294 1334.88 889.309C1363.75 874.011 1380.6 844.274 1389.54 813.849C1390.74 803.192 1404.32 780.847 1394.01 773.627ZM1328.86 762.97C1329.2 762.455 1331.09 759.532 1333.84 760.907C1349.31 768.127 1364.27 777.409 1379.57 785.316C1377.33 794.082 1374.93 802.848 1372.35 811.443L1314.76 785.316L1313.22 784.628L1328.86 762.97ZM1290.53 857.166C1290.7 857.338 1290.87 857.338 1290.87 857.509L1290.53 857.166ZM1328.34 873.151C1315.62 868.338 1302.56 863.869 1290.7 857.166C1288.29 854.244 1291.04 851.321 1293.11 848.571C1300.84 851.837 1308.4 855.103 1316.31 858.025C1324.22 860.947 1331.61 863.182 1339.17 865.76C1335.79 868.534 1332.16 871.007 1328.34 873.151ZM1351.89 852.696C1350.06 851.436 1348.03 850.506 1345.88 849.946L1294.48 830.523C1292.8 829.572 1291.01 828.822 1289.15 828.288C1292.42 821.585 1303.59 810.412 1308.23 801.302L1334.53 813.506C1338.14 815.053 1364.27 827.429 1366.16 828.116C1362.56 836.929 1357.76 845.201 1351.89 852.696Z" fill="#091C59"/>
</svg>
