<svg xmlns="http://www.w3.org/2000/svg" viewBox="0 0 4680 3120"><defs><style>.cls-1,.cls-8{fill:#fff;}.cls-1{opacity:0;}.cls-2{fill:#fbd6a2;}.cls-3{fill:#f79b6a;}.cls-4{fill:#e92411;}.cls-5{fill:#ffd900;}.cls-6{fill:#2cd670;}.cls-7{opacity:0.1;}.cls-9{fill:#17b883;}.cls-10{fill:#1cdb7c;}.cls-11{fill:#19c0e7;}.cls-12{fill:#17d383;}.cls-13{opacity:0.55;}.cls-14{fill:#dbdbdb;}.cls-15{opacity:0.3;}.cls-16{fill:#282e6b;}.cls-17{fill:#000072;}.cls-18{fill:#73de9f;}.cls-19{fill:#322b29;}.cls-20{fill:#473933;}.cls-21{fill:#fbc5a9;}.cls-22{fill:#f7a18a;}.cls-23{fill:#198bc3;}.cls-24{fill:#f61d6a;}.cls-25{fill:#d3004c;}.cls-26{fill:#ffff87;}.cls-26,.cls-27,.cls-28{fill-rule:evenodd;}.cls-27,.cls-33{fill:#ffcf0d;}.cls-28{fill:#f87d0f;}.cls-29{fill:#f25705;}.cls-30{fill:#c5c7c6;}.cls-31{fill:#8c9b9e;}.cls-32{fill:#002c6b;}.cls-34{opacity:0.4;}.cls-35{fill:#002c9b;}.cls-36{opacity:0.53;}.cls-37{fill:#5b1e13;}.cls-38{fill:#524e53;}.cls-39{fill:#3e2312;}.cls-40{fill:#ef4623;}.cls-41{fill:#e98116;}.cls-42{fill:#ffa234;}.cls-43{fill:#352341;}.cls-44{fill:#e13836;}.cls-45{fill:#61355a;}.cls-46{fill:#fb6447;}.cls-47{fill:#b4303f;}.cls-48{fill:#ff5847;}.cls-49{fill:#0a4d9d;}.cls-50{fill:#5737ff;}.cls-51{fill:#a94eb7;}</style></defs><title>10</title><g id="_10" data-name="10"><rect id="_10-2" data-name="10" class="cls-1" width="4680" height="3120"/><ellipse class="cls-2" cx="2622.18" cy="2626.14" rx="1132.19" ry="96.22"/><path class="cls-2" d="M3097,537.3V1856.83a139.75,139.75,0,0,1-137.7,139.71h-1858a139.72,139.72,0,0,1-139.71-139.72V537.3A139.67,139.67,0,0,1,1101.3,397.64h1856A139.68,139.68,0,0,1,3097,537.3Z"/><path class="cls-3" d="M3097,537.29v65.3H961.59v-65.3A139.67,139.67,0,0,1,1101.3,397.64h1856A139.68,139.68,0,0,1,3097,537.29Z"/><circle class="cls-4" cx="2703.14" cy="504.46" r="29.3"/><circle class="cls-5" cx="2830.1" cy="504.46" r="29.3"/><circle class="cls-6" cx="2957.05" cy="504.46" r="29.3"/><g class="cls-7"><path class="cls-8" d="M2291.66,1996.55H1490.74c-16.85-437.12-32.38-973-33.89-1394h501.9C2060.21,1026.89,2184.06,1545.68,2291.66,1996.55Z"/><path class="cls-8" d="M2959.33,1996.54h-339L2244,602.59h382.5C2729.53,1033.68,2853.3,1552.15,2959.33,1996.54Z"/></g><path class="cls-3" d="M2536.62,1773.8,1392.74,1936.64a75.88,75.88,0,0,1-85.82-64.43L1178.39,969.43a75.89,75.89,0,0,1,64.43-85.83L2386.71,720.76a75.88,75.88,0,0,1,85.82,64.43L2601.06,1688A75.89,75.89,0,0,1,2536.62,1773.8Z"/><path class="cls-9" d="M2445.11,936.72v794.76a44.79,44.79,0,0,1-44.81,44.81H1221.66c-2.55,0-5.1-.1-7.6-.33-41.93-3.16-74.76-32.59-74.76-68.44s32.83-65.33,74.76-68.49c2.5-.23,5-.33,7.6-.33a93.11,93.11,0,0,1,49.29,13.68V715H2203Z"/><polygon class="cls-10" points="1406.27 1310.52 1530.08 1310.52 1669.22 1400.13 1739.97 1472.06 1453.43 1592.34 1406.27 1310.52"/><polygon class="cls-10" points="2133.81 1061.71 2241.12 936.72 2445.11 936.72 2441.76 1283.77 2133.81 1061.71"/><path class="cls-11" d="M2075.14,1776.29H1970.76L1936.37,1735a257.84,257.84,0,0,1-59.62-164.71,176.16,176.16,0,0,0-82.25-149.56l-185-117.35A256,256,0,0,1,1490,1086.1V715h80.18V1086.1a176.17,176.17,0,0,0,82.26,149.57l185,117.35a256,256,0,0,1,119.52,217.29,177.62,177.62,0,0,0,41,113.39Z"/><path class="cls-12" d="M1271,680.94v971.44a93.11,93.11,0,0,0-49.29-13.68c-2.55,0-5.1.1-7.6.33-41.93,3.16-74.76,32.64-74.76,68.49V736.08c0-38,36.89-68.82,82.36-68.82A93,93,0,0,1,1271,680.94Z"/><g class="cls-13"><path class="cls-8" d="M1271,680.94v11.7a96.36,96.36,0,0,0-18.64-1.8c-45.46,0-82.35,30.8-82.35,68.82v894.28c-18.68,12.64-30.66,31.93-30.66,53.58V736.08c0-38,36.89-68.82,82.36-68.82A93,93,0,0,1,1271,680.94Z"/></g><path class="cls-14" d="M2445.11,936.72H2259.6A56.58,56.58,0,0,1,2203,880.13V715Z"/><g class="cls-15"><path class="cls-16" d="M2444.5,999.6H2291a56.61,56.61,0,0,1-56.6-56.6V930.83a56.43,56.43,0,0,0,25.19,5.89h183Z"/><path class="cls-17" d="M2446.93,1002H2291a59,59,0,0,1-59-59V927l3.41,1.7a53.84,53.84,0,0,0,24.13,5.64h185.31ZM2236.78,934.5V943A54.31,54.31,0,0,0,2291,997.24h151.05l-1.74-58.16H2259.6A58.42,58.42,0,0,1,2236.78,934.5Z"/></g><polygon class="cls-8" points="2291.82 1776.29 2239.94 1776.29 2239.94 1514.83 1717.35 1076.99 1688.17 717.14 1739.89 712.94 1767.31 1051.16 2291.82 1490.61 2291.82 1776.29"/><polygon class="cls-8" points="1485.27 1776.29 1433.39 1776.29 1433.39 1580.24 1801.92 1415.42 1972.03 1252.79 2007.88 1290.29 1831.29 1459.13 1485.27 1613.87 1485.27 1776.29"/><polygon class="cls-10" points="1978.38 715.04 2004.69 875.41 2119.66 867.15 2107.87 715.04 1978.38 715.04"/><polygon class="cls-8" points="1433.74 1601.32 1361.89 1170.2 1270.95 1170.2 1270.95 1118.31 1405.84 1118.31 1484.92 1592.79 1433.74 1601.32"/><polygon class="cls-18" points="1433.39 715.04 1388.58 965.02 1270.95 1033.41 1270.95 715.04 1433.39 715.04"/><polygon class="cls-8" points="1389.53 1169.57 1378.2 1118.94 1732.45 1039.7 1921.35 923.78 1886.56 719.39 1937.7 710.69 1978.38 949.66 1752.21 1088.44 1389.53 1169.57"/><polygon class="cls-8" points="2438.25 1296.56 2338.99 1269.33 1934.03 957.27 1965.7 916.17 2362.57 1222 2451.97 1246.53 2438.25 1296.56"/><rect class="cls-8" x="2265.88" y="1618.28" width="179.23" height="51.88"/><polygon class="cls-18" points="2049.72 1436.21 2193 1535.74 2193 1670.16 2129.09 1677.24 2007.88 1482.28 2049.72 1436.21"/><polygon class="cls-18" points="1889.72 1048.74 1949.86 1007.47 2119.66 1143.08 2075.14 1198.5 1889.72 1048.74"/><polygon class="cls-18" points="1517.5 1639.11 1517.5 1745.24 1808.76 1682.74 1791.21 1520.04 1517.5 1639.11"/><g class="cls-15"><path class="cls-17" d="M1330.42,715V1776.29H1221.66c-2.55,0-5.1-.1-7.6-.33-41.93-3.16-74.76-32.59-74.76-68.44s32.83-65.33,74.76-68.49c2.5-.23,5-.33,7.6-.33a93.11,93.11,0,0,1,49.29,13.68V715Z"/></g><g class="cls-15"><path class="cls-17" d="M1314.14,1828.22c11.47,0,986-20.75,986-20.75l39.35-25.63H1294.05Z"/></g><path d="M3184.05,596.62c-21-2.44-64.16,16.2-78.66,44.91-11.32,22.41-17.63,47.35-15.42,72.36,1,11.61,3.35,23.39,1,34.81-4.79,23.13-26.92,38-39.25,58.19-15.93,26-13.54,62,5.69,85.71,10.62,13.09,26.5,24.28,27.72,41.09,1.38,18.79-16.81,37.36-9.05,54.53,6,13.31,23.92,16,38.33,13.57,42.22-7,77.79-43.58,83.61-86,2.08-15.1.71-30.49-1.91-45.51-10.87-62.28-43.18-121.24-40.89-184.43.64-17.61,4.33-35.84,15.15-49.76Z"/><path class="cls-19" d="M3133.82,616.58a70.81,70.81,0,0,0-10.39,11.08c-1.51,2-2.95,4-4.31,6.05s-2.62,4.49-4,6.65a60.67,60.67,0,0,0-6.38,13.56,96.25,96.25,0,0,0-3.93,14.84,93.91,93.91,0,0,0-.56,30.25c1.77,12.09,6.23,23.8,6.29,36.12.11,21.12-13.24,39-23,56.69-5.44,9.82-9.87,20.1-12.14,31.14a91.2,91.2,0,0,0-.6,35,47.5,47.5,0,0,0,5.41,15.19A40,40,0,0,0,3091.23,885c8.31,6.16,18.77,11,23.89,20.48a21.65,21.65,0,0,1,2.33,7.13c.08.54.86.35.9-.12.81-10.41-7.69-18.49-15.46-24-4.42-3.13-9.06-6-13-9.71a34.16,34.16,0,0,1-8.79-13c-4-10.47-4.31-22.36-3.12-33.38a96,96,0,0,1,9.94-32.63c9.06-18.11,22.56-35.11,25.62-55.64,1.75-11.71-1-23-3.77-34.29-2.54-10.5-4-20.94-3.17-31.76a97.63,97.63,0,0,1,7.05-29.37,89.69,89.69,0,0,1,6.63-13.75,90.63,90.63,0,0,1,9.16-12.36c1.62-1.83,3.29-3.62,5-5.4a.39.39,0,0,0-.55-.55Z"/><path class="cls-19" d="M3067.86,796.06a77.22,77.22,0,0,0-11.53,16,68.65,68.65,0,0,0-6.71,18.56,58.06,58.06,0,0,0,4.13,36.51,42.58,42.58,0,0,0,5.37,8.64,32.54,32.54,0,0,0,7.35,7c.61.38,1.18-.46.74-1a81.71,81.71,0,0,1-5.66-6.67,61.41,61.41,0,0,1-4.64-7.49,54.34,54.34,0,0,1-5.32-16.52c-1.94-12.32.71-24.73,5.8-36a96.65,96.65,0,0,1,5.05-9.48,90.45,90.45,0,0,1,6.09-9c.3-.39-.34-.88-.67-.52Z"/><path class="cls-19" d="M3116.9,765c-1.74,4.2-3.69,8.3-5.6,12.42s-3.7,8.32-5.39,12.55a175.5,175.5,0,0,0-8.42,25.54,90.68,90.68,0,0,0-2.44,25.16,61.63,61.63,0,0,0,6.06,24.25,36.32,36.32,0,0,0,6.42,9.25,25.81,25.81,0,0,0,4.36,3.58,12.65,12.65,0,0,0,5.2,2.1,6.65,6.65,0,0,0,1.47-.13c.41,0,.84,0,1.25-.08a.71.71,0,0,0,.19-1.39l-1.2-.5.44.26a10.07,10.07,0,0,0-2.18-1.36c-.77-.37-1.52-.74-2.25-1.17a21.63,21.63,0,0,1-4-2.95,30.69,30.69,0,0,1-6.18-8.27,57.15,57.15,0,0,1-6.22-22.42,86.74,86.74,0,0,1,1.71-24,165.8,165.8,0,0,1,7.49-24.83c1.54-4.08,3.14-8.14,4.69-12.22s2.9-8.3,4.41-12.42l1.11-3.08c.19-.56-.66-.76-.88-.24Z"/><path class="cls-19" d="M3130.64,804.27a53.93,53.93,0,0,0-2.58,22,55.88,55.88,0,0,0,6.4,21.47A40.2,40.2,0,0,0,3138,853a27.8,27.8,0,0,0,4.36,4.58c.32.27.87-.07.61-.47-1-1.51-1.9-3-2.88-4.54s-1.9-3.08-2.74-4.69a68.75,68.75,0,0,1-4.39-9.89,59.59,59.59,0,0,1-3.16-21.31,55.45,55.45,0,0,1,1.85-12.15.5.5,0,0,0-1-.27Z"/><path class="cls-20" d="M3108.92,662a92.33,92.33,0,0,0-18.26,32.79,61.74,61.74,0,0,0-2.56,19.82c.11,6.71.8,13.42.6,20.14a44.3,44.3,0,0,1-4.66,19.22,109.36,109.36,0,0,1-10.15,15.91c-7.64,10.15-16.51,19.29-25,28.75a110.59,110.59,0,0,0-11.51,14.65,73.74,73.74,0,0,0-7.47,15.65,69.51,69.51,0,0,0-2.68,33.56,73.82,73.82,0,0,0,13.46,31.84c6.38,8.46,15.64,14.51,23.44,21.55,3.71,3.34,7.28,6.87,9.75,11.25a38.36,38.36,0,0,1,4.82,17.5c.46,12.87-4.39,25.43-10.19,36.69-1.49,2.9-3.07,5.75-4.65,8.6a1.8,1.8,0,0,0,3.1,1.81c12.11-19.74,23.56-48.84,7.71-69.83-6.39-8.47-15.6-14.54-23.47-21.51a53.27,53.27,0,0,1-9.87-11.06,76,76,0,0,1-8-16.29,66.83,66.83,0,0,1-2.76-33.62,71.21,71.21,0,0,1,15-32c7.84-9.65,16.74-18.39,24.68-28a157,157,0,0,0,11.35-15.22c3.43-5.3,6.71-11,8.37-17.12,3.49-12.95,0-26.41.73-39.57s5.95-26,13-36.88a88.3,88.3,0,0,1,5.83-8c.34-.43-.25-1-.61-.61Z"/><path d="M3149.63,611.73c17-16.46,42.36-20.43,66-21,35.07-.84,68.6,14.81,92.56,40,17.18,18.1,27.44,41.49,34.78,65,4.84,15.5,6.89,32.66,11.54,48.59,5,17.24,15.58,30.71,28.12,43.16,13.57,13.46,32.33,20.33,47.31,32.2,26.41,20.91,46.85,66.79,21.63,96.5-9.21,10.84-25.13,14.63-32.4,27.34-9.3,16.28,1.61,39.22-9.12,54.6-4.65,6.68-12.61,10.39-20.59,12-27.11,5.47-52.93-12.57-70.54-33.89-34.34-41.58-71.35-64.68-82.19-118.47-14-50.82-3.55-155.25,11.15-205.87Z"/><path class="cls-20" d="M3342.34,718.45c5.41,26.54,22.27,49,42.79,66a172.34,172.34,0,0,0,16.3,12c6.72,4.38,13.74,8.27,20.65,12.33,12.59,7.4,24.48,15.72,34.22,26.71,8.88,10,15.87,22.06,18.68,35.25a60.09,60.09,0,0,1-3.48,36.4A48.57,48.57,0,0,1,3461,922.53c-4.21,4.07-9.22,7.16-14.21,10.15-9.63,5.76-20.83,11.62-25.74,22.31-3.17,6.9-2.84,14.37-3.17,21.77a32.73,32.73,0,0,1-1.94,10.88,21.4,21.4,0,0,1-5.16,7.42,27,27,0,0,1-16.37,7.14c-7.16.52-14-1.71-20.18-5.13a51.41,51.41,0,0,1-8.49-5.92c-1.63-1.39-3.93.82-2.38,2.38,9.95,10,25,16.09,39,11.46a29.59,29.59,0,0,0,15.54-11.67c4.15-6.39,4.33-14,4.51-21.38.17-6.87.89-13.42,5-19.15,3.33-4.64,8.13-8.07,12.89-11.1,5.07-3.22,10.38-6.08,15.37-9.44a55.39,55.39,0,0,0,13.91-13c7.62-10.29,11.05-23.43,10.86-36.13-.2-13.61-4.76-26.74-12.1-38.13-7.6-11.79-17.88-21.68-29.31-29.75-13.05-9.21-27.65-15.95-40.78-25-22.54-15.61-41.45-36.69-51.49-62.45a98.74,98.74,0,0,1-3.2-9.63.59.59,0,0,0-1.13.31Z"/><path class="cls-19" d="M3285.05,812.25c10.74,12.54,18.87,27.25,24.71,42.66,5.91,15.59,10.42,31.69,14.53,47.84,2.06,8.13,4,16.28,6.1,24.41,2,7.89,4,15.81,6.56,23.54,5.08,15.28,13.06,30.76,27.64,38.92,7.52,4.21,16.56,6.25,25.06,4.22a26,26,0,0,0,10.28-5,24.63,24.63,0,0,0,3.89-4,10.83,10.83,0,0,0,1.33-2.31c.4-.85.85-1.68,1.22-2.54a20.31,20.31,0,0,0,1.43-5.12.34.34,0,0,0-.66-.19,20.9,20.9,0,0,1-2.46,4.91,24.62,24.62,0,0,1-3.69,3.88,27.44,27.44,0,0,1-8.84,5.62c-7.49,2.91-15.91,1.87-23.06-1.52-14.45-6.85-22.92-21.53-28.21-36-2.73-7.46-4.79-15.12-6.78-22.8-2.08-8-4.06-16.06-6.1-24.08-4.05-15.88-8.24-31.84-14.47-47-6.11-14.92-13.53-29.33-23.58-42q-1.86-2.34-3.83-4.59c-.64-.74-1.7.33-1.07,1.07Z"/><path class="cls-19" d="M3289.26,800.9c3,2,6.06,4,8.92,6.23a90.51,90.51,0,0,1,8.05,7.11,105.13,105.13,0,0,1,13.66,16.81c8.3,12.5,14.46,26.23,19.9,40.17,6.13,15.7,11.32,31.74,17.72,47.33a206,206,0,0,0,10.39,22.23c3.54,6.34,7.82,12.43,13.64,16.88a25.94,25.94,0,0,0,17.77,5.62c5.76-.44,12-2.79,14.94-8.1a17.21,17.21,0,0,0,.85-1.79c.26-.65.38-1.37.64-2,.33-.82-1-1.18-1.33-.37a7.2,7.2,0,0,1-1,1.49A15.46,15.46,0,0,1,3412,954a14.6,14.6,0,0,1-3,2.33,21.71,21.71,0,0,1-7.33,2.83,13.06,13.06,0,0,1-1.68.24c-.73.07-1.47.1-2.21.1s-1.35,0-2-.09l-1-.11c.37.05-.28,0-.29,0l-.59-.11a21.73,21.73,0,0,1-4-1.17c-.61-.24.32.15-.27-.11l-.45-.21-1.09-.53q-1.2-.63-2.34-1.35c-5.74-3.69-10-9.35-13.43-15.17a182.25,182.25,0,0,1-10.5-21.42c-6.51-15.22-11.74-31-17.89-46.33-5.54-13.86-11.94-27.4-20.35-39.77-7.89-11.62-17.48-22.42-29.08-30.43a47.24,47.24,0,0,0-4.5-2.77.59.59,0,0,0-.59,1Z"/><path class="cls-19" d="M3301.06,641.3a105.63,105.63,0,0,1,20.1,27c5.46,10.23,9.1,21.36,11.89,32.59a187,187,0,0,1,5.55,37.78c.46,11.66.74,23.45,2.76,35,1.95,11.08,6,21.53,13,30.38,6.66,8.36,15.34,15,24.58,20.29,4.84,2.76,9.87,5.16,14.93,7.46,5.73,2.6,11.55,5.05,17,8.29a70.85,70.85,0,0,1,24.4,24.33,53.54,53.54,0,0,1,7.4,29.8,58.47,58.47,0,0,1-7.47,26.73,19,19,0,0,1-3.74,5c-.56.47.24,1.26.79.8a34.37,34.37,0,0,0,4.61-4.25,28.47,28.47,0,0,0,3.67-5.56,50.59,50.59,0,0,0,4.21-14A74.57,74.57,0,0,0,3446,889a50.58,50.58,0,0,0-2.88-15.64,67.12,67.12,0,0,0-19.41-28.24,81.78,81.78,0,0,0-14.87-10.29c-5.64-3-11.57-5.45-17.38-8.12-9.72-4.47-19.39-10.09-27.34-17.3a60.15,60.15,0,0,1-17.61-27.85c-3.34-11.4-3.87-23.36-4.48-35.15a231.17,231.17,0,0,0-4.72-37.62,162.81,162.81,0,0,0-11.36-33.92c-4.8-10.29-10.26-20-17.76-28.63-1.86-2.15-3.82-4.19-5.87-6.16-.82-.79-2.08.47-1.25,1.25Z"/><path class="cls-19" d="M3335.82,754.67c-.22,2-.46,4-.6,6a51.77,51.77,0,0,0,.06,5.71c.13,3.91.43,7.82.89,11.7s1.07,7.67,1.83,11.47a92.18,92.18,0,0,0,2.77,11.12,34.19,34.19,0,0,0,4.35,8.77,54.09,54.09,0,0,0,6.53,7.65,104.46,104.46,0,0,0,16.76,13.23c6.14,4,12.53,7.53,18.85,11.21a198.16,198.16,0,0,1,17.51,11,70.77,70.77,0,0,1,14.54,13.8,52.38,52.38,0,0,1,8,15.37,71.66,71.66,0,0,1,2.94,35.45,25,25,0,0,1-.83,3.74c-.12.37.46.53.59.17.43-1.29,1-2.53,1.34-3.84a37.15,37.15,0,0,0,.86-3.93,58,58,0,0,0,.74-8.83,77.93,77.93,0,0,0-2-18.45,57.75,57.75,0,0,0-6.11-16.17,61.45,61.45,0,0,0-12.69-15,119.33,119.33,0,0,0-16.72-12c-6.19-3.8-12.64-7.13-19-10.73A126.69,126.69,0,0,1,3358.33,820c-5.12-4.24-10-9-13.44-14.69a28.6,28.6,0,0,1-2.33-4.54c-.62-1.66-1.07-3.39-1.53-5.11-1-3.83-1.87-7.71-2.56-11.61s-1.21-7.83-1.56-11.77c-.17-1.95-.31-3.9-.4-5.86s0-4-.2-6-.27-3.8-.31-5.71a.09.09,0,0,0-.18,0Z"/><path class="cls-19" d="M3351.53,856.05c1.1,1.79,2.13,3.63,3.1,5.5s1.77,3.83,2.64,5.74c1.76,3.84,3.32,7.76,4.72,11.75,2.75,7.86,5.43,15.74,8.74,23.39a82.16,82.16,0,0,0,11.29,19.2,48.07,48.07,0,0,0,16.89,13.63,27.82,27.82,0,0,0,5,1.78,19.28,19.28,0,0,0,5.23.7,13.51,13.51,0,0,0,9-3.55,11.23,11.23,0,0,0,1.47-1.83c.41-.63-.5-1.28-1-.78a11.22,11.22,0,0,1-8,2.85c-.81,0-1.61-.07-2.42-.12-.38,0-.75-.06-1.13-.11,0,0-.33,0-.07,0l-.26,0-.7-.12a24.72,24.72,0,0,1-4.64-1.36l-.32-.13h0l-.58-.26-1.21-.58c-.8-.4-1.58-.83-2.34-1.28a39.12,39.12,0,0,1-4.31-2.9,51.37,51.37,0,0,1-7.43-7.12,84.63,84.63,0,0,1-11.43-17.93c-3.52-7.16-6.14-14.71-9.14-22.09-1.55-3.81-3.09-7.63-4.76-11.39-.83-1.89-1.67-3.79-2.68-5.58s-2-3.54-3.05-5.27c-.53-.89-1.09-1.76-1.66-2.63-.36-.55-1.24,0-.89.53Z"/><path class="cls-21" d="M2641.82,1302.78l72,61.71,212.59-57a107.46,107.46,0,0,0,51.32-31.1l46-50.06,24.14-26.27L2946,1079.48l-34.62,45.85-51,67.62Z"/><polygon class="cls-22" points="2911.38 1125.33 3023.7 1226.33 3047.84 1200.06 2946 1079.48 2911.38 1125.33"/><polygon class="cls-21" points="3204.05 2377.7 3204.05 2448.85 3082.1 2445.58 3077.61 2381.11 3204.05 2377.7"/><polygon class="cls-21" points="3383.44 2377.7 3383.44 2448.85 3261.49 2445.58 3256.99 2381.11 3383.44 2377.7"/><path class="cls-11" d="M2927.64,2003l123.19,385.9a21.2,21.2,0,0,0,20.19,14.75h128.45a14.9,14.9,0,0,0,14.64-17.69l-85.36-448.18,65.1-255.17-2.12,215.79c-.05,5.54.19,11.09.69,16.61L3238,2395.42a14.64,14.64,0,0,0,14.37,13.25l138.37,1.92a15.73,15.73,0,0,0,15.94-15.93l-6.2-487.94,24.34-273.53,3.19-10.5a226.36,226.36,0,0,0-2.29-138.65l-14.77-43.46-10.47-30.8H3214.3l-2.74,31.62h-166l-14.48,54.35-107.4,403.33A176.93,176.93,0,0,0,2927.64,2003Z"/><path class="cls-23" d="M3031.08,1495.75c145.28,24.51,327.3-36,379.86-55.17l-10.47-30.8H3214.3l-2.74,31.62h-166Z"/><path class="cls-23" d="M3192.88,1690.46l.3,0a2.63,2.63,0,0,0,2.33-2.92l-12.78-113.12a113.41,113.41,0,0,1-.55-18.7l4.11-76.31a2.64,2.64,0,1,0-5.28-.28l-4.11,76.31a119.57,119.57,0,0,0,.58,19.57l12.78,113.12A2.65,2.65,0,0,0,3192.88,1690.46Z"/><path class="cls-23" d="M3323.44,2410.49c-12.52-169.33-15.62-328.34-9.2-472.62,4.86-109.24,13.85-184.16,21.15-237.22,11-79.85-18.81-251-19.12-252.73l7.88-1.39c1.25,7.08,30.31,174.12,19.16,255.21-7.27,52.89-16.23,127.58-21.08,236.49-6.4,144-3.31,302.66,9.19,471.67Z"/><polygon class="cls-23" points="3182.22 2404.49 3079.48 1923.54 3182.38 1641.74 3189.89 1644.49 3087.78 1924.12 3190.05 2402.82 3182.22 2404.49"/><path class="cls-24" d="M3044.19,1199.23v0l-13.12,238.16c25.26,33,400.78-13.46,400.78-13.46l-56-246.37,134.62-3.94-35.26-175.39a131.63,131.63,0,0,0-128.62-103.62H3143.94q-4.55,0-9.21.3c-29.87,2-62.74,13.29-89,31.44-20.44,14.13-117.46,148.07-117.46,148.07l27.84,30Z"/><path class="cls-8" d="M3190.92,948.17c57.66-1.27,93.15-35.51,104.66-53.54H3143.94a59.45,59.45,0,0,0-6.1.1C3134.1,913.31,3134.1,949.42,3190.92,948.17Z"/><path class="cls-25" d="M3044.19,1199.23c-.56-.94-21-35.25-15.24-73.32,5.79-38.3,53.5-123.78,54.24-125.11-1,1.07-65.42,72.62-127.1,103.61Z"/><path class="cls-25" d="M3510.45,1173.64s-116.88-17.29-132.4-32.8-65-126.53-65-126.53l6.49,165.3Z"/><path class="cls-25" d="M3279.85,1255s-134.52,127-240,88.52C3039.86,1343.49,3205.23,1298.37,3279.85,1255Z"/><path class="cls-21" d="M3348.09,1178.5l4.43,23,4.29,22.2h0l40.82,155.42c70.48,26.66,125.61-14.58,117.13-89.46L3503,1221l-8.09-47.39Z"/><polygon class="cls-22" points="3348.09 1178.5 3352.52 1201.51 3503.04 1221.02 3494.95 1173.63 3348.09 1178.5"/><path class="cls-26" d="M3198.26,2512.11l4.44-24.54s6.34-33.89,5-40.61-10.47-7.85-10.47-7.85-36,4.18-65.13,2.13-40.66-8.35-40.66-8.35-11.36-.81-13.65,2.83.29,40.21.29,40.21l23.06,66Z"/><path class="cls-27" d="M2910.9,2592.62l0,.79c0,.14,0,.27,0,.41l0,.51v.54a2.25,2.25,0,0,1,0,.26v2.21a1.21,1.21,0,0,0,0,.19l0,.33v.57a9.82,9.82,0,0,0,1.76,5l0,0v0c.77,1.11,12.35,17.16,57.14,23.72.71.1,1.45.21,2.21.3l.24,0,.33,0,1,.11.85.09,1.19.13h.08l.66.07c1.38.13,2.83.26,4.36.38l.56,0,1.15.08h.11q3.3.22,7,.4h.21l.64,0,.65,0,2,.07.66,0,1.91.07,1.47,0,1.37,0h.12c.43,0,.85,0,1.28,0h.23c62.54,1.81,177.27-3.75,197.67-4.78h.06l.79,0a3.86,3.86,0,0,1,.47,0l1.83-.09.16-.12a2.73,2.73,0,0,0,.33-.34c1.69-2.1,3.64-9.55,5.15-20,.4-2.73.75-5.68,1.07-8.79a261.14,261.14,0,0,0,1.24-33.78c-.82-27.83-6-73.82-6-73.82-77.38,24.22-124.6-11.63-124.6-11.63s-42,53-99.44,66.29c-.79.2-1.59.38-2.41.54s-1.61.34-2.42.49c-1.63.31-3.27.59-4.91.83-.85.12-1.69.25-2.51.39s-1.46.24-2.19.38h-.14l-2.21.43c-1.68.33-3.29.68-4.85,1.06-.54.14-1.08.26-1.62.41-2.05.52-4,1.09-5.89,1.69l-1.34.44c-.29.09-.58.19-.86.3l-1.65.59-1.49.57c-.45.17-.88.35-1.31.53a71.43,71.43,0,0,0-6.49,3.06l-1.11.61c-.84.47-1.63.94-2.4,1.43-.34.2-.68.41-1,.63-.65.42-1.29.85-1.89,1.29-.31.21-.61.43-.91.65l-1,.74-.75.6c-.28.21-.55.44-.82.67a45.41,45.41,0,0,0-5,4.88c-.21.23-.42.47-.61.71-.4.47-.79,1-1.16,1.43a.1.1,0,0,1,0,0c-.35.46-.69.92-1,1.39a41.32,41.32,0,0,0-4.49,8.17c-.16.38-.31.76-.45,1.13s-.17.46-.25.7a40.38,40.38,0,0,0-1.24,4.06l-.08.34-.08.33,0,.15,0,.19-.07.33-.07.34-.07.33-.07.33-.06.31-.05.33-.06.32h0l-.1.62,0,.32c0,.2-.07.4-.1.59h0l0,.31,0,.23a.19.19,0,0,1,0,.08h0l0,.28,0,.3,0,.28,0,.29-.07.71v.14l0,.28,0,.54,0,.26,0,.53v.25Z"/><path class="cls-8" d="M3084.2,2541.17a4.16,4.16,0,0,1-3.8-2.47c-12.23-27.34-35.81-26.68-36.81-26.63a4.16,4.16,0,0,1-.4-8.32c1.22-.07,30.18-1.15,44.81,31.55a4.16,4.16,0,0,1-2.1,5.5A4.11,4.11,0,0,1,3084.2,2541.17Z"/><path class="cls-8" d="M3048.91,2547.13a4.16,4.16,0,0,1-3.88-2.64c-7-17.77-27.18-16.36-28-16.29a4.17,4.17,0,0,1-.71-8.3c9.4-.81,29.11,2.65,36.51,21.55a4.16,4.16,0,0,1-3.88,5.68Z"/><path class="cls-28" d="M2910.9,2592.62l0,1v.17l0,.51v3.2l0,.33v.57a9.82,9.82,0,0,0,1.76,5l0,0v0c.77,1.11,12.35,17.16,57.14,23.72.71.1,1.45.21,2.21.3h.05l.19,0,.33,0,1,.11,2.12.22.66.07c.18,0,.37,0,.55.06h0l.15,0,.37,0,1.06.09.55.05.54,0,.55,0,.56.05.56,0,.57,0,.58,0h.11l.16,0,.3,0h.15l1,.07.59,0,.6,0,.34,0h.26l.61,0,.62,0,.62,0,.62,0,.63,0,.63,0,.64,0,.65,0,2,.07.66,0,1.91.07h.1l1.37,0,.68,0,.81,0h.53l1,0,1.18,0,.72,0,1.44,0,.72,0h.72l.74,0,.73,0h.73l.75,0h.74c59.22.78,169.25-4,189.2-4.94h.06l.79,0a3.86,3.86,0,0,1,.47,0l1.83-.09.16-.12a2.73,2.73,0,0,0,.33-.34c1.69-2.1,3.64-9.55,5.15-20,.4-2.73.75-5.68,1.07-8.79-47.51,13.31-150,13.3-197.66,12.84a95.86,95.86,0,0,0-4.25-27.3,79.23,79.23,0,0,0-26.9-38.48c-.8.19-1.6.37-2.41.54l-2.42.49c-1.63.31-3.27.59-4.91.83-.85.12-1.69.25-2.51.39s-1.46.24-2.19.38h-.14l-2.21.43c-1.68.33-3.29.68-4.85,1.06-.54.14-1.08.26-1.62.41-2.05.52-4,1.09-5.89,1.69l-1.34.44c-.29.09-.58.19-.86.3l-1.65.59-1.49.57c-.45.17-.88.35-1.31.53a71.43,71.43,0,0,0-6.49,3.06l-1.11.61c-.84.47-1.63.94-2.4,1.43-.34.2-.68.41-1,.63-.65.42-1.29.85-1.89,1.29-.31.21-.61.43-.91.65l-1,.74-.75.6c-.28.21-.55.44-.82.67a45.41,45.41,0,0,0-5,4.88c-.21.23-.42.47-.61.71-.4.47-.79,1-1.16,1.43a.1.1,0,0,1,0,0c-.35.46-.69.92-1,1.39a41.32,41.32,0,0,0-4.49,8.17c-.16.38-.31.76-.45,1.13s-.17.46-.25.7a40.38,40.38,0,0,0-1.24,4.06l-.08.34-.08.33,0,.15,0,.19-.07.33-.07.34-.07.33-.07.33-.06.31-.05.33-.06.32h0l-.1.62,0,.32,0,.3-.05.29h0l0,.31,0,.23v.07h0l0,.28,0,.3,0,.28,0,.29-.07.71v.14l0,.28,0,.54,0,.26,0,.53v.25Z"/><path class="cls-26" d="M3383.09,2503.94l3-24.77s4.32-34.2,2.6-40.83-10.92-7.22-10.92-7.22-35.67,6.31-64.89,6-41.08-5.93-41.08-5.93-11.39-.13-13.46,3.64S3261,2475,3261,2475l26.93,64.46Z"/><path class="cls-27" d="M3101,2601.34l0,.8c0,.13,0,.27,0,.4v.52l0,.21v.32a1.23,1.23,0,0,1,0,.26v.51c0,.11,0,.22,0,.33v.18l0,.19v.16l0,.18v.47c0,.07,0,.13,0,.19a1.1,1.1,0,0,0,0,.18v.7l0,.11v.09a9.85,9.85,0,0,0,2,4.94l0,0,0,0c.83,1.06,13.34,16.39,58.44,20.29l2.23.17h.24l.33,0,1,0,.86,0c.39,0,.78.05,1.19.06h.08c.22,0,.43,0,.66,0,1.39,0,2.85.09,4.37.12h1.83q3.32,0,7,0h1.5l2,0h.66l1.91,0,1.47,0,1.37,0h.12l1.28,0h.23c62.53-1.9,176.73-14.26,197-16.49a.07.07,0,0,1,.06,0l.78-.08.48,0,1.81-.19.15-.13a2.59,2.59,0,0,0,.31-.36c1.57-2.19,3.07-9.75,4-20.23.24-2.75.42-5.71.55-8.83a262.64,262.64,0,0,0-.76-33.8c-2.48-27.74-10.38-73.33-10.38-73.33C3310.27,2507.94,3261,2475,3261,2475s-38.84,55.39-95.33,72.08c-.78.24-1.57.47-2.38.67s-1.59.44-2.39.63c-1.6.41-3.23.79-4.85,1.13-.84.17-1.67.34-2.48.54s-1.45.32-2.17.5a.31.31,0,0,0-.13,0l-2.19.55c-1.65.43-3.23.88-4.77,1.35-.54.17-1.07.32-1.59.5q-3,1-5.79,2l-1.31.52-.84.35-1.61.69c-.49.21-1,.44-1.45.66s-.86.4-1.28.61a69.83,69.83,0,0,0-6.3,3.43l-1.07.68q-1.2.77-2.31,1.56c-.33.22-.65.46-1,.69-.63.46-1.24.93-1.81,1.4-.3.23-.58.47-.87.71l-.93.8-.71.63-.78.72a45.94,45.94,0,0,0-4.68,5.17c-.21.24-.4.5-.58.75-.37.49-.73,1-1.07,1.49a.1.1,0,0,1,0,.05c-.32.48-.63,1-.93,1.45a41.38,41.38,0,0,0-4,8.43c-.14.38-.26.77-.38,1.14s-.14.48-.21.72a41.66,41.66,0,0,0-1,4.13l-.07.34-.06.34,0,.15,0,.19-.06.33,0,.35-.06.33,0,.33-.05.32,0,.33,0,.32h0l-.07.63,0,.32-.06.6h0l0,.31v.23a.19.19,0,0,1,0,.08h0l0,.28v.3l0,.29v.29l0,.71v2.19Z"/><path class="cls-8" d="M3270.71,2539.71a4.19,4.19,0,0,1-3.7-2.24c-13.83-26.58-37.32-24.51-38.31-24.4a4.16,4.16,0,0,1-.9-8.28c1.22-.14,30.06-2.94,46.6,28.83a4.16,4.16,0,0,1-3.69,6.09Z"/><path class="cls-8" d="M3235.83,2547.76a4.17,4.17,0,0,1-3.78-2.42c-8.05-17.44-28.74-14.63-28.94-14.59a4.16,4.16,0,1,1-1.21-8.24c9.32-1.38,29.21.91,37.71,19.34a4.15,4.15,0,0,1-3.78,5.91Z"/><path class="cls-28" d="M3101,2601.34l0,1v.68l0,.21v.32l0,.12v1.16l0,.19v.16l0,.18v1.54l0,.11v.09a9.85,9.85,0,0,0,2,4.94l0,0,0,0c.83,1.06,13.34,16.39,58.44,20.29l2.23.17h.05a1.2,1.2,0,0,0,.19,0l.33,0,1,0,2.13.09c.22,0,.43,0,.66,0l.56,0h.55l1.06,0h10.58l.63,0h1.29l2,0h.66l1.91,0h.1l1.37,0,.68,0,.81,0,.53,0,1,0,1.18-.05.72,0,1.44-.06.72,0,.72,0,.73,0,.74,0h.08l.65,0,.74,0,.75,0c59.15-2.73,168.7-14.07,188.57-16.14a.07.07,0,0,1,.06,0l.78-.08.48,0,1.81-.19.15-.13a2.59,2.59,0,0,0,.31-.36c1.57-2.19,3.07-9.75,4-20.23.24-2.75.42-5.71.55-8.83-46.64,16.09-149,22.17-196.55,24.53a95.55,95.55,0,0,0-5.86-27,79.24,79.24,0,0,0-29.13-36.81c-.79.23-1.58.46-2.38.67s-1.59.43-2.39.63c-1.6.41-3.23.79-4.85,1.13-.84.17-1.67.34-2.48.54s-1.45.32-2.17.5a.31.31,0,0,0-.13,0l-2.19.55c-1.65.43-3.23.88-4.77,1.35-.54.17-1.07.32-1.59.5q-3,1-5.79,2l-1.31.52-.84.35-1.61.69c-.49.21-1,.44-1.45.66s-.86.4-1.28.61a69.83,69.83,0,0,0-6.3,3.43l-1.07.68q-1.2.77-2.31,1.56c-.33.22-.65.46-1,.69-.63.46-1.24.93-1.81,1.4-.3.23-.58.47-.87.71l-.93.8-.71.63-.78.72a45.94,45.94,0,0,0-4.68,5.17c-.21.24-.4.5-.58.75-.37.49-.73,1-1.07,1.49a.1.1,0,0,1,0,.05c-.32.48-.63,1-.93,1.45a41.38,41.38,0,0,0-4,8.43c-.14.38-.26.77-.38,1.14s-.14.48-.21.72a41.66,41.66,0,0,0-1,4.13l-.07.34-.06.34,0,.15,0,.19-.06.33,0,.35-.06.33,0,.33-.05.32,0,.33,0,.32h0l-.07.63,0,.32,0,.31,0,.29h0l0,.31v.3h0l0,.28v.3l0,.29v.29l0,.71v2.19Z"/><path class="cls-29" d="M1986.5,852.1c-90.82,145.08-46.84,336.31,98.24,427.13s336.31,46.85,427.13-98.23,46.83-336.31-98.24-427.13S2077.32,707,1986.5,852.1ZM2495,958.19A254.43,254.43,0,1,1,2382,799.57,252.73,252.73,0,0,1,2495,958.19Z"/><path class="cls-30" d="M2522.89,1147c-8.85,22.36-21.57,42.88-35,62.82l82,51.34,38.12-60.88Z"/><path class="cls-31" d="M2487.86,1209.85l17.36,10.87c13.36-30.56,17.5-55.43,18-73.47l-.36-.22C2518.16,1144.39,2483.13,1207.21,2487.86,1209.85Z"/><path class="cls-32" d="M2533,1261.31l10.57,6.62,11.6,7.28,17.78,11.12,11.61,7.27.52.32,6.44,4,68.74,42.89,7.35,4.58v0l160.19,99.93,4.74,3L2967,1532.2h0l6,3.74,52.86,33,5,3.1,38.67,24.13,4.43,2.76,45.79,28.58,5.7,3.55h0l86.08,53.7c9.37,0,19-4.4,27.76-11.58,1.27-1,2.49-2.11,3.71-3.26h0c20.12-18.82,34.33-51.94,27.37-78.2l-43.11-27-1.5-1-3.86-2.42-62.19-38.93-6.33-4L3051,1454.4l-4.93-3.06h0l-103.76-64.95-4.65-2.92L2898.5,1359l-4.64-2.91-67.58-42.29-4.81-3-72.7-45.53-4.86-3-45.56-28.51-4.81-3-50.26-31.44-2.58-1.63-4.63-2.88-4.36-2.73-17.83-11.17-11.55-7.24L2592,1167.1c-10.4-6.52-34.46,22.14-49.44,49.69-.29.51-.55,1-.82,1.51-.89,1.64-1.73,3.28-2.53,4.9C2530.39,1241,2526.21,1257.06,2533,1261.31Z"/><path class="cls-33" d="M1966.6,841.15c-90.82,145.08-46.84,336.3,98.24,427.13s336.3,46.84,427.13-98.24,46.83-336.31-98.24-427.13S2057.42,696.08,1966.6,841.15Zm508.48,106.08a254.41,254.41,0,1,1-112.95-158.62A252.73,252.73,0,0,1,2475.08,947.23Z"/><g class="cls-34"><path class="cls-8" d="M1979.21,1061.27a252.71,252.71,0,0,0,112.94,158.62q8.43,5.28,17.14,9.86a252.54,252.54,0,0,0,174.87,22.44,257.54,257.54,0,0,0,45.5-15,251.27,251.27,0,0,0,73.89-49.47,256.36,256.36,0,0,0,39.22-48.45q3-4.83,5.8-9.75a254,254,0,0,0-86.44-340.9q-4.18-2.61-8.44-5.06a252.85,252.85,0,0,0-102.88-32.72,249.14,249.14,0,0,0-36.57-.71,258.67,258.67,0,0,0-89.44,21.15A251.11,251.11,0,0,0,2065,808a255,255,0,0,0-85.83,253.26Z"/></g><path class="cls-29" d="M2359.43,786.94s0,0,0,0l0,0h0A254.43,254.43,0,0,0,2112,1230.85c.89.56,1.77,1.1,2.66,1.64l-.48-.23c-2.81-1.4-5.62-2.86-8.39-4.37q-6.93-3.78-13.68-8-6.27-3.92-12.25-8.15-4.79-3.4-9.39-7h0a259.76,259.76,0,0,1-21.82-19.06l-2.05-2c-2.71-2.72-5.37-5.5-7.95-8.33l-1.92-2.14c-1.91-2.15-3.79-4.34-5.62-6.54-.62-.73-1.23-1.48-1.83-2.22-2.41-3-4.75-6-7-9.08-1.14-1.53-2.26-3.09-3.36-4.65s-2.18-3.15-3.24-4.73c-.54-.8-1.06-1.6-1.59-2.4q-4.69-7.21-8.92-14.74c-1.4-2.51-2.76-5-4.08-7.6-.89-1.71-1.74-3.42-2.59-5.15s-1.65-3.48-2.46-5.23-1.59-3.51-2.35-5.27a257.2,257.2,0,0,1-14.48-44.31,254.38,254.38,0,0,1,190.9-304.95l3.11-.7q3.11-.68,6.21-1.27c3.12-.6,6.23-1.13,9.35-1.61,2.08-.33,4.16-.62,6.24-.89,5.19-.67,10.4-1.18,15.59-1.53a251.9,251.9,0,0,1,31.08-.18q3.09.18,6.19.42a252.3,252.3,0,0,1,100.55,30.06c.93.5,1.86,1,2.77,1.52Q2355.35,784.44,2359.43,786.94Z"/><path class="cls-35" d="M2533,1261.31l10.57,6.62,11.6,7.28,17.78,11.12,11.61,7.27.52.32,6.44,4,68.74,42.89,7.35,4.58v0l160.19,99.93,4.74,3L2967,1532.2h0l6,3.74,52.86,33,5,3.1,38.67,24.13,4.43,2.76,45.79,28.58,5.7,3.55h0l86.08,53.7c9.37,0,19-4.4,27.76-11.58,1.27-1,2.49-2.11,3.71-3.26h0c20.12-18.82,34.33-51.94,27.37-78.2l-43.11-27-1.5-1c-15.07,17.64-34.77,36.52-52,36.38-29.3-.22-540.61-325.59-631.17-383.36-.29.51-.55,1-.82,1.51-.89,1.64-1.73,3.28-2.53,4.9C2530.39,1241,2526.21,1257.06,2533,1261.31Z"/><g class="cls-36"><path class="cls-8" d="M2065,808c75.69,122.37,196.61,318.06,264.62,429.16a251.27,251.27,0,0,0,73.89-49.47,256.36,256.36,0,0,0,39.22-48.45q3-4.83,5.8-9.75c-64.05-103.24-168-271.07-234.33-379.39a258.67,258.67,0,0,0-89.44,21.15A251.11,251.11,0,0,0,2065,808Z"/></g><path class="cls-21" d="M3145.11,1415.47l-11.7,3.15-76,15.12-41.29,8.52a19.78,19.78,0,0,0-9.27,4.72l-24,21.76s7.81,12.55,23.12,6.09l18-8.13,24.79-.83,1.94,4.15s-52.31,92.49-50.08,102.6,12,9.48,15,8.1,5.53-5.84,5.53-5.84,6.56,11.68,24,6c0,0,4.77,18.62,23.13,7.14,0,0,12.75,2.65,22.83-4.24s54.62-51.51,58.69-56.65,46.75-59,46.75-59l8.24-14.83Z"/><path class="cls-22" d="M3019.7,1576.88c.61.6,10.11-8.5,19.23-21.82s15.15-24.73,14.46-25.18-8.26,10.14-17.18,23.31S3019,1576.23,3019.7,1576.88Z"/><path class="cls-22" d="M3045.1,1580.88c.37.28,2.35-1.62,5.52-4.7s7.56-7.31,12.13-12.41,7.93-10.36,10.5-13.9,4.2-5.68,3.94-6-2.74,1.22-5.75,4.55-6.7,8.24-11.16,13.18-8.66,9.5-11.4,13S3044.74,1580.61,3045.1,1580.88Z"/><path class="cls-22" d="M3066.57,1589.37c.67.62,9.87-8.27,20.53-19.86,5.27-5.87,10.05-10.92,14.37-13.34s7.49-2.67,7.46-3.22c.08-.35-3.48-1.12-8.52,1.14s-10.52,7.36-15.73,13.18C3074,1578.86,3065.9,1588.75,3066.57,1589.37Z"/><path class="cls-21" d="M3010.32,1168.53c1.9.26,3.66.49,5.19.61C3014,1168.87,3012.23,1168.69,3010.32,1168.53Z"/><path class="cls-21" d="M3365,1255l-219.92,160.5,31.63,77.59s303.64-90.9,326.09-139.33S3365,1255,3365,1255Z"/><path class="cls-21" d="M2636.27,1261.54c-2.65-.84-6.71-.18-8.74,1.71s-3.12,4.56-4,7.19a77.17,77.17,0,0,0,3.7,57.56c3.69,7.6,10,15.33,18.41,15.49l5.51-8.19c.88-4.24,5.48-12.85,4.58-17.08-3.77-17.82-9.15-14.37-12.63-46.77C2642.76,1268.27,2641.63,1263.22,2636.27,1261.54Z"/><path class="cls-21" d="M2645.44,1284.93c.32-4.81.95-9.64,2.72-13.73s4.82-7.38,8.63-8c6.12-.92,12.42,5.45,15.28,12.85s3.09,15.54,3.26,23.39q.55,25.1,1.09,50.17l-5-.9c-1.36,3.82-5.81,4.36-9,2.18s-5.43-6.26-7.23-10.27A119,119,0,0,1,2645.44,1284.93Z"/><path class="cls-21" d="M2674.64,1321.25c-.34-11.73,3-23.3,6.54-34.57,1.24-3.93,2.59-8,5.53-11s8-4.31,11.28-1.92,3.54,6.78,3.57,10.7a521.28,521.28,0,0,1-4.66,73l-16.84-5.87C2670.43,1344.87,2675,1333,2674.64,1321.25Z"/><path class="cls-21" d="M2694.6,1335.74c-.34-11.73,3-23.3,6.54-34.57,1.24-3.93,2.59-8,5.53-11s8-4.31,11.28-1.92,3.54,6.78,3.57,10.7a522.81,522.81,0,0,1-4.66,73l-16.84-5.87C2690.39,1359.36,2694.94,1347.46,2694.6,1335.74Z"/><path class="cls-21" d="M2716.86,1372s2.07,12.2-15.29,10.82-68.88-35.44-73.57-53.26,24.52-5.6,36.1,0S2716.86,1372,2716.86,1372Z"/><path class="cls-21" d="M3271.23,723.34c-15.58-5.47-33.13,3.81-39.2,20.72-.11.32-.19.63-.29,1-23.58-8.7-67-32.7-87-95.09,0,0-39.31,25-40.24,88.86s-.71,101.81,53.78,89.8l-6,76.25s3.34,19.13,16.76,21.45c59.94,10.38,99.13-31.65,99.13-31.65L3261.65,789c13.83-5.94,21.25-9.64,26.8-25.08C3294.52,747,3286.81,728.81,3271.23,723.34Z"/><path class="cls-22" d="M3158.32,828.58s38.09-26.25,73.75-25.51c0,0-30.81,73.65-77,66.64Z"/><path class="cls-22" d="M3269.9,732.87c.27-.1.43.28.21.44-10.86,8-14.29,20.82-15.7,33.53,2.43-5.39,6.71-9.1,13.87-6.42.37.14.2.71-.16.73-5.26.24-8.63,2-10.94,6.84-1.64,3.41-2.33,7.36-3.18,11-.28,1.22-2.4,1.16-2.31-.18a2.83,2.83,0,0,1,0-.3C3247.33,763.3,3253.67,738.74,3269.9,732.87Z"/><path class="cls-21" d="M3139.14,617.7s-84,168.53-14.11,211.21c46.86,28.61,127.49-42.85,127.49-42.85l-12.27-38.45C3244.43,740.79,3317.8,610.42,3139.14,617.7Z"/><path d="M3139.14,615.23a100.45,100.45,0,0,0-3.78,11.86,24,24,0,0,0-1.2,3.62c-.68,2.58-1.26,5.2-1.71,7.84a94.63,94.63,0,0,0-1.22,15.59,86.12,86.12,0,0,0,1.48,15.94c.93,4.93,2.1,10.39,4.4,14.89.27.52,1.16.36,1-.28-.43-2.48-1.21-4.93-1.72-7.4s-1-5-1.35-7.52c-.43-2.94-.7-5.9-.9-8.87,12.79,62.68,109.08,94.37,109.08,94.37s-3-24.2,8.11-31.89C3263.06,715.31,3288.88,600.17,3139.14,615.23Z"/><path d="M3131.24,658.78s-20.68,34-25.52,49c-4.71,14.62-6.68-29.17,3.27-51.14s22.15-35.24,28.65-35.24S3131.24,658.78,3131.24,658.78Z"/><path class="cls-22" d="M3130.78,785.22l-.27,0c-.22,0-5.62-1-15.26-5.91a6.42,6.42,0,0,1-3.85-4.8c-.84-5.54,6.19-12.35,11.84-17.81a54.19,54.19,0,0,0,4.25-4.38c3.6-4.6,3.67-12.48,3.67-12.56a1.59,1.59,0,0,1,1.59-1.58h0a1.59,1.59,0,0,1,1.59,1.59c0,.37-.07,9-4.34,14.5a55.53,55.53,0,0,1-4.55,4.71c-4.58,4.43-11.51,11.13-10.91,15.06.05.36.22,1.46,2.15,2.44,9.15,4.65,14.32,5.6,14.37,5.61a1.59,1.59,0,0,1-.28,3.15Z"/><path class="cls-37" d="M3154,746.94c-.45,2.49.75,4.78,2.68,5.13s3.88-1.38,4.34-3.87-.75-4.77-2.69-5.12S3154.47,744.46,3154,746.94Z"/><path class="cls-37" d="M3118.36,743.65c-.09,2.52,1.44,4.62,3.41,4.68s3.63-1.93,3.71-4.45-1.44-4.62-3.41-4.68S3118.44,741.13,3118.36,743.65Z"/><path class="cls-37" d="M3167.75,734.48a3.18,3.18,0,0,1-2.13-.83c-.29-.26-6.3-5.49-13.6-2.46a3.18,3.18,0,1,1-2.43-5.87c11.1-4.61,19.94,3.3,20.31,3.64a3.18,3.18,0,0,1-2.15,5.52Z"/><path class="cls-37" d="M3130.43,731.65a3.11,3.11,0,0,1-2-.75,9.22,9.22,0,0,0-11.73,0,3.18,3.18,0,0,1-3.9-5,15.56,15.56,0,0,1,19.74.24,3.17,3.17,0,0,1-2.07,5.58Z"/><path class="cls-22" d="M3159.38,767c0,4.68,8.22,8.5,18.39,8.53s18.44-3.74,18.45-8.42-8.22-8.49-18.39-8.52S3159.4,762.31,3159.38,767Z"/><path class="cls-38" d="M3171.12,642.73s-4.68,46.17,55.37,72.13c0,0-28.68-35.12-25.06-59.28,0,0,24.15,38.39,84.2,57.49,0,0-95.35-71-94.14-107.12,0,0-6.89,34.1-2.37,58.87C3189.12,664.82,3171.42,652.28,3171.12,642.73Z"/><path class="cls-39" d="M3129.11,794.48s2.09,8.52,7.7,13.63a13.93,13.93,0,0,0,7.58,3.75c6.26.88,8.56-4.23,9.38-9.09a33.27,33.27,0,0,0,.32-7.83A40,40,0,0,1,3129.11,794.48Z"/><path class="cls-40" d="M3136.81,808.11a13.93,13.93,0,0,0,7.58,3.75c6.26.88,8.56-4.23,9.38-9.09C3147.48,800.86,3139.78,802.45,3136.81,808.11Z"/><path class="cls-24" d="M2227.13,517.57c-130.42,0-236.18,105.7-236.18,236.18,0,95,125.49,271.77,193.51,360.67a53.82,53.82,0,0,0,85.4,0c68-88.9,193.46-265.62,193.46-360.67C2463.32,623.27,2357.61,517.57,2227.13,517.57Zm0,330.39a99.72,99.72,0,1,1,99.73-99.72A99.75,99.75,0,0,1,2227.13,848Z"/><path class="cls-41" d="M2795.08,1707.52l-12.72,130.56-37.87-28.64-2.27-1.71-292.71,225.76L2364.64,1968l-441.91,340.82-70.41-54.3-120,92.56a25.87,25.87,0,0,1-30,0c-8.3-6.39-8.3-16.75,0-23.14l150-115.7,70.41,54.3,441.91-340.83,84.87,65.45L2712,1784.81l-5.21-3.93-37.86-28.64Z"/><polygon class="cls-41" points="2813.4 1707.52 2795.08 1707.52 2783.8 1716.22 2813.4 1707.52"/><polygon class="cls-41" points="2782.36 1838.08 2800.68 1838.08 2782.36 1820.82 2782.36 1838.08"/><path class="cls-41" d="M1717.29,2351.9h19.27v-7.54s-16.26,1.76-19.27,7.54Z"/><polygon class="cls-41" points="1941.13 2285.68 1941.05 2308.85 1922.73 2308.85 1922.73 2290 1941.13 2285.68"/><rect class="cls-41" x="1852.32" y="2208.27" width="18.32" height="16.65"/><polygon class="cls-41" points="2364.64 1921.74 2382.96 1921.74 2382.96 1968.03 2364.64 1921.74"/><rect class="cls-41" x="2449.51" y="2010.07" width="18.32" height="23.43"/><path class="cls-42" d="M2813.4,1707.52l-12.72,130.56-37.87-28.64-2.28-1.71-292.7,225.76L2383,1968l-441.91,340.82-70.41-54.3-120,92.56a25.88,25.88,0,0,1-30,0c-8.29-6.39-8.29-16.75,0-23.14l150-115.7,70.41,54.3L2383,1921.74l84.87,65.45,262.44-202.38-5.21-3.93-37.87-28.64Z"/><rect class="cls-43" x="1800.5" y="2389.33" width="177.64" height="243.63" rx="48.38"/><rect class="cls-44" x="2080.24" y="2230.02" width="177.64" height="402.94" rx="48.38"/><rect class="cls-43" x="2376.7" y="2097.07" width="177.64" height="535.89" rx="48.38"/><rect class="cls-44" x="2668.88" y="1918.94" width="177.64" height="714.02" rx="48.38"/><rect class="cls-45" x="1818.82" y="2389.33" width="177.64" height="243.63" rx="48.38"/><rect class="cls-46" x="2098.56" y="2230.02" width="177.64" height="402.94" rx="48.38"/><rect class="cls-45" x="2395.02" y="2097.07" width="177.64" height="535.89" rx="48.38"/><rect class="cls-46" x="2687.19" y="1918.94" width="177.64" height="714.02" rx="48.38"/><circle class="cls-47" cx="1265.27" cy="2328.59" r="296.68"/><circle class="cls-48" cx="1251.59" cy="2320.82" r="281.22" transform="translate(-1274.49 1564.76) rotate(-45)"/><circle class="cls-8" cx="1251.59" cy="2320.82" r="235.1" transform="translate(-1274.49 1564.76) rotate(-45)"/><circle class="cls-48" cx="1251.59" cy="2320.82" r="191.85" transform="translate(-1274.49 1564.76) rotate(-45)"/><circle class="cls-8" cx="1251.59" cy="2320.82" r="131.36" transform="translate(-1274.49 1564.76) rotate(-45)"/><circle class="cls-48" cx="1251.59" cy="2320.82" r="86.06" transform="translate(-1274.49 1564.76) rotate(-45)"/><circle class="cls-8" cx="1251.59" cy="2320.82" r="41.7" transform="translate(-1356.33 1931.65) rotate(-53.18)"/><circle class="cls-48" cx="1251.59" cy="2320.82" r="22.73" transform="translate(-587.61 431.37) rotate(-15.89)"/><path class="cls-49" d="M855.91,2143.32l42.65-6.87-20.82,20.17,109.67,66.78,75.77-17.89L867.37,2086.26l-74.14,18.89Z"/><path class="cls-49" d="M867.37,2086.26l195.81,119.25L1044.31,2130l-48.9-29.78c-3.56,12-6.95,27.61-7.65,26.49s-6.35-19.31-12.73-38.9l-124.9-76.06Z"/><path class="cls-50" d="M1254.13,2331.3a11.46,11.46,0,0,0,3.26-20.93L876.9,2078.65A11.46,11.46,0,1,0,865,2098.23L1245.47,2330A11.45,11.45,0,0,0,1254.13,2331.3Z"/><path class="cls-51" d="M3809,745.6H3596.59a77.77,77.77,0,0,0-77.77,77.77v90.51a77.76,77.76,0,0,0,77.77,77.76h18.85v87.64l69.27-87.64H3809a77.76,77.76,0,0,0,77.77-77.76V823.37A77.77,77.77,0,0,0,3809,745.6Z"/><path class="cls-8" d="M3790.15,838.42a30.21,30.21,0,1,1-30.21,30.2A30.21,30.21,0,0,1,3790.15,838.42Zm-117.56,30.2a30.21,30.21,0,1,0,30.2-30.2A30.2,30.2,0,0,0,3672.59,868.62Zm-87.36,0a30.21,30.21,0,1,0,30.21-30.2A30.2,30.2,0,0,0,3585.23,868.62Z"/></g></svg>