<?xml version="1.0" encoding="UTF-8"?>
<svg id="Layer_1" xmlns="http://www.w3.org/2000/svg" version="1.1" viewBox="0 0 4680 3120">
  <!-- Generator: Adobe Illustrator 29.0.0, SVG Export Plug-In . SVG Version: 2.1.0 Build 186)  -->
  <g id="Layer_2">
    <rect width="4680" height="3120" style="fill: #ecf3eb;"/>
  </g>
  <g id="Layer_3">
    <g>
      <g>
        <g>
          <g>
            <path d="M1745.2,618.1h-23.3c-6.6,0-11.9-5.3-11.9-11.9v-75.7c0-6.6,5.3-11.9,11.9-11.9h23.3v99.5Z" style="fill: #0060dd;"/>
            <path d="M1745.2,756h-23.3c-6.6,0-11.9-5.3-11.9-11.9v-75.7c0-6.6,5.3-11.9,11.9-11.9h23.3v99.5Z" style="fill: #0060dd;"/>
            <path d="M1745.2,894h-23.3c-6.6,0-11.9-5.3-11.9-11.9v-75.7c0-6.6,5.3-11.9,11.9-11.9h23.3v99.5Z" style="fill: #0060dd;"/>
            <path d="M2751.5,945.5h-37.2v-339.3h37.2c13.8,0,24.9,11.1,24.9,24.9v289.7c0,13.6-11.1,24.7-24.9,24.7Z" style="fill: #0060dd;"/>
            <path d="M2557.4,2209.6h-639.9c-95,0-172-77-172-172V421.1c0-95,77-172,172-172h639.9c95,0,172,77,172,172v1616.6c0,95-77,172-172,172Z"/>
            <path d="M2549.5,2166h-624c-76.2,0-138.1-61.8-138.1-138.1V429.2c0-76.2,61.8-138.1,138.1-138.1h624c76.2,0,138.1,61.8,138.1,138.1v1598.6c-.2,76.2-61.9,138.1-138.1,138.1Z" style="fill: #fff;"/>
            <polygon points="2538.9 947.4 2713.3 995 2714.4 945.5 2538.9 947.4"/>
            <path d="M2557.4,2225.6h-639.9c-103.6,0-188-84.4-188-188V421.1c0-103.6,84.4-188,188-188h639.9c103.6,0,188,84.4,188,188v1616.6c0,103.6-84.4,188-188,188ZM1917.4,265.1c-86,0-155.9,69.9-155.9,155.9v1616.6c0,86,69.9,155.9,155.9,155.9h639.9c86,0,155.9-69.9,155.9-155.9V421.1c0-86-69.9-155.9-155.9-155.9h-639.9Z" style="fill: #0060dd;"/>
            <g>
              <rect x="1729.4" y="446.7" width="32.1" height="9.3"/>
              <rect x="1729.4" y="2002.8" width="32.1" height="9.3"/>
            </g>
            <g>
              <rect x="2713.3" y="445.9" width="32.1" height="9.3"/>
              <rect x="2713.3" y="2002" width="32.1" height="9.3"/>
            </g>
          </g>
          <path d="M2334.5,415.9h-214.8c-14.8,0-26.6-11.9-26.6-26.6h0c0-14.8,11.9-26.6,26.6-26.6h214.8c14.8,0,26.6,11.9,26.6,26.6h0c0,14.8-11.9,26.6-26.6,26.6Z"/>
          <path d="M2425,2127.3h-375.2c-5.1,0-9.1-4.2-9.1-9.1h0c0-5.1,4.2-9.1,9.1-9.1h375.1c5.1,0,9.1,4.2,9.1,9.1h0c.2,5-4,9.1-9,9.1Z"/>
        </g>
        <path d="M3228.7,1341.4h-938.5c-39.1,0-70.7-31.8-70.7-70.7v-138.4c0-39.1,31.8-70.7,70.7-70.7h938.5c39.1,0,70.7,31.8,70.7,70.7v138.4c0,39.1-31.6,70.7-70.7,70.7Z" style="fill: #14bdb8;"/>
        <g>
          <g>
            <path d="M1991.9,1449.7h-559.9c-54.4,0-98.5-44.1-98.5-98.5v-757.4h711.2v803.2c0,29-23.7,52.6-52.8,52.6Z" style="fill: #ffca43;"/>
            <g>
              <g>
                <path d="M2130.3,1486.6l-483-129.1c-28.1-7.5-44.9-36.4-37.4-64.7l165.4-618.9c7.5-28.1,36.4-44.9,64.7-37.4l483,129.1c28.1,7.5,44.9,36.4,37.4,64.7l-165.4,618.9c-7.5,28.1-36.6,44.8-64.7,37.4Z" style="fill: #fff;"/>
                <path d="M2144,1490c-4.7,0-9.3-.6-14-1.9l-483.2-129.1c-29-7.7-46.2-37.5-38.5-66.6l165.4-618.9c3.7-14,12.7-25.8,25.3-33,12.5-7.2,27.3-9.1,41.2-5.5l483,129.1c29,7.7,46.2,37.5,38.5,66.6l-165.4,618.9c-6.4,24.4-28.4,40.4-52.5,40.4ZM1826.3,636.3c-8.8,0-17.6,2.4-25.5,6.9-11.9,6.9-20.2,17.8-23.7,31.1l-165.6,618.7c-7.2,27.3,9,55.3,36.3,62.6l483,129.1c27.3,7.2,55.3-9,62.6-36.3l165.4-618.9c7.2-27.3-9-55.3-36.3-62.6l-483-129.1c-4.3-1.1-8.8-1.6-13.2-1.6Z"/>
              </g>
              <g>
                <path d="M2100,932.3c-1.3,0-2.4-.2-3.7-.5l-142.9-38.2c-3.7-1-6.7-3.4-8.5-6.6-1.9-3.2-2.4-7.1-1.4-10.7,1-3.7,3.4-6.7,6.6-8.5,3.2-1.9,7.1-2.4,10.7-1.4l142.9,38.2c7.5,1.9,12,9.8,9.9,17.2-1,3.7-3.4,6.7-6.6,8.5-2.1,1.4-4.5,2.1-7.1,2.1ZM1957.1,869.1c-1.9,0-3.7.5-5.5,1.4-2.6,1.4-4.3,3.9-5.1,6.6s-.3,5.8,1.1,8.2,3.9,4.3,6.6,5.1l142.9,38.2h0c2.7.8,5.8.3,8.2-1.1,2.6-1.4,4.3-3.9,5.1-6.6,1.6-5.8-1.9-11.7-7.7-13.3l-142.9-38.2c-.8-.2-1.8-.3-2.7-.3Z"/>
                <g>
                  <path d="M2189.8,1032.6c-1.3,0-2.4-.2-3.7-.5l-360.5-96.4c-3.7-1-6.7-3.4-8.5-6.6s-2.4-7.1-1.4-10.7c2.1-7.5,9.8-12,17.2-9.9l360.5,96.4c7.5,2.1,12,9.8,9.9,17.2-1,3.7-3.4,6.7-6.6,8.5-2.1,1.4-4.5,2.1-6.9,2.1ZM1829.4,911.1c-4.8,0-9.1,3.2-10.6,8-.8,2.7-.3,5.8,1.1,8.2s3.9,4.3,6.6,5.1l360.5,96.4h0c2.7.8,5.8.3,8.2-1.1,2.6-1.4,4.3-3.9,5.1-6.6,1.6-5.8-1.9-11.7-7.7-13.3l-360.5-96.4c-1-.2-1.9-.3-2.7-.3Z"/>
                  <path d="M2170.8,1103.7c-1.1,0-2.4-.2-3.7-.5l-360.5-96.4c-7.5-2.1-12-9.8-9.9-17.2,1-3.7,3.4-6.7,6.6-8.5,3.2-1.9,7.1-2.4,10.7-1.4l360.5,96.4c3.7,1,6.7,3.4,8.5,6.6s2.4,7.1,1.4,10.7c-1.8,6.1-7.4,10.3-13.6,10.3ZM1810.3,982.4c-1.9,0-3.7.5-5.5,1.4-2.6,1.4-4.3,3.9-5.1,6.6-1.6,5.8,1.9,11.7,7.7,13.3l360.5,96.4c5.8,1.6,11.7-1.9,13.3-7.7.8-2.7.3-5.8-1.1-8.2s-3.9-4.3-6.6-5.1l-360.5-96.4c-.8-.2-1.8-.3-2.7-.3Z"/>
                  <path d="M2151.7,1174.9c-1.1,0-2.4-.2-3.7-.5h0l-360.5-96.4c-7.5-2.1-12-9.8-9.9-17.2,1-3.7,3.4-6.7,6.6-8.5,3.2-1.9,7.1-2.4,10.7-1.4l360.5,96.4c3.7,1,6.7,3.4,8.5,6.6s2.4,7.1,1.4,10.7c-1.6,6.1-7.4,10.3-13.6,10.3ZM2148.9,1171.4c5.8,1.6,11.7-1.9,13.3-7.7.8-2.7.3-5.8-1.1-8.2s-3.9-4.3-6.6-5.1l-360.5-96.4c-2.9-.8-5.8-.3-8.2,1.1-2.6,1.4-4.3,3.9-5.1,6.6-1.6,5.8,1.9,11.7,7.7,13.3l360.5,96.4Z"/>
                  <path d="M2132.7,1246.1c-1.1,0-2.4-.2-3.7-.5h0l-360.5-96.4c-7.5-2.1-12-9.8-9.9-17.2,2.1-7.4,9.8-12,17.2-9.9l360.5,96.4c7.5,2.1,12,9.8,9.9,17.2-1.6,6.3-7.2,10.4-13.5,10.4ZM2129.8,1242.4c5.8,1.6,11.7-1.9,13.3-7.7,1.6-5.8-1.9-11.7-7.7-13.3l-360.5-96.4c-5.8-1.6-11.7,1.9-13.3,7.7-1.6,5.8,1.9,11.7,7.7,13.3l360.5,96.4Z"/>
                </g>
              </g>
              <path d="M1840,636.5c-28.1-7.5-57.1,9.1-64.7,37.4l-165.4,618.9c-5.3,19.7,1.3,39.6,15.4,52.6h308.8c45.6,0,82.5-36.9,82.5-82.5v-321.5h66.6c18.9,0,34.3-15.4,34.3-34.3v-196.5l-277.5-74.1Z"/>
            </g>
            <g>
              <path d="M1413.4,1274.7h447.7c45.6,0,82.5-36.9,82.5-82.5v-610.9c0-24.7-20.1-44.9-44.9-44.9h-520.2c-24.7,0-44.9,20.1-44.9,44.9v773.2c.2-44.1,35.9-79.9,79.9-79.9Z" style="fill: #8caf97;"/>
              <path d="M2010.3,536.4h-631.9c-24.7,0-44.9,20.1-44.9,44.9v773.2c0-44.1,35.8-79.9,79.9-79.9h447.7c45.6,0,82.5-36.9,82.5-82.5v-321.5h66.6c18.9,0,34.3-15.4,34.3-34.3v-265.7c.2-18.9-15.2-34.3-34.2-34.3Z" style="fill: #8caf97;"/>
              <path d="M1333.7,1354.6v1.1h0v-1.1Z" style="fill: #8caf97;"/>
            </g>
          </g>
          <path d="M1813,445.9c32.9,0,59.5,26.6,59.5,59.5v31h14.4v-31c0-40.7-33.2-74-74-74s-74,33.2-74,74v166.5c0,30,24.4,54.4,54.4,54.4s54.4-24.4,54.4-54.4v-157.1c0-18.8-15.2-34.2-34.2-34.2s-34.2,15.2-34.2,34.2v139.1c0,4,3.2,7.2,7.2,7.2s7.2-3.2,7.2-7.2v-139.1c0-10.9,8.8-19.7,19.7-19.7s19.7,8.8,19.7,19.7v157.1c0,22-18,39.9-39.9,39.9s-39.9-18-39.9-39.9v-166.5c0-32.7,26.8-59.5,59.5-59.5Z" style="fill: #ff824d;"/>
        </g>
        <g>
          <path d="M2476.8,1288.3h-130.7c-10.1,0-18.4-8.2-18.4-18.4v-130.9c0-10.1,8.2-18.4,18.4-18.4h130.7c10.1,0,18.4,8.2,18.4,18.4v130.9c0,10.1-8.2,18.4-18.4,18.4Z"/>
          <path d="M2416,1262.6c-4-.2-7.7-2.1-10.3-5.1l-46-52.9c-5.3-6.4-4.8-15.9,1.6-21.2,6.4-5.3,15.9-4.8,21.2,1.6l35,40.1,95.3-105.4c5.6-6.3,15.1-6.4,21.3-1.3,6.3,5.6,6.4,15.1,1.3,21.3l-106.7,117.9c-3,3-6.9,5-11.4,5.1q-.8-.2-1.3-.2Z" style="fill: #ffca43;"/>
        </g>
        <path d="M2808.8,1188.4h-213c-5.9,0-10.9-4.8-10.9-10.9h0c0-5.9,4.8-10.9,10.9-10.9h213c5.9,0,10.9,4.8,10.9,10.9h0c-.2,6.1-5,10.9-10.9,10.9Z" style="fill: #fff;"/>
        <path d="M3187,1250.3h-591.3c-5.9,0-10.9-4.8-10.9-10.9h0c0-5.9,4.8-10.9,10.9-10.9h591.3c5.9,0,10.9,4.8,10.9,10.9h0c-.2,6.1-5,10.9-10.9,10.9Z" style="fill: #fff;"/>
        <path d="M2564.6,1734.6h-654.4c-27.3,0-49.4-22.1-49.4-49.4v-96.6c0-27.3,22.1-49.4,49.4-49.4h654.4c27.3,0,49.4,22.1,49.4,49.4v96.6c-.2,27.3-22.1,49.4-49.4,49.4Z" style="fill: #cadef7;"/>
        <path d="M2040.3,1697.5h-91.3c-7.1,0-12.8-5.8-12.8-12.8v-91.3c0-7.1,5.8-12.8,12.8-12.8h91.3c7.1,0,12.8,5.8,12.8,12.8v91.3c0,7.1-5.8,12.8-12.8,12.8Z" style="fill: #fff;"/>
        <path d="M2271.7,1627.9h-148.6c-4.2,0-7.5-3.4-7.5-7.5h0c0-4.2,3.4-7.5,7.5-7.5h148.6c4.2,0,7.5,3.4,7.5,7.5h0c0,4-3.4,7.5-7.5,7.5Z" style="fill: #fff;"/>
        <path d="M2535.4,1671.1h-412.3c-4.2,0-7.5-3.4-7.5-7.5h0c0-4.2,3.4-7.5,7.5-7.5h412.3c4.2,0,7.5,3.4,7.5,7.5h0c.2,4.2-3.4,7.5-7.5,7.5Z" style="fill: #fff;"/>
        <path d="M2564.6,2008.4h-654.4c-27.3,0-49.4-22.1-49.4-49.4v-96.6c0-27.3,22.1-49.4,49.4-49.4h654.4c27.3,0,49.4,22.1,49.4,49.4v96.6c-.2,27.4-22.1,49.4-49.4,49.4Z" style="fill: #cadef7;"/>
        <path d="M2040.3,1971.4h-91.3c-7.1,0-12.8-5.8-12.8-12.8v-91.3c0-7.1,5.8-12.8,12.8-12.8h91.3c7.1,0,12.8,5.8,12.8,12.8v91.3c0,7.1-5.8,12.8-12.8,12.8Z" style="fill: #fff;"/>
        <path d="M2271.7,1901.8h-148.6c-4.2,0-7.5-3.4-7.5-7.5h0c0-4.2,3.4-7.5,7.5-7.5h148.6c4.2,0,7.5,3.4,7.5,7.5h0c0,4.2-3.4,7.5-7.5,7.5Z" style="fill: #fff;"/>
        <path d="M2535.4,1944.9h-412.3c-4.2,0-7.5-3.4-7.5-7.5h0c0-4.2,3.4-7.5,7.5-7.5h412.3c4.2,0,7.5,3.4,7.5,7.5h0c.2,4.2-3.4,7.5-7.5,7.5Z" style="fill: #fff;"/>
        <circle cx="3221.2" cy="1072.7" r="125.3" style="fill: #ff5050;"/>
        <g>
          <path d="M3205.3,1108.8h31.4v15.7c0,8.7-7.1,15.7-15.7,15.7h0c-8.7,0-15.7-7.1-15.7-15.7v-15.7h0Z" style="fill: #fff;"/>
          <path d="M3268.4,1079.8v-38c0-26.3-21.3-47.3-47.3-47.3h0c-26.3,0-47.3,21.3-47.3,47.3v39c0,2.9-2.2,5.1-5.1,5.1h0c-3.9,0-7.1,3-7.1,7.1v10.1h119.2v-10.9c0-3.4-2.7-6.3-6.3-6.3h0c-3.2,0-6.1-2.6-6.1-6.1Z" style="fill: #fff;"/>
        </g>
        <g>
          <path d="M3208,832.4c-.5.5-.2,1.1-.2,1.6,1.6,10.9-8.2,19.9-18.8,17.2-5-1.3-9.9-3.4-14.9-4.7-33.2-9-64.8-4.3-93.8,14.1-22.8,14.1-38.3,34.5-47.2,60-1.4,3.9-2.7,8-4.2,12.2-2.4,6.4-8,10.6-14.6,10.4-6.6,0-12.4-4.2-14.4-10.3-1.1-3.4-1.1-6.7-.2-10.1,5.5-17.6,12.5-34.8,23.7-49.9,10.7-14.8,23.6-27.4,39-37.2,23.3-15.1,48.8-23.1,76.5-24.1,13.3-.3,26.3,1.1,39.3,4.2,6.7,1.6,13.3,4,20.1,6.3,2.9,1,5,3.2,7.1,5.1.6,1.4,1.6,3.4,2.6,5.1Z" style="fill: #ffca43;"/>
          <path d="M3103.6,876.3c14.3-7.1,29.4-9.9,45.2-9,11.9.8,23.1,3.9,33.7,8.8,7.1,3.4,10.6,12.5,7.9,20.2-2.7,7.9-11.1,12.8-18.9,10.9-5-1.3-9.8-3-15.1-4.3-15.1-4-29.2-1.6-42.5,6.4-11.2,6.9-18.8,16.8-22.9,29.4-1.3,3.9-2.4,7.5-3.9,11.2-4.7,12.7-19.9,15.9-28.9,6.1-4.2-4.7-5.3-10.4-3.4-16.2,2.9-8.8,5.6-17.6,10.1-25.8,6.6-12.4,15.6-22.5,27-30.6,3.9-2.7,7.5-5,11.7-7.1Z" style="fill: #ffca43;"/>
        </g>
        <g>
          <g>
            <path d="M2812.4,947.4h-267.4c-24.5,0-44.4-19.9-44.4-44.4v-267.6c0-24.5,19.9-44.4,44.4-44.4h267.4c24.5,0,44.4,19.9,44.4,44.4v267.4c0,24.5-19.9,44.6-44.4,44.6Z" style="fill: #cadef7;"/>
            <path d="M2871.6,947.4h-267.4c-24.5,0-44.4-19.9-44.4-44.4v-267.6c0-24.5,19.9-44.4,44.4-44.4h267.4c24.5,0,44.4,19.9,44.4,44.4v267.4c0,24.5-19.9,44.6-44.4,44.6Z" style="fill: #fff;"/>
            <path d="M2812.4,590.9h-267.4c-24.5,0-44.4,19.9-44.4,44.4v52.8h356.5v-52.8c-.2-24.5-20.1-44.4-44.6-44.4Z" style="fill: #d22a18;"/>
            <path d="M2871.6,590.9h-267.4c-24.5,0-44.4,19.9-44.4,44.4v52.8h356.5v-52.8c-.2-24.5-20.1-44.4-44.6-44.4Z" style="fill: #f54e32;"/>
          </g>
          <g>
            <path d="M2656.2,548.6c-24.2-.5-44.3,18.9-44.6,42.8h18.8c.5-13.8,12.2-24.7,26.3-24.1,12.7.6,23.1,10.7,23.6,23.4.6,10.7-5.8,20.2-14.8,24.2-3.4,1.6-5.6,4.8-5.6,8.5h0c0,6.7,6.9,11.2,13.2,8.5,15.2-6.7,26-22.3,26-40.1s-19.1-42.8-42.8-43.3Z" style="fill: #ffb41a;"/>
            <path d="M2743.3,549.2c-24.2-.5-44.3,18.9-44.6,42.8h18.8c.5-13.8,12.2-24.7,26.3-24.1,12.7.6,22.9,10.7,23.6,23.4.6,10.7-5.8,20.2-14.8,24.2-3.4,1.6-5.6,4.8-5.6,8.5h0c0,6.7,6.9,11.2,13.2,8.5,15.2-6.7,26-22.3,26-40.1,0-23.4-19.1-42.8-42.8-43.3Z" style="fill: #ffb41a;"/>
            <path d="M2830.4,549.9c-24.2-.5-44.3,18.9-44.6,42.8h18.8c.5-13.8,12.2-24.7,26.3-24.1,12.7.6,23.1,10.7,23.6,23.4.6,10.7-5.8,20.2-14.8,24.2-3.4,1.6-5.6,4.8-5.6,8.5h0c0,6.7,6.9,11.2,13.2,8.5,15.2-6.7,26-22.3,26-40.1-.2-23.4-19.3-42.8-42.8-43.3Z" style="fill: #ffb41a;"/>
          </g>
        </g>
        <path d="M2746.8,719.6c-44,0-80.9,31.1-89.8,72.5l-5-9c-2.1-3.9-6.9-5.3-10.7-3-3.9,2.1-5.3,6.9-3,10.7l16.5,30.2c1.1,2.1,3.4,3.7,5.8,4,.3,0,.8.2,1.1.2,2.1,0,4-.8,5.5-2.2l24.9-23.9c3.2-3,3.2-8,.2-11.2s-8-3.2-11.2-.2l-8.8,8.5c7.2-34.5,37.9-60.6,74.4-60.6s76,34.2,76,76-34.2,76-76,76-7.9,3.5-7.9,7.9,3.5,7.9,7.9,7.9c50.7,0,91.9-41.2,91.9-91.9.2-50.5-41.1-91.8-91.6-91.8Z" style="fill: #14bdb8;"/>
        <path d="M2739,856.8c-2.9-.2-5.3-1.4-7.1-3.5l-31.8-36.6c-3.7-4.5-3.4-10.9,1.1-14.6,4.5-3.7,10.9-3.4,14.6,1.1l24.1,27.6,65.8-72.7c3.9-4.3,10.4-4.5,14.8-.8,4.3,3.9,4.5,10.4.8,14.8l-73.5,81.3c-2.1,2.1-4.7,3.4-7.9,3.5q-.6-.2-1-.2Z" style="fill: #ffca43;"/>
      </g>
      <path d="M1608.2,3120s-143.3-233.1-123-616.7c20.2-383.6,104.8-655,123-731.2,18.3-76.2-17.8-173.7,30.5-180.5,48.3-6.7,98,55,106.8,321.3s31.1,367.2,89.5,459.1c58.2,91.9,226.5,228.8,242.2,475.5,15.7,246.7,0,272.4,0,272.4h-469.1Z" style="fill: #ffb1a4;"/>
      <path d="M2821.9,1870.5s44.9-110.7,11.2-222.5c-33.7-111.8-188.8-230.2-271.6-232.6-82.8-2.4,13.8,112.8,68.7,186.3,54.9,73.6,62.2,152.1,79.9,177.9,17.6,26,111.8,91,111.8,91Z" style="fill: #ffb1a4;"/>
      <path d="M2799.3,2035.7s44.9-110.7,11.2-222.5c-33.7-111.8-188.8-230.2-271.6-232.6-82.8-2.4,13.8,112.8,68.7,186.3,54.9,73.5,62.2,152.1,79.9,177.9,17.6,26,111.8,91,111.8,91Z" style="fill: #ffb1a4;"/>
      <path d="M2500.6,3120s339.1-798.9,334.6-1011.1c-4.5-212.2-270.2-395.6-334.6-384.9s-3,112.1,42.5,162.7c30.8,34.2,89.4,114.7,126.1,184.8,30.6,58.6-.8,131.1-64.7,147.7-10.9,2.9-22.8,5-35.6,6.1l-688.4.3s-86.3-26.5-119.4-83.7l-84.2,253.5,259.4,724.6h564.2Z" style="fill: #ffb1a4;"/>
      <path d="M2164.7,2750.2c-4.2,0-7.7-3.2-8-7.4-7.5-97.4-32.4-186.4-74.1-264.5-33.2-62.6-77.2-118.4-130.6-166-91.1-81.3-179.4-110.9-180.2-111-4.2-1.4-6.6-5.9-5.1-10.1,1.4-4.2,5.9-6.6,10.1-5.1,3.7,1.3,91.8,30.6,185.3,113.9,54.9,48.9,100.1,106.4,134.3,170.5,42.7,80.2,68.3,171.5,76,271.3.3,4.5-2.9,8.3-7.4,8.7.2-.2-.2-.2-.3-.2Z" style="fill: #f58073;"/>
      <path d="M2823.8,2044.2c-3.4,0-6.4-2.1-7.5-5.3-35.5-98.8-95.1-168-139.1-208.7-47.6-44.1-87.4-65.1-87.9-65.3-3.9-2.1-5.5-6.9-3.4-10.7,2.1-3.9,6.9-5.5,10.7-3.4,1.6.8,41.7,22,91,67.4,45.4,41.9,107,113.3,143.7,215.4,1.4,4.2-.6,8.8-4.8,10.3-1,.2-1.9.3-2.7.3Z" style="fill: #f58073;"/>
      <path d="M2821.9,1878.5c-3.9,0-7.2-2.7-7.9-6.7-17.2-102.7-63.4-163.5-99.1-196.4-38.8-35.8-74-47.3-74.4-47.5-4.2-1.3-6.6-5.9-5.1-10.1,1.3-4.2,5.9-6.6,10.1-5.1,1.6.5,38.3,12.5,79.7,50.4,37.9,34.7,86.8,98.7,104.8,206.1.8,4.3-2.2,8.5-6.6,9.3-.5,0-1,0-1.4,0Z" style="fill: #f58073;"/>
    </g>
  </g>
</svg>