<svg xmlns="http://www.w3.org/2000/svg" viewBox="0 0 4680 3120"><defs><style>.cls-1,.cls-15{fill:#fff;}.cls-2{fill:#0b0000;}.cls-11,.cls-12,.cls-14,.cls-15,.cls-16,.cls-2{fill-rule:evenodd;}.cls-10,.cls-13,.cls-3,.cls-4,.cls-5,.cls-6,.cls-7,.cls-8,.cls-9{fill:none;}.cls-10,.cls-12,.cls-13,.cls-14,.cls-3,.cls-4,.cls-5,.cls-6,.cls-7,.cls-8,.cls-9{stroke:#0b0000;stroke-linecap:round;stroke-linejoin:round;}.cls-12,.cls-3{stroke-width:12.72px;}.cls-4{stroke-width:9.96px;}.cls-5{stroke-width:10.81px;}.cls-6{stroke-width:7px;}.cls-7{stroke-width:3.82px;}.cls-8{stroke-width:5.41px;}.cls-9{stroke-width:6.36px;}.cls-10{stroke-width:4.45px;}.cls-13{stroke-width:5.09px;}.cls-14{stroke-width:19.08px;}.cls-16{fill:#ff9600;}</style></defs><g id="_06" data-name="06"><rect class="cls-1" width="4680" height="3120"/><path class="cls-2" d="M2279.24,679.59a15.14,15.14,0,0,1-5.31,13.57,14.37,14.37,0,0,1-13.76,3,14.13,14.13,0,0,1-10.81-11.33,20.52,20.52,0,0,1-.43-3.23c-.12-2.4-.18-8.22-.16-9.57a65.91,65.91,0,0,0-.45-8.41,42.47,42.47,0,0,0-1.47-7.49,125.2,125.2,0,0,0-10.77-24.93,148,148,0,0,0-16.14-22.45,93,93,0,0,0-57.29-31.5c-22.09-3.29-45.29.86-64.78,13.41-20.48,13.15-38.5,33.8-50.8,57.32s-19.07,49.81-16.13,74.8c3.08,28.44,14.32,55.77,32.78,74.59,18.86,19.23,45,29.44,75.86,23.82a3.79,3.79,0,1,1,1.49,7.44c-34,7.42-62.83-3.43-84.76-23.6-21.48-19.75-36.26-48.73-41.8-79.9-4.77-28.37,1.13-58.93,14-86.35,13-27.6,33.26-51.8,56.26-67.71,24.12-16.63,53.27-22.87,81.29-19.53a119.92,119.92,0,0,1,75,38.72,176.1,176.1,0,0,1,19.82,26.24,155.26,155.26,0,0,1,14,30.27,72.17,72.17,0,0,1,3,12.87,95,95,0,0,1,1,12.4c0,.43-.27,1.84-.44,3.32,5.26,1.91,7.52,3.7.79,4.24Zm-1-3.91.16.39c-.19,1.85-.14,3.6.84,3.53h0a14.89,14.89,0,0,0-.88-3.52l.09-.72-.44-.17h0l.22.51Z"/><path class="cls-2" d="M2139.89,824.44c-7,10.15-11.52,23.64-14.59,38.07-4.28,20.13-5.77,42.12-7.82,58.84a230.39,230.39,0,0,0,14.27,114c14,35.78,36.07,67.78,61.72,97.05,8.93,10,25.69,24.78,46.4,40.74,22.3,17.19,49.19,35.8,75.05,52,39.56,24.79,77.07,43.5,93.33,43.22a4.62,4.62,0,0,0,0-9.24c-15.38-.27-49.72-20.09-86.42-44.65-25-16.74-50.94-35.93-72.7-53.18-19.61-15.53-35.84-29.42-44.36-39-25.09-27.58-46.77-57.85-60.89-91.85a219.91,219.91,0,0,1-16-107.94c1.65-16.54,2.59-38.25,6.38-58.19,2.52-13.29,6.27-25.78,12.52-35.21a4.15,4.15,0,0,0-6.88-4.66Z"/><path class="cls-2" d="M2136,610.68l-.3.18a2.69,2.69,0,0,1-3.57-1.29,2.8,2.8,0,0,1,.57-3.53c.51-.51,2.06-1.16,4.39-.64,5.4,1.2,19.79,7.51,21.1,8.06a107.57,107.57,0,0,1,20.8,10.66,93.4,93.4,0,0,1,17.68,15.68c17,18.53,26.21,40.65,27.19,62.72a84.31,84.31,0,0,1-6,35.35,92.22,92.22,0,0,1-20,29.82c-21.32,20.06-48.51,19.68-68.86,6.81-19.53-12.34-32.66-35.83-26.5-61.27C2106.1,697.32,2121.34,683,2139,676s37.59-7,50.24,5.91a2.68,2.68,0,1,1-3.79,3.8c-11.27-11-28.78-10.53-43.95-3.77-14.89,6.63-27.6,19.39-29.95,33.16-3.25,20.53,8.48,38.25,24.63,46.94,15.06,8.09,34.35,7.83,48.59-7.3a79.87,79.87,0,0,0,16.79-23.84,75.16,75.16,0,0,0,7.07-28.34c.82-19.41-5.45-39.43-18.78-57.1a82.31,82.31,0,0,0-15-15.6,96.61,96.61,0,0,0-19-11c-1.24-.54-14.63-6.86-19.88-8.16Zm1.22-2.57v0h0v0Zm-.1-.45,0,.11,0,0,0-.06Z"/><path class="cls-2" d="M2363.53,801l.15.15,0,0-.11-.13a10.49,10.49,0,0,1-.74-.85l.74.85Z"/><path class="cls-3" d="M2482.93,668.7c1.17.94,2.72-1.38,4.18-1.74,6.36-1.6,16.56-.29,22.55,1.95,28.1,10.55,48,32.27,59.78,59.8,7,16.4,7.79,39.43,4.89,56.84-1.09,6.5-10.85,25.35-7.84,31.36.68,1.37,7.43,1.68,8.82,1,13.62-6.81,17-28.88,19.6-42.15,6.85-34.22-3.34-70-26.45-93.11-14.55-14.55-32.19-16-51.94-22.54-4.72-1.58-19.42-1.08-23.53,1-3,1.49-9.79,2-9.79,2s9.88,0,14.7,1c9.33,1.87,20.77.59,29.39,4.9,9.44,4.72,21.74,13.21,28.43,21.57,2.25,2.82,9.79,16.66,13.72,16.66.52,0-6.65-10.46-6.86-10.77C2559.07,691.1,2542,677,2542,670.88c0-3.27,5.53,3.57,7.84,5.88a128.09,128.09,0,0,1,15.68,19.61c8.31,12.47,16.07,25.49,17.64,41.16.31,3.07-.39,20.19,2,22.54.17.17,2-13.76,2-15.68,0-9.52-1.58-19.83-5.87-28.42a61.25,61.25,0,0,0-5.88-9.81c-.71-.94-2-4.11-2-2.93,0,6.3,6.27,17.22,7.84,23.51,3.86,15.46,4.89,41.18,1,56.85-1.45,5.8.44,20.14-3.92,24.5-2.86,2.86,2.94-11.75,2.94-11.75s-5.88,12.1-5.88,18.61m21.27-48.2c3.24,2-6.13,24.8-7.55,27.62"/><path class="cls-4" d="M2413.26,765.86c.92.74,2.13-1.08,3.28-1.36,5-1.25,12.95-.23,17.64,1.53,22,8.25,37.55,25.25,46.78,46.79,5.5,12.84,6.1,30.86,3.83,44.48-.85,5.09-8.49,19.85-6.14,24.55.54,1.07,5.82,1.31,6.91.77,10.65-5.33,13.26-22.6,15.34-33,5.36-26.78-2.62-54.78-20.7-72.87-11.39-11.39-25.19-12.49-40.65-17.64-3.69-1.23-15.2-.84-18.41.76-2.33,1.17-7.67,1.53-7.67,1.53a83.93,83.93,0,0,1,11.51.77c7.3,1.46,16.25.46,23,3.84,7.38,3.69,17,10.34,22.25,16.87C2472,785.11,2477.89,796,2481,796c.41,0-5.2-8.19-5.36-8.44-2.75-4.12-16.11-15.16-16.11-20,0-2.55,4.33,2.8,6.13,4.61a98.76,98.76,0,0,1,12.27,15.34c6.51,9.76,12.59,20,13.81,32.21.24,2.41-.31,15.81,1.53,17.65.13.13,1.53-10.77,1.53-12.28,0-7.45-1.23-15.51-4.59-22.24a49,49,0,0,0-4.6-7.67c-.56-.74-1.54-3.22-1.54-2.3,0,4.93,4.91,13.48,6.14,18.41,3,12.09,3.83,32.22.76,44.48-1.14,4.54.34,15.76-3.07,19.18-2.24,2.23,2.3-9.2,2.3-9.2s-4.6,9.47-4.6,14.56m16.64-37.72c2.54,1.59-4.8,19.41-5.9,21.62"/><path class="cls-4" d="M2435.45,747.61c.79.87,2.28-.73,3.45-.83,5.12-.44,12.83,1.84,17.18,4.32,20.4,11.64,33.06,30.9,38.75,53.63,3.39,13.55,1.12,31.44-3.29,44.53-1.64,4.89-11.53,18.24-10,23.25.36,1.15,5.54,2.22,6.7,1.86,11.36-3.57,16.68-20.2,20.38-30.12,9.55-25.59,6.13-54.5-8.85-75.24-9.44-13-22.89-16.33-37.33-23.87-3.45-1.8-14.88-3.25-18.3-2.17-2.49.78-7.81.29-7.81.29a83.77,83.77,0,0,1,11.23,2.59c7,2.6,16,3,22.11,7.44,6.7,4.82,15.15,12.91,19.28,20.2,1.39,2.46,5.49,14.09,8.52,14.58.41.06-3.83-8.91-4-9.18-2.06-4.5-13.5-17.53-12.74-22.25.41-2.53,3.83,3.45,5.33,5.51a100.26,100.26,0,0,1,9.67,17.1c4.88,10.68,9.25,21.7,8.52,34-.15,2.41-2.82,15.55-1.3,17.66.11.15,3.23-10.38,3.47-11.87,1.18-7.36,1.24-15.52-1-22.69a47.55,47.55,0,0,0-3.32-8.31c-.43-.82-1-3.42-1.15-2.51-.79,4.87,2.7,14.09,3.13,19.15,1.06,12.42-1.34,32.42-6.31,44-1.85,4.3-2.17,15.61-6.08,18.44-2.57,1.85,3.73-8.72,3.73-8.72s-6.05,8.63-6.86,13.66m22.43-34.6c2.25,2-7.82,18.4-9.26,20.4"/><path class="cls-2" d="M2321.49,1074.13c-.45,2.32-.92,4.43-1.19,6.68a55.1,55.1,0,0,0-.5,6.75c.38,7.61,1.64,14.42,5,20.41s8.55,11.1,14.9,15.7a2.56,2.56,0,0,1-2.84,4.27,66.2,66.2,0,0,1-17.81-16.16,63.88,63.88,0,0,1-11.29-22.22l-3.7-15.7c-.14-.64-.32-6.49-.26-8.64.08-2.64,1.83-3.91,2.26-4.71,1.71-3.12,4.93-2.9,7.09-3.53,2.78-.8,5.29,1.07,8.73,3.9.64.52.83,1.61,1.59,2.77a10.26,10.26,0,0,1,.05,7.12l0,.08-.11.27h0a10.2,10.2,0,0,1-1.87,3Zm-14.63.6a5.4,5.4,0,0,0,3.58,2.18,10,10,0,0,1-3.58-2.18Zm-1.17-1.3a10.4,10.4,0,0,1-1.38-2.52,4.38,4.38,0,0,0,1.38,2.52Z"/><path class="cls-2" d="M2433.76,994.93l-.17.17a78.21,78.21,0,0,0-5.64,7.81c-3.34,5.59-6.49,11-9.52,16.43s-5.94,11-8.81,16.77a218.14,218.14,0,0,0-16.17,46.59,291.78,291.78,0,0,0-6.88,49,288.37,288.37,0,0,0,1.11,46.17,215.6,215.6,0,0,0,9.42,44.87c7.81,23.94,23.77,47.73,42.52,69.83,29.48,34.75,66.27,65.13,93.17,82.47,13.54,8.73,31,15.25,49,19.94,31.19,8.12,63.72,10.82,79.55,10.89a2.32,2.32,0,1,1,0,4.63c-16.07.07-49.08-2.53-80.87-10.28-18.68-4.56-36.94-10.88-51.17-19.62-27.79-17.06-66.47-46.75-96.76-82-19.7-22.9-35.7-48.2-43.63-73.24a222.07,222.07,0,0,1-8.82-46.78,292.21,292.21,0,0,1-.07-47.34,303.54,303.54,0,0,1,8.05-49.82,226.9,226.9,0,0,1,17.21-47.46c2.95-5.85,5.95-11.4,9-16.91s6.27-10.9,9.65-16.51a88.51,88.51,0,0,1,6.22-8.54,3.67,3.67,0,0,1,3-1.4,2.32,2.32,0,0,1,.59,4.35Z"/><path class="cls-2" d="M2434.94,994.54c16.28-21.82,34.8-41.83,56.37-58.31a218.77,218.77,0,0,1,71.78-36.57c9.8-2.85,36.41-9.14,63.75-12.95,15-2.09,30.17-3.42,42.89-3,27.54.85,59.39,11.1,88,23.54,38.54,16.78,71.13,37.56,78.45,45.4,10.24,10.86,18.92,23.54,26.78,37.14,11.46,19.81,21.13,41.63,30.46,63.25a92.81,92.81,0,0,1,5.81,18.85c3.26,16,3.49,32.37,6.36,48.48,6,33.55,1.94,71.87-9.35,107.68-11.59,36.75-30.71,70.83-54,94.55a85.55,85.55,0,0,0-5.93,6.85c-3.83,4.84-8,10.64-12.44,16.27-4.84,6.13-9.85,11.49-15.06,15.07-4,2.72-8.07,4.38-12.28,4.39a2.53,2.53,0,0,0,0,5.06c5.19,0,10.26-1.91,15.16-5.24,5.61-3.81,11-9.49,16.27-16,4.48-5.58,8.7-11.35,12.57-16.13a79.42,79.42,0,0,1,5.61-6.34c24.38-23.89,44.62-58.56,57.41-96,12.62-37,17.92-76.75,12.56-111.85-2.52-16.28-2.34-32.77-5.3-49a103.09,103.09,0,0,0-6.21-21.4c-9.42-22.14-19.06-44.55-30.81-64.75-8.4-14.43-17.89-27.73-28.89-39.18-7.84-8.09-42.27-29.77-83.14-46.63-29.91-12.33-63.23-22.11-91.83-22.39-13.13-.14-28.77,1.55-44.18,4-27.67,4.39-54.58,11.22-64.47,14.29A226.58,226.58,0,0,0,2488,931.94c-21.82,16.95-40.66,37.31-57.13,59.58a2.53,2.53,0,1,0,4.06,3Z"/><path class="cls-3" d="M2660.88,1408.9c-1,.93,9.62-2.79,13.09-3.66,10.49-2.62,21.62-4.55,32.11-7.55,20.66-5.9,43.43-6,63-13.85,8.38-3.35,23.36-13.84,29.59-13.84"/><path class="cls-2" d="M2469.6,1013.87a104.52,104.52,0,0,0-9.48,16.34c-4.14,8.57-7.8,17.81-10.9,25.14-8.25,19.49-12.27,40.07-13.06,60.87a238.92,238.92,0,0,0,6.19,61.64c6.92,30.52,11.22,47.16,20.14,65.4,7.42,15.18,18.06,31.48,36.17,57.87,23.79,34.69,68.89,55.18,115.48,64.59,51.86,10.46,105.48,7.22,133-4.91,29.52-13,49.9-30.35,64.21-48.06,23.36-28.92,30.51-58.79,34.76-72.21,12.63-39.72,17.26-82.25,11.78-123.14s-21-80-48.64-113.09c-6.48-7.76-12.25-15.45-18.88-22.52a98.07,98.07,0,0,0-14.76-13.1C2747,948.23,2712.44,938,2677.17,936a250.09,250.09,0,0,0-102.92,16.24,1,1,0,1,0,.75,1.95,247.94,247.94,0,0,1,102.05-16c34.85,2.06,68.94,12.2,97.26,32.45a96.63,96.63,0,0,1,14.4,12.83c6.58,7,12.31,14.72,18.73,22.46,27.28,32.82,42.52,71.59,47.79,111.93s.54,82.56-12.1,121.83c-4.25,13.18-11.35,42.59-34.49,70.94-14.08,17.26-34.11,34.11-63,46.68-27.08,11.74-79.7,14.47-130.5,3.87-45.13-9.42-88.89-29.34-111.73-63.15-17.67-26.19-28.07-42.34-35.27-57.38-8.58-17.91-12.59-34.24-19.1-64.16a231.58,231.58,0,0,1-5.48-59.86,164.38,164.38,0,0,1,13-58c3.12-7.19,6.81-16.27,11-24.66a95.89,95.89,0,0,1,8.82-14.91,4.2,4.2,0,0,0-6.71-5Z"/><path class="cls-5" d="M2768.8,1103c0,1.39,2.27-4.07,2.56-4.94a29.27,29.27,0,0,0,1.54-9.25c0-9.86,1.33-20.75-1.53-30.31-9.89-33-34.71-60.73-70.38-63.71-67.19-5.6-132.45,38.8-167,94-10.38,16.61-21.92,35.81-20,56.5,3.2,35.18,41.56,53.25,73.46,50.35,14.42-1.31,27.48-6.76,41.09-11.3a156.24,156.24,0,0,0,28.77-12.84c1.86-1.06,8.45-3.53,9.25-5.13,1-1.94-7.95-7.87-9.25-8.74-11-7.33-22.34-15.6-30.82-26.2-1-1.25-8.57-11.46-7.19-12.84s13.1,4.5,14.39,5.14c12.78,6.39,28.23,10,39.55,19,1.59,1.27,13,12.69,14.38,11.3,1.76-1.76,2.06-9.77,2.57-12.32,2.31-11.58,5-22.55,6.68-34.42,4.4-30.75-1.68-69.66-30.3-86.82-11.93-7.16-27-7.2-40.58-7.2"/><path class="cls-2" d="M2522.26,1316.61c8.94,2.27,20.7,3.9,33,5.11,17.77,1.76,36.69,2.64,50,2.64,30.42.14,56.91-1.66,80-5.11q14-2.09,26.35-5c9.27-2.15,17.86-4.64,25.85-7.29,32.51-10.8,54.87-24.62,71.09-37,22.12-16.88,32.46-31.55,40.32-34.24a.74.74,0,0,0-.46-1.41c-8,2.58-18.55,17.33-41.29,33.72a217.5,217.5,0,0,1-46.37,25.15,304.14,304.14,0,0,1-30,10.12c-9.45,2.7-19.69,5.19-30.79,7.46-11.56,2.36-24,4.52-37.59,6.22-17.28,2.18-36.25,3.75-57.14,4.35a497.53,497.53,0,0,1-49.8-1.37,222.62,222.62,0,0,1-32.81-4.79.74.74,0,0,0-.36,1.43Z"/><path class="cls-3" d="M2624.3,1016.21l0,0"/><path class="cls-2" d="M2541.12,1474.05a11.48,11.48,0,0,1-17.68-14.43c1-1.58,3.46-4.14,7.95-6.52,6.64-3.51,20.92-8.86,41.1-15.41,40.57-13.16,105.84-31.77,179.78-51.85,108.11-29,234.65-61.43,329.59-83.88,59.11-14,106-24,128.37-27.86,6.83-1.19,11.49-1.8,13.68-1.76a6,6,0,0,1,2.82.66h0l88.2,40.47a2.87,2.87,0,1,1-2.56,5.14l-88.51-39c-.91.08-3.73.35-6.58.86-13,2.33-40,8.91-76.19,18.31-16.94,4.4-35.84,9.49-56.27,15-42,11.23-90.32,24.36-140.49,38.2-62.25,17.16-127.38,35.32-186.84,52.54-50.42,14.54-96.76,28.35-133.86,40-30.69,9.64-55,17.79-69.91,23.69-6.29,2.49-14.12,3.8-12.67,5.81l.07.08Zm0,0a11,11,0,0,0,1.54-1.9c-.3.47-.94,2.53-1.54,1.9Z"/><path class="cls-2" d="M2605.69,1505.19c11.24-3.42,92.2-28,195.8-58.15,27-7.86,55.43-16.19,84.73-24.19,19.61-5.36,39.61-10.48,59.67-15.55,85.46-21.61,172.16-41.74,239.63-58.86,74.95-19,126.27-32.73,126.66-33.12a2.5,2.5,0,0,1,3.54,3.54c-.4.39-52.53,14.92-128.24,36.77-66.9,19.31-151.93,45.58-236.67,69.89-19.89,5.7-39.76,11.33-59.41,16.57-29.34,7.81-58.14,14.91-85.41,21.67-112.95,28-199.87,48.37-199.87,48.37a3.34,3.34,0,0,1-2.67-.39s-19.65-12.75-37.93-23.57c-10.46-6.19-20.47-11.73-25.93-14-5-2-10.86.88-13.44,2.34-.58.33-1.05.92-1.19.74a3,3,0,0,1-.42.27c-.7.36-5.54-2.29-2.25-4.5a27,27,0,0,1,3.12-1.78c3.92-1.94,10.42-4,16.07-1.79,4.48,1.76,11.92,5.67,20.25,10.26,17.32,9.53,38.49,22.16,44,25.44ZM2522.46,1473l-.19.09.19-.09Z"/><path class="cls-2" d="M2537.33,1475c2.14,1.76-3.51,8.65-5.62,17-9.58,37.83-23.36,120.75-32,202.68-5.91,55.89-9.44,111.32-7.67,151.63,1.59,35.55-.17,132.77,19.7,197.84,9.65,31.59,23.95,55.72,47.63,58.88a5.28,5.28,0,1,1-1.35,10.48c-27.34-3.36-45.69-29.66-57.21-66-20.88-65.83-20.46-164.5-22.48-200.56-3.38-59.42,4.2-151.46,14.11-230.18,7.6-60.31,16.58-112.81,23.12-137,2.18-8,4.41-13.4,6-15.78a11.76,11.76,0,0,1,5.53-4.5,9.5,9.5,0,0,1,10.22,15.45Z"/><path class="cls-2" d="M2604,1516.22a83.47,83.47,0,0,0-4.45,9.44c-6.89,17.74-18,56.3-26.84,111.29a1097.8,1097.8,0,0,0-12.46,127c-1.32,33.74-.44,84.31,1.46,136.23,3.63,99.8,10.78,204.5,10.78,204.5a9.75,9.75,0,0,1-19.47,1s-3.8-105.11-4.78-205.21c-.51-52.27-.32-103.16,1.83-137.06a1095.18,1095.18,0,0,1,19.75-153c9.11-44.48,18.89-75.32,24.89-89.43,2-4.81,3.75-7.82,4.85-9a3.94,3.94,0,0,1,3.57-1.49,3.06,3.06,0,0,1,.87,5.8Z"/><path class="cls-2" d="M2559,2110.91c26.6,9.16,71.1,4.39,117.18-5.83,80.72-17.89,166.47-52,166.47-52a5.95,5.95,0,0,0-4.44-11s-84.61,34.34-164.37,52.6c-43.87,10.05-86.23,15.42-111.65,6.86a4.95,4.95,0,1,0-3.19,9.37Z"/><path class="cls-2" d="M3308.3,1318.45a5.12,5.12,0,0,1,8.49-5.38,8.14,8.14,0,0,1,1.71,4.15c.4,2.3.93,7.11,1.53,14,2.2,25.27,5.51,79.1,6.73,136.55,1.16,54.57.39,112.41-4.47,152.25-4.48,34.36-12.71,81.16-22,128.29-18.65,94.54-41.05,190.46-41.05,190.46a3.63,3.63,0,0,1-1.74,2.35l-77.08,42.5a2.84,2.84,0,0,1-2.78-4.95l74.92-43c2.59-12.66,20.74-101.79,36.57-189.51,8.47-47,16.4-93.56,20.48-127.76,4.07-32.05,5.35-75.92,5.35-120.24,0-65.55-2.9-132.09-5.12-163.13-.55-7.78-1-13.28-1.43-15.91l-.12-.69Z"/><path class="cls-2" d="M2839.61,1751.4c1.36-.42,3.16-.91,5.36-1.41,11.31-2.56,35.11-7.53,65.3-13.72,105.9-21.7,290.53-58.37,290.53-58.37a2.8,2.8,0,0,1,1.8.23,214.31,214.31,0,0,1,23.92,13.8c6.4,4.4,11.94,9.26,14,13.4a2.77,2.77,0,0,1-.56,3.46,6.24,6.24,0,0,1-2.78,1.29c-2.44.6-7.77,1.37-15.23,2.32-31.36,4-101.14,11.06-149,21.25-10.61,2.26-29.34,6.82-50.69,12.18-24.63,6.18-52.72,13.43-75.9,19.45l-46.72,12.23a3.15,3.15,0,0,1-1.76.53c-.85,0-1.76,1-3,2.66-2,2.66-4.23,7-6.34,13.77-2.46,7.85-4.76,18.77-6.45,33.73-2.94,26.09-4.74,58.52-5.82,90.66-2.18,64.64-1.49,128.08-1.49,136.55,0,3.86-.09,8-.43,12a73.15,73.15,0,0,1-1.09,8.13c-.14.71-.52,5.93-1.06,7.73-1.14,3.78-4,3.12-5.39,1.75a40.36,40.36,0,0,1-4.72-6c-3-4.5-6-10-8.68-14a7.39,7.39,0,0,0-2.57-2.3c-3.8-2.16-8.4-2.8-10.83-5.23a7.35,7.35,0,0,1-1.72-3.87c-.55-3.11-.15-8.08-.52-10-1.5-7.52-4.18-120.12-4.5-202.61-.13-34.79.15-64.23,1.1-78.15a44.47,44.47,0,0,1,1.15-7.89l0-.16a2.91,2.91,0,0,1,2.16-3.31,5.37,5.37,0,0,1,2-.14Zm.89,6.21c-.28,1.85-.51,4.74-.71,8.52-1,19-1.1,59.49-.67,103.75.76,77.21,3,166,4.33,172.63l.65,10.82c2.12,2.12,6.28,2.38,9.59,4.27a13.13,13.13,0,0,1,4.56,4.15c2.7,4,5.67,9.51,8.69,14l.22.32c.1-.83.2-1.49.23-1.67a66.28,66.28,0,0,0,1-7.45c.31-3.87.39-7.84.38-11.54,0-8.48-.77-72,1.33-136.75,1.05-32.32,2.81-64.93,5.73-91.16,2.17-19.47,5.39-32.35,8.65-40.63a35.62,35.62,0,0,1,6.63-11.34l-26.52-10c-10-3.61-19.57-6.91-24.09-8Zm360.46-73.9c-11.34,2.24-121.21,24-217,43.36-55.7,11.23-106.62,21.63-130.57,26.84l-2.5.54c4.59,1.51,10.09,3.45,15.7,5.48l31.33,11.8h.15l46.75-12.2c23.19-6,51.31-13.24,75.95-19.41,21.44-5.36,40.25-9.93,50.91-12.19,29.59-6.28,67.49-11.38,99.62-15.3,26.6-3.24,49.23-5.67,59.8-7.28.75-.12,1.5-.25,2.19-.39a57.42,57.42,0,0,0-10.07-8.31,203.72,203.72,0,0,0-22.3-12.94Z"/><path class="cls-2" d="M2875.94,2086.09a8.27,8.27,0,0,1-11.06-2.87,7.81,7.81,0,0,1-.71-7.25,7.48,7.48,0,0,1,3.94-4.46,14.46,14.46,0,0,1,2.29-.9c1.86-.56,5.79-1.59,11.2-3,26.16-6.57,87.55-21.13,109.55-24.78a4.6,4.6,0,1,1,1.76,9c-21.55,4.87-81.54,22.67-107,30.83-4.71,1.51-8.19,2.7-10,3.36Z"/><path class="cls-2" d="M3166.76,1988.25c2.71-7.54,15.77-44,28-80.33,6.69-19.9,13.14-39.8,17.56-54.92a577.84,577.84,0,0,0,15.81-73.44,649.64,649.64,0,0,0,7.17-74.82,2.28,2.28,0,0,1,4.56.1,667.15,667.15,0,0,1-7.11,75.41,587.15,587.15,0,0,1-15.67,74.12c-4.33,15.21-10.69,35.21-17.26,55.23-13.46,41-27.85,82.11-27.85,82.11a3,3,0,0,1-1.91,1.88l-155.56,52.52a4.14,4.14,0,1,1-2.6-7.86l154.84-50Z"/><path class="cls-2" d="M2819.81,1709.5l131.43-36.08a2.41,2.41,0,0,1,1.29,4.64l-134.66,37.43a2.61,2.61,0,0,1-2.29-.44,2.68,2.68,0,0,1-1-2.09l-2-204.66a3.8,3.8,0,0,1,7.59,0l-.3,201.2Z"/><path class="cls-2" d="M3052.77,1442.2,2817,1511.49a4.13,4.13,0,0,1-2.28-7.93L3054.91,1436a2.68,2.68,0,0,1,3.42,2.73l-12.84,214.84a2.15,2.15,0,0,1-1.64,2L2971.17,1673a2.09,2.09,0,1,1-1-4.07l71.11-17.25,11.47-209.52Z"/><path class="cls-6" d="M3100.1,1436.77c-.15,0,.49,63.74.49,81.63"/><path class="cls-2" d="M3101,1435.4a1.72,1.72,0,0,1-1.1.42,1.8,1.8,0,0,1-1.85-1.76,2.64,2.64,0,0,1,1.81-2.14c1.2-.54,3.83-1.43,7.53-2.59,15.11-4.76,48.53-14.15,74.76-20.95,14.47-3.74,26.75-6.7,32.64-7.71a20.31,20.31,0,0,1,4.31-.4,4.54,4.54,0,0,1,2.89,1.29c1.21,1.18,2.41,3.75,3,7.58.85,5.29,1,13.67.65,23.26-.32,8.29-1,17.52-1.85,26.36-2,20.63-5,39.19-5,39.19a3.85,3.85,0,0,1-2.8,3.22l-99.37,25.09a1.64,1.64,0,1,1-.87-3.16l95.63-28.61c.57-5.69,2-20.51,3.36-36.55.73-8.71,1.46-17.78,1.88-26,.45-8.9.62-16.69,0-21.62-.07-.53-.1-1.15-.14-1.7-2,.24-5,.76-8.76,1.46-23.49,4.43-74.79,16.29-96.9,22.25-4.55,1.23-7.85,2.2-9.36,2.79-.2.08-.4.28-.48.23Zm115.36-27.8c-.08-.34-.2-.5-.42-.36-.07,0,.13.13.18.19a1.54,1.54,0,0,0,.24.17Z"/><path class="cls-7" d="M3099.56,1556.44c-.54-.26.07,80.16.07,80.16"/><path class="cls-2" d="M3101.14,1555.88a1.2,1.2,0,0,1-1.35-.26,1.08,1.08,0,0,1-.11-1.57,1.36,1.36,0,0,1,.64-.46c.15,0,.5-.16,1-.29,1.53-.38,4.74-1.1,9.12-2.09,14.71-3.32,42.54-9.71,63.61-14.22,15.52-3.33,27.33-5.68,27.33-5.68a3.82,3.82,0,0,1,4.52,4s-.49,7.15-1.46,17.31c-1.33,14-3.61,33.6-5.09,48.41-1.19,12-2,20.76-2,20.76a1.16,1.16,0,0,1-2.31-.16s.42-8.81.85-20.83c.53-14.88.9-34.63,1.47-48.65.21-5.1.43-9.43.6-12.49-4.88.85-13.08,2.26-22.71,3.86-21.25,3.51-49.46,7.82-64.3,10.43-4.38.76-7.58,1.39-9.1,1.72-.38.08-.7.29-.77.2Z"/><line class="cls-8" x1="3122.01" y1="1453.5" x2="3197.03" y2="1434.64"/><line class="cls-9" x1="3123.39" y1="1476.72" x2="3197.3" y2="1459.57"/><path class="cls-7" d="M3124.39,1576.71c4.3-1.24,59.38-11.81,59.38-11.81"/><path class="cls-10" d="M3124.14,1598.37c-2.15,0,57.58-10.83,57.58-10.83"/><path class="cls-2" d="M2877.16,1527.08l153.09-46.66a3.85,3.85,0,0,1,4.95,4l-9.95,143.23a4.21,4.21,0,0,1-3.18,3.78L2872,1667.69a3.3,3.3,0,0,1-2.84-.63,3.23,3.23,0,0,1-1.22-2.63l2.92-104.47a3,3,0,0,1,5.93.15l-2.21,100.16L3017.09,1624l10-134.62L2878,1533.18a3,3,0,0,1-1.86,0l-49.6-17.21a3,3,0,0,1,1.93-5.6l48.72,16.75Z"/><path class="cls-11" d="M2954.4,1870.7c0-2.28-7.4,66.67-7.4,66.67L3150.5,1893l19.1-64.5-215.2,42.18Z"/><path class="cls-2" d="M2954.62,1869.78l-.49-.46L3169,1825.46a3.11,3.11,0,0,1,2.9,1,3.14,3.14,0,0,1,.69,3l-19.29,64.44a2.93,2.93,0,0,1-2.19,2l-203.83,42.81a1.36,1.36,0,0,1-1.19-.31,1.38,1.38,0,0,1-.44-1.15s4.75-43.26,6.71-60.11c.34-2.92.59-5,.73-6,.17-1.26.9-1.48,1.52-1.3Zm107.81-18-107,20.1c-.14,1.11-.37,3-.64,5.46-1.67,14.75-5.33,49.75-6.22,58.25l199.62-45.09,17-58-102.74,19.3Z"/><path class="cls-11" d="M2988.22,1789.39c0-2-6.86,59.76-6.86,59.76l188.86-39.75,17.73-57.81-199.73,37.8Z"/><path class="cls-2" d="M2988.42,1788.45l-.46-.44,199.41-39.5a3.13,3.13,0,0,1,3.57,4L3173,1810.26a3,3,0,0,1-2.2,2l-189.18,38.2a1.35,1.35,0,0,1-1.19-.32,1.33,1.33,0,0,1-.43-1.14s4.4-38.78,6.22-53.89c.32-2.61.56-4.53.68-5.41.18-1.23.89-1.45,1.5-1.26Zm100.08-15.74-99.27,17.92c-.14,1-.34,2.66-.59,4.78-1.54,13.12-4.89,44.11-5.75,52l185-40.53,15.56-51.34-95,17.14Z"/><path class="cls-3" d="M2800.36,2065a69.85,69.85,0,0,1,6.23,5.66c4.6,7.68,12,15.15,12,24.65,0,29.74-12.75,55.78-23.32,83.25-10.83,28.16-29.71,65.68-51.29,87.25-9.41,9.41-22.19,15.9-33.3,23.3-1.9,1.27-9.2,8.26-8.66,9.33,2.42,4.83,9.73,4.63,13.32,7.32,14.82,11.12,37.93,14.87,55.28,20.66m96.62-246.2c-.12-1.38-.59,7.33-.69,8.43-.4,4.45-.65,8.87-1.33,13.32-2.45,15.91-7.11,31.81-11.33,47.29-7.33,26.86-20,56.91-33.31,81.26-10,18.32-14.74,40.12-24,58.6-4.84,9.67-9.64,19.93-14,28.64-1,2-4.11,8-6,8"/><path class="cls-2" d="M2782,2328c8.8-1.41,79.22-14.89,140.27-28.14,13-2.83,25.63-5.81,37.11-8.55,32.1-7.68,55.49-13.75,55.49-13.75a4.3,4.3,0,1,0-1.79-8.41s-23.83,3.93-56.28,9.89c-11.61,2.13-24.33,4.48-37.4,7.16-61,12.44-130.65,28.29-139.4,29.8a6.08,6.08,0,0,0,2,12Z"/><path class="cls-2" d="M3118.65,2006.74l-75.45,208.85s-7.11,19.35-16,34.28a62,62,0,0,1-8.33,11.39c-1.6,1.62-2.95,3-4.47,3a6.17,6.17,0,1,0,0,12.34,15.58,15.58,0,0,0,8.89-3.13c3.51-2.47,7.15-6.63,10.55-11.75,10.8-16.24,20-42.38,20-42.38l72.38-210a4,4,0,0,0-7.52-2.65Z"/><path class="cls-2" d="M2427.26,2406.93l-1.64,8.29c-.72,5.92-1.15,12.29-1.41,18.75-.39,9.85-.34,19.89-.16,28.92a12.46,12.46,0,1,1-24.92,0c.18-9.47.55-20,1.37-30.33.57-7.1,1.33-14.1,2.39-20.58l3.83-16.31a11.19,11.19,0,0,1,7.71-8.11S2453,2377,2501,2362.37c27.3-8.34,57.63-18,85.72-27.81,57.22-20.08,105.52-40.49,128.5-49.77,6.64-2.69,11.27-4.48,13.52-5.12,5.16-1.49,7.81,1.52,8.32,2.31a6.07,6.07,0,0,1-1.77,8.39,6,6,0,0,1-3.05,1c.59,2-6.23,2.38-12.19,5-22.86,9.91-70.82,31.76-127.76,53.47-28,10.75-58.21,21.42-85.41,30.76-36,12.36-66.73,22.27-79.63,26.4Z"/><path class="cls-2" d="M3255.15,2270.82c-22.1-1.11-94-4.76-149.05-7.81-33.83-1.87-61.31-3.52-67.09-4.3a4.95,4.95,0,0,1,1.23-9.82c5.73.68,32.91,1.89,66.38,3.17,65.83,2.53,155.83,5.34,155.83,5.34a6.89,6.89,0,0,1,6.61,7l-.06,64a7.53,7.53,0,1,1-15.05,0l1.2-57.6Z"/><path class="cls-3" d="M2426.44,2399.66c-5.7-1.23.27,15.38,5.13,19.27,11,8.83,24,13.66,38,16,45.88,7.65,92.28.53,137.88-6,144.59-20.64,541-119.62,577.18-126.85,13.22-2.64,57.93-17.13,68.23-22.28,2.76-1.38,5.53-11.12,2.67-14"/><path class="cls-12" d="M2407,2471.27c-.73,1,86.27,36,131,31.83,137.79-12.82,371.44-67.78,371.44-67.78l351.61-95.54,4.16-59.05s-153.45,41.5-325,86.65c-68.62,18.06-287.76,55.7-376.7,71.13-56.8,9.85-155.26-17-155.26-17l-1.22,49.72Z"/><path class="cls-2" d="M2450.09,1317.73l-.09.06c-3.55,1.85-12.75,7.35-15.12,9.63-1.68,1.65-2.11,4.72-2.14,7.66,0,2.51.57,5.05,2.1,6.39,1.19,1,3.19,1.43,5.3,2.09,4,1.26,8.63,2.37,12.61,3.91a32.34,32.34,0,0,1,6.23,3.26,153.93,153.93,0,0,1,17.34,13.5,88.19,88.19,0,0,1,10.31,11.38,33.25,33.25,0,0,1,3.24,5.83c1.44,3.38,2.57,7.43,4.19,10.8a17.76,17.76,0,0,0,1.21,2.39c.26.37.19.9.52,1.11,4.31,2.8,8.22.87,11.17-2.49,4.59-5.22,7.6-12.66,8-17a2.87,2.87,0,1,1,5.74,0c.6,6.53-2.62,19.1-8.9,26.76-5.37,6.55-12.84,9.08-22.41,5.57a18,18,0,0,1-6.66-5c-4.25-4.61-7.26-12.81-10.8-16.88a102.24,102.24,0,0,0-10.62-11.58c-4.14-4-8.36-8-12.19-11.19-4.38-3.73-12.2-5.78-17.4-8.67a22.28,22.28,0,0,1-6.11-4.5c-3.38-3.85-5.13-10.15-4.26-16.46.8-5.85,3.27-11.49,7-14.35,3-2.31,14.12-7.53,18.38-9.22,9.69-3.83,10.7,2.89,4.92,6.45a3.62,3.62,0,0,1-1.58.61Z"/><path class="cls-2" d="M2426.32,1350.66l-.12.11c-.8.73-2.44,2.32-4.72,4.67-8.71,9-26.27,28.83-46.2,50-7.67,8.15-15.62,16.55-23.64,24.47-27.59,27.22-53.87,50.78-56.57,54.53a4.35,4.35,0,1,1-7.24-4.83c2.19-3.57,21.18-25.29,44.67-50.08,6.33-6.67,12.94-13.65,19.85-20.3,24.94-24,51.35-46.27,63.46-57,3.18-2.82,5.41-4.82,6.51-5.71,3-2.45,5.44,1,5.46,1.33a2.84,2.84,0,0,1-1.46,2.8Z"/><path class="cls-2" d="M2492.48,1410.77c-.95,1.66-2.6,4.71-4.82,8.84-6.54,12.14-17.72,33.6-30.49,56.89-6.78,12.36-13.84,25.33-21.15,37.53-19.89,33.24-39.59,61.85-45,66.85a3,3,0,1,1-4.27-4.27c4.53-4.95,17.87-31.56,34.32-62,7.39-13.65,15.56-28,23.38-41.64,15.18-26.6,29.43-50.63,36.16-62,3.41-5.77,6.07-8.67,6.29-8.77a5,5,0,0,1,6.2,7.5c.58.39,0,.76-.59,1Zm.59-1h0c-.07,0-.12.07-.19.23a4.8,4.8,0,0,1-1.53,1.2c.09,0,.64-.2,1.13-.41l.26-.46a1.36,1.36,0,0,0,.14-.33l0,0,.16-.21Z"/><path class="cls-2" d="M2093,1663.38l-20.81,3.41c-9.76,2-69.23,16-140,28.88-46.08,8.4-96.94,16.26-141.93,20.5-33.67,3.17-64.09,4.22-86.91,2-17.48-1.74-30.76-5.64-38.36-11.56-14-10.91-19.63-32.14-19.34-57.27.54-48.5,21.69-111.7,29.3-130.32a5.32,5.32,0,0,1,9.89,4c-6.21,15.84-22,64.72-25.8,108.15-2.45,27.9-.69,53.62,14.14,64.85,6.24,4.72,17.24,7.11,31.46,8.35,22.12,1.92,51.56.4,84.15-3,44.54-4.64,94.85-13,140.52-21.37,70.6-13,130.1-26.17,139.86-28.1l27.07-4.1a7.45,7.45,0,0,1,7.88,4.34s11.75,26.78,27.48,49.39c7.53,10.81,15.86,20.75,24.36,25.78a190.86,190.86,0,0,0,70,24.14c25.67,3.57,51.41,1.83,73.26-6.18,22.1-8.1,38-22.1,50-39.34,12.28-17.7,20.42-38.76,26.77-60.4,3.45-11.8,4.16-33.46,1.55-55.3-2.37-19.84-7.45-39.85-16-52.72-8-12.07-25.13-24-42.59-33.7-21.65-12-43.89-20.41-50.65-20.44a3.37,3.37,0,0,1,0-6.74c7.18,0,31,8.35,54.12,20.83,18.72,10.11,36.92,22.9,45.62,35.69,9.27,13.62,15.13,34.87,17.92,56,3.06,23.22,2.4,46.29-1.12,58.9-7.65,27.51-18.22,54.11-35.72,74.91a110.9,110.9,0,0,1-46,32.78c-23.41,9-51.09,11.34-78.8,7.93a204.35,204.35,0,0,1-75.24-24.65c-10-5.7-20.17-16.87-29.11-29.35-12.42-17.31-22.58-37-27.07-46.23Z"/><path class="cls-2" d="M2204.64,1462.81c.56-22.5,22.6-49.2,48.24-58.15,23.22-8.1,49.25-2.61,63.34,34.23.33-.16.89.58,1.41.78a18.33,18.33,0,0,1,4.5,2.22,5.39,5.39,0,0,1,2.21,4.4,3.45,3.45,0,0,1-6.72,1.1c-.36,0-.9-.64-1.39-.82a27.39,27.39,0,0,1-3.43-1.49,6.42,6.42,0,0,1-2.87-3.13c-12.65-31.29-34.51-36.62-54-29-22,8.57-41,32.65-38.91,51.76.17,1.48-.92,5.73-6.77,8.38-5.47,2.48-17.76,6.35-33.63,10.62-21.09,5.66-48.6,12.25-74.29,17.87-38.88,8.49-73.68,14.73-76.35,14.72-4.55,0-21.45,3.78-44,9.17-65.48,15.6-176.36,44.82-183.17,44.74a4.81,4.81,0,1,1,0-9.61c6.73-.08,115.41-32,179.72-48.89,24.29-6.37,42.56-10.5,47.49-10.55,3.14,0,52.4-10.67,99-20.69,25.68-5.53,50.58-10.73,66.52-14.87,4.83-1.25,10.28-1.85,13.12-2.76Zm.34-.11c1.28-.45,1.92-1,1.54-1.72-.75-1.46-1.26,0-1.54,1.72Z"/><path class="cls-2" d="M2415.8,1543.19a10.92,10.92,0,0,1-1.9-1.94c-7.28-11.37,4.26-17,6.47-17.3a10.22,10.22,0,0,1,9.7,2.85,58.78,58.78,0,0,1,5.92,7l6.14,12a76.24,76.24,0,0,1,5.24,23.49c.57,8.64,0,17.32-2.27,23.92-4.17,12.34-8.87,27.07-14.45,41.81-5.4,14.27-11.66,28.44-19.44,40.38-12.08,18.53-27.76,31.73-49.7,31.49a2.72,2.72,0,0,1,0-5.43c19.78-.21,33.87-12.43,44-29.62,14.32-24.31,20.68-58.09,26.61-82.34,1.15-5.16.63-11.73-.61-18.16a56.37,56.37,0,0,0-6.23-17.12l-6.19-8.61,0,0c-.76.74-3.45-1.61-3.27-2.47Zm17.59-9.51a11,11,0,0,1,0,2.07,7.94,7.94,0,0,0,0-2.07Zm-.39-2a7.24,7.24,0,0,0-1.75-3.48,11,11,0,0,1,1.75,3.48Z"/><path class="cls-2" d="M2107.17,1679.05c.44.73-2,1.8-3.58,3.65-7.6,8.66-22.56,28.5-35.56,47.07-10.94,15.62-20.41,30.3-23.09,36.16a6.5,6.5,0,0,1-11.62-5.82c5-9.23,29.06-39.74,47.68-62,8.64-10.32,16.05-18.87,19.95-22.57,2.21-2.09,4-2.87,4.7-2.91a3.32,3.32,0,0,1,1.52,6.38Z"/><path class="cls-2" d="M2273.72,1767.13h0l-.48.83c-.87,1.54-2.68,4.77-5.12,9.17-13,23.52-44.25,80.64-48.42,92.82a4.23,4.23,0,0,1-8-2.67c3.53-10.89,27.46-57.13,41.94-84.66,4.54-8.65,8.15-15.46,9.88-18.69,2-3.81,4.76-4.69,4.79-4.7a5.25,5.25,0,0,1,5.42,7.9Z"/><path class="cls-2" d="M2037.83,1763.82a9.52,9.52,0,0,1,.67-2.21,7.59,7.59,0,0,1,4.64-4.08,30,30,0,0,1,7.06-1.11,48.43,48.43,0,0,1,9.52.54,124.59,124.59,0,0,1,28,8.69c13.27,5.71,26.13,13.12,37.47,20.25,4.58,2.84,9,5.84,13.32,8.93,9.94,7.09,19.45,14.64,29.43,21.93,9.42,6.78,20.35,15,29.57,24.2,6.5,6.51,12.17,13.53,15.91,21,3.21,6.33,3.6,13.18,1.23,17.48-2.47,4.49-8,7.6-17.93,4.36a425.65,425.65,0,0,1-60.58-24.64,409.22,409.22,0,0,1-56.19-33.86c-9.11-6.45-22.16-15.8-31.6-26.55-7.71-8.77-12.76-18.64-13.1-28.71a8.8,8.8,0,0,1,2.57-6.21Zm16,6.56a7.38,7.38,0,0,1-.73,3.56c.91,5.08,3.78,10,7.43,14.74,8,10.33,19.61,19.37,27.6,25.71a376.4,376.4,0,0,0,53.05,35.08,392.94,392.94,0,0,0,58.49,25.48c3.78,1.29,6.07,1.74,7,0,1.26-2.22.32-5.71-1.32-9-3.31-6.65-8.36-12.91-14.17-18.7-8.88-8.84-19.53-16.56-28.63-23-8.65-6.06-16.94-12.36-25.49-18.33-5.59-3.89-11.29-7.62-17.26-11.08-11.13-6.38-23.68-13.08-36.64-17.93a108.25,108.25,0,0,0-25.42-6.41,27.73,27.73,0,0,0-3.95-.11Zm-4-7,.19.17a6.65,6.65,0,0,1,.94.69,6.27,6.27,0,0,0-1.13-.86Z"/><path class="cls-3" d="M1892.2,1501.5c-1,.43-14.92,29.37-17,33.53"/><path class="cls-2" d="M1660.26,1553.14c-1.09,2.67-8.24-.41-10.17-.74-7.74-1.33-15.22-2.68-22.72-4.32-5-1.1-10-2.3-15.14-3.72-1.19-.33-11.06-2.8-14.37-4.88s-4-4.66-4-6.44a7,7,0,0,1,2.71-5.54c1.48-1.2,5.13-2.91,10.47-4.48,23.33-6.82,84.44-17,89-17.54s23.64-1.3,49-2.14c28-.93,64-2,97.42-3,49.35-1.54,93.12-3,97.45-3a2,2,0,1,1,0,4c-5.74,0-80.6,2.75-145.92,6-47.27,2.39-89.52,5.15-96.83,6.29-4,.67-53.09,10.81-79.14,18.45,5.25,1.1,10.4,2,15.58,2.77,6.14.92,12.28,1.67,18.59,2.39,2.18.25,7.69-.58,11.14,0a11.83,11.83,0,0,1,7,3.79,8,8,0,0,1-10.16,12.08Z"/><path class="cls-2" d="M2245.13,1175.17c-1.19,4.09-3,11.88-3.22,13.56a107.58,107.58,0,0,0-1.32,20.53,97.13,97.13,0,0,0,2.88,20.43c5,18.64,27,40.49,50.5,49,16.14,5.84,33,5.28,45.16-6.8a1.2,1.2,0,0,1,1.7,0,1.21,1.21,0,0,1,0,1.71c-12.81,13-30.55,13.64-47.82,7.86-25.05-8.4-49-30.68-55-50.19a105.67,105.67,0,0,1-4.29-21.54,118.13,118.13,0,0,1,0-22c.2-2.14,1.9-13.3,2.88-16.9A7.09,7.09,0,0,1,2238,1168a4.86,4.86,0,0,1,7.18,0,5.62,5.62,0,0,1,1.38,3.53,4.74,4.74,0,0,1-1.42,3.69Zm-8.15-2.75a2.56,2.56,0,0,1,0-.39,2.38,2.38,0,0,0,0,.39Z"/><path class="cls-2" d="M2150.84,1076.23a3.09,3.09,0,0,1,2.39,0,3.56,3.56,0,0,1,2.19,1.89,2.91,2.91,0,0,1-.31,3.08,3.37,3.37,0,0,1-2.76,1.36c-1.32,0-6.28-.74-8.26-.34l-15.13,4.74L2071,1110.49c-32.86,14.11-63.7,27.38-94.08,42.57-20,10-39.88,20.89-60,33.38-42.47,26.4-86,60.1-126.61,96.07-41.95,37.19-80.66,76.82-111.69,113.22-12.66,14.88-24,33.55-34,52.74-17,32.54-30.33,66.58-40.29,86.71a4.74,4.74,0,0,1-8.47-4.24c10.14-20.08,23.8-54.06,41.09-86.52,10.48-19.68,22.28-38.8,35.44-54,31.46-36.46,70.7-76.08,113.11-113.31,41-36,85.06-69.82,127.94-96.24,20.31-12.53,40.37-23.42,60.6-33.5,30.52-15.18,61.48-28.47,94.47-42.58l58-23.56,16.31-5.09a42.92,42.92,0,0,1,8,.12Z"/><path class="cls-3" d="M2203.52,569.89c8.66-4.85,25.31-26,36.84-34.62a939.24,939.24,0,0,1,91.89-60.56c62-35.9,127.2-68.14,195.28-90.83,128.29-42.75,297.61-30.14,406.2,54.34,38.23,29.74,60.62,79.6,72,125.31,3.4,13.58,8.35,30.09,8.35,43.86,0,2.05-1.72,18.12-1,18.79,2.85,2.85,19.82,3.73,25.06,5.23,15.33,4.38,32.85,15.56,44.91,26.11,72.31,63.29,108.11,153.14,114.83,247.49,3.54,49.52-8.71,95.37-13.58,144.1-2.88,28.71-8.88,60.55-21.94,86.67-22.2,44.39-48.36,90.11-80.42,122.17-1.06,1.06,11.48,25.14,11.48,29.24M2076,822.9c1-1.23-1.58,8.5-1.69,8.91-1.17,4.06-1.82,8.57-3.14,12.53-4.81,14.45-11.45,28.3-18.8,41.76-23.38,42.87-52.07,79.22-86.68,113.82-60.71,60.69-158.38,33.45-225.56,81.43-35.58,25.41-49.64,77.67-38.65,118a60,60,0,0,0,24,33.42c6.47,4.32,20.89,10.44,20.89,10.44s-11.7,2.29-15.67,6.26c-6.55,6.56-12.64,15-15.67,24-5.79,17.39,8.41,44.91,26.1,44.91m524.31-645.54c-1.14,6.92,6.31,11.83,10.4,15.92,19.13,19.14,57.86,4.33,78.32-5.21,27.06-12.63,56.41-22.92,82.49-37.59,75.89-42.68,181.94-98,269.41-54.27,35.07,17.54,60.57,49.23,60.56,88.76,0,13.09-1.35,24.27-6.27,36.55-2.19,5.5-12.53,11.48-8.35,15.66,1,1,25.76-19.14,29.24-19.83.49-.1,11.48-2.11,11.48-2.09,0,6.58-27.85,28.52-21.93,34.45,2,2,12.47-3.74,14.62-4.17,10-2,32-5.14,36.55,8.36,2.15,6.46-4.3,17.56-5.23,24-5,35-39.76,58.79-48,91.89-2.61,10.47-9.08,30.6,0,39.68m13.1-196.05c1.25-.67-1.54,1.34-.55,1.83,2.9,1.45,11-.07,13.58-1,21.39-8,41.29-23.67,53.25-42.8,9.09-14.53,10-30.89,13.58-47,.91-4.09,2-15.6,6.27-17.76,4.09-2,4.19,11.52,5.22,13.58,8.11,16.23,3.88,28.91,1,45.95-.7,4.17-5.79,17,0,19.84,7.59,3.8,12.7-5.4,16.71-9.4,13.59-13.59,5.89-42.43,17.75-54.3,1.72-1.72,5,12.37,5.22,13.58,1.52,7.57-5.46,37.52,4.17,40.72,33.56,11.19,97.12-13.58,97.12-53.24m-244.11,118.3c-.57-.76,8.15-6.16,9.15-6.59,10-4.29,21.73-4.17,32.37-4.17,21,0,48.29,3.09,67.88,11.48,2.47,1.07,21.22,10.12,23,8.37,5.63-5.63-7.13-24.26-11.48-27.16-1.9-1.26-15-7.12-12.53-8.35,26.57-13.29,63.8-10.44,92.93-10.44,8.67,0,17.06.47,25.06,3.14.79.26,13.58,4.7,13.58,4.18,0-4.22-9.94-15.22-11.49-19.84-11.91-35.74,13.71-52.21,38.64-52.21M2713,945.62c-1.31-.09-1.53,16.1-1.53,21.07,0,24-.25,47.69,6.33,70.7,9,31.38,27.1,69.33,50.64,92.86,30.87,30.88,79.13,58.28,79.13,102.37m-75.47-491.28c-.31-.3,2.64-5.67,3.76-6.79"/><path class="cls-12" d="M2757,730.62c-.89,1.39,1.56-3.93,2.11-5,2.05-4.1,5.08-8.25,6-12.66,3.18-15.87,8.41-29.8,6-46.94-5.51-38.58-38.87-68.88-73.76-82-31.87-12-82.64-14.6-115.47-5.23-18.66,5.33-35.14,15.57-53.65,20.86-11.18,3.19-50.19,13-54.38-3.73-2.83-11.31,4.9-19,11.92-26.08,15-15,35.79-23,49.92-39.48,4.73-5.51,13.19-15.56,10.43-23.84-3-9-31,1.53-37.25,2.23-18.35,2-40.75,4.73-58.11-3-27-12-23.26-49-5.21-67,33.75-33.75,83.8-45.06,127.41-59.59,140.4-46.79,342.94-8.46,413.48,132.65,18.8,37.62,50.95,114,8.17,146-9.93,7.46-22.57,9-34.27,11.92-10.93,2.74-22.87,11.25-34.27,7.45-16.12-5.38-8.19-36.53-8.19-48.43,0-3-4.41-14.19-8.94-11.92-4,2-3.87,11.31-4.47,14.9-2.36,14.12-6.1,30.39-14.16,42.46-3.75,5.62-6.08,13-14.15,8.94-4.59-2.29-3.73-10.62-3.73-14.9,0-14.8,3.73-29.36,3.73-44.7,0-4.5,1-15.54-3.72-17.88-6.47-3.23-11.31,8.24-13.42,11.92-7.79,13.65-9.41,29.69-17.13,43.21-13.37,23.38-40.37,47.21-61.85,63.32-2.07,1.55-26.82,13.13-26.82,11.18,0-3.46,15.27-33.35,15.27-37.12L2757,730.62Z"/><path class="cls-12" d="M2339.63,470c.69-2.34,15.62-2.59,17.49-2.59a35.84,35.84,0,0,1,35.63,29.3c3.07,15.34-2.9,28.43-8.71,42-3.44,8-15.55,19.59-10.3,30.1,5.8,11.6,28.34.74,38,4,17.95,6,39.06,37.52,29.3,57-11.09,22.18-27,34.09-52.28,43.56-38,14.26-86.19,32-127,21.74-28.38-7.1,5.76-58.31-6.05-78-6.84-11.41-15.12-27.22-28.5-31.68-2-.68-27.73-6.86-27.73-7.93,0-2.64,5.71-6.8,7.14-8.71,8-10.62,18.54-17.74,27.72-26.92,20-20,45.53-35.83,70.49-48.31,17-8.52,36.1-28.51,55.45-28.51l-20.66,5Z"/><path class="cls-12" d="M2079.79,816c-1.59-1.65,1.35,4.78,3.25,6.05,3.88,2.58,8.84,4,13.34,4.92,7.78,1.56,23,5.44,30.89,2.81,2-.67,6.12-4.21,7.73-4.21.2,0-3.8,11.1-4.22,11.93-3.57,7.14-5.78,15.38-7.73,23.17-6.24,25-13.44,51.7-10.53,77.92,3.71,33.39,11.39,66.43,16.14,99.69,1.41,9.88,6.8,19,9.82,28.08,1.21,3.61,11.12,5,8.42,7.72-1.37,1.38-7.64,1.5-9.83,2.81-11.32,6.79-23.5,9.24-35.8,13.33-35.63,11.87-72.94,24.53-106.71,41.41-31.07,15.53-53.19,38.73-81.44,57.56-34.08,22.71-65.25,50-96.18,76.51-5.3,4.54-10.39,9-15.45,14-14.79,14.79-53,55.33-77.22,37.19-17.68-13.26-13.06-39.9-1.4-55.45,5-6.65,19.53-14.45,16.15-24.57-2.92-8.78-14.41-12.68-19.65-19.66-13.36-17.81-24.85-34.29-28.08-56.87-4.39-30.74,28.37-55.09,48.45-72.3,64.44-55.22,163.09-40.43,231.67-88.43,48.79-34.15,56.65-85.51,85-132.67,5.9-9.83,10.08-21.08,16.15-30.18,1.58-2.37,13.2-12.79,11.24-14.75-1.35-1.34-7.09.71-7.73.7l3.77-6.75Z"/><path class="cls-12" d="M2767.28,741.55c13.11-20.63,70-3.42,55.85,31.86-10.05,25.13-28.75,51.18-44.84,72.63-8,10.65-23.1,24.84-17.93,40.34,5,14.91,23.32,14.36,34.06,21.52,13,8.65,27.55,16.9,41.25,25.12,27.38,16.43,29,53.38,54.68,72.63,7.47,5.59,17.23-6.65,21.52-11.66,12.2-14.21,21.85-36,40.36-43.93,46.83-20.06,78,67.36,124.62,34.09,29.42-21,27.93-77.88,33.19-109.39,2.18-13,5.5-33.49,17-42.14,15.49-11.62,46.55,11.23,49.31,27.8.81,4.86,11.44,40.77,13.45,36.76,11.79-23.57,6.5-62.54-3.58-86.07-9.91-23.13-15.57-50-30.48-70.84-18.6-26-42.43-48.37-67.24-69-14.92-12.44-31.61-30.87-49.31-36.77-26.25-8.76-42.15,33.11-42.15,51.1,0,4.66-.17,10.43,1.8,14.35.37.74,4.52,6.23,3.58,7.17-3.21,3.21-28.82-3.86-33.17-4.49-25.18-3.6-55.65-10.74-80.7-4.48-4.09,1-16.13.88-18.83,3.58-.91.91,9,9,9.86,9.86a227.54,227.54,0,0,1,21.52,25.11c1,1.27,5.07,8.77,1.79,9.86-8.43,2.81-21.1-5.21-29.58-6.27-21.39-2.68-43.65-9-64.56-9-12.07,0-24,.33-34.07,5.38-3.16,1.58-6.62,2.86-9.87,4.48-1.23.62-5.83.9-4.48.9l6.91-.48Z"/><path class="cls-12" d="M2902.63,1064.46c-2.4-2.88,9.83-9.63,11.66-10.54,8.57-4.28,22.51-4.22,28.11,5.11,5.44,9.07,5.95,21.27,8.52,31.52,5.74,23,26.39,65.45,52.8,69.85,34.06,5.68,32.72-17.07,55.37-30.65,21.62-13,38.35-15.48,63-19.59,8.27-1.38,47.41,1.18,44.29,13.63-9.88,39.5-39.26,71.7-57.08,107.33-4.75,9.5-20.41,12.7-24.71,21.29-6.42,12.83,16.15,31.58,12.78,38.33-1.23,2.46-11.9,5.71-14.48,6.81-18.36,7.87-44.58,13.23-64.22,15.68-35.11,4.38-164.41,36.73-170.38,39.73-2.84,1.41-100.47,45.83-100.47,42.65,0-9.61,76.12-47.43,102.52-76.78,20.59-22.89,39.63-51.61,49.41-80.92,11.24-33.71,30.46-78.35,21.31-115-3.78-15.11-3.22-30.78-6.82-45.15-1.39-5.6-6.81-15.38-6.81-19.6l-4.84,6.29Z"/><path class="cls-11" d="M2715.05,941.13c-2.15.63-4.36,47-4.36,61,0,46.61,28.13,108,65,137.51,13,10.44,31.71,20.12,41.85,33.63,9.13,12.18,18.45,22.72,25.41,36.63,2.31,4.61,3.21,9.86,4.48,15,.15.59-.67,6,.75,6,3.41,0,4.68-22.13,5.23-25.41,4-24.08,7.76-60.94,7.37-86.66-.39-25.5-47.44-123-61.32-133.78-35.67-27.58-78.36-48.32-84.41-43.87Z"/><path class="cls-2" d="M2490,1971.34a5.62,5.62,0,0,1,1.2,11,18,18,0,0,1-4.59-.07c-4.9-.56-16.56-2-19.64-2-16.87.36-35.62-.92-53.79-.16-11.63.49-23,1.86-33.41,5.21-19.62,6.26-35.57,15.83-47.57,28.67s-19.94,29.12-23.2,49.09a52.53,52.53,0,0,0,1,21.34c1.65,6.26,4.54,12.18,9.66,15.58a148.13,148.13,0,0,0,25.21,13.49,184.26,184.26,0,0,0,44.92,12.28,175.16,175.16,0,0,0,46.91.48,20.25,20.25,0,0,0,8.32-3.24c8.18-5.26,14.81-13.28,23-15a42.23,42.23,0,0,1,16.84-.27c11.76,2.12,22.36,8.55,34.35,11.23a44.1,44.1,0,0,0,16.25.29c13.54-2.07,26.22-8.29,39.82-8.2a2.31,2.31,0,1,1,0,4.62c-13.36.09-25.73,6.35-39,8.68a50.49,50.49,0,0,1-18.2.18c-10.31-1.83-19.73-6.49-29.63-8.74a36.6,36.6,0,0,0-18.47.12c-7.25,2.07-12.39,10-19.4,15.24a30.42,30.42,0,0,1-12.18,5.61,186.46,186.46,0,0,1-50.13,3.12,198.88,198.88,0,0,1-49.6-9.95,135.63,135.63,0,0,1-15.12-6.3,138.57,138.57,0,0,1-14.2-8.18c-7.18-4.8-12.29-12.11-15.46-20.52a70.8,70.8,0,0,1-3.21-34.86c4.07-23.89,13.66-43.43,28.37-58.53,14.2-14.57,33.11-25,56.07-31.48,11.82-3.28,24.63-4.4,37.69-4.4,18.32,0,37.12,2.11,54.1,2.48,3.34.07,15.9,2.07,21.17,2.9a3.88,3.88,0,0,1,.61.14c-.32.16-.6.34-.65.35a5.6,5.6,0,0,1,1.2-.21l-.5-.13h-.05c.59-.31,1.34-.57,1.25.14Zm-.7,0c.39.11.68.17.7,0l-.22,0Z"/><path class="cls-2" d="M2039.39,2027.74c.59.89,72.87,34.65,153.2,72.31,34,15.95,69.41,32.7,101.38,47.91,52.6,25,95.84,45.93,108.27,52,12.14,6,23.92,12.52,35.52,19.37,27.6,16.28,54.19,34.07,82.48,49.08a9.38,9.38,0,0,0,8.39-16.78c-32.85-15.47-63.73-34.58-96.15-51.07-8.21-4.17-16.49-8.2-24.94-11.94-18.13-8.14-101.09-44.21-183.19-81-90.65-40.58-180.4-81.55-181.06-82.52a2.34,2.34,0,1,0-3.9,2.6Z"/><path class="cls-3" d="M2527.36,2263.09a11.17,11.17,0,0,1,2,2.52c.79,2.36.76,5.12,1.4,7.68,1.71,6.85.7,15.22.69,22.38,0,21.17-6.29,42-6.29,62.22"/><path class="cls-2" d="M1648.52,2109.46c-4,4.34-6.65,19-8.53,35.38-2.71,23.53-3.22,50.54-.93,57.61a2.39,2.39,0,1,1-4.53,1.51c-2.51-7.28-2.7-35.28-.41-59.73,1.75-18.67,5.3-35.21,9.81-39.82.88-.9,6.79-3.16,16.84-5.81,25.79-6.81,80.8-19.48,141.29-32.06,31.2-6.49,63.88-12.83,94.66-18.71,71.76-13.71,133.33-24.5,142.8-25.36a3.42,3.42,0,0,1,.69,6.81c-11.47,1.24-99.2,19.06-188.9,37.46-16.88,3.47-33.85,6.93-50.4,10.25-27.06,5.43-53,10.53-75.63,15.15-32.62,6.65-58.31,12.09-70.46,15.36-3,.79-6,1.86-6.3,2Z"/><path class="cls-2" d="M1636.4,2204.17a2.13,2.13,0,0,1-1.48-2.57,2,2,0,0,1,2.56-1.56,4.3,4.3,0,0,1,.78.29c.54.23,1.65.78,3.3,1.61,5.29,2.63,16.48,7.8,31.69,15.88,63.15,33.54,198.38,110.83,311.61,166.5,64.85,31.88,122.12,57.13,153.38,63.8a8.52,8.52,0,0,1-3.69,16.63c-39.75-9.18-120.57-48.35-205.88-93.84-103.23-55-213.87-118-264.26-148.92-12.61-7.73-21.21-13.76-25.52-16.38-1.24-.76-2.7-1-2.49-1.44Z"/><path class="cls-2" d="M2409.19,2409.11a5,5,0,0,1,8.6,5.19c-1.19,2.3-7.13,6.13-17.29,9.7-27.39,9.64-88.56,23.65-143.86,34-41.85,7.81-80.36,13.44-98.83,13.29-9-.07-14.69-2.4-17-4.35a10.25,10.25,0,0,1,12-16.52c1.32-3.4,11.19,1.29,21,.85,25.8-1.17,66.55-6.23,107.08-12.8,48.64-7.89,96.93-17.88,118.8-25.24,4.69-1.58,8.28-5.59,9.52-4.09Z"/><path class="cls-2" d="M1651.23,2112.22a2.37,2.37,0,0,1-1.24-1,43.37,43.37,0,0,0,3.15-3.33l3.58,1.91c5.37,2.89,16.54,8.93,32.18,17.23,36.11,19.16,95.82,50.66,162,83.95,53.63,27,111.48,55.13,164.24,79.27,69.76,31.91,130.47,56.63,159.88,62.54a9.5,9.5,0,1,1-4.14,18.54c-36.92-9-121.64-50-212.56-96.7-46.52-23.88-94.7-49.13-138.75-72.44-57.31-30.32-107.65-57.25-138.07-73.64-13.41-7.23-23-12.37-27.55-14.83-1.37-.75-2.75-1.48-2.75-1.48l0,0Z"/><path class="cls-2" d="M2525.63,2277.11a9.48,9.48,0,0,0-1.57-.48,2,2,0,1,1,.75-3.87c3.81.72,5.12,2.58,5.09,4.14,0,1.83-2.92,4.87-9,8-18.87,9.67-69.34,25.69-126.3,41.38-28,7.72-57.58,15.39-85.76,22.13-59.15,14.14-112.32,23.75-133.28,20.58-1.11-.16-3-1.35-4.53-2.43a8,8,0,0,1-1.47-.45,7.9,7.9,0,0,1-4.22-10.34c1.69-3.7,4.23-4.91,6.72-5.13a8.36,8.36,0,0,1,4.68.8,26.64,26.64,0,0,1,3.25,2.65c18.28,3,58.57-1.7,105.36-10.07,23.07-4.13,47.66-9.22,72-14.78,28-6.4,55.64-13.41,80.23-20.3,34.73-9.74,63.36-19.21,78.28-26a43,43,0,0,0,9.13-5.14,6.05,6.05,0,0,0,.61-.63Zm-347.56,87.44a6.54,6.54,0,0,0,1.87-2.69,7.93,7.93,0,0,1-1.87,2.69Z"/><path class="cls-13" d="M2171.76,2374.6c-.8,1.69-17.89,62.7-17.89,83.23"/><path class="cls-2" d="M2193.18,2332.19a4.87,4.87,0,0,1-2.24.54c-7.28-.18-32.48-9.48-60.28-21-34.74-14.35-73.75-31.82-85.28-38.65a2,2,0,0,1-1.05-1.52,2.05,2.05,0,0,1,.62-1.83,10.49,10.49,0,0,1,3.14-1.57c4.16-1.51,13.29-4.07,25.82-7.41,19.52-5.21,47.37-12.23,77.63-19.79,81.75-20.43,181.09-44.34,182.22-44,16.31,4.65,38.14,13.82,60,23.91,43.18,20,86.34,43.59,86.34,43.59a1.51,1.51,0,0,1,.78,1.52,1.54,1.54,0,0,1-1.12,1.29s-36.26,9.7-84.17,21.8c-26,6.58-55.5,13.83-84.47,20.63-43.51,10.21-85.88,19.37-114,22.88a12.9,12.9,0,0,1-3.87-.41Zm282.06-66.9c-10.9-6-46.7-25.36-82.58-42.08-21.67-10.1-43.38-19.21-59.58-23.85-1.13-.32-99.79,23.47-180.9,44.2-30.19,7.71-57.93,15.07-77.37,20.54-11.22,3.15-19.64,5.7-24.14,7.31,14.59,7.31,50.26,22.18,82.47,34,23.79,8.73,45.58,15.87,54.93,17.21a4.32,4.32,0,0,1,4.47-.85l.34.11.45.18c.66.24,3,0,3,.9,28-2.59,70.26-10,113.54-19,29.1-6,58.67-12.74,84.77-18.88,39-9.17,70.26-17.13,80.65-19.81Z"/><path class="cls-2" d="M1946.66,2215.61a1.93,1.93,0,0,0-.38,3.6l76.83,37.57a2.05,2.05,0,0,0,1.42.14l173.41-44.83a2.34,2.34,0,0,0,.28-4.43l-83.58-33.45a2.21,2.21,0,0,0-1.32-.1l-166.66,41.51Zm6.08,2.46,71.49,34.66L2190,2209.35l-76.29-30.89-160.93,39.61Z"/><path class="cls-2" d="M3092.91,2110.64c.48.35,1.62,1.19,2.82,2,6.39,4.3,20.1,12.8,38.93,24.15,46.47,28,123.76,73.53,198.38,117,90.92,52.94,177.82,102.79,199.43,115.72a12.71,12.71,0,0,1-13.42,21.59c-21.13-13.64-105.9-66.72-195.09-122.23-73.35-45.66-149.66-92.91-195.53-122-18.78-11.91-32.51-20.74-38.88-25.2a41.22,41.22,0,0,1-4.35-3.33,5.52,5.52,0,0,1-1.35-6.82,5.42,5.42,0,0,1,7.3-2.31,5.36,5.36,0,0,1,1.76,1.46Z"/><path class="cls-2" d="M2101.92,2055.33a3.11,3.11,0,0,1-.61.1c.19,0-.75-8.1-.75-8.1l1.91-.32c3.2-.53,9.89-1.64,19-3.11,46.82-7.57,157.68-24.83,191.45-24.85a4.22,4.22,0,0,1,0,8.43c-33.54,0-143.64,17-190.16,24.47-9.11,1.46-15.78,2.55-19,3.08l-1.88.32v0Z"/><path class="cls-3" d="M1633.61,2145.52c-1.58,1.93-207.59,45.53-213.31,51.24"/><path class="cls-2" d="M1424.57,2205.38c16.51,9.5,215.19,123.66,398.72,223.74,110.34,60.16,215.19,115.24,271.61,139.36,58.48,25,107.5,40.33,146.09,49.71,65.78,16,101.07,14.6,101.07,14.6a3.9,3.9,0,0,1,3.81,5.22s-16.71,45.86-28.06,81.37c-4.79,15-8.63,28.12-9.79,35a3.88,3.88,0,0,1-5.18,3s-155.76-57.6-271-104.29c-52.69-21.36-96.93-40.47-114.14-50.79-26.8-16.09-85.41-49.06-153.87-87.07C1608.34,2428.91,1402,2316.51,1402,2316.51a3.88,3.88,0,0,1-2-3.86l13.33-114.75a3.89,3.89,0,0,1,7.42-1.11l3.77,8.59Zm-4.94,6.12-11.56,99.44c23,12.54,213.63,116.51,359.56,197.54,68.55,38.07,127.25,71.08,154.1,87.19,17,10.22,60.87,29.1,113,50.25C2138.7,2688,2275.63,2739,2301.3,2748.56c1.73-7.62,5.08-18.94,9.11-31.55,9.08-28.41,21.58-63.42,26.27-76.45-12.58-.26-45.84-2.27-97.52-14.82-38.92-9.45-88.34-24.89-147.31-50.11-56.56-24.18-161.68-79.38-272.28-139.69-190-103.61-396.24-222.31-399.94-224.44Z"/><path class="cls-12" d="M2340.6,2632.68c1.46-.88-5.93,1.54-4.56,2.22,20.06,10,639.4-98.9,658.63-102.74,83.08-16.61,535.9-146.22,543.81-150.18,2-1-24.91,93.14-24.91,93.14s-279.36,118.15-506.31,168.82c-86.67,19.35-700.88,116.06-700.88,116.06l34.22-127.32Z"/><path class="cls-2" d="M1868.32,1703.38a3.34,3.34,0,0,1-1.74-.82,3.49,3.49,0,0,1-.29-4.92c.61-.68,3.16-2,6.17.08,3.46,2.33,11,9.42,12.77,11.14a101.58,101.58,0,0,1,6.85,7.66c8.24,10.11,15.42,22,23.09,30,1-.17,3-.53,4.84-1,18.27-4.8,64-21.78,64-21.78a4.29,4.29,0,0,1,5.57,2.78l22.86,72.75a4.87,4.87,0,0,1-2.6,5.84l-40.14,18.77c3.08,6.56,8.91,19.32,13.81,32,3.69,9.57,6.83,19.09,8,26,1.08,6.41,1.08,15,.54,23.66-.8,12.91-2.74,25.94-3.63,31.47,5.14,3,17.46,10.35,28.71,17.81,8.23,5.47,15.89,11,19.91,15.1a4.89,4.89,0,0,1,0,5.67c-1.12,1.84-3.7,5.57-7,10.27-8.71,12.22-22.68,31-29.28,39.22-3.09,3.84-5.92,5.31-6.32,5.31a3.48,3.48,0,0,1-2-6.35c-.54-.62,1.76-2,3.26-3.85,7.82-9.85,24.88-33.16,32.26-44a23.62,23.62,0,0,0,1.67-3.14,168.21,168.21,0,0,0-16.62-11.86c-14.6-9.42-31-18.54-31-18.54a4.07,4.07,0,0,1-2-4.2s2.7-16.8,3.45-33.37c.36-7.91.29-15.77-.8-21.61-1.18-6.41-4.31-15.23-7.87-24.12-7.1-17.72-16-35.62-16-35.62a4.88,4.88,0,0,1-.23-3.8A5,5,0,0,1,1961,1817l40.86-19-19.28-64.74c-10.26,3.57-36.55,12.6-53.31,17.44-6.41,1.85-11.5,3.09-14,3.28a5.58,5.58,0,0,1-4.4-1.25c-8.13-8.21-15.63-21-24.33-31.76a91.23,91.23,0,0,0-6.33-7.14c-1.59-1.6-8.53-8.18-11.71-10.34a1.23,1.23,0,0,0-.23-.11Z"/><path class="cls-2" d="M1710,2087.17c-40.17-.82-66.93-30.9-82-70.54-21.09-55.51-19.27-129.81,1-169.52,9.6-18.78,22-33.28,37.17-44.37,14.94-10.9,32.62-18.49,53.1-23.6,7.17-1.8,24.11-2.74,42-1.63,14.77.91,30.19,3.23,41.23,7.69,12.11,4.89,24.08,13.07,34.88,22.51a204.27,204.27,0,0,1,28.39,30.6,244.94,244.94,0,0,1,15.11,22.65,241.5,241.5,0,0,1,12.52,24.19c11.82,26.4,18.61,57,17.49,86.31-1.15,30.29-10.76,59.15-32,80.41a.69.69,0,0,0,0,1,.7.7,0,0,0,1,0c21.5-21.49,31.25-50.68,32.45-81.32,1.15-29.5-5.64-60.36-17.52-87a247.17,247.17,0,0,0-27.74-47.18,205.66,205.66,0,0,0-28.57-30.88c-10.94-9.58-23.06-17.88-35.32-22.85-11.18-4.52-26.79-6.91-41.76-7.84-18.1-1.13-35.25-.14-42.51,1.67-20.71,5.18-38.58,12.88-53.68,23.92-15.39,11.24-27.91,25.95-37.61,45-20.39,40-22.18,114.86-.89,170.76,15.31,40.2,42.55,70.58,83.29,71.4a.67.67,0,0,0,.69-.66.69.69,0,0,0-.66-.7Z"/><path class="cls-2" d="M1595.35,1733.14l47.8-33.24c1.51-.9,10.43-6.77,15.82-7.29,3-.29,5.26.75,6.39,3.07a2.9,2.9,0,0,1-5.21,2.56c-.21-.43-.73.13-1.32.26a19.48,19.48,0,0,0-4.14,1.49,80.53,80.53,0,0,0-8.55,4.9L1597.26,1739a3,3,0,0,1-3.14.2l-50-27.06-51.15,54.23,54.79,59.66a3.55,3.55,0,0,1,.64,3.81l-9,21.19c-3.62,9.13-7.31,18.89-10.19,28.75a140,140,0,0,0-4.36,19.53l-1.41,41.2a3.77,3.77,0,0,1-2.93,3.63l-60.43,13.95,16.07,70.76,54.91-8.25a3.23,3.23,0,0,1,3.12,1.31l28.43,39.31a112.05,112.05,0,0,0,19.79,19.24,159.93,159.93,0,0,0,23.38,15.09,3,3,0,0,1,1.3,4s-19.14,36.2-25.79,50.31a2.89,2.89,0,0,1-.14,2.91c-12.79,19.79-13.24,13.12-6.52-2.32,4.11-9.46,20.91-41.63,25.84-51.05a174.66,174.66,0,0,1-21.75-14.2,119.34,119.34,0,0,1-21-20.22l-27.65-37.73-56.08,8.82a3.43,3.43,0,0,1-3.86-2.62l-18.1-77.32a3.71,3.71,0,0,1,2.76-4.43l61.15-14.31,1.46-39.17a148.48,148.48,0,0,1,4.66-20.57c3-10.06,6.8-20,10.56-29.35l8.26-19.2-55-60.56a3.33,3.33,0,0,1,0-4.51l55.23-57.87a3.07,3.07,0,0,1,3.7-.58l50.43,27.5Z"/><path class="cls-2" d="M1770.82,2073.13c-27.86,0-52-5.74-71.65-16.55-21.92-12.06-38.25-30.46-48-54.21-5.55-13.55-8.26-31.39-8.89-49.5a242.13,242.13,0,0,1,3.46-50.6c3.67-19.89,10.41-39.66,21.26-55.87s26.06-29,46.56-34.35c28.3-7.45,49.39-8,66-4.5,26,5.49,40.9,21,55.09,35.13,27,26.81,50.86,84.68,49.68,135.4-.8,34.42-13.17,65.56-44.19,81.12a2.07,2.07,0,0,0-.93,2.77,2.09,2.09,0,0,0,2.78.93c32.53-16.21,45.75-48.66,46.77-84.7,1.49-52.11-22.65-111.69-50.19-139.44-14.81-14.91-30.42-31.19-57.78-37-17.27-3.69-39.26-3.19-68.74,4.58a82.66,82.66,0,0,0-42.17,26.89c-15.71,18.38-24.87,43.18-29.32,68.15a247.75,247.75,0,0,0-3.18,51.73c.78,18.7,3.73,37.11,9.56,51.06,10.26,24.67,27.35,43.72,50.21,56.19,20.24,11.07,45,17,73.69,17a2.07,2.07,0,1,0,0-4.14Z"/><path class="cls-2" d="M1695.9,1361a.46.46,0,0,1,.58.71.9.9,0,0,1-1,.15,20.06,20.06,0,0,1-4.11-2.59c-6.49-4.7-20-15-40.64-23.37a172.24,172.24,0,0,0-50.62-11.9c-39.69-3.22-77.94,1.48-110.88,16.29s-60.67,39.86-79.11,77.16a239,239,0,0,0-19,54.29,233.06,233.06,0,0,0-5.55,57.21,198.42,198.42,0,0,0,6.53,45.47,160.78,160.78,0,0,0,31,61.08c20.85,25.3,63,46.91,106.43,56.26a206.18,206.18,0,0,0,48.73,4.86c27-.77,51.31-8.1,67.53-24.27a.47.47,0,0,1,.66,0,.48.48,0,0,1,0,.65c-16.34,16.38-40.9,23.85-68.15,24.77a210.25,210.25,0,0,1-49.09-4.53c-44-9.06-86.89-30.55-108.26-56a163,163,0,0,1-32.21-62,196.82,196.82,0,0,1-6.85-46.28,232.07,232.07,0,0,1,5.75-58.1,241.23,241.23,0,0,1,19.69-54.92c19.08-37.72,47.4-62.86,81.06-77.66,33.32-14.65,71.88-19.17,111.84-15.61a174.47,174.47,0,0,1,50.91,12.2c20.73,8.47,34.28,18.82,40.8,23.55a31,31,0,0,0,3.42,2.29,4,4,0,0,0,.52.19Z"/><path class="cls-2" d="M1682.49,1369.54a2.43,2.43,0,0,1,.75.65s-3.1,3.33-3.1,3.33l-.61-.35c-1-.58-3.17-1.79-6.27-3.4-11.79-6.11-37.33-18-67.23-23.84-16.63-3.22-34.62-4.5-52.3-1.85-29.23,4.49-54,15.58-74.11,30.74a156.62,156.62,0,0,0-49.17,62.55c-9.65,22-14.38,54.78-14,87.15s6,64.51,19.28,84.83c16,24.88,54.25,49.69,95.47,61.7,40.09,11.68,83,11.28,111-12.55a2.31,2.31,0,0,1,3,3.49c-28.83,25.45-73.58,26.69-115.82,15.54-43.83-11.56-84.84-36.56-102.58-62.24-14.63-21.59-22.06-55.85-22.46-90.61-.4-34.14,5.94-68.59,16.53-91.58a166.25,166.25,0,0,1,53.86-64.85c21.35-15.26,47.47-26.28,78.08-30.21,23.18-3.07,46.73.38,67.33,5.94a280.59,280.59,0,0,1,56.4,22.3c2.64,1.41,4.47,2.45,5.35,3l.53.31Z"/><path class="cls-2" d="M1444.39,1211.76l13.83,69.5a3,3,0,0,1-5.87,1.18l-14.58-72a3.09,3.09,0,0,1,1.9-3.51l96.57-39.07a3.54,3.54,0,0,1,4.7,2.28l21.82,74,95.07,28.77,30.25-65.83a3,3,0,0,1,3.32-1.71l26.21,4.44a3,3,0,0,1,0,6l-25-4.11-30.14,66.43a3.2,3.2,0,0,1-3.82,1.73l-99.82-29.39a3.6,3.6,0,0,1-2.42-2.43l-21.16-72.2-90.87,35.92Z"/><path class="cls-2" d="M1362.57,1342.14c4-3.74,18.09-16.87,32.67-28.46,8.87-7.07,17.93-13.55,25-17.08,3.88-1.94,8.16-4.14,12.42-6a60.42,60.42,0,0,1,9-3.15,100.44,100.44,0,0,1,13.88-1.8,3.2,3.2,0,0,1,3.33,3.41c0,.23-.48,1.85-2.93,2.4a1.94,1.94,0,0,1-.4.06c-1,1.65-9.73.63-12.53,1.33a54.43,54.43,0,0,0-8.14,2.87c-4.16,1.8-8.33,4-12.12,5.86-6.78,3.39-15.46,9.66-24,16.47-17,13.54-33.34,29.21-33.34,29.21a2.82,2.82,0,0,1-2.55.72l-75.21-15.81-18.15,35c-3.56,8.36-8.78,19.08-14.18,29.74-8.67,17.09-17.82,34-21.43,40.61l74.51,37.06a3.39,3.39,0,0,1,1.85,3.22,293.11,293.11,0,0,0,0,31c.44,7.34,1.3,14.58,3,19.84,2.22,7,7.18,17.42,12.68,28.1,10.38,20.18,22.69,41.1,22.69,41.1a3.49,3.49,0,0,1-1.37,4.85l-69.94,37,44,81.65,44.87-33.5,15.3-7.63a3,3,0,0,1,3.8,1s14.78,22.18,35.14,39.69c9,7.76,19.12,14.62,29.53,18.1a2.88,2.88,0,0,1-1.82,5.46c-11.09-3.68-21.9-10.89-31.52-19.11-17.12-14.63-30.46-32.46-34.83-38.58l-12.2,6.11-47.39,35.69a3.17,3.17,0,0,1-4.73-1l-47.79-87.7a3.38,3.38,0,0,1,1.39-4.61l69.67-37.07c-3.84-6.62-13-22.68-21-38.31-5.68-11.08-10.77-22-13.05-29.2-1.8-5.71-2.79-13.55-3.24-21.52a295.72,295.72,0,0,1,0-29.6l-75.32-37.87a3.19,3.19,0,0,1-1.36-4.39s12-21.47,23.1-43.24c5.38-10.5,10.56-21.08,14.11-29.32,1.5-3.47,4.41-9.24,7.56-15.23,5.64-10.74,12-22.2,12-22.2a2.94,2.94,0,0,1,3.19-1.46l75.91,16.17Z"/><path class="cls-2" d="M1524.82,1869.19a2.42,2.42,0,0,1,1.29,1.21c1.59,3.24-1.38,3.93-2.51,3.81a4.13,4.13,0,0,1-2.12-1.21c-1.49-1.44-5.12-5.56-6.23-6.31-4.83-3.22-9.54-6.78-14.56-9.78a51.69,51.69,0,0,0-10.13-4.81,286.64,286.64,0,0,0-46.58-11.23c-16.19-2.46-32.59-3.41-47.63-2a134.15,134.15,0,0,0-62.33,21.75,143.37,143.37,0,0,0-45,48.51,157.7,157.7,0,0,0-12.9,29,163.09,163.09,0,0,0-7,31c-2.37,19-2.2,42.61,2.79,64,3.37,14.48,8.93,28,17.46,38.18,30.61,36.74,82.51,60.09,133,62.95,51.73,2.93,102.06-15.67,126.19-63.92a2.53,2.53,0,0,1,4.52,2.27c-25.07,50.13-77.23,69.76-131,66.71-51.87-2.93-105.15-27-136.6-64.76-9-10.81-15-25-18.51-40.28-5.13-22-5.32-46.34-2.88-65.82a168.56,168.56,0,0,1,7.18-31.94,162.1,162.1,0,0,1,13.32-29.93,148.5,148.5,0,0,1,46.59-50.22,139.1,139.1,0,0,1,64.67-22.55c15.42-1.4,32.25-.44,48.85,2.08a290.52,290.52,0,0,1,47.42,11.44,56.37,56.37,0,0,1,11.12,5.27c5.1,3,9.88,6.64,14.78,9.91,1.18.79,5,5,6.76,6.71Zm-3.39,1.57a2.05,2.05,0,0,0,0,1.63,2.53,2.53,0,0,1,0-1.63Z"/><path class="cls-2" d="M1535,1855.91c-17.07-22-45-33.77-75-39-51.29-8.94-108.54,1.3-127.18,11.91-15.85,9-30.64,15.4-45.78,29.34-10.56,9.72-21.29,23.11-32.66,43.59a153.09,153.09,0,0,0-8.26,17.48,170,170,0,0,0-6.13,18.34,195.52,195.52,0,0,0,.14,101.36c9,32.92,27.23,63.16,55.41,84.22a174.67,174.67,0,0,0,19.1,12.38,189.21,189.21,0,0,0,20.48,9.88c41.9,17.19,89.91,19.19,132,7.18,44.48-12.7,82.35-41,99.35-83.79a.88.88,0,0,0-.5-1.16.9.9,0,0,0-1.16.5c-16.86,42.16-54.3,70.1-98.25,82.49-41.63,11.75-89.09,9.53-130.43-7.64a184.86,184.86,0,0,1-20.15-9.84,171.36,171.36,0,0,1-18.72-12.28c-27.55-20.75-45.2-50.51-54-82.8a193.3,193.3,0,0,1-.24-99.68,164.68,164.68,0,0,1,5.94-18,150.58,150.58,0,0,1,8-17.17c11.09-20.2,21.56-33.42,31.9-43,14.9-13.87,29.51-20.24,45.14-29.22,18.38-10.55,74.93-20.84,125.65-12.14,29.5,5.06,57,16.56,73.87,38.21a.89.89,0,0,0,1.41-1.1Z"/><path class="cls-2" d="M1248.39,1817.67l-26.93-67.31a2.82,2.82,0,0,1,1.29-3.54l73.77-39.13a2.79,2.79,0,0,1,3.42.65l49.08,57.35A262.44,262.44,0,0,1,1380.3,1748c8.77-4.06,17.76-7.26,25-7.83a235.5,235.5,0,0,1,54.78,2.61c14.1,2.48,26.92,6.63,34.89,12.85a2.72,2.72,0,0,1-3.35,4.28c-7.4-5.78-19.38-9.47-32.48-11.77a229.88,229.88,0,0,0-53.41-2.52c-6.68.54-15,3.59-23.1,7.36a259.86,259.86,0,0,0-32.55,18.62,2.74,2.74,0,0,1-3.64-.48l-49.26-57.47-69.53,37,26.8,66.75a2.87,2.87,0,0,1-.73,3.19L1233,1839.81a227.81,227.81,0,0,0-23,27.36c-7,9.71-13.55,19.9-19.68,30.13-2.81,4.68-5.72,12.32-8.36,20.31-5.13,15.55-9.16,32.44-9.16,32.44a2.91,2.91,0,0,1-1.91,2.08L1093,1978.06l6.8,28.59,4.44,20.8,5.25,19.72c8.55-1.92,35.43-7.78,52-9.82,6.4-.78,11.39-.91,13.56-.27a4,4,0,0,1,3,2.82c2.45,9.81,5.52,27.19,13.07,46.51a153.07,153.07,0,0,0,23.68,41.35c5.5,6.75,14.59,13.77,24.26,20.18a384.12,384.12,0,0,0,42.14,23.64,2.77,2.77,0,0,1,.9,4.35s-27.7,31.15-37.9,43.77c-.85,1.06-1.71,2.19-2.32,3,5.64,5.11,16.09,12.43,27.35,19.84,18,11.88,38.17,24,44.44,27.71l61-71.15a2.72,2.72,0,0,1,2.64-.89s11,2.42,21.22,4.17a101.56,101.56,0,0,0,13.92,1.73,2.72,2.72,0,0,1,0,5.43,107.69,107.69,0,0,1-14.84-1.81c-8-1.36-16.42-3.13-19.87-3.86l-61.44,71.69a2.74,2.74,0,0,1-3.46.57s-24.84-14.66-46.65-29c-12.79-8.42-24.54-16.75-29.8-22a3.17,3.17,0,0,1-.21-3.94,53.48,53.48,0,0,1,3.72-5c8.39-10.41,28.61-33.35,35.61-41.25a384.31,384.31,0,0,1-39.54-22.4c-10.2-6.75-19.73-14.2-25.53-21.29a158.82,158.82,0,0,1-24.58-42.84c-7.38-18.84-10.59-35.86-13-46a33.26,33.26,0,0,0-4-.11c-6.42.34-16.72,2-27,3.94-16.91,3.17-33.79,7-33.79,7a2.85,2.85,0,0,1-3.41-2.07L1098.7,2029l-4.48-20.87-7.49-31.38a2.89,2.89,0,0,1,1.92-3.37l78.83-26.29c1.13-4.58,4.66-18.41,8.92-31.33,2.8-8.46,5.93-16.53,8.9-21.47,6.23-10.37,12.83-20.7,20-30.54a235.06,235.06,0,0,1,23.63-28l19.48-18.07Z"/><path class="cls-2" d="M3287.55,1851a.92.92,0,0,1-.81-.14c-6.44-4.85-3.73-4.85.56-2.15,2.87,1.81,9.86,6.5,12.31,8,7.46,4.45,15,8.83,22.3,13.58,4.88,3.16,9.65,6.49,14.23,10.14,20,15.88,39,33.89,53,54.89a139.48,139.48,0,0,1,20.65,46.75,231.56,231.56,0,0,1,5.62,43.16,226.89,226.89,0,0,1-2.64,43.48c-6.39,38.41-22.76,73.69-48.55,99.13-25.07,24.73-59.05,40.19-101.52,40a.9.9,0,0,1,0-1.79c41.8-.16,75.17-15.55,99.63-40.12,25.09-25.21,40.77-60.06,46.65-97.84a226.62,226.62,0,0,0,2.8-42.76,232.63,232.63,0,0,0-5.14-42.57c-4.56-21-14.3-39.62-27-56.26s-28.38-31.3-44.77-44.52c-4.51-3.64-9.21-7-14-10.12-7.27-4.77-14.78-9.14-22.2-13.61-2.16-1.3-7.83-5.11-11.13-7.24Z"/><path class="cls-2" d="M3273.11,1875.92c6.79,1,22.63,12.65,40,27.94,18.77,16.52,39.13,37.42,51.88,54.53,18.84,25.31,24.07,59.35,18.64,93.3a176.76,176.76,0,0,1-22.14,61.32c-26.81,45.47-74.66,79-136.73,71.62a2.74,2.74,0,1,0-.69,5.44c64.86,8.61,115.6-25.77,144-73.13a178.55,178.55,0,0,0,23.31-64c5.57-36-.9-72-21.19-98.48-13.17-17.24-34.15-38.21-53.38-54.86-18.59-16.11-35.72-28.06-42.94-29.1a2.75,2.75,0,0,0-.79,5.44Z"/><path class="cls-2" d="M3363,1741.33l47.29-56.26a4.16,4.16,0,0,1,6.15-.24l72.31,73.17a4.27,4.27,0,0,1,.15,5.84L3452.32,1805a207.22,207.22,0,0,1,24.74,28c7.94,10.92,15.42,23.87,19.33,37.48,1,3.33,1.84,9.61,2.54,16.83,1.17,12.06,2,26.8,2.29,33.85l87.64,5.86a4.81,4.81,0,0,1,4.47,5.11l-6.13,96.47a5,5,0,0,1-4.56,4.67l-66.66,6.07a347.8,347.8,0,0,1-4.36,39.51c-2,11-4.75,21.69-8.53,29.26-2.47,4.94-8.31,13.44-14.78,22.25-7.77,10.58-16.45,21.62-20.87,27.18l44.06,44.19a5.17,5.17,0,0,1,.43,6.82l-33.27,42.64-19.08,23.74a5,5,0,0,1-6,1.41l-54.67-26c-.66.43-1.46.95-2.22,1.49-11.26,7.87-38.31,29.15-40.38,31.21a4.79,4.79,0,1,1-6.78-6.78c2.13-2.13,29.94-24.26,41.54-32.44a45.59,45.59,0,0,1,5.07-3.24,5.31,5.31,0,0,1,4.84-.1l53.28,25,16.42-20.59,30.36-39.15-44.29-44.16a5.25,5.25,0,0,1-.37-7s12.62-15.73,23.49-30.53c6-8.22,11.54-16.12,13.84-20.72,3.42-6.83,5.83-16.51,7.63-26.4a350.74,350.74,0,0,0,4.57-42.59,5.19,5.19,0,0,1,4.71-5l66.91-5.79,5.93-87.38-86.92-6.2a4.61,4.61,0,0,1-4.28-4.41s-.62-17-1.84-32.17c-.69-8.65-1.53-16.72-2.62-20.54-3.58-12.62-10.53-24.62-17.86-34.77a193.3,193.3,0,0,0-26.52-29.6,4.37,4.37,0,0,1-.4-6.19l36.94-41.24-66.15-67.2-47,55.76a4.13,4.13,0,0,1-5.7.59s-20.24-15.92-35.86-27.38c-6.78-5-12.65-9.09-15.49-10.56a4.1,4.1,0,1,1,3.77-7.29c3,1.57,9.34,5.93,16.57,11.22,12,8.77,26.64,20.13,33,25.06Z"/><path class="cls-2" d="M2490.67,1274c4.89-1.77,24.24-5.31,51.52-9.57,15.23-2.38,32.92-4.93,51.93-7.64,18.51-2.62,38.28-5.29,58.23-8,7.76-1.07,15.55-2.14,23.3-3.23q7.8-1.1,15.52-2.21c38.33-5.56,74.81-10.92,101.86-14.43,23.09-3,39.29-4.75,43.78-4.76a.37.37,0,0,0,.37-.37.36.36,0,0,0-.37-.37c-4.36,0-19.76,1.64-41.82,4.21-25.69,3-60.44,7.06-97.28,12-11.42,1.52-23.05,3.12-34.67,4.79-12.21,1.76-24.4,3.62-36.35,5.44-31.33,4.79-61,9.62-84.67,13.59-27.31,4.58-46.71,8.12-51.6,9.93a.37.37,0,0,0,.25.7Z"/><path class="cls-14" d="M2804.59,2067.55c-2.82-2.25,6.76-7.44,8-7.76,8.74-2.18,19.11-6.46,28.53-4.58,15.8,3.16,21.22,23,22.93,36.69,3.7,29.59-9,67.47-24.47,92.24-8.48,13.57-13.43,29.33-19.87,43.82s-13.86,27.81-18.86,42.81c-4.88,14.64-11.76,29.61-18.35,42.8-.94,1.87-5.62,12-8.15,10.7-13.92-7-25.57-16.46-41.28-20.39-5.1-1.28-10.36-2.34-15.29-3.57a44.94,44.94,0,0,1-7.13-3.06s6.26-3.15,9.17-5.09a86.53,86.53,0,0,0,16.82-15.29c14.9-17.38,34.47-32.24,44.85-53,14.2-28.4,27.34-56.38,35.17-87.65,2.42-9.69,10.18-22.45,6.62-33.12-2.7-8.11-4-17.12-7.64-24.46-1.59-3.19-7.64-9.37-7.64-11.72l-3.42.62Z"/><path class="cls-11" d="M2683.41,1139.78c16.9-37.51,12.4-139.66-51.84-126.82-10.92,2.19-23.17,8.5-32.46,14.07-7.38,4.43-12.55,13.78-19.48,18.39-25.05,16.7-70.91,77.28-59.52,111.45,4.58,13.75,18.92,17.45,31.38,20.57,26,6.51,64.46,8.61,88.84-.1,28.42-10.15-28.11-37.73-29.57-39.67-9.06-12.07,4.26-5.05-4.08-17.58-1.23-1.84-9-10.51-7.58-11.91,3.69-3.68,17.45-.31,21.65,1.09,15.67,5.23,40,19.48,54.1,19.48l8.56,11Z"/><path class="cls-11" d="M2620.47,1130.26c5.12,3,16.69,9.9,24.1,15.8,5.22,4.17,9.54,8.64,12,12.77,3.64,6.11,4,12.09,1.81,17.35-1.8,4.27-5.78,8.9-14.2,11.91-26.19,9.35-67.48,7.41-95.45.42-16.07-4-33.53-10.3-39.44-28-5.35-16-.86-37.2,9.43-57.88,14.11-28.36,38.46-55.92,54.59-66.67,3.45-2.3,6.23-6.15,9.34-9.55a49,49,0,0,1,10.6-9.14c10.3-6.18,24-13,36.1-15.47,32-6.39,52.27,9.72,63.51,34.82,14.84,33.11,12.07,83.24,1,107.88a11.42,11.42,0,0,1-19.42,2.31l-5.56-7.15A92.85,92.85,0,0,1,2650,1134c-10.21-4.07-21.17-9.59-30-12.89a15.32,15.32,0,0,1,.82,7.84,8.67,8.67,0,0,1-.33,1.31Zm57.7-12.42c4.21-21.68,3.25-50.93-6.15-71.92-6.82-15.23-18.8-25.64-38.21-21.76-9.72,1.94-20.57,7.7-28.83,12.66-3.5,2.1-6.2,5.78-9.13,9a54.55,54.55,0,0,1-9.89,9.07c-13.93,9.29-34.62,33.36-46.82,57.85-7.25,14.57-12,29.19-8.21,40.49,1.62,4.85,5.62,7.23,9.88,9a93.4,93.4,0,0,0,13.44,4.07c23.25,5.82,57.17,8.13,79.78,1.05a44.68,44.68,0,0,0-4.31-4c-8.18-6.39-18.67-12.12-22.88-14.65a19.13,19.13,0,0,1-5.21-4.25c-5.69-7.58-5.78-12.16-5.53-14.73a12.14,12.14,0,0,1,1-3.45c-1-1.52-5.4-6.63-7.28-9.92a17,17,0,0,1-2.25-6.44,11.68,11.68,0,0,1,3.44-9.87c2.72-2.7,7.34-4.79,13.2-5,6.95-.22,16.47,2.1,20.12,3.32,9.58,3.2,22.32,9.67,34.09,14.36,6.15,2.45,11.89,4.54,16.41,4.54a11.17,11.17,0,0,1,3.32.5Z"/><path class="cls-15" d="M2867.56,650.38c-1.76-17.25,2.89-37.12,3-55.75.05-8.42-.78-16.6-3.53-24.21-13.39-38-29.14-61.76-52.84-77.34-14.42-9.49-31.78-16.09-53.49-20.54a374.42,374.42,0,0,0-37.46-5.27c-11.32-.87-27.56.94-45.15,4.21-20.27,3.77-42.3,9.54-60.65,14.44-22.91,6.12-40,11.08-40,11.08a1.17,1.17,0,1,0,.65,2.25s14.25-4.17,34.34-8.83c15.27-3.54,33.93-7.24,52.13-10.15,22.33-3.59,43.95-5.8,57.73-4,13.46,1.41,25.57,3.22,36.6,5.31,20.65,3.92,37.38,9.21,51.37,17.69,23.3,14.13,39.06,36.51,53.35,72.45,2.8,7.17,3.82,14.94,3.91,22.95.24,18.71-4.29,38.7-2.32,56a1.17,1.17,0,0,0,2.33-.25Z"/><path class="cls-15" d="M2904.72,662c-.35-9,2.45-19.81,6.54-30.71,5.88-15.72,14.37-31.71,19.46-43.53a121.52,121.52,0,0,0,9.89-44.62,107.93,107.93,0,0,0-3.37-30.53,88.41,88.41,0,0,0-8.75-21.43,76.12,76.12,0,0,0-40.55-34,152.77,152.77,0,0,0-19.79-5.67,275.59,275.59,0,0,0-30.42-4.65.53.53,0,0,0-.58.47.54.54,0,0,0,.47.58c8.56,1,17,2.13,25.23,3.89a146,146,0,0,1,24.34,7.32,74.22,74.22,0,0,1,37.86,34,93,93,0,0,1,8.15,20.57,111.17,111.17,0,0,1,3.75,29.39,120.25,120.25,0,0,1-8.42,43.77c-2.92,7.26-7,16.12-11.07,25.5a250.16,250.16,0,0,0-9.93,26.07c-2.56,8.45-4.18,16.55-3.86,23.62a.53.53,0,0,0,1,0Z"/><path class="cls-15" d="M2996.29,692.67c16.89-3.69,31.62-3.68,44.48,0A79.6,79.6,0,0,1,3078.88,717c10.55,11.9,18.21,26.4,23.27,41.28a155.19,155.19,0,0,1,8,47.41,2.81,2.81,0,1,0,5.61,0c.17-14.94-2.25-32.27-7.27-49.42-4.7-16.07-11.85-31.87-22-45.46a101,101,0,0,0-31.1-27.7c-16.55-9.44-36.9-14.39-62.26-12.68a11.23,11.23,0,0,0,3.14,22.24Z"/><path class="cls-15" d="M1674.57,1477c-.46-.57.1-1.52.7-2.85a52.19,52.19,0,0,1,6-9.17c8.61-11.27,22.36-25.29,24.9-28.33,12.82-15.35,26.25-30.69,40.33-45.39a534,534,0,0,1,44.14-41.53c5.14-4.27,13.72-13.81,21.7-19.8a29.38,29.38,0,0,1,8.16-4.56,9.26,9.26,0,0,1,2-.51,1.69,1.69,0,0,0,0-3.37c-3.53-.06-7.94,2.06-12.45,5.38-8.07,6-16.64,15.66-21.8,20a536.53,536.53,0,0,0-44.36,41.9c-14.11,14.79-27.56,30.22-40.4,45.66-2.89,3.47-20.28,21.21-28.16,32.95-2.28,3.39-3.76,6.34-4.08,8.38a4.21,4.21,0,0,0,.74,3.4,1.7,1.7,0,1,0,2.64-2.14Z"/><path class="cls-16" d="M1640.72,1505.79s69.72-129.53,121-171c87.81-71.1,112.16-99.34,194.79-154.42,24.27-16.17,143.51-73.3,171.68-73.3,3.87,0,31.56-3.51,31.56-3.51s13,30.09,24.7,38.84c21.65,16.21,30,24.75,38,32.76,5.74,5.74-6.16,66.61,9.48,88s57.69,49.07,84.35,40.19c12.14-4,66.81-27.81,66.81-27.81l35.15,36.78s-3.86,18.53-23,41.08c-17.24,20.32-69.46,66.33-69.46,66.33s-16.85-29.15-31.56-33.54c-15.26-4.55-47.95.19-60,6.21-18.51,9.25-46.06,62.87-46.06,62.87s-198.94,48-216.48,39.2c-5.67-2.85-41.41-13.45-41.41-13.45s-143.19-3-191.45,1.17c-33.5,2.88-98.07,23.67-98.07,23.67Z"/><path class="cls-16" d="M1903.15,1711.24l21.69,20.33,61.22-19.71,29.78,89.86s-37.29,17-40,22.38c-4,8,20.69,49.93,20.69,60,0,8.34-4,52.42-4,52.42L2040,1969s-34.74,53.79-33.5,56.27c1.46,2.93,26.33-5.47,29.25-4,14,7,60.65,26,60.65,26l209.13-30.45,30.19-33.57s21.65-22.1,40.89-24.24c14.38-1.6,61.93,3.61,73.51-5.08,32.12-24.08,12.74-72.42,16.1-109,5.55-60.57.94-173.1,17.21-254.44,5.79-28.92,18.35-125.6,30.19-137.43,15.25-15.25,42.87-20.47,42.87-20.47l67-17.59-90.72-17.64-39.47,29.6-43.41,96.43c14.52-2.72,14.16,103-19,149.09-20.88,29.08-34.44,34.83-63.19,49.21-11.89,5.94-27.46,30.23-44.69,42.23-12.23,8.51-25.65,5.6-36.1,16.05-26.65,26.64-29.52,98.42-66.05,113-19.71,7.88-55.63-1.32-74.75-6.1-60.59-15.15-121.27-120.27-121.27-120.27-2.6-.39,10.39-25.36,11.11-26.8,5.49-11,55.95-66.13,55.66-66.42-7.65-7.65-188.49,37.89-188.49,37.89Z"/><path class="cls-16" d="M2000.61,1738.07c1.26.92,2.05,3.54,2.85,6.64,1.82,7,3,16.43,4.57,19.58a1.72,1.72,0,0,0,3.07-1.54c-1.74-3.48-2.9-14.91-5.16-21.71-.9-2.74-2-4.79-3.31-5.72a1.71,1.71,0,1,0-2,2.75Z"/><path class="cls-11" d="M1689.35,1837.05c-30.63,15.93-39.5,102.07-31.65,141.34,11.22,56.13,70.07,86.37,124.77,86.37,15.13,0,42.41-5.11,55.23-13.66,68.71-45.8,30.44-188.61-36.49-222.08-10.81-5.4-53.06-22.54-111.86,8Z"/><path class="cls-11" d="M1672.46,1392.85c1.63-.58-2.87-1.94-4.31-2.9a56.39,56.39,0,0,0-13-6.48c-12.87-4.29-23.92-8.49-37.06-11.12-31.82-6.37-52-14-76-8.12s-51.78,26.32-67.93,43.62c-47.35,50.73-59.38,146,8.6,216.49,30,31.15,76.91,34.29,119.51,34.3,11.23,0,38.62-.32,43.55-10.19,11.26-22.51,11.5-49.31,19.46-73.2,1.9-5.69,9-21.94,5.57-28.71-1.91-3.81-13.93-1.86-17.61-1.86-11,0-57.32-2.34-53.73-16.68,9.62-38.46,24.44-64,45.4-95.43,7.82-11.71,18.2-25.6,26.88-34.28,1-1,4.76-6.48.93-6.48"/><path class="cls-11" d="M1671.89,1389.86a2.2,2.2,0,0,1,.9-.2c3,0,3.83,1.59,3.83,3.53,0,2.16-2.35,5.71-3.25,6.62a160.62,160.62,0,0,0-11.33,12.93c-5.4,6.78-10.77,14.26-15.27,21-10.55,15.82-19.54,30.13-27.09,45.36a240.74,240.74,0,0,0-18,49.39,4.37,4.37,0,0,0,1.65,4.42c2,1.82,5.1,3.24,8.83,4.45,13.42,4.31,34.29,5.3,41.2,5.33,2.45,0,8.56-.81,13-.29,3.09.36,5.44,1.5,6.31,3.26,1.23,2.47,1.33,6,.7,10-1.18,7.43-4.88,16.3-6.2,20.22-5.54,16.62-7.33,34.66-11.71,51.67a110.14,110.14,0,0,1-7.85,21.76c-1.89,3.77-6.59,6.44-12.62,8.13-10.53,2.94-25.11,3.11-32.61,3.11-25.48,0-52.47-1.12-76.53-8.56-16.67-5.17-32-13.36-44.39-26.27-31.8-33-46.3-71.27-48-108-2-42.85,13.49-83.56,39.29-111.23a184.88,184.88,0,0,1,31.57-26.52c12.12-8.09,25.23-14.73,37.38-17.72,10.78-2.67,20.81-2.68,31.41-1.26,13.31,1.79,27.53,5.84,45.44,9.48,5.31,1.08,10.28,2.42,15.16,3.92,7.27,2.23,14.35,4.81,22.08,7.43a52.1,52.1,0,0,1,6.92,3,61.67,61.67,0,0,1,6.44,3.8,26.28,26.28,0,0,0,2.78,1.34Zm-.91,3.83c-1,0-3-1.77-3.78-2.3a59,59,0,0,0-6.12-3.53,49.36,49.36,0,0,0-6.46-2.7c-7.72-2.53-14.79-5-22-7.19-4.79-1.41-9.65-2.68-14.84-3.69-17.83-3.51-32-7.43-45.22-9.17-10.08-1.33-19.61-1.37-29.86,1.16-11.72,2.89-24.36,9.32-36.06,17.12a180.85,180.85,0,0,0-30.86,25.88c-25.13,26.91-40.17,66.52-38.29,108.22,1.61,35.87,15.77,73.28,46.79,105.5,12,12.42,26.66,20.3,42.71,25.29,23.7,7.36,50.3,8.46,75.39,8.47,6.28,0,17.67-.08,27.26-1.93,6.76-1.32,12.67-3.32,14.62-7.21a106.49,106.49,0,0,0,7.57-21c4.4-17.1,6.21-35.22,11.79-51.93,1.1-3.32,4-10.29,5.48-16.82.93-4.09,1.38-8,.15-10.45-.61-1.2-2.73-1.17-5-1.25-4.07-.14-8.82.51-10.9.51-7.12,0-28.63-.87-42.48-5.26-9.2-2.91-14.84-7.78-13.31-13.91a244.4,244.4,0,0,1,18.33-50.26c7.62-15.39,16.7-29.85,27.36-45.84,4.56-6.84,10-14.44,15.48-21.31a160.8,160.8,0,0,1,11.65-13.29,14.78,14.78,0,0,0,1.4-2.39,1.61,1.61,0,0,1-.76-.7Z"/><path class="cls-11" d="M1525.84,1891.74c4.64,2.36-8.07-6.8-11-11.13-5.5-8.25-20.24-13.55-29.4-15.84-34.22-8.56-78-16.51-111.07-5.49-21.57,7.18-60.12,39.08-70.64,58.13-39.23,71.17-11.56,133.82,13.22,160.58,19,20.51,89.33,54.34,148,40.83,31.79-7.32,67-35,81.55-64.09,3.94-7.87-5.14-13.68-7.91-19.22-8-16-25.9-13.23-45.23-6.79-6.62,2.21-20.78,7-24.87-1.13-6.16-12.32-9-40.52-9-54.28,0-3.12-6.86-15.22-3.39-17,14.53-7.26,50.54-6.44,59.93-15.83,11.21-11.21-1.92-46.69,9-57.66"/><path class="cls-11" d="M1457.07,1958a4,4,0,0,0-.07.77,15.85,15.85,0,0,0,.84,3.74c1.35,4.18,3.52,9,3.53,10.79a211.2,211.2,0,0,0,3.12,32.7c1.44,8.13,3.37,15.72,5.86,20.66,1.36,2.69,4.18,3.41,7.29,3.41,5.26,0,11.39-2.11,15.08-3.34,11.2-3.7,21.92-6.16,30.63-4.75,7.25,1.17,13.19,4.91,17,12.63,2,4,7.15,8.19,8.61,13.12a10.32,10.32,0,0,1-.73,7.86c-7.38,14.79-20,29.24-34.86,40.93s-31.83,20.58-48,24.33c-26,6-54.25,2.86-79.43-4.36-32.44-9.3-59.73-25.37-70.57-37.08-14.68-15.86-30.38-44.12-33-79.27-1.86-25.08,2.92-53.66,19.51-83.74,5.38-9.76,18-22.87,31.94-34.38,13.79-11.35,28.95-21.15,39.84-24.79,13.73-4.59,29.28-6,45.26-5.4,22.88.85,46.63,5.78,67,10.9a85.55,85.55,0,0,1,19.49,7.48c4.61,2.57,8.62,5.69,11,9.31a32.73,32.73,0,0,0,4.76,5.07,13.66,13.66,0,0,1,2.35-3.18,2.05,2.05,0,1,1,2.9,2.9,10.52,10.52,0,0,0-2.1,3.07c1.44,1.27,2.66,2.34,3.26,2.95a2.09,2.09,0,0,1-.15,3.35,3.14,3.14,0,0,1-2.45-.43,1.72,1.72,0,0,1-.93-1.45l-.92-.78a48.32,48.32,0,0,0-.84,9.94c0,9.51,1.26,20.44.13,29-.66,5-2.19,9.23-5,12.08-2.53,2.53-6.78,4.46-12.06,5.91-14.61,4-37.43,4.77-48.35,10.1Zm62.73-69.88a43.93,43.93,0,0,1-6.54-6.44c-2.1-3.13-5.67-5.75-9.71-8a80.6,80.6,0,0,0-18.57-6.92c-20.13-5-43.57-9.79-66.16-10.62-15.43-.57-30.47.71-43.74,5.12-10.53,3.5-25.16,13-38.51,24-13.54,11.11-25.77,23.7-31,33.13-16.12,29.25-20.79,57-19,81.41,2.53,34,17.7,61.38,31.92,76.73,10.52,11.37,37.13,26.82,68.64,35.86,24.51,7,52,10.19,77.32,4.37,15.62-3.57,32.09-12.15,46.45-23.4s26.66-25.23,33.83-39.53a7,7,0,0,0-.24-6.7c-2-4-6-7.41-7.71-10.76a18.11,18.11,0,0,0-14.11-10.41c-8.17-1.29-18.2,1.2-28.68,4.71-4,1.34-10.69,3.58-16.41,3.54-4.78,0-8.89-1.59-11-5.73-2.59-5.24-4.64-13.23-6.1-21.83a214.12,214.12,0,0,1-3-33.37c0-2.24-3.67-9.2-4.27-13.45-.38-2.6.38-4.44,1.92-5.22,11-5.54,34.21-6.59,49.07-10.74,4.45-1.24,8.11-2.71,10.23-4.84,3.52-3.51,4.23-9.67,4.31-16.59.1-9.53-1.21-20.45-.17-28.93a31,31,0,0,1,1.13-5.41Z"/><path class="cls-11" d="M3264.17,1901.3c4.89-4.53,61.4,34,80.91,61.72,31.39,44.65,24.15,151.29-32.92,189.32-21.93,14.62-73.76,35.24-104.2,25.08-18-6-37.1-17.26-54.44-28.82-18-12-47.22-18.4-61.92-33.11-3.58-3.58,3.25-13,4.27-16,6-18,14.11-35.91,20.29-54.44,4.09-12.26,3-23.27,11.75-32,8.61-8.61,41.34-23.8,45.14-27.58,18.1-18.1,67-21.94,74.43-34.33,6.34-10.57,8.23-26.06,13.88-37.36,1.89-3.79,5.34-9.1,5.34-12.81"/><path class="cls-11" d="M3265.41,1899.3a2.06,2.06,0,0,1,1.29-.45,2.11,2.11,0,0,1,1.74.93l.25.08c6.35,2,18.86,9.52,32.34,19.38,17.13,12.55,35.86,29,45.57,42.71,16.44,23.35,22.55,63.41,16.58,102-5.61,36.3-21.88,71.28-49.92,90-13.31,8.89-37.52,20-61.4,25.18-16.11,3.51-32.08,4.33-44.55.19a164.83,164.83,0,0,1-23-9.9,337.49,337.49,0,0,1-32-19.16c-12.24-8.17-29.77-13.71-44.28-21.13-6.9-3.53-13.13-7.49-17.9-12.28-1.61-1.62-1.93-4.06-1.25-6.8,1-4.14,4.39-9.14,5.09-11.22,4.85-14.46,11.06-28.82,16.54-43.51,1.34-3.61,2.64-7.24,3.87-10.9,2.82-8.59,3.11-16.56,6-23.58a27.54,27.54,0,0,1,6.11-9.23c2.69-2.68,7.64-6,13.37-9.42,12.62-7.54,29.13-15.59,31.74-18.2a52.28,52.28,0,0,1,14.21-9.64c13.5-6.62,31-10.84,44-15.42,7.65-2.69,13.69-5.33,15.85-8.93a47.6,47.6,0,0,0,3.32-6.88c3.85-9.74,6-21.36,10.48-30.35,1.08-2.16,2.67-4.81,3.82-7.38a18.58,18.58,0,0,0,.94-2.43,1.72,1.72,0,0,1-1.34-.55,1.69,1.69,0,0,1,.09-2.4,3.6,3.6,0,0,1,2.4-.75Zm3,4.1a17.17,17.17,0,0,1-.75,2.35c-1.18,3-3.18,6.33-4.48,8.92-4.45,8.89-6.54,20.39-10.35,30a51.37,51.37,0,0,1-3.61,7.49c-1.32,2.2-3.74,4.21-7.06,6-15.62,8.59-52.59,13.5-67.75,28.63-2.68,2.67-19.61,11-32.58,18.7-5.39,3.21-10.07,6.31-12.6,8.85a23.9,23.9,0,0,0-5.26,8c-2.89,6.93-3.26,14.8-6.13,23.26-1.22,3.69-2.53,7.37-3.87,11-5.4,14.67-11.52,29-16.3,43.46-.59,1.8-3.17,5.77-4.5,9.47-.64,1.81-1.24,3.51-.21,4.53,4.51,4.49,10.42,8.15,16.94,11.45,14.67,7.46,32.35,13.11,44.72,21.35a336.27,336.27,0,0,0,31.57,18.94,160.76,160.76,0,0,0,22.37,9.66c11.87,4,27.06,3.07,42.4-.26,23.36-5.07,47-15.86,60.07-24.53,27.2-18.11,42.83-52.1,48.3-87.29,5.86-37.57.15-76.59-15.82-99.32-8-11.35-22.17-24.51-36.44-35.75-15.34-12.1-30.76-22-38.57-24.91l-.09,0Z"/></g></svg>