<svg width="2000" height="2000" viewBox="0 0 2000 2000" fill="none" xmlns="http://www.w3.org/2000/svg">
<path fill-rule="evenodd" clip-rule="evenodd" d="M1050.74 445.464L1632.62 790.294L1574.06 1391.92H542.33L371.605 929.208L1050.74 445.464Z" fill="#E7ECFF"/>
<path fill-rule="evenodd" clip-rule="evenodd" d="M1072.75 912.616C1072.75 901.04 1063.35 891.691 1051.77 891.691H593.927C582.4 891.691 573 901.04 573 912.616C573 970.595 573 1132.66 573 1190.64C573 1202.21 582.4 1211.62 593.927 1211.62C675.355 1211.62 970.346 1211.62 1051.77 1211.62C1063.35 1211.62 1072.75 1202.21 1072.75 1190.64C1072.75 1132.66 1072.75 970.595 1072.75 912.616Z" fill="#000045"/>
<path fill-rule="evenodd" clip-rule="evenodd" d="M1064.49 902.08C1064.49 890.504 1055.09 881.155 1043.51 881.155C962.085 881.155 667.093 881.155 585.665 881.155C574.139 881.155 564.739 890.504 564.739 902.08C564.739 960.059 564.739 1122.12 564.739 1180.1C564.739 1191.68 574.139 1201.08 585.665 1201.08C667.093 1201.08 962.085 1201.08 1043.51 1201.08C1055.09 1201.08 1064.49 1191.68 1064.49 1180.1C1064.49 1122.12 1064.49 960.059 1064.49 902.08Z" fill="white"/>
<path fill-rule="evenodd" clip-rule="evenodd" d="M1002.32 1162.38C1002.32 1157 1000.17 1151.87 996.406 1148.09C992.591 1144.3 987.489 1142.18 982.1 1142.18C903.656 1142.18 619.255 1142.18 540.764 1142.18C535.423 1142.18 530.273 1144.3 526.506 1148.09C522.739 1151.87 520.592 1157 520.592 1162.38C520.592 1192.26 520.592 1247.95 520.592 1277.83C520.592 1283.18 522.739 1288.31 526.506 1292.09C530.273 1295.87 535.423 1298.02 540.764 1298.02C619.255 1298.02 903.656 1298.02 982.1 1298.02C987.489 1298.02 992.591 1295.87 996.406 1292.09C1000.17 1288.31 1002.32 1283.18 1002.32 1277.83C1002.32 1247.95 1002.32 1192.26 1002.32 1162.38Z" fill="#3D61FF"/>
<path fill-rule="evenodd" clip-rule="evenodd" d="M601.841 1042.08H811.645C812.783 1042.08 813.723 1041.14 813.723 1040C813.723 1038.87 812.783 1037.98 811.645 1037.98H601.841C600.703 1037.98 599.764 1038.87 599.764 1040C599.764 1041.14 600.703 1042.08 601.841 1042.08Z" fill="#000045"/>
<path fill-rule="evenodd" clip-rule="evenodd" d="M601.889 1091.45H922.925C924.061 1091.45 924.968 1090.51 924.968 1089.37C924.968 1088.24 924.061 1087.35 922.925 1087.35H601.889C600.753 1087.35 599.846 1088.24 599.846 1089.37C599.846 1090.51 600.753 1091.45 601.889 1091.45Z" fill="#000045"/>
<path fill-rule="evenodd" clip-rule="evenodd" d="M562.266 1263.06H745.851C746.989 1263.06 747.928 1262.17 747.928 1261.04C747.928 1259.9 746.989 1258.96 745.851 1258.96H562.266C561.128 1258.96 560.188 1259.9 560.188 1261.04C560.188 1262.17 561.128 1263.06 562.266 1263.06Z" fill="white"/>
<path fill-rule="evenodd" clip-rule="evenodd" d="M562.292 1227.3H662.983C664.123 1227.3 665.045 1226.41 665.045 1225.27C665.045 1224.13 664.123 1223.19 662.983 1223.19H562.292C561.152 1223.19 560.229 1224.13 560.229 1225.27C560.229 1226.41 561.152 1227.3 562.292 1227.3Z" fill="white"/>
<path fill-rule="evenodd" clip-rule="evenodd" d="M930.812 1227.06L961.445 1257.69C962.237 1258.49 963.561 1258.49 964.369 1257.68C965.161 1256.89 965.161 1255.56 964.369 1254.77L933.736 1224.14C932.928 1223.33 931.619 1223.35 930.828 1224.14C930.02 1224.94 930.004 1226.25 930.812 1227.06Z" fill="white"/>
<path fill-rule="evenodd" clip-rule="evenodd" d="M961.462 1224.12L930.829 1254.76C930.038 1255.55 930.037 1256.87 930.845 1257.68C931.637 1258.47 932.962 1258.47 933.753 1257.68L964.386 1227.05C965.194 1226.24 965.178 1224.93 964.386 1224.14C963.579 1223.33 962.27 1223.32 961.462 1224.12Z" fill="white"/>
<path fill-rule="evenodd" clip-rule="evenodd" d="M986.028 939.232C955.95 936.461 932.401 911.133 932.401 880.362C932.401 847.712 958.918 821.196 991.569 821.196C1024.22 821.196 1050.73 847.712 1050.73 880.362C1050.73 907.472 1032.43 930.327 1007.55 937.302L1019.37 1042.48C1019.72 1045.69 1017.39 1048.61 1014.18 1048.96C1011.11 1049.3 1007.4 1049.7 1004.33 1050.05C1001.12 1050.39 998.247 1048.12 997.851 1044.9L986.028 939.232ZM991.569 839.203C1014.28 839.203 1032.73 857.655 1032.73 880.362C1032.73 903.069 1014.28 921.472 991.569 921.472C968.862 921.472 950.458 903.069 950.458 880.362C950.458 857.655 968.862 839.203 991.569 839.203Z" fill="#3D61FF"/>
<path fill-rule="evenodd" clip-rule="evenodd" d="M985.389 954.997C985.389 954.997 979.039 956.695 977.567 961.059C976.139 965.37 978.854 974.554 978.854 974.554C978.854 974.554 972.311 982.036 979.198 992.759C979.198 992.759 975.362 1002.57 980.94 1011.03C980.94 1011.03 978.157 1015.72 982.576 1021.41C986.995 1027.1 1002.73 1029.03 1006.31 1023.27C1008.11 1020.26 1006.29 1014.18 1006.29 1014.18C1006.29 1014.18 1010.17 1006.45 1007.57 1000.49C1007.57 1000.49 1011.16 988.618 1004.15 982.875C1004.15 982.875 1006.46 974.257 1002.8 968.742L994.774 958.574L985.389 954.997Z" fill="#FFC8A3"/>
<path fill-rule="evenodd" clip-rule="evenodd" d="M981.996 977.556L996.198 982.93C997.255 983.338 998.453 982.821 998.851 981.733C999.247 980.694 998.735 979.478 997.678 979.069L983.433 973.699C982.376 973.291 981.219 973.853 980.781 974.895C980.383 975.982 980.938 977.148 981.996 977.556Z" fill="#E89B68"/>
<path fill-rule="evenodd" clip-rule="evenodd" d="M983.588 993.899L996.999 998.974C998.074 999.401 999.261 998.862 999.66 997.775C1000.06 996.736 999.513 995.543 998.478 995.113L985.027 990.042C983.988 989.66 982.802 990.198 982.407 991.238C981.968 992.328 982.51 993.52 983.588 993.899Z" fill="#E89B68"/>
<path fill-rule="evenodd" clip-rule="evenodd" d="M985.444 1010.47L998.452 1015.39C999.533 1015.8 1000.7 1015.25 1001.13 1014.21C1001.53 1013.12 1000.97 1011.94 999.931 1011.53L986.883 1006.61C985.837 1006.24 984.641 1006.75 984.242 1007.83C983.847 1008.87 984.363 1010.06 985.444 1010.47Z" fill="#E89B68"/>
<path fill-rule="evenodd" clip-rule="evenodd" d="M1014.33 985.191C1014.33 985.191 1017.49 995.678 1031.29 1002.5C1032.33 1003 1033.57 1002.6 1034.07 1001.57C1034.56 1000.53 1034.17 999.289 1033.13 998.795C1021.15 992.908 1018.29 983.954 1018.29 983.954C1017.94 982.866 1016.8 982.272 1015.71 982.618C1014.62 982.964 1013.98 984.103 1014.33 985.191Z" fill="#E89B68"/>
<path fill-rule="evenodd" clip-rule="evenodd" d="M1052.76 1001.17C1052.76 1001.17 1034.02 975.097 1028.23 965.203C1022.44 955.309 1000.97 947.741 993.202 944.377C985.435 941.013 982.268 960.653 1005.12 964.66L1012.54 981.034L1018.83 1035.6L1026.5 1039.46L1052.76 1001.17Z" fill="#FFC8A3"/>
<path fill-rule="evenodd" clip-rule="evenodd" d="M1124.6 1039.56C1124.6 1039.56 1088.98 1006.51 1073.39 1006.36C1073.39 1006.36 1061.62 1000.48 1055.44 997.36C1053.26 996.271 1050.59 996.766 1048.96 998.596C1042.97 1005.32 1028.92 1022.15 1022.24 1039.26C1021.65 1040.75 1021.8 1042.38 1022.54 1043.76C1024.57 1047.47 1029.12 1055.14 1034.41 1061.62C1034.41 1061.62 1029.86 1074.98 1063.11 1105.26C1096.35 1135.53 1139.54 1171.45 1178.22 1180.6L1159.52 1057.02L1124.6 1039.56Z" fill="#FF7A3D"/>
<path fill-rule="evenodd" clip-rule="evenodd" d="M1110.89 1027.88C1110.89 1027.88 1128.06 1111.19 1161.55 1175.75L1146.46 1168.18C1146.46 1168.18 1110.5 1103.42 1102.98 1021.65L1110.89 1027.88Z" fill="#CC3D00"/>
<path fill-rule="evenodd" clip-rule="evenodd" d="M1255.84 1391.88L1249.83 863.508C1249.83 863.508 1190.53 902.201 1187.31 907.889C1184.57 912.88 1192.89 925.222 1192.08 930.964C1188.22 958.225 1171.64 1007.97 1169.39 1041.62C1164.56 1112.45 1173.79 1304.3 1172.87 1391.88H1255.84Z" fill="#FFD83D"/>
<path fill-rule="evenodd" clip-rule="evenodd" d="M1198.32 1391.87H1492.09C1478.19 1296.55 1435.73 948.353 1313.95 859.176L1282.54 866.772C1282.54 866.772 1242.4 884.284 1225.42 913.651C1210.28 939.838 1199.61 973.409 1198.32 1030.42C1197.24 1076.97 1196.81 1291.16 1198.32 1391.87Z" fill="#FF7A3D"/>
<path fill-rule="evenodd" clip-rule="evenodd" d="M948.691 759.468L913.152 703.488C912.505 702.506 911.246 702.243 910.292 702.849C909.338 703.455 909.047 704.754 909.653 705.709L945.192 761.689C945.798 762.643 947.098 762.933 948.052 762.328C949.006 761.722 949.297 760.422 948.691 759.468Z" fill="#AB3DFF"/>
<path fill-rule="evenodd" clip-rule="evenodd" d="M1334.29 761.408L1358.36 735.98C1359.13 735.184 1359.12 733.882 1358.27 733.075C1357.43 732.312 1356.13 732.323 1355.36 733.163L1331.29 758.547C1330.53 759.387 1330.54 760.688 1331.38 761.452C1332.19 762.267 1333.52 762.204 1334.29 761.408Z" fill="#FF3D3D"/>
<path fill-rule="evenodd" clip-rule="evenodd" d="M750.106 762.623C750.106 755.549 744.368 749.761 737.244 749.761C723.788 749.761 700.883 749.761 687.377 749.761C680.303 749.761 674.515 755.549 674.515 762.623V812.489C674.515 819.613 680.303 825.352 687.377 825.352C700.883 825.352 723.788 825.352 737.244 825.352C744.368 825.352 750.106 819.613 750.106 812.489V762.623ZM746 762.623V812.489C746 817.338 742.092 821.245 737.244 821.245C723.788 821.245 700.883 821.245 687.377 821.245C682.579 821.245 678.67 817.338 678.67 812.489C678.67 799.034 678.67 776.079 678.67 762.623C678.67 757.824 682.579 753.916 687.377 753.916C700.883 753.916 723.788 753.916 737.244 753.916C742.092 753.916 746 757.824 746 762.623Z" fill="#3D61FF"/>
<path fill-rule="evenodd" clip-rule="evenodd" d="M839.36 800.966C839.36 796.455 835.715 792.78 831.174 792.78H800.282C795.77 792.78 792.096 796.455 792.096 800.966V831.858C792.096 836.399 795.77 840.043 800.282 840.043C808.498 840.043 822.988 840.043 831.174 840.043C835.715 840.043 839.36 836.399 839.36 831.858V800.966ZM835.237 800.966V831.858C835.237 834.099 833.415 835.92 831.174 835.92C822.988 835.92 808.498 835.92 800.282 835.92C798.041 835.92 796.219 834.099 796.219 831.858V800.966C796.219 798.725 798.041 796.903 800.282 796.903H831.174C833.415 796.903 835.237 798.725 835.237 800.966Z" fill="#FF7A3D"/>
<path fill-rule="evenodd" clip-rule="evenodd" d="M1094.95 1292.38C1087.36 1292.38 1081.22 1298.51 1081.22 1306.05C1081.22 1313.64 1087.36 1319.78 1094.95 1319.78C1102.49 1319.78 1108.62 1313.64 1108.62 1306.05C1108.62 1298.51 1102.49 1292.38 1094.95 1292.38ZM1094.95 1296.5C1100.23 1296.5 1104.5 1300.77 1104.5 1306.05C1104.5 1311.38 1100.23 1315.65 1094.95 1315.65C1089.62 1315.65 1085.35 1311.38 1085.35 1306.05C1085.35 1300.77 1089.62 1296.5 1094.95 1296.5Z" fill="#FF3D3D"/>
<path fill-rule="evenodd" clip-rule="evenodd" d="M1420.54 842.514C1414.47 842.514 1409.52 847.46 1409.52 853.572C1409.52 859.644 1414.47 864.591 1420.54 864.591C1426.65 864.591 1431.6 859.644 1431.6 853.572C1431.6 847.46 1426.65 842.514 1420.54 842.514ZM1420.54 846.656C1424.36 846.656 1427.46 849.752 1427.46 853.572C1427.46 857.392 1424.36 860.489 1420.54 860.489C1416.72 860.489 1413.62 857.392 1413.62 853.572C1413.62 849.752 1416.72 846.656 1420.54 846.656Z" fill="#FF7A3D"/>
<path fill-rule="evenodd" clip-rule="evenodd" d="M1267.19 579.482C1270.44 567.345 1282.86 560.172 1294.92 563.404C1306.99 566.637 1314.23 579.08 1310.98 591.217C1308.26 601.381 1299.02 608.074 1288.94 607.959C1284.24 607.953 1280.11 611.079 1278.9 615.613C1277.04 622.559 1274.45 632.21 1274.45 632.21C1274.16 633.307 1274.8 634.421 1275.9 634.714C1276.99 635.008 1278.11 634.365 1278.4 633.268C1278.4 633.268 1280.98 623.617 1282.92 616.69C1283.64 613.985 1286.12 612.062 1288.93 612.109C1300.82 612.162 1311.72 604.266 1314.93 592.275C1318.77 577.944 1310.24 563.276 1295.98 559.456C1281.72 555.635 1267 564.073 1263.16 578.405C1262.87 579.501 1263.58 580.632 1264.68 580.926C1265.78 581.22 1266.89 580.579 1267.19 579.482Z" fill="#AB3DFF"/>
<path fill-rule="evenodd" clip-rule="evenodd" d="M1145.65 560.321C1143.39 551.876 1148.42 543.229 1156.81 540.981C1165.26 538.718 1173.89 543.703 1176.15 552.147C1177.95 558.85 1175.1 565.723 1169.63 569.394C1165.93 571.855 1164.26 576.377 1165.39 580.599C1166.61 585.363 1168.11 590.957 1168.11 590.957C1168.41 592.066 1169.55 592.723 1170.66 592.426C1171.76 592.129 1172.42 590.991 1172.12 589.883C1172.12 589.883 1170.64 584.341 1169.35 579.538C1168.67 577.005 1169.7 574.297 1171.9 572.802C1178.82 568.232 1182.37 559.531 1180.11 551.086C1177.27 540.478 1166.35 534.127 1155.74 536.97C1145.13 539.812 1138.85 550.773 1141.69 561.381C1141.97 562.437 1143.11 563.094 1144.22 562.797C1145.33 562.5 1145.93 561.376 1145.65 560.321Z" fill="#3D61FF"/>
<path d="M1269.82 656.956C1273.2 657.861 1276.67 655.856 1277.58 652.479C1278.48 649.101 1276.47 645.63 1273.1 644.725C1269.72 643.82 1266.25 645.824 1265.34 649.202C1264.44 652.579 1266.44 656.051 1269.82 656.956Z" fill="#AB3DFF"/>
<path d="M1174.79 607.955C1177.23 607.301 1178.68 604.795 1178.02 602.357C1177.37 599.919 1174.86 598.472 1172.43 599.126C1169.99 599.779 1168.54 602.284 1169.2 604.722C1169.85 607.16 1172.35 608.608 1174.79 607.955Z" fill="#3D61FF"/>
<path fill-rule="evenodd" clip-rule="evenodd" d="M547.043 1004.32C554.462 1017.76 541.918 1039.3 518.87 1052.61C495.804 1065.92 470.899 1066.01 462.949 1052.87C462.915 1052.81 462.891 1052.77 462.857 1052.71C462.832 1052.67 462.807 1052.63 462.774 1052.57C455.371 1039.11 467.89 1017.57 490.955 1004.26C514.004 990.95 538.935 990.87 546.868 1004.02L546.885 1004.01C546.918 1004.06 546.943 1004.11 546.968 1004.15C547.002 1004.21 547.026 1004.25 547.06 1004.31L547.043 1004.32Z" fill="white"/>
<path fill-rule="evenodd" clip-rule="evenodd" d="M461.269 1054C461.151 1053.87 461.042 1053.72 460.976 1053.57C457.721 1047.69 457.867 1040.39 460.935 1032.82C465.314 1022.09 475.629 1010.73 489.928 1002.48C504.209 994.233 519.219 990.968 530.68 992.549C538.776 993.681 545.171 997.203 548.648 1002.95L546.983 1005.88L546.991 1005.89L546.887 1006.07L546.87 1006.08L546.983 1005.88C546.874 1004.94 546.572 1002.95 546.211 1002.56C546.103 1002.3 545.977 1002.16 545.857 1002.23C544.778 1002.85 544.989 1003.77 545.491 1004.56C545.733 1005.06 546.128 1005.51 546.456 1005.84L546.87 1006.08C546.811 1006.02 546.002 1005.37 545.491 1004.56C545.125 1003.85 545.065 1003.07 546.024 1002.52C546.075 1002.49 546.152 1002.5 546.211 1002.56C546.592 1003.5 546.863 1005.95 546.87 1006.08L546.887 1006.07L547.007 1006.04L546.991 1005.89L548.665 1002.98L548.84 1003.28C548.866 1003.33 548.891 1003.37 548.924 1003.43C552.085 1009.3 551.931 1016.54 548.88 1024.07C544.519 1034.79 534.187 1046.16 519.906 1054.4C505.607 1062.66 490.614 1065.91 479.136 1064.34C471.091 1063.22 464.738 1059.73 461.251 1054.05C461.201 1054 461.176 1053.95 461.151 1053.91L460.975 1053.61C461.059 1053.75 461.151 1053.87 461.26 1053.98L461.269 1054ZM545.136 1005.13L545.262 1005.35C545.629 1005.99 546.306 1006.37 547.037 1006.37C546.289 1006.38 545.595 1005.97 545.236 1005.31C547.915 1010.18 547.62 1016.24 545.06 1022.52C540.97 1032.56 531.216 1043.11 517.842 1050.83C504.452 1058.56 490.438 1061.73 479.699 1060.25C472.996 1059.32 467.589 1056.56 464.705 1051.8L464.604 1051.63L464.579 1051.58C461.892 1046.69 462.213 1040.64 464.756 1034.37C468.838 1024.32 478.6 1013.78 491.991 1006.05C505.364 998.33 519.369 995.144 530.117 996.636C536.837 997.559 542.219 1000.32 545.111 1005.09L545.136 1005.13ZM463.022 1054.78L462.944 1054.92L463.022 1054.78ZM462.1 1051.13C461.992 1050.86 461.866 1050.72 461.746 1050.79C460.667 1051.41 460.878 1052.33 461.38 1053.12C461.689 1053.74 462.244 1054.3 462.589 1054.62L462.64 1054.63L462.759 1054.64C462.708 1054.63 462.666 1054.64 462.598 1054.64L462.589 1054.62C462.496 1054.62 462.419 1054.61 462.343 1054.59C462.419 1054.61 462.521 1054.62 462.598 1054.64L462.648 1054.69C462.699 1054.73 462.766 1054.77 462.817 1054.82L462.944 1054.92L462.92 1054.76L462.896 1054.64L462.777 1054.63L462.759 1054.64L462.777 1054.63L462.759 1054.64L462.777 1054.63C462.701 1054.58 461.891 1053.93 461.38 1053.12C461.014 1052.41 460.971 1051.62 461.913 1051.08C461.964 1051.05 462.041 1051.06 462.1 1051.13C462.481 1052.06 462.752 1054.51 462.777 1054.63L462.872 1054.44C462.763 1053.5 462.461 1051.51 462.1 1051.13ZM547.007 1006.04L547.031 1006.2L547.037 1006.37L546.911 1006.27C546.86 1006.22 546.81 1006.17 546.759 1006.12L546.709 1006.08C546.76 1006.09 546.819 1006.07 546.87 1006.08L547.007 1006.04Z" fill="#FF7A3D"/>
<path fill-rule="evenodd" clip-rule="evenodd" d="M607.055 979.464C606.936 979.341 606.825 979.192 606.757 979.039C603.436 973.201 603.5 965.901 606.482 958.289C610.739 947.514 620.925 936.041 635.129 927.625C649.316 919.219 664.288 915.784 675.766 917.236C683.875 918.276 690.309 921.725 693.851 927.432L692.203 930.39L692.083 930.577L692.203 930.39C692.074 929.437 691.767 927.445 691.409 927.074C691.299 926.809 691.171 926.671 691.052 926.742C689.963 927.387 690.193 928.318 690.704 929.103C690.96 929.573 691.36 930.016 691.692 930.343L692.083 930.577C692.032 930.53 691.232 929.877 690.704 929.103C690.33 928.393 690.27 927.594 691.222 927.029C691.273 926.999 691.333 927.022 691.409 927.074C691.793 927.992 692.075 930.446 692.083 930.577L692.228 930.55L692.203 930.39L693.869 927.461L694.047 927.763C694.073 927.806 694.098 927.849 694.132 927.907C697.36 933.742 697.288 940.989 694.322 948.552C690.083 959.317 679.879 970.8 665.693 979.206C651.489 987.622 636.533 991.047 625.038 989.605C616.98 988.574 610.589 985.157 607.038 979.513C606.987 979.466 606.961 979.423 606.936 979.38L606.757 979.078C606.842 979.222 606.936 979.34 607.046 979.45L607.055 979.464ZM690.364 929.654L690.492 929.87C690.858 930.488 691.539 930.861 692.262 930.879C691.522 930.871 690.833 930.483 690.466 929.826C693.2 934.673 692.974 940.73 690.484 947.04C686.508 957.124 676.874 967.783 663.589 975.655C650.287 983.538 636.31 986.868 625.555 985.513C618.842 984.656 613.404 981.955 610.466 977.229L610.364 977.057L610.338 977.014C607.596 972.153 607.848 966.101 610.32 959.801C614.288 949.702 623.93 939.057 637.232 931.175C650.518 923.303 664.486 919.958 675.249 921.328C681.98 922.175 687.392 924.871 690.339 929.611L690.364 929.654ZM608.8 980.236L608.723 980.379L608.8 980.236ZM607.853 976.584C607.742 976.319 607.615 976.181 607.496 976.252C606.407 976.897 606.637 977.828 607.165 978.603C607.48 979.212 608.008 979.754 608.366 980.086L608.408 980.08L608.527 980.087C608.485 980.093 608.434 980.084 608.366 980.086C608.281 980.058 608.187 980.055 608.111 980.043C608.196 980.07 608.289 980.073 608.366 980.086L608.425 980.148C608.468 980.181 608.536 980.218 608.587 980.265L608.714 980.364L608.689 980.205L608.681 980.074L608.544 980.077L608.527 980.087L608.544 980.077L608.527 980.087L608.544 980.077C608.476 980.04 607.676 979.387 607.165 978.603C606.79 977.893 606.713 977.104 607.666 976.539C607.717 976.509 607.794 976.522 607.853 976.584C608.237 977.502 608.518 979.956 608.544 980.077L608.647 979.9C608.518 978.947 608.211 976.955 607.853 976.584ZM692.228 930.55L692.245 930.695L692.254 930.865L692.126 930.766C692.075 930.718 692.024 930.671 691.981 930.638L691.922 930.576C691.973 930.584 692.041 930.583 692.083 930.577L692.228 930.55Z" fill="#000045"/>
<path d="M518.266 1051.88C531.289 1044.36 535.75 1027.71 528.231 1014.68C520.713 1001.66 504.06 997.198 491.037 1004.72C478.014 1012.24 473.552 1028.89 481.07 1041.91C488.589 1054.93 505.243 1059.4 518.266 1051.88Z" fill="#FF7A3D"/>
<path fill-rule="evenodd" clip-rule="evenodd" d="M490.01 1002.94C475.992 1011.03 471.197 1028.92 479.29 1042.94C487.367 1056.93 505.275 1061.75 519.293 1053.66C533.282 1045.58 538.088 1027.64 530.011 1013.65C521.918 999.637 503.999 994.86 490.01 1002.94ZM492.058 1006.48C504.069 999.549 519.482 1003.68 526.434 1015.72C533.369 1027.73 529.239 1043.14 517.228 1050.08C505.188 1057.03 489.774 1052.9 482.839 1040.89C475.888 1028.85 480.018 1013.44 492.058 1006.48Z" fill="#FF7A3D"/>
<path fill-rule="evenodd" clip-rule="evenodd" d="M636.36 929.741C623.09 937.603 618.69 954.799 626.553 968.069C634.415 981.338 651.595 985.71 664.865 977.847C678.134 969.984 682.523 952.833 674.66 939.563C666.797 926.293 649.629 921.878 636.36 929.741ZM638.476 933.312C649.795 926.605 664.408 930.344 671.115 941.664C677.822 952.983 674.084 967.597 662.765 974.304C651.446 981.011 636.803 977.288 630.096 965.969C623.389 954.649 627.157 940.019 638.476 933.312Z" fill="#000045"/>
<path fill-rule="evenodd" clip-rule="evenodd" d="M462.212 957.128L482.808 992.801C483.383 993.797 484.619 994.147 485.603 993.578C486.588 993.01 486.934 991.748 486.358 990.751L465.762 955.078C465.199 954.101 463.921 953.749 462.936 954.318C461.952 954.886 461.648 956.151 462.212 957.128Z" fill="#FF7A3D"/>
<path fill-rule="evenodd" clip-rule="evenodd" d="M517.387 940.778L511.04 973.922C510.827 975.033 511.568 976.12 512.659 976.344C513.785 976.545 514.875 975.817 515.088 974.706L521.438 941.544C521.651 940.433 520.909 939.346 519.782 939.145C518.692 938.921 517.603 939.649 517.387 940.778Z" fill="#FF7A3D"/>
<path fill-rule="evenodd" clip-rule="evenodd" d="M423.808 1000.47L455.702 1011.55C456.771 1011.92 457.946 1011.34 458.336 1010.27C458.687 1009.21 458.116 1008.02 457.047 1007.65L425.17 996.578C424.084 996.201 422.91 996.779 422.558 997.836C422.169 998.912 422.739 1000.1 423.808 1000.47Z" fill="#FF7A3D"/>
<path fill-rule="evenodd" clip-rule="evenodd" d="M1163.43 952.095C1163.43 952.095 1159.57 911.58 1143.69 884.371C1143.69 884.371 1115.99 879.524 1082.4 894.563C1082.4 894.563 1068.94 916.477 1092.49 931.368C1092.49 931.368 1099.12 941.856 1113.02 947.743L1116.93 963.672L1143.69 982.668L1163.43 952.095Z" fill="#FFC8A3"/>
<path fill-rule="evenodd" clip-rule="evenodd" d="M1206.22 1011.07C1213.79 1030.36 1221.9 1053.56 1221.9 1053.56L1253.51 954.718C1253.51 954.718 1276.76 919.793 1317.28 935.376C1357.8 950.959 1361.56 1006.86 1345.73 1040.35C1329.9 1073.84 1283.05 1202.91 1232.79 1216.56C1182.57 1230.22 1164.42 1189.55 1147.8 1139.34C1147.8 1139.34 1092.29 1013.78 1115.24 996.124C1115.24 996.124 1111.73 981.235 1111.68 968.768C1111.73 965.85 1113.56 963.325 1116.33 962.386C1126.08 959.121 1149.58 951.304 1161.84 948.138C1164.52 947.544 1167.24 948.633 1168.72 950.909C1172.63 956.796 1179.9 968.125 1182.77 974.803C1182.77 974.803 1189.35 974.804 1197.22 990.041C1199.64 994.74 1202.9 1002.51 1206.22 1011.07Z" fill="#FF7A3D"/>
<path fill-rule="evenodd" clip-rule="evenodd" d="M1354.38 1020.71C1354.38 1020.71 1304.82 1149.23 1270.33 1186.83C1235.85 1224.43 1206.07 1219.58 1197.42 1216.51V1230.41C1197.42 1230.41 1269.1 1244.96 1308.97 1151.95C1347.26 1062.76 1354.38 1020.71 1354.38 1020.71Z" fill="#CC3D00"/>
<path fill-rule="evenodd" clip-rule="evenodd" d="M1266.82 952.886C1266.82 952.886 1250.99 969.112 1242.38 989.494C1235.46 1005.82 1223.04 1049.9 1223.04 1049.9L1215.13 1034.81C1215.13 1034.81 1229.62 1001.17 1236.99 986.773C1247.92 965.352 1266.82 952.886 1266.82 952.886Z" fill="#CC3D00"/>
<path fill-rule="evenodd" clip-rule="evenodd" d="M1200.43 997.062L1221.85 1053.61L1227.2 1036.93L1200.43 997.062Z" fill="#CC3D00"/>
<path fill-rule="evenodd" clip-rule="evenodd" d="M1097.29 928.695C1095.9 925.282 1094.57 920.781 1093.97 915.29C1093.87 914.152 1092.84 913.311 1091.7 913.46C1090.56 913.559 1089.77 914.597 1089.87 915.734C1090.51 921.671 1091.99 926.569 1093.48 930.23C1093.87 931.318 1095.11 931.813 1096.15 931.368C1097.19 930.972 1097.73 929.734 1097.29 928.695Z" fill="#E89B68"/>
<path fill-rule="evenodd" clip-rule="evenodd" d="M612.014 1393.96H1570.2C1571.33 1393.96 1572.28 1393.07 1572.28 1391.94C1572.28 1390.8 1571.33 1389.86 1570.2 1389.86H612.014C610.882 1389.86 609.94 1390.8 609.94 1391.94C609.94 1393.07 610.882 1393.96 612.014 1393.96Z" fill="#000045"/>
<path fill-rule="evenodd" clip-rule="evenodd" d="M1054.45 797.628C1054.45 797.628 1066.88 827.999 1077.41 839.95C1077.41 839.95 1077.06 873.859 1096.23 860.819C1096.23 860.819 1128.87 904.419 1167.51 867.013L1193.02 902.792L1269.11 849.362L1231.13 803.796L1162.44 739.89L1080.64 742.505L1054.45 797.628Z" fill="#FFC8A3"/>
<path fill-rule="evenodd" clip-rule="evenodd" d="M1167 766.71C1167 766.71 1157.99 775.731 1151.93 791.216C1151.5 792.276 1152.02 793.475 1153.06 793.895C1154.16 794.301 1155.35 793.783 1155.73 792.726C1161.48 778.136 1169.96 769.613 1169.96 769.613C1170.75 768.811 1170.73 767.507 1169.93 766.704C1169.12 765.9 1167.84 765.898 1167 766.71Z" fill="#000045"/>
<path fill-rule="evenodd" clip-rule="evenodd" d="M1171.63 782.564C1171.63 782.564 1163.75 780.572 1158.3 780.545C1157.17 780.54 1156.26 781.457 1156.25 782.598C1156.24 783.733 1157.17 784.661 1158.29 784.667C1163.33 784.692 1170.63 786.559 1170.63 786.559C1171.75 786.837 1172.87 786.168 1173.14 785.07C1173.41 783.966 1172.76 782.842 1171.63 782.564Z" fill="#000045"/>
<path d="M1095.97 826.171C1099.02 824.733 1100.34 821.089 1098.9 818.032C1097.46 814.975 1093.82 813.662 1090.76 815.1C1087.7 816.537 1086.39 820.181 1087.83 823.238C1089.27 826.295 1092.91 827.608 1095.97 826.171Z" fill="#000045"/>
<path fill-rule="evenodd" clip-rule="evenodd" d="M1138.97 768.666C1138.97 768.666 1164.53 859.818 1161.6 863.154C1158.49 866.657 1124.3 773.059 1124.3 773.059C1120.6 774.673 1116.63 776.148 1112.09 777.409L1092.66 746.72L1101.2 781.849C1101.2 781.849 1077.06 796.579 1049.19 806.982C1049.19 806.982 1003.68 733.727 1064.79 681.207C1125.91 628.686 1252.08 624.525 1254.91 789.047L1221.16 818.529C1221.16 818.529 1194.4 819.776 1171.65 801.184C1171.65 801.184 1178.07 798.042 1182.7 790.468C1186.07 784.972 1186.71 775.233 1179.87 765.827C1163.66 743.383 1138.97 768.666 1138.97 768.666Z" fill="#000045"/>
<path fill-rule="evenodd" clip-rule="evenodd" d="M1080.35 810.845C1080.6 808.521 1082.39 805.601 1085.09 803.236C1089.34 799.541 1095.9 797.138 1102.95 800.584C1103.96 801.052 1105.19 800.665 1105.72 799.601C1106.21 798.606 1105.75 797.347 1104.74 796.88C1095.87 792.547 1087.68 795.461 1082.4 800.156C1078.78 803.316 1076.55 807.383 1076.23 810.459C1076.14 811.552 1076.96 812.585 1078.1 812.676C1079.23 812.767 1080.21 811.956 1080.35 810.845Z" fill="#000045"/>
<path fill-rule="evenodd" clip-rule="evenodd" d="M1181.15 792.669C1181.15 792.669 1176.49 800.869 1162.59 805.191C1161.47 805.545 1160.87 806.686 1161.21 807.758C1161.55 808.83 1162.7 809.475 1163.78 809.138C1179.67 804.189 1184.75 794.676 1184.75 794.676C1185.28 793.669 1184.94 792.429 1183.94 791.904C1182.96 791.312 1181.69 791.714 1181.15 792.669Z" fill="#000045"/>
<path fill-rule="evenodd" clip-rule="evenodd" d="M1261.39 791.568C1258.57 788.31 1253.69 787.992 1250.47 790.785C1242.96 797.29 1230.07 808.462 1222.61 814.93C1219.39 817.723 1219.01 822.598 1221.83 825.856C1224.61 829.063 1229.49 829.38 1232.71 826.587C1240.18 820.119 1253.07 808.948 1260.57 802.443C1263.79 799.65 1264.17 794.775 1261.39 791.568Z" fill="#FF7A3D"/>
<path fill-rule="evenodd" clip-rule="evenodd" d="M1116.14 863.973C1121.06 862.347 1126.07 861.599 1131.22 861.95C1132.36 862.038 1133.33 861.204 1133.41 860.061C1133.5 858.918 1132.67 857.951 1131.52 857.863C1125.85 857.468 1120.31 858.259 1114.86 860.061C1113.76 860.413 1113.19 861.599 1113.54 862.654C1113.9 863.754 1115.08 864.325 1116.14 863.973Z" fill="#000045"/>
<path fill-rule="evenodd" clip-rule="evenodd" d="M1230.63 827.035C1230.63 827.035 1217.41 879.13 1268.13 929.791L1331.61 880.671L1322.53 865.085L1337.88 873.331L1361.2 856.176C1361.2 856.176 1329.44 793.311 1260.01 801.173L1230.63 827.035Z" fill="#000045"/>
<path fill-rule="evenodd" clip-rule="evenodd" d="M1167.49 867.055C1167.49 867.055 1181.98 854.192 1192.57 839.252L1201.37 896.539L1193.01 902.772L1167.49 867.055Z" fill="#E89B68"/>
</svg>
