<?xml version="1.0" encoding="utf-8"?>
<!-- Generator: Adobe Illustrator 28.0.0, SVG Export Plug-In . SVG Version: 6.00 Build 0)  -->
<svg version="1.0" id="Layer_1" xmlns="http://www.w3.org/2000/svg" xmlns:xlink="http://www.w3.org/1999/xlink" x="0px" y="0px"
	 viewBox="0 0 2340 1560" style="enable-background:new 0 0 2340 1560;" xml:space="preserve">
<style type="text/css">
	.st0{fill:#37B34A;}
	.st1{fill:#EE4036;}
	.st2{fill:#FFFFFF;}
	.st3{fill:#EC1C24;}
	.st4{fill:#F9EC31;}
	.st5{fill:#231F20;}
	.st6{fill:#404041;}
	.st7{fill:#1B75BB;}
	.st8{fill:#5273B8;}
	.st9{fill:#FFC649;}
	.st10{fill:#BBBDBF;}
	.st11{fill:#E6E7E8;}
	.st12{fill:#006838;}
	.st13{fill:none;}
	.st14{fill:#666666;}
	.st15{fill:#FAAF40;}
	.st16{fill:#F6921E;}
	.st17{fill:#D6DE23;}
</style>
<rect class="st0" width="2340" height="1560"/>
<g>
	<g>
		<ellipse class="st1" cx="573.92" cy="1154.19" rx="143.22" ry="26.7"/>
		<g>
			<path d="M574.36,1164.4c-37.06,0-72.04-14.27-98.49-40.19c-27.25-26.7-42.27-62.41-42.27-100.56c0-33,11.65-65.07,32.79-90.32
				c26.85-32.05,66.2-50.44,107.96-50.44c41.76,0,81.11,18.38,107.96,50.44c21.15,25.25,32.79,57.32,32.79,90.32
				c0,38.15-15.01,73.86-42.27,100.57C646.4,1150.13,611.43,1164.4,574.36,1164.4z M574.36,895.01c-38.17,0-74.14,16.8-98.68,46.1
				c-19.32,23.07-29.96,52.38-29.96,82.54c0,34.87,13.72,67.51,38.63,91.91c24.17,23.69,56.14,36.73,90.01,36.73
				c33.88,0,65.84-13.04,90.01-36.73c24.91-24.4,38.63-57.05,38.63-91.91c0-30.16-10.64-59.47-29.96-82.54
				C648.5,911.81,612.53,895.01,574.36,895.01z"/>
			<path d="M574.36,984.6c-47.46,0-83.79-14.63-107.96-43.49l-3.26-3.89l3.26-3.89c26.85-32.05,66.2-50.44,107.96-50.44
				c41.76,0,81.11,18.38,107.96,50.44l3.26,3.89l-3.26,3.89C658.15,969.97,621.83,984.6,574.36,984.6z M479.1,937.2
				c21.76,23.43,53.78,35.29,95.27,35.29c41.49,0,73.51-11.87,95.27-35.29c-24.4-26.88-58.83-42.19-95.27-42.19
				C537.93,895.01,503.5,910.32,479.1,937.2z"/>
			<path d="M574.36,1164.4c-37.06,0-72.04-14.27-98.49-40.19l-4.41-4.33l4.41-4.33c23.75-23.28,57.81-35.58,98.49-35.58
				c40.68,0,74.73,12.3,98.49,35.58l4.41,4.33l-4.41,4.33C646.4,1150.13,611.43,1164.4,574.36,1164.4z M489.02,1119.92
				c23.54,20.92,53.61,32.37,85.35,32.37c31.74,0,61.8-11.45,85.35-32.37c-21.34-18.47-50.01-27.83-85.35-27.83
				C539.03,1092.09,510.35,1101.45,489.02,1119.92z"/>
			<path d="M574.36,1164.41c-26.43,0-51.11-14.96-69.49-42.12c-17.89-26.43-27.75-61.47-27.75-98.64s9.85-72.21,27.75-98.64
				c18.38-27.16,43.06-42.12,69.49-42.12s51.11,14.96,69.49,42.12c17.89,26.43,27.75,61.47,27.75,98.64s-9.85,72.21-27.75,98.64
				C625.47,1149.45,600.79,1164.41,574.36,1164.41z M574.36,895c-46.94,0-85.13,57.71-85.13,128.65
				c0,70.94,38.19,128.65,85.13,128.65s85.13-57.71,85.13-128.65C659.49,952.71,621.3,895,574.36,895z"/>
			<path d="M572.89,1164.41c-31.28,0-48.16-72.52-48.16-140.76c0-68.24,16.88-140.76,48.16-140.76c31.28,0,48.16,72.52,48.16,140.76
				C621.05,1091.88,604.17,1164.41,572.89,1164.41z M572.89,895c-15.05,0-36.05,48.94-36.05,128.65s21,128.65,36.05,128.65
				c15.05,0,36.05-48.94,36.05-128.65S587.94,895,572.89,895z"/>
			<rect x="439.76" y="1019.91" width="269.21" height="12.11"/>
		</g>
	</g>
	<path class="st2" d="M818.6,327.38c-0.03,0-0.06,0-0.09,0l-306.52-0.89c-9.72-0.03-18.8-5.53-24.89-15.1
		c-8.17-12.83-9.67-30.06-3.74-42.87c9.73-21.02,25.04-33.94,43.72-37.2c2.37-22.27,13.16-42.84,29.89-56.28
		c0.03-0.03,0.06-0.05,0.1-0.08c17.17-13.46,38.67-18.14,59.01-13.2c8.8-15.27,21.51-27.63,36.47-35.3
		c17.63-9.04,37.7-11.27,56.51-6.27c18.66,4.96,35.51,16.93,47.44,33.69c10.18,14.31,16.43,31.66,17.97,49.61
		c32.53,2.89,50.9,20.06,60.78,34.67c11.87,17.56,16.08,38.15,16.08,50.45c0,11.73-4.16,22.61-11.41,29.84
		C834.05,324.3,826.69,327.38,818.6,327.38z M569.56,190.82c-14.27,11.5-22.79,30.1-22.79,49.78c0,5.57-4.52,10.09-10.09,10.09
		c-15.14,0-26.92,8.85-35.01,26.31c-3.01,6.51-1.96,16.63,2.45,23.55c1.37,2.15,4.22,5.75,7.93,5.76l306.52,0.89
		c2.68,0.01,5.04-0.98,7.09-3.03c3.43-3.42,5.48-9.23,5.48-15.55c0-7.6-2.66-24.4-12.62-39.14c-11.76-17.39-29.85-26.21-53.77-26.21
		c-5.57,0-10.09-4.52-10.09-10.09c0-0.16,0-0.32,0.01-0.48c-0.01-0.16-0.01-0.31-0.01-0.47c0-34.2-21.36-64.7-50.78-72.52
		c-29.34-7.8-59.59,8-73.55,38.43c-2.23,4.86-7.86,7.14-12.84,5.2C601.45,177.08,583.54,179.89,569.56,190.82z M764.72,203.08
		C764.72,203.08,764.72,203.08,764.72,203.08C764.72,203.08,764.72,203.08,764.72,203.08z"/>
	<path class="st2" d="M1782.27,711.06c-0.03,0-0.06,0-0.09,0l-279.47-0.81c-9.18-0.03-17.72-5.2-23.45-14.18
		c-7.61-11.94-9-27.99-3.46-39.94c8.89-19.2,22.83-31.1,39.86-34.3c2.33-20.29,12.24-38.98,27.5-51.25c0.03-0.03,0.07-0.05,0.1-0.08
		c15.69-12.3,35.3-16.67,53.92-12.35c8.09-13.8,19.68-24.98,33.29-31.96c16.27-8.35,34.8-10.4,52.16-5.78
		c17.22,4.58,32.75,15.61,43.75,31.06c9.24,12.98,14.95,28.67,16.48,44.93c29.54,2.85,46.29,18.56,55.33,31.93
		c10.94,16.18,14.82,35.16,14.82,46.49c0,10.93-3.89,21.08-10.67,27.84C1796.82,708.16,1789.89,711.06,1782.27,711.06z
		 M1555.77,586.35c-12.8,10.32-20.44,27.02-20.44,44.69c0,5.57-4.52,10.09-10.09,10.09c-13.43,0-23.9,7.9-31.11,23.48
		c-2.63,5.68-1.7,14.54,2.17,20.62c0.93,1.45,3.41,4.83,6.48,4.84l279.47,0.81c2.22,0.06,4.14-0.81,5.84-2.5
		c2.96-2.96,4.74-8.02,4.74-13.54c0-6.83-2.39-21.93-11.35-35.19c-10.55-15.6-26.79-23.51-48.29-23.51
		c-5.57,0-10.09-4.52-10.09-10.09c0-0.15,0-0.29,0.01-0.43c-0.01-0.14-0.01-0.29-0.01-0.43c0-30.78-19.19-58.23-45.64-65.26
		c-26.33-7-53.48,7.2-66.02,34.55c-2.23,4.86-7.86,7.14-12.84,5.2C1584.27,574.08,1568.26,576.58,1555.77,586.35z M1733.15,595.94
		C1733.15,595.94,1733.15,595.94,1733.15,595.94C1733.15,595.94,1733.15,595.94,1733.15,595.94z"/>
	<g>
		<path class="st3" d="M1690.44,974.3c-2.99-7.68-13.17-9.24-18.33-2.81l-50.94,63.58l-50.94,63.58
			c-5.15,6.43-1.41,16.03,6.73,17.27l80.53,12.33l80.53,12.33c8.14,1.25,14.58-6.79,11.59-14.47l-29.59-75.91L1690.44,974.3z"/>
		<g>
			<path class="st4" d="M1661.73,1105.23c-2.92-0.45-5.21-1.76-6.87-3.95c-1.67-2.18-2.29-4.63-1.88-7.33
				c0.41-2.7,1.72-4.81,3.92-6.33s4.79-2.05,7.78-1.59c2.99,0.46,5.3,1.74,6.95,3.85c1.64,2.11,2.26,4.51,1.84,7.22
				c-0.41,2.7-1.74,4.85-3.99,6.43C1667.23,1105.11,1664.65,1105.68,1661.73,1105.23z M1672.45,1079.47l-13.23-2.03l4.16-49.26
				l19.84,3.04L1672.45,1079.47z"/>
		</g>
	</g>
	<g>
		<path class="st5" d="M1453.42,1383.14H979.07c-37.9,0-68.63-30.73-68.63-68.63V318.1c0-37.9,30.73-68.63,68.63-68.63h474.35
			c37.9,0,68.63,30.73,68.63,68.63v996.42C1522.05,1352.42,1491.33,1383.14,1453.42,1383.14z"/>
		<path class="st6" d="M1412.16,1383.14H921.1c-37.9,0-68.63-30.73-68.63-68.63V318.1c0-37.9,30.73-68.63,68.63-68.63h491.06
			c37.9,0,68.63,30.73,68.63,68.63v996.42C1480.79,1352.42,1450.06,1383.14,1412.16,1383.14z"/>
		<path class="st7" d="M1432.59,1313.89H901.9c-11.15,0-20.19-9.04-20.19-20.19V312.74c0-11.15,9.04-20.19,20.19-20.19h530.69
			c11.15,0,20.19,9.04,20.19,20.19v980.97C1452.78,1304.86,1443.74,1313.89,1432.59,1313.89z"/>
		<path class="st6" d="M1224.22,330.58h-109.13c-13.74,0-26.02-8.57-30.75-21.47l-21.9-59.64h214.43l-21.9,59.64
			C1250.24,322,1237.96,330.58,1224.22,330.58z"/>
		<g>
			<g>
				<path class="st8" d="M1310.56,1013.57h76c5.79,0,10.49-4.69,10.49-10.49V959.8c0-5.79-4.69-10.49-10.49-10.49h-76
					c-5.79,0-10.49,4.69-10.49,10.49v43.28C1300.08,1008.88,1304.77,1013.57,1310.56,1013.57z"/>
			</g>
		</g>
	</g>
	<g>
		<path d="M1277.77,813.43l-0.12-11.52h39.04c1.38,6.71,4.88,14.63,13.63,18.22c0,0-11.06,7.79-21.29,30.14
			c-1.27,2.78-1.63,5.24-1.29,7.38h-42.94v0l26.39-9.46C1291.2,848.19,1288.4,826.31,1277.77,813.43z"/>
		<circle class="st9" cx="1306.36" cy="795.5" r="33.75"/>
		<path class="st6" d="M1265.48,786.03c-7.14-18.11,23.65-41.51,52.32-39.19c40.32,3.27,56.7,57.42,43.8,94.01
			c-2.29,6.49-5.98,11.69-10.39,15.69c-0.42,0.39-41.56,13-43.47,1.11c-0.34-2.14,0.01-4.6,1.29-7.38
			c10.22-22.36,21.29-30.14,21.29-30.14c-8.74-3.59-12.25-11.51-13.63-18.22c-1.24-6.05-0.76-11.13-0.76-11.13
			c-26.24,0.74-27.53-17.37-27.53-17.37c-1.66,10.35-10.9,13.86-10.9,13.86l0.15,14.64l0.12,11.52
			c10.63,12.89,13.43,34.76,13.43,34.76l-26.39,9.46l-12.37,4.43C1240.6,825.08,1265.48,786.03,1265.48,786.03z"/>
		<path d="M1327.52,822.77c-0.57,0-1.16-0.12-1.71-0.38c-0.59-0.27-13.58-6.54-14-27.5c-7.87-0.3-18.29-2.99-23.82-11.15
			c-3.22,4.42-8.27,8.35-15.63,8.76c-2.23,0.14-4.13-1.58-4.26-3.8s1.58-4.13,3.8-4.26c9.9-0.55,12.44-11.43,12.54-11.89
			c0.43-1.91,2.18-3.26,4.12-3.16c1.96,0.09,3.57,1.56,3.82,3.5c2.01,15.38,22.33,13.94,23.2,13.87c1.17-0.09,2.32,0.32,3.15,1.14
			c0.83,0.82,1.28,1.96,1.21,3.12c-1.1,18.69,8.87,23.86,9.29,24.07c2.02,0.94,2.88,3.33,1.94,5.35
			C1330.51,821.91,1329.04,822.77,1327.52,822.77z"/>
		<path class="st10" d="M1204.06,1059.74c0,0-164.75-165.18-285.96-142.51s-298.6,259.18-298.6,259.18l134.03,81.8
			c0,0,156.69-237.01,263.62-129.1L1263,1114.9L1204.06,1059.74z"/>
		<path class="st11" d="M1263,1114.9l-327.91,19.38c0,0-87.22,15.52-86.48,80.56c0.74,65.04,69.47,99.04,137.84,99.04
			s312.28,0,312.28,0s139.69,2.96,140.43-110.87l-5.8-55.28L1263,1114.9z"/>
		<path class="st12" d="M1457.93,922.09c-43.27-55.7-83.02-77.97-134.8-77.79c-76.43,0.25-148.87,69.07-179.21,102.02v0.04
			c0,0,0,0,0,0l77.55,66.91c0,0,0.01-0.02,0.01-0.02c8.73,6.13,8.23,6.89,8.73,6.13l-23.85,84.58l-4.17,14.53l60.81-3.59
			l170.36,32.83l-5.69-45.88l-4.09-32.91l-0.69-5.58c45.98,4.05,55.74-52.04,55.74-52.04l0.04,0.07
			C1484.28,989.62,1473.69,942.39,1457.93,922.09z"/>
		<path class="st6" d="M753.78,1257.93l-35.79,48.73c-3.2,4.36-8.33,6.88-13.74,6.76l-228.87-5.23c0,0,0.99-21.19,21.19-30.55
			s46.32-0.49,123.19-101.51L753.78,1257.93z"/>
		<path class="st13" d="M1277.49,787.26c0,0,9.24-3.51,10.9-13.86c0,0,1.29,18.11,27.53,17.37c0,0-0.48,5.08,0.76,11.13h-39.04
			L1277.49,787.26z"/>
		<path d="M1351.22,857.65h-1.3c0.44-0.36,0.88-0.72,1.3-1.11V857.65z"/>
		<path d="M1277.49,810.03c-2.23,0-4.04-1.81-4.04-4.04v-18.72c0-2.23,1.81-4.04,4.04-4.04s4.04,1.81,4.04,4.04v18.72
			C1281.53,808.22,1279.72,810.03,1277.49,810.03z"/>
		<polygon points="1213.54,1006.18 1230.22,1019.36 1256.61,927.57 		"/>
		<g>
			<g>
				<path class="st5" d="M1099.42,869.51l-15.94-95.07c-0.52-3.09-3.19-5.35-6.32-5.35h-56.47c-1.68,0-3.16,0.66-4.29,1.7l6.42-7.06
					c0.28-0.36,0.59-0.69,0.92-1.01l0.27-0.29l0.04,0c1.48-1.27,3.37-2.08,5.51-2.08h52.26c4.14,0,7.68,2.99,8.36,7.08l15.25,90.92
					c0.27,1.6,0.03,3.14-0.53,4.53l0.02,0.08l-0.17,0.29c-0.22,0.49-0.49,0.95-0.8,1.38l-5.13,8.81
					C1099.4,872.29,1099.66,870.93,1099.42,869.51z"/>
				<path class="st14" d="M1015.42,771.87l0.16-0.18c-0.05,0.07-0.09,0.14-0.14,0.2L1015.42,771.87z"/>
				<path class="st14" d="M1098.47,874.03l-0.01-0.01c0.04-0.07,0.09-0.13,0.13-0.2L1098.47,874.03z"/>
				<path class="st6" d="M1015.44,771.9c0.05-0.07,0.09-0.14,0.14-0.2c0.24-0.33,0.52-0.62,0.82-0.9c1.13-1.04,2.62-1.7,4.29-1.7
					h56.47c3.13,0,5.8,2.26,6.32,5.35l15.94,95.07c0.24,1.41-0.02,2.78-0.61,3.95c-0.06,0.12-0.14,0.24-0.21,0.36
					c-0.04,0.07-0.09,0.13-0.13,0.2c-1.13,1.75-3.07,2.96-5.36,2.96h-56.47c-3.13,0-5.8-2.26-6.32-5.35l-15.94-95.07
					C1014.09,774.84,1014.54,773.21,1015.44,771.9z"/>
			</g>
			<path class="st9" d="M1144.29,945.94c-8.55,9.27-13.32,15.34-13.33,15.35l0,0c-2.69-2.24-5.98-5.94-9.51-10.38
				c-13.08-16.44-29.33-43.01-29.33-43.01c3.64-2.36,5.16-6.13,5.64-9.99c0.86-6.94-1.67-14.19-1.67-14.19s14.21-0.88,24.7-4.73
				c5.69-2.09,10.29-5.04,10.94-9.21c1.03-6.58-4.38-10.78-5.74-11.72c-0.19-0.13-0.31-0.2-0.31-0.2s0,0,0,0
				c4.54-2.24,6.48-5.75,7.27-8.77c0.84-3.2,0.41-5.85,0.41-5.85c-1.32-8.7-16.01-10.19-16.01-10.19s0.02-0.01,0.03-0.01
				c0.19-0.07,3.15-1.25,4.64-4.47c0.02-0.03,0.03-0.06,0.05-0.1c0-0.01,0-0.02,0.01-0.02c0.69-1.55,1.03-3.55,0.57-6.11
				c-1.5-8.26-16.36-8.75-16.36-8.75c-3.23-0.12-7.4,0.28-11.86,0.95c-14.23,2.12-31.52,7-31.53,7h0c0,0,0,0,0,0
				c12.77-12.55,38.95-28.85,27.77-40.11c-5.85-5.89-24.64,6.41-37.68,16.26c-7.58,5.72-13.22,10.62-13.22,10.62
				s-20.74-26.53-31.07-25.24c-0.69,0.09-1.34,0.3-1.93,0.65c-4.78,2.85-3.33,12.55-0.75,21.41c2.51,8.6,6.08,16.42,6.08,16.42
				c-3.89,25.13-5.79,57.61-0.14,91.4c7.16,42.78,26.45,87.65,69.24,122.33c0.83,0.68,1.67,1.28,2.5,1.92
				c2.42,1.85,4.84,3.58,7.26,5.08c9.53,3.77,18.77,7.43,27.44,10.86c23.13,4,44.58-4.73,62.28-17.09
				c13.37-9.33,24.61-20.71,32.82-30.25c0.03-0.03,0.03-0.06,0.03-0.06l0,0L1144.29,945.94L1144.29,945.94z"/>
			<path d="M1078.1,870.1c-1.53,0-2.99-0.87-3.67-2.35c-0.93-2.03-0.04-4.42,1.98-5.35c11.75-5.4,26.05-8.12,45-8.57
				c0.03,0,0.06,0,0.1,0c2.19,0,3.98,1.75,4.03,3.94c0.05,2.23-1.71,4.08-3.94,4.13c-17.81,0.42-31.1,2.9-41.82,7.83
				C1079.24,869.98,1078.66,870.1,1078.1,870.1z"/>
			<path d="M1068.69,845.83c-1.53,0-3-0.88-3.68-2.36c-0.92-2.03-0.03-4.42,2-5.35c11.82-5.39,26.69-8.53,45.46-9.6
				c2.25-0.15,4.13,1.57,4.26,3.8s-1.57,4.13-3.8,4.26c-17.75,1.01-31.67,3.92-42.57,8.89
				C1069.82,845.72,1069.25,845.83,1068.69,845.83z"/>
			<path d="M1082.33,915.38c-1.71,0-3.3-1.1-3.85-2.82c-0.67-2.13,0.5-4.39,2.63-5.07c5.4-1.71,8.91-4.41,10.44-8.02
				c2.55-6.02-0.85-13.13-0.88-13.2c-1-2-0.19-4.42,1.81-5.42c1.99-1,4.42-0.18,5.41,1.81c0.21,0.42,5.12,10.46,1.09,19.96
				c-2.49,5.88-7.69,10.11-15.44,12.56C1083.15,915.32,1082.73,915.38,1082.33,915.38z"/>
			<path d="M1083.43,890.63c-1.19,0-2.37-0.53-3.17-1.54c-1.38-1.75-1.08-4.3,0.67-5.68c5.07-4.01,29.72-7.42,40.08-8.7
				c2.22-0.27,4.23,1.3,4.5,3.51c0.27,2.21-1.3,4.23-3.51,4.5c-15.21,1.88-33.34,5.1-36.09,7.03
				C1085.18,890.35,1084.3,890.63,1083.43,890.63z"/>
			<path d="M1021.48,827.07c-1.17,0-2.32-0.5-3.12-1.47c-1.42-1.72-1.17-4.27,0.55-5.68l16.51-13.59c1.72-1.42,4.27-1.17,5.68,0.55
				c1.42,1.72,1.17,4.27-0.55,5.68l-16.51,13.59C1023.3,826.77,1022.39,827.07,1021.48,827.07z"/>
		</g>
		<path d="M1428.12,1102.47l-28.48-31.17L1306.06,969l0.36-1.64c42.36,39.57,80.3,89.82,116.92,96.62l0.69,5.58L1428.12,1102.47z"/>
		<path class="st9" d="M1289.99,862.11c-25.19-20.24-50.74-29.46-50.74-29.46c-18.34,1.69-72.68,37.81-79.59,57.75
			c-7.42,21.41,32.84-4.95,32.84-4.95c5.96,20.99,17.08,8.35,17.08,8.35c9.37,28.04,22.06,7.06,22.06,7.06
			c10.82,23.48,21.27,0.85,21.27,0.85c-0.49,15.38,13.37,28.95,13.37,28.95l49.11,44.95c39.32,38.45,76.15,85.39,108.75,87.86
			c32.85,1.75,48.42-23.85,54.71-52.85L1289.99,862.11z"/>
		<path d="M1448.67,985.04c-0.87,0-1.74-0.28-2.48-0.85l-159.53-124.46c-1.76-1.37-2.07-3.91-0.7-5.67c1.37-1.76,3.91-2.07,5.67-0.7
			l159.53,124.46c1.76,1.37,2.07,3.91,0.7,5.67C1451.06,984.5,1449.87,985.04,1448.67,985.04z"/>
	</g>
	<polygon points="1405.15,952.1 1373.96,886.82 1383.49,935.2 	"/>
	
		<rect x="1452.78" y="801.59" transform="matrix(-1 -4.454049e-11 4.454049e-11 -1 2933.5671 1956.7504)" class="st6" width="28.02" height="353.56"/>
	<polygon class="st2" points="573.92,1230.26 725.41,1296.55 753.78,1257.93 619.75,1176.13 	"/>
	<g>
		<g>
			
				<ellipse transform="matrix(0.9656 -0.26 0.26 0.9656 -117.7151 290.7057)" class="st4" cx="1040.07" cy="590.34" rx="95.11" ry="133.63"/>
		</g>
		<g>
			
				<ellipse transform="matrix(0.9656 -0.26 0.26 0.9656 -115.691 295.8528)" class="st15" cx="1060.54" cy="585.26" rx="95.11" ry="133.63"/>
			
				<ellipse transform="matrix(0.9656 -0.26 0.26 0.9656 -115.691 295.8528)" class="st16" cx="1060.54" cy="585.26" rx="75.68" ry="106.34"/>
			<path class="st5" d="M1073.85,693.88c-13.86,0-28.14-4.78-41.6-14.13c-41.94-29.12-64.04-94.96-49.27-146.76
				c7.58-26.6,23.37-45.39,44.45-52.92c19.58-6.99,41.39-3.19,61.4,10.71c41.94,29.12,64.04,94.96,49.27,146.76l-3.88-1.11
				l3.88,1.11c-7.58,26.6-23.37,45.39-44.45,52.92C1087.24,692.75,1080.59,693.88,1073.85,693.88z M1047.19,484.73
				c-5.83,0-11.55,0.97-17.05,2.94c-18.56,6.63-32.56,23.51-39.4,47.53c-13.89,48.74,6.79,110.61,46.11,137.92
				c17.82,12.37,37.02,15.83,54.08,9.74c18.56-6.63,32.56-23.51,39.4-47.53l0,0c13.89-48.74-6.79-110.61-46.11-137.92
				C1072.15,489.03,1059.44,484.73,1047.19,484.73z"/>
		</g>
	</g>
	<g>
		<g>
			
				<ellipse transform="matrix(0.5046 -0.8634 0.8634 0.5046 156.0501 1429.198)" class="st4" cx="1323.32" cy="578.63" rx="72.32" ry="101.62"/>
		</g>
		<g>
			
				<ellipse transform="matrix(0.5046 -0.8634 0.8634 0.5046 172.0086 1429.6411)" class="st15" cx="1331.69" cy="564.95" rx="72.32" ry="101.62"/>
			
				<ellipse transform="matrix(0.5046 -0.8634 0.8634 0.5046 172.0086 1429.6411)" class="st16" cx="1331.69" cy="564.95" rx="57.55" ry="80.86"/>
			<path class="st5" d="M1353.64,633.27c-35.65,0-75.09-22.55-92.71-54.72c-10.11-18.45-11.66-37.87-4.24-53.27
				c7-14.53,21.08-24.31,39.66-27.54c38.63-6.71,86.22,17.34,106.08,53.59l0,0c10.11,18.45,11.66,37.87,4.24,53.27
				c-7,14.53-21.08,24.31-39.66,27.54C1362.66,632.9,1358.18,633.27,1353.64,633.27z M1309.97,504.67c-4.15,0-8.24,0.33-12.23,1.03
				c-15.94,2.77-27.93,10.97-33.77,23.09c-6.37,13.22-4.93,29.51,4.04,45.89c16.27,29.7,52.61,50.54,85.39,50.55
				c4.15,0,8.24-0.33,12.23-1.03c15.94-2.77,27.93-10.97,33.77-23.09c6.37-13.22,4.93-29.51-4.04-45.89
				C1379.09,525.51,1342.75,504.67,1309.97,504.67z"/>
		</g>
	</g>
	<g>
		<g>
			
				<ellipse transform="matrix(0.7159 -0.6982 0.6982 0.7159 -183.5585 571.9882)" class="st4" cx="611.05" cy="511.54" rx="160.97" ry="226.17"/>
		</g>
		<g>
			
				<ellipse transform="matrix(0.7159 -0.6982 0.6982 0.7159 -159.1156 583.236)" class="st15" cx="637.1" cy="487.13" rx="160.97" ry="226.17"/>
			
				<ellipse transform="matrix(0.7159 -0.6982 0.6982 0.7159 -159.1156 583.236)" class="st16" cx="637.1" cy="487.13" rx="128.08" ry="179.97"/>
			<path class="st5" d="M688.22,648.02c-4.77,0-9.64-0.24-14.6-0.72c-41.22-4.02-83.84-24.32-119.99-57.17
				c-36.11-32.81-61.53-74.29-71.58-116.78c-10.56-44.65-2.98-84.57,21.33-112.41c22.54-25.81,57.05-37.86,97.18-33.96
				c41.22,4.02,83.84,24.32,119.99,57.17c36.11,32.81,61.53,74.29,71.58,116.78c10.56,44.65,2.98,84.57-21.33,112.41
				C751.05,635.96,722.09,648.02,688.22,648.02z M586.01,334.33c-31.53,0-58.36,11.09-76.54,31.91
				c-22.55,25.83-29.5,63.2-19.56,105.24c19.99,84.55,102.76,159.81,184.5,167.78c37.46,3.65,69.54-7.44,90.31-31.23
				c22.55-25.83,29.5-63.2,19.56-105.24c-19.99-84.55-102.76-159.81-184.5-167.78C595.11,334.55,590.51,334.33,586.01,334.33z"/>
		</g>
	</g>
	<g>
		<g>
			<g>
				
					<rect x="1528.87" y="1316.37" transform="matrix(-1 -4.490687e-11 4.490687e-11 -1 3452.3542 2686.0918)" class="st17" width="394.61" height="53.36"/>
				<g>
					<path class="st5" d="M1923.48,1373.76h-394.61c-2.23,0-4.04-1.81-4.04-4.04s1.81-4.04,4.04-4.04h390.57v-19.12
						c0-2.23,1.81-4.04,4.04-4.04s4.04,1.81,4.04,4.04v23.16C1927.52,1371.95,1925.71,1373.76,1923.48,1373.76z"/>
					<path class="st5" d="M1923.48,1339.67c-2.23,0-4.04-1.81-4.04-4.04v-19.27c0-2.23,1.81-4.04,4.04-4.04s4.04,1.81,4.04,4.04
						v19.27C1927.52,1337.87,1925.71,1339.67,1923.48,1339.67z"/>
				</g>
			</g>
			
				<rect x="1751.85" y="1323.75" transform="matrix(-1 -4.448054e-11 4.448054e-11 -1 3528.1499 2686.9563)" class="st2" width="24.45" height="39.46"/>
			
				<rect x="1721.45" y="1323.75" transform="matrix(-1 -4.506851e-11 4.506851e-11 -1 3459.8574 2686.9563)" class="st2" width="16.95" height="39.46"/>
			
				<rect x="1690.42" y="1323.75" transform="matrix(-1 -4.316248e-11 4.316248e-11 -1 3390.1987 2686.9563)" class="st2" width="9.36" height="39.46"/>
			
				<rect x="1789.54" y="1323.75" transform="matrix(-1 -4.506851e-11 4.506851e-11 -1 3596.0256 2686.9563)" class="st2" width="16.95" height="39.46"/>
		</g>
		<g>
			<g>
				
					<rect x="1515.16" y="1265.42" transform="matrix(-1 -4.490198e-11 4.490198e-11 -1 3424.9355 2584.1973)" class="st17" width="394.61" height="53.36"/>
				<g>
					<path class="st5" d="M1909.77,1322.81h-394.61c-2.23,0-4.04-1.81-4.04-4.04s1.81-4.04,4.04-4.04h390.57v-19.12
						c0-2.23,1.81-4.04,4.04-4.04s4.04,1.81,4.04,4.04v23.16C1913.81,1321.01,1912,1322.81,1909.77,1322.81z"/>
					<path class="st5" d="M1909.77,1288.73c-2.23,0-4.04-1.81-4.04-4.04v-19.27c0-2.23,1.81-4.04,4.04-4.04s4.04,1.81,4.04,4.04
						v19.27C1913.81,1286.92,1912,1288.73,1909.77,1288.73z"/>
				</g>
			</g>
			
				<rect x="1738.14" y="1272.8" transform="matrix(-1 -4.448054e-11 4.448054e-11 -1 3500.731 2585.0618)" class="st2" width="24.45" height="39.46"/>
			
				<rect x="1707.74" y="1272.8" transform="matrix(-1 -4.549751e-11 4.549751e-11 -1 3432.4387 2585.0618)" class="st2" width="16.95" height="39.46"/>
			
				<rect x="1676.71" y="1272.8" transform="matrix(-1 -4.316248e-11 4.316248e-11 -1 3362.7798 2585.0618)" class="st2" width="9.36" height="39.46"/>
			
				<rect x="1775.83" y="1272.8" transform="matrix(-1 -4.549751e-11 4.549751e-11 -1 3568.6067 2585.0618)" class="st2" width="16.95" height="39.46"/>
		</g>
		<g>
			<g>
				
					<rect x="1486.54" y="1212.07" transform="matrix(-1 -4.490198e-11 4.490198e-11 -1 3367.6892 2477.4861)" class="st17" width="394.61" height="53.36"/>
				<g>
					<path class="st5" d="M1881.15,1269.46h-394.61c-2.23,0-4.04-1.81-4.04-4.04s1.81-4.04,4.04-4.04h390.57v-19.12
						c0-2.23,1.81-4.04,4.04-4.04s4.04,1.81,4.04,4.04v23.16C1885.19,1267.65,1883.38,1269.46,1881.15,1269.46z"/>
					<path class="st5" d="M1881.15,1235.37c-2.23,0-4.04-1.81-4.04-4.04v-19.27c0-2.23,1.81-4.04,4.04-4.04s4.04,1.81,4.04,4.04
						v19.27C1885.19,1233.56,1883.38,1235.37,1881.15,1235.37z"/>
				</g>
			</g>
			
				<rect x="1709.52" y="1219.44" transform="matrix(-1 -4.448054e-11 4.448054e-11 -1 3443.4849 2478.3506)" class="st2" width="24.45" height="39.46"/>
			
				<rect x="1679.12" y="1219.44" transform="matrix(-1 -4.549751e-11 4.549751e-11 -1 3375.1924 2478.3506)" class="st2" width="16.95" height="39.46"/>
			
				<rect x="1648.09" y="1219.44" transform="matrix(-1 -4.316248e-11 4.316248e-11 -1 3305.5337 2478.3506)" class="st2" width="9.36" height="39.46"/>
			
				<rect x="1747.2" y="1219.44" transform="matrix(-1 -4.506851e-11 4.506851e-11 -1 3511.3606 2478.3506)" class="st2" width="16.95" height="39.46"/>
		</g>
	</g>
	<g>
		<rect x="1242.17" y="380.22" class="st5" width="59.93" height="16.15"/>
		<rect x="1264.06" y="358.33" class="st5" width="16.15" height="59.93"/>
	</g>
	<g>
		
			<rect x="734.24" y="814.96" transform="matrix(0.7071 -0.7071 0.7071 0.7071 -358.1459 781.4326)" class="st5" width="59.93" height="16.15"/>
		
			<rect x="756.13" y="793.07" transform="matrix(0.7071 -0.7071 0.7071 0.7071 -358.1463 781.4456)" class="st5" width="16.15" height="59.93"/>
	</g>
	<path class="st5" d="M1600.74,974.7c-22.58,0-40.95-18.37-40.95-40.95c0-22.58,18.37-40.95,40.95-40.95s40.95,18.37,40.95,40.95
		C1641.69,956.33,1623.32,974.7,1600.74,974.7z M1600.74,908.95c-13.67,0-24.8,11.12-24.8,24.8c0,13.67,11.12,24.8,24.8,24.8
		s24.8-11.12,24.8-24.8C1625.54,920.08,1614.42,908.95,1600.74,908.95z"/>
	<g>
		<rect x="1156.47" y="709.54" class="st5" width="80.06" height="16.15"/>
	</g>
	<g>
		<path d="M1242.36,1095.52c-11.11,13.39-23,26.14-35.95,37.77c-2.84,2.55-5.73,5.05-8.67,7.49c-1.63,1.35-3.29,2.68-4.95,4.01
			c-0.19,0.15-2.26,1.75-0.63,0.5c1.82-1.4-1.91,1.42-1.87,1.39c-5.76,4.28-11.71,8.32-17.83,12.07
			c-5.73,3.51-11.62,6.76-17.65,9.72c-2.66,1.3-5.58,3.08-8.44,3.89c3.44-0.96,0.62-0.26-1.05,0.4c-1.58,0.63-3.17,1.23-4.77,1.81
			c-5.6,2.04-11.3,3.81-17.08,5.27c-2.69,0.68-5.4,1.29-8.12,1.84c-2.88,0.58-6.43,0.56-9.16,1.57c-0.1,0.04,4.03-0.48,1.99-0.27
			c-0.75,0.07-1.51,0.18-2.26,0.26c-1.31,0.14-2.62,0.27-3.93,0.38c-2.77,0.23-5.55,0.39-8.33,0.48c-5.24,0.16-10.48,0.06-15.71-0.3
			c-2.47-0.17-4.92-0.44-7.38-0.7c-3.24-0.34,4.19,0.68,0.16,0.02c-1.37-0.22-2.74-0.43-4.1-0.67c-4.86-0.86-9.69-1.96-14.45-3.28
			c-4.8-1.34-9.54-2.9-14.2-4.69c-0.92-0.35-1.82-0.73-2.74-1.08c-2.46-0.94,4.06,1.84-0.15-0.07c-2.2-1-4.39-2-6.56-3.08
			c-8.1-4.03-15.85-8.75-23.15-14.11c-0.6-0.44-1.79-1.73-2.54-1.9c0.12,0.03,3.69,2.97,1.55,1.18c-0.34-0.29-0.7-0.56-1.05-0.84
			c-1.73-1.39-3.42-2.83-5.08-4.3c-3.24-2.86-6.35-5.86-9.32-8.99c-2.76-2.92-5.29-6-7.88-9.08c-0.46-0.55,2.84,3.83,0.63,0.8
			c-0.55-0.75-1.1-1.49-1.64-2.25c-1.13-1.59-2.22-3.2-3.27-4.85c-1.95-3.05-3.75-6.19-5.37-9.42c-0.75-1.49-1.36-3.06-2.13-4.54
			c-0.32-0.61,1.85,4.72,0.63,1.43c-0.32-0.86-0.65-1.71-0.96-2.57c-1.09-3.1-2-6.27-2.65-9.49c-0.12-0.62-0.22-1.24-0.35-1.86
			c-0.78-3.69,0.31,3.89,0.21,1.76c-0.07-1.5-0.28-3-0.32-4.51c-0.04-1.36-0.02-2.73,0.06-4.09c0.04-0.66,0.14-1.33,0.17-2
			c0.07-2.09-1.06,5.53-0.25,2.03c0.29-1.27,0.51-2.54,0.87-3.79c0.31-1.09,2.12-5.71,0.55-1.96c-1.58,3.75,0.36-0.55,0.9-1.49
			c0.67-1.16,1.42-2.27,2.19-3.36c0.34-0.48,0.69-0.95,1.03-1.43c1.79-2.52-1.04,1.42-1.51,1.92c0.79-0.86,1.47-1.84,2.23-2.73
			c1.38-1.6,2.83-3.13,4.37-4.57c0.69-0.65,1.42-1.25,2.13-1.88c2.81-2.5-4.48,3.09-0.93,0.72c1.45-0.97,2.89-1.92,4.45-2.72
			c0.93-0.48,4.01-1.8,0.14-0.16c-3.91,1.65-0.72,0.33,0.29,0c1.36-0.43,6.76-1.34,2.19-0.73c-4.45,0.59,0.7,0.03,2.16,0.08
			c0.69,0.02,1.43,0.2,2.12,0.16c-0.62,0.03-5.85-1.17-2.13-0.2c1.46,0.38,2.86,0.85,4.3,1.29c2.7,0.82-5.22-2.55-2-0.83
			c0.72,0.38,1.45,0.72,2.16,1.11c1.43,0.8,2.73,1.75,4.1,2.63c2.59,1.67-4.41-3.71-1.46-1.13c0.68,0.59,1.37,1.16,2.04,1.76
			c1.38,1.26,2.7,2.6,3.96,3.98c1.65,1.82,5.45,7.27,1.07,1.04c1.16,1.65,2.37,3.24,3.47,4.93c2.35,3.6,4.45,7.37,6.33,11.24
			c0.48,0.98,0.94,1.97,1.39,2.97c0.23,0.5,0.45,1.01,0.67,1.52c1.51,3.33-1.4-3.51-0.8-1.91c0.83,2.23,1.75,4.42,2.54,6.66
			c1.65,4.7,3.06,9.48,4.24,14.32c1.25,5.1,2.19,10.25,3.01,15.44c0.51,3.25-0.21-1.48-0.3-2.35c0.07,0.74,0.19,1.48,0.28,2.22
			c0.17,1.4,0.32,2.8,0.45,4.2c0.26,2.75,0.46,5.5,0.59,8.26c0.27,5.64,0.28,11.3,0.02,16.94c-0.13,2.88-0.34,5.75-0.61,8.62
			c-0.13,1.4-0.28,2.79-0.45,4.18c-0.08,0.7-0.19,1.4-0.26,2.09c0.76-6.95,0.48-3.46,0.23-1.83c-1.9,11.93-4.83,23.63-9.19,34.92
			c-0.4,1.03-2.39,5.85-0.86,2.23c1.45-3.45-0.61,1.33-1.14,2.49c-1.34,2.91-2.78,5.79-4.31,8.61c-3.01,5.57-6.38,10.96-10.07,16.1
			c-0.91,1.27-1.89,2.49-2.79,3.76c-0.13,0.19,3.21-4.04,1.6-2.08c-0.21,0.26-0.42,0.53-0.63,0.79c-0.57,0.7-1.13,1.4-1.71,2.1
			c-2.12,2.55-4.32,5.03-6.6,7.44c-4.82,5.08-10,9.76-15.43,14.18c-1.15,0.93-3.92,2.74,1.08-0.8c-0.7,0.5-1.37,1.05-2.07,1.56
			c-1.5,1.12-3.02,2.21-4.56,3.27c-3.05,2.11-6.17,4.11-9.35,6.02c-6.84,4.09-13.96,7.67-21.26,10.89
			c-2.65,1.17-0.35,0.04,1.22-0.51c-1.07,0.37-2.12,0.87-3.18,1.29c-2.03,0.8-4.06,1.57-6.11,2.31c-4.1,1.48-8.23,2.83-12.41,4.07
			c-8.94,2.65-18.04,4.77-27.21,6.44c-2.35,0.43-4.7,0.82-7.06,1.19c-1.2,0.19-2.4,0.36-3.6,0.54c-4.28,0.65,3.82-0.46-0.4,0.06
			c-5.42,0.67-10.85,1.24-16.3,1.66c-11.36,0.88-22.76,1.21-34.16,1.1c-12.38-0.12-24.75-0.78-37.08-1.83
			c-9.49-0.81-18.58,8.93-18.17,18.17c0.47,10.53,8,17.3,18.17,18.17c46.22,3.92,94.4,2.45,138.97-11.53
			c32.66-10.24,63.78-27.51,86.95-53.07c19.48-21.5,33.35-47.8,40.03-76.05c6.19-26.18,6.62-53.09,2.07-79.54
			c-3.51-20.45-10.66-41.75-23.02-58.62c-11.41-15.57-28.16-30.11-48.81-28.92c-23.88,1.38-44.39,20.98-52.11,42.86
			c-4.99,14.13-3.08,30.84,2.06,44.63c6.43,17.26,16.71,32.55,29.45,45.83c29.8,31.06,71.36,49.54,114.12,52.55
			c57.27,4.03,111.04-22.86,152.92-60.04c13.43-11.93,25.73-25.06,37.19-38.87c6.06-7.3,7.69-18.63,0-25.69
			C1261.35,1089.37,1248.84,1087.71,1242.36,1095.52L1242.36,1095.52z"/>
		<path d="M827.85,1261.45c-19.81,13.58-39.61,27.16-59.42,40.75c-9.89,6.78-11.99,19.45-3.68,28.53
			c16.45,17.96,32.89,35.92,49.34,53.88c6.44,7.03,19.25,7.01,25.69,0c6.9-7.51,6.86-18.2,0-25.69
			c-16.45-17.96-32.89-35.92-49.34-53.88c-1.23,9.51-2.45,19.02-3.68,28.53c19.81-13.58,39.61-27.16,59.42-40.75
			c7.82-5.36,12.1-16.2,6.52-24.86C847.69,1260.18,836.23,1255.7,827.85,1261.45L827.85,1261.45z"/>
	</g>
</g>
<path d="M1241.62,896.13c-1.34,0.75-3.05,0.69-4.36-0.27c-1.8-1.32-2.18-3.85-0.86-5.64c7.7-10.47,19.15-20.45,35.02-30.54
	c1.89-1.22,4.38-0.64,5.57,1.24c1.2,1.88,0.64,4.38-1.24,5.57c-15,9.53-25.75,18.86-32.84,28.51
	C1242.55,895.48,1242.11,895.86,1241.62,896.13z"/>
<path d="M1220.46,886.83c-1.32,0.77-3.03,0.76-4.37-0.18c-1.82-1.28-2.26-3.8-0.97-5.63c7.48-10.62,18.73-20.84,34.39-31.25
	c1.87-1.26,4.36-0.73,5.6,1.13c1.23,1.86,0.73,4.36-1.13,5.6c-14.81,9.84-25.36,19.38-32.25,29.17
	C1221.38,886.16,1220.94,886.55,1220.46,886.83z"/>
<path d="M1199.39,881.67c-1.3,0.81-3.01,0.83-4.37-0.08c-1.85-1.24-2.35-3.75-1.11-5.6c7.23-10.79,18.24-21.28,33.64-32.04
	c1.84-1.3,4.34-0.83,5.62,1c1.28,1.83,0.83,4.34-1,5.62c-14.57,10.18-24.89,19.97-31.56,29.92
	C1200.29,880.98,1199.87,881.38,1199.39,881.67z"/>
</svg>
